<?xml version="1.0" standalone="no"?>
<!DOCTYPE svg PUBLIC "-//W3C//DTD SVG 1.1//EN" "http://www.w3.org/Graphics/SVG/1.1/DTD/svg11.dtd" >
<svg xmlns="http://www.w3.org/2000/svg" xmlns:xlink="http://www.w3.org/1999/xlink" version="1.1">
<metadata>
Created by FontForge 20170731 at Tue Nov 10 23:21:35 2020
 By Aleksey,,,
Copyright (c) 2020 by Muhammad Iqbal Firdaus. All rights reserved.
</metadata>
<defs>
<font id="TGFrekuentMono-Regular" horiz-adv-x="1228" >
  <font-face 
    font-family="TG Frekuent Mono"
    font-weight="400"
    font-stretch="normal"
    units-per-em="2048"
    panose-1="0 0 5 0 0 0 0 0 0 0"
    ascent="1638"
    descent="-410"
    x-height="1065"
    cap-height="1434"
    bbox="-944 -612 1378 1999"
    underline-thickness="102"
    underline-position="-307"
    unicode-range="U+0020-2B11"
  />
<missing-glyph 
 />
    <glyph glyph-name=".notdef" 
 />
    <glyph glyph-name=".null" horiz-adv-x="0" 
 />
    <glyph glyph-name="nonmarkingreturn" horiz-adv-x="682" 
 />
    <glyph glyph-name="space" unicode=" " 
 />
    <glyph glyph-name="exclam" unicode="!" 
d="M530 1464h172v-434l-40 -594h-91l-41 594v434zM500 227h233v-227h-233v227z" />
    <glyph glyph-name="quotedbl" unicode="&#x22;" 
d="M395 1434h158v-279l-31 -274h-96l-31 274v279zM676 1434h158v-279l-31 -274h-96l-31 274v279z" />
    <glyph glyph-name="numbersign" unicode="#" 
d="M1192 926h-199v-418h199v-141h-199v-367h-157v367h-443v-367h-157v367h-199v141h199v418h-199v141h199v367h157v-367h443v367h157v-367h199v-141zM836 508v418h-443v-418h443z" />
    <glyph glyph-name="dollar" unicode="$" 
d="M109 436h170q0 -131 73.5 -214.5t202.5 -102.5v571q-234 108 -322 199.5t-88 220.5q2 147 112 242t298 108v137h133v-135q185 -18 301 -126.5t123 -282.5h-172q-7 115 -74 182t-178 78v-522q247 -112 340.5 -209t93.5 -238q0 -162 -117.5 -262t-316.5 -111v-135h-133v137
q-211 20 -328.5 142.5t-117.5 320.5zM315 1106q0 -74 51.5 -129t188.5 -121v461q-112 -10 -176 -67t-64 -144zM688 621v-504q122 9 192 70.5t70 160.5q0 88 -52.5 143t-209.5 130z" />
    <glyph glyph-name="percent" unicode="%" 
d="M115 1204q0 120 57.5 191t155.5 71t155.5 -70.5t57.5 -191.5q0 -120 -57.5 -190t-155.5 -70q-99 0 -156 69.5t-57 190.5zM926 1434h110l-733 -1434h-110zM215 1204q0 -80 29.5 -124t83.5 -44t83 44t29 124t-29 125t-83 45t-83.5 -45t-29.5 -125zM688 229
q0 120 57.5 191.5t155.5 71.5t155.5 -71t57.5 -192q0 -120 -57.5 -190t-155.5 -70t-155.5 70t-57.5 190zM788 229q0 -80 29.5 -124t83.5 -44t83.5 44t29.5 124t-29.5 125t-83.5 45t-83.5 -45t-29.5 -125z" />
    <glyph glyph-name="ampersand" unicode="&#x26;" 
d="M1174 0h-189l-94 94q-74 -61 -161 -93t-208 -32q-86 0 -167.5 27t-147 76t-105 126t-39.5 169q0 120 66.5 210t175.5 140q-72 98 -103.5 178.5t-31.5 163.5q0 180 123 293.5t317 111.5q198 -1 316 -118.5t118 -309.5v-26h-170v26q0 129 -73.5 209t-190.5 80
q-122 0 -196 -74.5t-74 -195.5q0 -111 75 -230t275 -325l205 -205q85 131 61 344h146q28 -288 -109 -449zM233 360q2 -61 31.5 -111t74 -79.5t94.5 -45t97 -15.5q150 0 261 84l-230 235q-110 111 -184 199q-150 -100 -144 -267z" />
    <glyph glyph-name="quotesingle" unicode="'" 
d="M537 1434h155v-279l-30 -274h-95l-30 274v279z" />
    <glyph glyph-name="parenleft" unicode="(" 
d="M420 604q0 282 117 534.5t323 417.5h158q-216 -165 -328 -408t-112 -544t112 -544t328 -408h-158q-206 165 -323 417.5t-117 534.5z" />
    <glyph glyph-name="parenright" unicode=")" 
d="M809 604q0 -282 -117 -534.5t-323 -417.5h-158q216 165 328 408t112 544t-112 544t-328 408h158q206 -165 323 -417.5t117 -534.5z" />
    <glyph glyph-name="asterisk" unicode="*" 
d="M1071 1108l-358 -98l239 -342l-92 -60l-246 350l-243 -348l-95 58l240 340l-356 98l26 106l373 -104v397h111v-395l372 104z" />
    <glyph glyph-name="plus" unicode="+" 
d="M1106 715v-142h-420v-421h-141v421h-422v142h422v420h141v-420h420z" />
    <glyph glyph-name="comma" unicode="," 
d="M465 281h258v-349q0 -111 -53.5 -161t-173.5 -50h-64v89h53q59 0 87 25.5t28 86.5v78h-135v281z" />
    <glyph glyph-name="hyphen" unicode="-" 
d="M324 653h581v-141h-581v141z" />
    <glyph glyph-name="period" unicode="." 
d="M487 281h258v-281h-258v281z" />
    <glyph glyph-name="slash" unicode="/" 
d="M870 1434h168l-680 -1782h-168z" />
    <glyph glyph-name="zero" unicode="0" 
d="M614 1464q249 2 377.5 -186t128.5 -561q0 -372 -128 -560t-378 -188q-249 0 -377 188t-128 560q0 741 505 747zM279 778v-123q3 -84 12 -155l608 608q-77 217 -285 217q-159 0 -242.5 -131t-92.5 -416zM950 655v123q-3 104 -14 172l-610 -610q39 -119 110.5 -175
t177.5 -56q160 0 243.5 130.5t92.5 415.5z" />
    <glyph glyph-name="one" unicode="1" 
d="M733 139h393v-139h-956v139h393v865h-352v139h244q108 0 108 110v181h170v-1295z" />
    <glyph glyph-name="two" unicode="2" 
d="M158 1024v27q0 187 120.5 299t321.5 114q207 2 333 -111.5t126 -303.5q0 -128 -77.5 -259.5t-274.5 -336.5l-283 -301v-13h676v-139h-883v139l367 387q167 182 236 298.5t69 219.5q0 128 -78.5 204.5t-208.5 76.5q-122 0 -198 -76.5t-76 -197.5v-27h-170z" />
    <glyph glyph-name="three" unicode="3" 
d="M330 410v-23q0 -122 81 -200t207 -78q130 0 211.5 82.5t81.5 214.5q0 126 -81 198t-222 72h-94v141h96q110 0 180 72.5t70 187.5q0 112 -67.5 180t-178.5 68q-110 0 -176.5 -71t-66.5 -189v-41h-172v41q0 180 114.5 289.5t300.5 109.5q184 0 299 -103.5t115 -268.5
q0 -115 -62.5 -206.5t-168.5 -131.5v-9q132 -37 206 -130t74 -222q0 -186 -129 -305t-330 -119q-198 0 -329 119.5t-131 298.5v23h172z" />
    <glyph glyph-name="four" unicode="4" 
d="M1157 508v-141h-233v-367h-170v367h-680v141l624 926h226v-926h233zM244 508h510v752z" />
    <glyph glyph-name="five" unicode="5" 
d="M666 911q188 -1 295 -126.5t104 -331.5q-5 -225 -130 -355t-337 -129q-203 2 -327 117.5t-124 302.5v27h170v-27q2 -125 79.5 -202.5t201.5 -77.5q135 0 215 94t80 252q0 157 -74.5 247.5t-208.5 90.5q-81 0 -148.5 -40.5t-107.5 -111.5h-161l59 793h772v-140h-625
l-41 -542l9 -2q46 80 125 120.5t174 40.5z" />
    <glyph glyph-name="six" unicode="6" 
d="M164 614q0 430 119.5 640t363.5 210q172 0 275.5 -90.5t132.5 -265.5h-170q-19 104 -81.5 160.5t-160.5 56.5q-307 0 -307 -647l10 -2q43 101 130.5 158t201.5 57q181 1 294 -122t113 -320q0 -214 -125.5 -348t-322.5 -132q-229 2 -351 165.5t-122 479.5zM346 434
q0 -148 78 -236.5t207 -88.5q128 0 207 91.5t75 233.5q-5 146 -80.5 232t-201.5 86q-129 0 -207 -87.5t-78 -230.5z" />
    <glyph glyph-name="seven" unicode="7" 
d="M113 1294v140h950v-134l-533 -1300h-186l528 1294h-759z" />
    <glyph glyph-name="eight" unicode="8" 
d="M127 387q0 130 81 231t224 148v8q-118 44 -183 129.5t-65 194.5q0 157 123.5 261.5t308.5 104.5t308 -104.5t123 -261.5q0 -110 -65 -196t-183 -128v-8q142 -47 222.5 -148.5t80.5 -230.5q0 -178 -141 -298t-347 -120t-346.5 120t-140.5 298zM350 1081q0 -104 76 -173.5
t190 -69.5t189.5 69t75.5 174q0 106 -75.5 175t-189.5 69t-190 -70t-76 -174zM297 403q0 -126 89.5 -210t227.5 -84t228 83t90 211q0 127 -90 210t-228 83t-227.5 -82.5t-89.5 -210.5z" />
    <glyph glyph-name="nine" unicode="9" 
d="M1081 819q0 -430 -119.5 -640t-363.5 -210q-172 0 -276 91t-132 266h170q17 -104 80.5 -160.5t161.5 -56.5q305 0 305 647l-10 2q-43 -102 -130 -158.5t-202 -56.5q-180 -1 -292.5 122t-112.5 320q0 215 124.5 348t321.5 131q229 -2 352 -166t123 -479zM899 999
q0 147 -78.5 236.5t-206.5 89.5t-207 -92t-75 -234q5 -147 80 -232t202 -85q128 0 206.5 87.5t78.5 229.5z" />
    <glyph glyph-name="colon" unicode=":" 
d="M487 1065h261v-281h-261v281zM487 281h261v-281h-261v281z" />
    <glyph glyph-name="semicolon" unicode=";" 
d="M479 1065h260v-281h-260v281zM479 0v281h260v-349q0 -110 -54.5 -160.5t-174.5 -50.5h-64v89h54q59 0 87.5 25.5t28.5 86.5v78h-137z" />
    <glyph glyph-name="less" unicode="&#x3c;" 
d="M1055 158l-881 417v185l881 418v-181l-693 -323v-12l693 -324v-180z" />
    <glyph glyph-name="equal" unicode="=" 
d="M123 930h983v-142h-983v142zM123 449h983v-142h-983v142z" />
    <glyph glyph-name="greater" unicode="&#x3e;" 
d="M174 158v180l692 324v12l-692 323v181l881 -418v-185z" />
    <glyph glyph-name="question" unicode="?" 
d="M514 436v39q0 59 21 108t54.5 84t74 66.5t81.5 63t74.5 66t54.5 82.5t21 106q0 123 -82.5 198.5t-210.5 75.5q-132 0 -207.5 -78t-75.5 -200v-23h-169v27q0 185 121.5 298.5t326.5 114.5q210 1 338.5 -113t128.5 -296q0 -69 -21 -127t-54.5 -98.5t-74 -76t-81 -66.5
t-74 -62t-55 -71t-21.5 -85v-33h-170zM479 227h240v-227h-240v227z" />
    <glyph glyph-name="at" unicode="@" 
d="M1116 0h-121v272h-8q-23 -98 -89.5 -155.5t-152.5 -57.5q-147 0 -231 126.5t-84 346.5q0 219 84 345.5t231 126.5q85 0 151 -59.5t91 -160.5h8v154q0 218 -92 336.5t-258 118.5q-420 0 -420 -793v-125q0 -400 126 -601.5t386 -201.5h285v-112h-285q-327 0 -481 239
t-154 738q0 494 133 731t410 237q229 0 350 -145.5t121 -419.5v-940zM770 168q104 0 164.5 98t60.5 266q0 166 -60.5 264.5t-164.5 98.5q-99 0 -158 -98t-59 -265q0 -168 59 -266t158 -98z" />
    <glyph glyph-name="A" unicode="A" 
d="M981 0l-117 408h-499l-117 -408h-180l426 1434h241l426 -1434h-180zM406 547h417l-209 729z" />
    <glyph glyph-name="B" unicode="B" 
d="M143 0v1434h496q191 0 297 -101t106 -260q0 -110 -57.5 -194.5t-159.5 -116.5v-8q127 -29 202 -126t75 -227q0 -181 -115 -291t-338 -110h-506zM313 819h316q104 0 173.5 67.5t69.5 168.5q0 105 -70 172t-188 67h-301v-475zM313 139h312q145 0 226 75.5t81 197.5
q0 118 -81 192t-220 74h-318v-539z" />
    <glyph glyph-name="C" unicode="C" 
d="M119 717q0 362 134.5 553t375.5 194q210 1 332 -136t133 -365h-170q-8 164 -84 263t-211 99q-158 0 -246 -139t-94 -408v-123q6 -261 94.5 -403.5t245.5 -142.5q131 0 209 97t86 265h170q-11 -233 -135 -368t-330 -134q-245 3 -377.5 197.5t-132.5 550.5z" />
    <glyph glyph-name="D" unicode="D" 
d="M551 1434q300 0 432.5 -167.5t132.5 -547.5q0 -381 -133 -550t-432 -169h-381v1434h381zM946 666v104q0 275 -99 399.5t-319 124.5h-186v-1155h186q219 0 318.5 125.5t99.5 401.5z" />
    <glyph glyph-name="E" unicode="E" 
d="M1126 1294h-782v-506h721v-141h-721v-508h782v-139h-952v1434h952v-140z" />
    <glyph glyph-name="F" unicode="F" 
d="M1126 1294h-782v-536h721v-142h-721v-616h-170v1434h952v-140z" />
    <glyph glyph-name="G" unicode="G" 
d="M119 717q0 360 135 552t375 195q210 1 332 -136t133 -365h-170q-9 165 -84 263.5t-211 98.5q-157 0 -245.5 -140t-94.5 -407v-123q6 -260 95 -403t245 -143q146 0 220.5 112.5t74.5 296.5v125h170v-643h-156v260h-12q-58 -291 -324 -291q-227 0 -355 199t-128 549z" />
    <glyph glyph-name="H" unicode="H" 
d="M936 1434h170v-1434h-170v709h-643v-709h-170v1434h170v-584h643v584z" />
    <glyph glyph-name="I" unicode="I" 
d="M1090 1294h-390v-1155h390v-139h-951v139h389v1155h-389v140h951v-140z" />
    <glyph glyph-name="J" unicode="J" 
d="M143 422v63h170v-67q0 -148 67.5 -227.5t192.5 -79.5t193 80t68 227v876h-568v140h608q62 0 96 -34t34 -95v-883q-3 -218 -115 -335.5t-316 -117.5q-203 0 -316.5 119t-113.5 334z" />
    <glyph glyph-name="K" unicode="K" 
d="M977 0l-432 725l-232 -287v-438h-170v1434h170v-729l594 729h211l-459 -568l515 -866h-197z" />
    <glyph glyph-name="L" unicode="L" 
d="M352 139h768v-139h-940v1434h172v-1295z" />
    <glyph glyph-name="M" unicode="M" 
d="M88 0v1434h236l288 -660h4l287 660h236v-1434h-172v1237h-2l-285 -637h-133l-285 637h-2v-1237h-172z" />
    <glyph glyph-name="N" unicode="N" 
d="M127 0v1434h225l580 -1172v1172h170v-1434h-225l-580 1174v-1174h-170z" />
    <glyph glyph-name="O" unicode="O" 
d="M109 717q0 741 505 747q249 2 377.5 -186t128.5 -561q0 -372 -128 -560t-378 -188q-249 0 -377 188t-128 560zM279 655q9 -285 92 -415.5t243 -130.5t243.5 130.5t92.5 415.5v123q-9 283 -92 415t-244 132q-159 0 -242.5 -131t-92.5 -416v-123z" />
    <glyph glyph-name="P" unicode="P" 
d="M158 0v1434h518q198 0 312 -112.5t114 -307.5q0 -194 -115 -307t-311 -113h-348v-594h-170zM328 735h311q134 0 213.5 75t79.5 204q0 128 -80 204t-213 76h-311v-559z" />
    <glyph glyph-name="Q" unicode="Q" 
d="M109 717q0 741 505 747q249 2 377.5 -186t128.5 -561q0 -331 -116 -541q-60 -116 -194.5 -236.5t-297.5 -203.5v-8h582v-142h-875v117q131 46 276 130.5t214 156.5l-9 10q-49 -29 -106 -29q-232 0 -358.5 194.5t-126.5 551.5zM279 655q9 -287 93 -416.5t242 -129.5
q159 0 243 129.5t93 416.5v123q-9 284 -93 415.5t-243 131.5q-157 0 -241.5 -130.5t-93.5 -416.5v-123z" />
    <glyph glyph-name="R" unicode="R" 
d="M975 711q62 0 95.5 -34t33.5 -97v-580h-170v614h-604v-614h-172v1434h522q205 0 314.5 -110t109.5 -286q0 -108 -58 -191t-163 -124v-12h92zM647 756q139 0 221 73.5t82 196.5q0 120 -83 194t-220 74h-317v-538h317z" />
    <glyph glyph-name="S" unicode="S" 
d="M623 1325q-144 0 -226 -59t-82 -160q0 -89 71.5 -151.5t275.5 -153.5q131 -57 212.5 -103t140 -100t83 -114.5t24.5 -139.5q0 -171 -131.5 -273t-351.5 -102q-248 0 -389 124.5t-141 342.5h170q0 -152 95.5 -239.5t258.5 -87.5q149 0 233 64t84 175q0 33 -7.5 61.5
t-19.5 51.5t-36.5 45.5t-48 40t-66 39.5t-79 39.5t-97.5 44.5q-260 117 -356.5 211t-94.5 229q2 160 131 257t345 97q213 2 348.5 -110t142.5 -301h-172q-7 131 -92 201.5t-225 70.5z" />
    <glyph glyph-name="T" unicode="T" 
d="M1153 1434v-140h-453v-1294h-172v1294h-452v140h1077z" />
    <glyph glyph-name="U" unicode="U" 
d="M143 422v1012h170v-1004q0 -136 85.5 -227.5t215.5 -91.5t215.5 91.5t85.5 227.5v1004h170v-1012q-4 -198 -137 -325.5t-334 -127.5t-334 127.5t-137 325.5z" />
    <glyph glyph-name="V" unicode="V" 
d="M88 1434h178l348 -1276l349 1276h178l-410 -1434h-233z" />
    <glyph glyph-name="W" unicode="W" 
d="M72 1434h172l106 -1201h2l195 771h133l194 -775h5l106 1205h170l-125 -1434h-237l-177 756h-4l-178 -756h-237z" />
    <glyph glyph-name="X" unicode="X" 
d="M61 0l443 719l-443 715h199l354 -580l353 580h198l-438 -711l438 -723h-196l-353 569l-356 -569h-199z" />
    <glyph glyph-name="Y" unicode="Y" 
d="M698 649l4 -510h390v-139h-951v139h394l-5 510l-495 785h201l378 -609l379 609h199z" />
    <glyph glyph-name="Z" unicode="Z" 
d="M309 147h821v-147h-1032v139l801 1147h-780v148h991v-146z" />
    <glyph glyph-name="bracketleft" unicode="[" 
d="M1034 1366h-403v-1575h403v-139h-559v1853h559v-139z" />
    <glyph glyph-name="backslash" unicode="\" 
d="M358 1434l680 -1782h-168l-680 1782h168z" />
    <glyph glyph-name="bracketright" unicode="]" 
d="M754 1505v-1853h-559v139h403v1575h-403v139h559z" />
    <glyph glyph-name="asciicircum" unicode="^" 
d="M186 651l342 783h172l344 -783h-172l-254 600h-8l-252 -600h-172z" />
    <glyph glyph-name="underscore" unicode="_" 
d="M324 -76h581v-141h-581v141z" />
    <glyph glyph-name="grave" unicode="`" 
d="M541 1550l229 -260l-55 -57l-260 233z" />
    <glyph glyph-name="a" unicode="a" 
d="M156 272q0 139 103 223t314 91l244 8v104q0 145 -59.5 208t-167.5 63q-96 0 -158.5 -64.5t-62.5 -165.5h-170q0 161 109.5 261t281.5 100q181 0 289 -103.5t108 -304.5v-450q0 -103 103 -103h53v-139h-88q-93 0 -149.5 46t-63.5 130h-13q-22 -77 -109.5 -142.5
t-213.5 -64.5q-155 1 -252.5 86t-97.5 217zM330 281q0 -87 58.5 -139t154.5 -52q119 1 196.5 84.5t77.5 208.5v102l-213 -4q-139 -3 -206.5 -57t-67.5 -143z" />
    <glyph glyph-name="b" unicode="b" 
d="M659 1100q201 0 318 -151.5t117 -413.5t-117 -414t-318 -152q-117 0 -209 69t-139 195h-10v-233h-172v1505h172v-678h10q47 130 138 201.5t210 71.5zM612 109q145 0 228.5 114.5t83.5 311.5t-83.5 311.5t-228.5 114.5q-144 0 -227.5 -114.5t-83.5 -311.5t83.5 -311.5
t227.5 -114.5z" />
    <glyph glyph-name="c" unicode="c" 
d="M145 535q0 259 129.5 412t350.5 153q180 0 292 -104.5t134 -290.5h-170q-17 119 -84.5 186t-171.5 67q-141 0 -225.5 -116t-84.5 -307q0 -195 84.5 -310.5t225.5 -115.5q103 0 170 67t86 186h170q-22 -185 -133.5 -289t-292.5 -104q-221 0 -350.5 153.5t-129.5 412.5z
" />
    <glyph glyph-name="d" unicode="d" 
d="M901 1505h170v-1505h-170v233h-12q-47 -126 -138 -195t-210 -69q-201 0 -316.5 151.5t-115.5 414.5t115.5 414t316.5 151q120 0 210.5 -71t137.5 -202h12v678zM590 109q143 0 226 115t83 311t-83 311t-226 115q-144 0 -227.5 -114.5t-83.5 -311.5t83.5 -311.5
t227.5 -114.5z" />
    <glyph glyph-name="e" unicode="e" 
d="M614 109q110 0 179 65.5t88 187.5h170q-22 -186 -134.5 -289.5t-295.5 -103.5q-217 0 -346.5 153.5t-129.5 412.5t129 412t347 153q214 0 326.5 -150t115.5 -438h-748q6 -181 89 -292t210 -111zM614 958q-120 0 -199 -92.5t-96 -251.5h570q-11 164 -82 254t-193 90z" />
    <glyph glyph-name="f" unicode="f" 
d="M823 1366q-69 0 -106 -37t-37 -106v-158h412v-139h-412v-787h432v-139h-942v139h338v787h-338v139h338v147q0 141 76.5 217t218.5 76h330v-139h-310z" />
    <glyph glyph-name="g" unicode="g" 
d="M1139 1083h-215v-118q104 -119 104 -314q0 -202 -117 -323t-311 -121q-33 0 -47 2q-95 0 -151 -27t-56 -73q0 -37 33.5 -56.5t95.5 -19.5h316q155 0 240 -71t85 -200q0 -128 -81 -197t-230 -69h-424q-133 0 -216 67.5t-83 174.5q0 86 57.5 143.5t155.5 67.5v10
q-42 15 -66 46.5t-24 70.5q0 71 61.5 108t179.5 37v8q-130 43 -203 154t-73 268q0 204 117.5 326.5t312.5 122.5q110 0 191 -37v22q0 69 35.5 104.5t101.5 35.5h211v-142zM600 350q118 0 188 81.5t70 219.5q0 137 -65 217q-69 88 -193 88q-119 0 -188.5 -82t-69.5 -223
q0 -138 70 -219.5t188 -81.5zM424 -106q-78 0 -124 -37.5t-46 -100.5q0 -121 170 -121h350q83 0 127.5 33.5t44.5 93.5q0 62 -45.5 97t-126.5 35h-350z" />
    <glyph glyph-name="h" unicode="h" 
d="M707 1100q163 0 260.5 -111t97.5 -313v-676h-170v625q0 158 -64 235.5t-182 77.5t-202.5 -102.5t-84.5 -249.5v-586h-172v1505h172v-674h11q38 127 127 198t207 71z" />
    <glyph glyph-name="i" unicode="i" 
d="M743 1542v-242h-170v242h170zM752 139h399v-139h-971v139h400v787h-400v139h455q57 0 87 -30t30 -87v-809z" />
    <glyph glyph-name="j" unicode="j" 
d="M825 1542h172v-242h-172v242zM223 -399v139h469q69 0 106.5 37t37.5 106v1043h-531v139h572q61 0 95 -33.5t34 -95.5v-1042q0 -141 -76 -217t-217 -76h-490z" />
    <glyph glyph-name="k" unicode="k" 
d="M926 0l-365 598l-239 -215v-383h-170v1505h170v-911l528 471h231l-393 -354l428 -711h-190z" />
    <glyph glyph-name="l" unicode="l" 
d="M752 139h399v-139h-971v139h400v1227h-400v139h455q117 0 117 -116v-1250z" />
    <glyph glyph-name="m" unicode="m" 
d="M920 1100q113 0 170 -76.5t57 -214.5v-809h-164v760q0 87 -33 133.5t-92 46.5q-75 0 -121.5 -71.5t-46.5 -202.5v-666h-151v760q0 87 -32.5 133.5t-92.5 46.5q-73 0 -120.5 -75t-47.5 -199v-666h-164v1065h164v-166h12q28 93 80.5 147t128.5 54q92 0 147 -52t70 -149h10
q28 88 87 144.5t139 56.5z" />
    <glyph glyph-name="n" unicode="n" 
d="M707 1100q163 0 260.5 -111t97.5 -313v-676h-170v625q0 158 -64 235.5t-182 77.5t-202.5 -102.5t-84.5 -249.5v-586h-172v1065h172v-234h11q38 127 127 198t207 71z" />
    <glyph glyph-name="o" unicode="o" 
d="M145 535q0 263 125.5 414t343.5 151t343.5 -151t125.5 -414t-125.5 -414.5t-343.5 -151.5t-343.5 151.5t-125.5 414.5zM317 535q0 -200 79 -313t218 -113t218 113t79 313q0 199 -78.5 311t-218.5 112t-218.5 -112t-78.5 -311z" />
    <glyph glyph-name="p" unicode="p" 
d="M694 1098q201 0 316.5 -150.5t115.5 -412.5t-116.5 -414t-317.5 -152q-119 0 -210 70.5t-138 200.5h-10v-680h-172v1505h172v-229h10q47 125 139 193.5t211 68.5zM647 109q143 0 226 114t83 312q0 196 -83 309.5t-226 113.5q-145 0 -229 -113.5t-84 -309.5
q0 -197 84 -311.5t229 -114.5z" />
    <glyph glyph-name="q" unicode="q" 
d="M928 1065h172v-1505h-172v680h-10q-47 -130 -138.5 -200.5t-210.5 -70.5q-201 0 -317.5 152t-116.5 414t116.5 413.5t317.5 151.5q118 0 210 -69.5t139 -194.5h10v229zM616 109q145 0 228.5 114.5t83.5 311.5q0 196 -83.5 309.5t-228.5 113.5t-228 -113t-83 -310
q0 -198 83 -312t228 -114z" />
    <glyph glyph-name="r" unicode="r" 
d="M618 563v-424h508v-139h-1003v139h323v787h-323v139h379q116 0 116 -117v-151h11q41 133 130 200.5t236 67.5h146v-160h-180q-158 0 -250.5 -98t-92.5 -244z" />
    <glyph glyph-name="s" unicode="s" 
d="M623 963q-110 0 -178 -41t-68 -109q0 -28 12.5 -51t33 -40.5t56.5 -35.5t73.5 -33t92.5 -36q9 -3 14 -5q14 -5 42 -16q48 -18 72.5 -27.5t68.5 -29.5t68.5 -36.5t56 -43t48 -53.5t28.5 -63.5t12 -78.5q0 -73 -34.5 -131t-94 -93t-133 -53t-156.5 -18q-206 0 -333 96
t-130 271h172q0 -61 25 -107t68 -72t92.5 -38.5t105.5 -12.5q111 0 179.5 42.5t68.5 113.5q0 20 -4.5 37.5t-16 33t-22 28t-31.5 25t-35 20.5t-41.5 19.5t-43 17t-47.5 17.5t-46 17q-168 66 -215 90q-131 68 -164 162q-14 39 -14 86q0 130 115 207.5t301 77.5q185 0 301 -85
t125 -251h-170q-6 95 -73 147t-181 52z" />
    <glyph glyph-name="t" unicode="t" 
d="M47 926v139h256q82 0 82 82v287h172v-369h508v-139h-508v-672q0 -56 27.5 -85.5t79.5 -29.5h421v-139h-442q-125 0 -191.5 67t-66.5 191v668h-338z" />
    <glyph glyph-name="u" unicode="u" 
d="M881 1065h170v-1065h-170v233h-13q-38 -127 -126 -197.5t-207 -70.5q-163 0 -260 111t-97 313v676h170v-625q0 -158 64 -235.5t180 -77.5q119 0 204 102.5t85 249.5v586z" />
    <glyph glyph-name="v" unicode="v" 
d="M96 1065h174l344 -934l342 934h177l-402 -1065h-235z" />
    <glyph glyph-name="w" unicode="w" 
d="M41 1065h172l154 -911h6l159 911h166l160 -911h6l154 911h172l-186 -1065h-242l-144 831h-4l-145 -831h-242z" />
    <glyph glyph-name="x" unicode="x" 
d="M1116 1065l-391 -533l391 -532h-201l-301 410l-299 -410h-200l389 532l-389 533h200l299 -410l301 410h201z" />
    <glyph glyph-name="y" unicode="y" 
d="M92 1065h184l355 -883l321 883h183l-508 -1327q-66 -178 -258 -178h-222v139h215q82 0 109 76l68 174q10 30 0 53z" />
    <glyph glyph-name="z" unicode="z" 
d="M373 147h686v-147h-889v137l668 781h-648v147h848v-137z" />
    <glyph glyph-name="braceleft" unicode="{" 
d="M219 510v139h307q53 0 74 29t2 80l-164 463q-46 129 9 206.5t192 77.5h371v-139h-348q-49 0 -69 -28t-5 -74l166 -459q38 -106 3.5 -162.5t-134.5 -56.5v-13q100 0 134.5 -57t-3.5 -164l-166 -456q-15 -47 5 -75t69 -28h348v-141h-371q-137 0 -192 78.5t-9 208.5l164 460
q19 51 -2 81t-74 30h-307z" />
    <glyph glyph-name="bar" unicode="|" 
d="M537 1434h155v-1751h-155v1751z" />
    <glyph glyph-name="braceright" unicode="}" 
d="M1010 510h-308q-53 0 -73.5 -30t-1.5 -81l164 -460q46 -130 -9 -208.5t-192 -78.5h-371v141h348q49 0 69 28t5 75l-166 456q-38 107 -3.5 164t134.5 57v13q-100 0 -134.5 56.5t3.5 162.5l166 459q15 46 -5 74t-69 28h-348v139h371q137 0 192 -77.5t9 -206.5l-164 -463
q-19 -51 1.5 -80t73.5 -29h308v-139z" />
    <glyph glyph-name="asciitilde" unicode="~" 
d="M47 518q107 268 307 268q60 0 107.5 -20t179.5 -94q99 -57 141.5 -73.5t83.5 -14.5q70 3 112 43.5t95 154.5l94 -51q-57 -139 -127.5 -200.5t-173.5 -61.5q-111 0 -268 98q-93 58 -145.5 80.5t-94.5 22.5q-66 0 -118 -48t-101 -155z" />
    <glyph glyph-name="exclamdown" unicode="&#xa1;" 
d="M500 838v227h233v-227h-233zM530 -399v434l41 594h91l40 -594v-434h-172z" />
    <glyph glyph-name="cent" unicode="&#xa2;" 
d="M684 295q85 13 139.5 78.5t71.5 171.5h170q-20 -172 -120 -275.5t-261 -115.5v-154h-133v158q-183 31 -287 179t-104 380t104 380t287 179v158h133v-154q160 -12 260.5 -116t120.5 -277h-170q-17 105 -72 171t-139 79v-842zM330 717q0 -162 59 -271t162 -141v821
q-103 -34 -162 -142.5t-59 -266.5z" />
    <glyph glyph-name="sterling" unicode="&#xa3;" 
d="M1151 1055h-172v24q0 119 -70.5 191.5t-185.5 72.5q-118 0 -190 -77t-72 -205v-238h391v-141h-391v-543h377q45 0 69.5 25.5t24.5 71.5v110h172v-127q0 -106 -56.5 -162.5t-162.5 -56.5h-799v139h205v543h-205v141h205v238q0 194 116 308t314 114q193 0 311.5 -111
t118.5 -293v-24z" />
    <glyph glyph-name="yen" unicode="&#xa5;" 
d="M698 522l4 -383h390v-139h-951v139h394l-5 383h-393v127h393l-495 785h201l378 -609l379 609h199l-494 -785h389v-127h-389z" />
    <glyph glyph-name="brokenbar" unicode="&#xa6;" 
d="M537 1434h155v-686h-155v686zM537 451h155v-687h-155v687z" />
    <glyph glyph-name="section" unicode="&#xa7;" 
d="M963 461q96 -75 96 -197q0 -132 -115.5 -213.5t-304.5 -81.5q-211 0 -334.5 98.5t-126.5 268.5h170q0 -104 79.5 -167t211.5 -63q114 0 181 42.5t67 113.5q0 65 -56 107t-229 108q-232 89 -312.5 156t-80.5 170q0 53 31.5 100t81.5 74q-63 41 -88 88.5t-25 114.5
q0 129 113 206.5t301 77.5q193 0 306 -89t122 -247h-172q-6 95 -72 147t-182 52q-110 1 -178 -40t-68 -109q0 -58 54 -96.5t229 -104.5q227 -85 312 -158.5t85 -183.5q0 -51 -26 -97.5t-70 -76.5zM662 612q152 -59 227 -102q39 42 39 102q2 65 -60.5 110t-265.5 122
q-142 55 -207 90q-62 -43 -59 -107q0 -41 24.5 -69t91 -60t210.5 -86z" />
    <glyph glyph-name="dieresis" unicode="&#xa8;" 
d="M430 1300q-108 0 -108 109q0 107 108 107q107 0 107 -107q0 -109 -107 -109zM801 1300q-109 0 -109 109q0 107 109 107q106 0 106 -107q0 -109 -106 -109z" />
    <glyph glyph-name="copyright" unicode="&#xa9;" 
d="M614 -31q-246 0 -381 196t-135 552q0 355 135 550t381 197q246 3 381 -192.5t135 -554.5q0 -356 -135 -552t-381 -196zM614 49q204 0 315 174t113 494q0 320 -112 493.5t-316 173.5t-316 -174t-112 -493q1 -319 113 -493.5t315 -174.5zM627 377q-128 0 -204.5 93.5
t-76.5 248.5t76.5 248.5t204.5 93.5q103 0 169.5 -64t80.5 -174h-113q-7 64 -44 102t-93 40q-78 0 -125 -67.5t-47 -178.5q0 -112 47 -178t125 -68q55 0 91.5 37t45.5 102l113 2q-13 -112 -80 -175.5t-170 -61.5z" />
    <glyph glyph-name="guillemotleft" unicode="&#xab;" 
d="M467 160l-352 401l352 397h164l-334 -395v-4l334 -399h-164zM950 160l-352 401l352 397h164l-334 -395v-4l334 -399h-164z" />
    <glyph glyph-name="logicalnot" unicode="&#xac;" 
d="M154 653h921v-446h-157v305h-764v141z" />
    <glyph glyph-name="registered" unicode="&#xae;" 
d="M614 1464q246 3 381 -192.5t135 -554.5q0 -356 -135 -552t-381 -196t-381 196t-135 552q0 355 135 550t381 197zM614 49q204 0 315 174t113 494q0 320 -112 493.5t-316 173.5t-316 -174t-112 -493q1 -319 113 -493.5t315 -174.5zM844 877q0 -98 -99 -150v-6h43
q56 0 56 -55v-289h-101v280h-243v-280h-101v688h242q94 1 148.5 -49.5t54.5 -138.5zM606 752q134 0 137 116q0 53 -36.5 81t-100.5 28h-106v-225h106z" />
    <glyph glyph-name="macron" unicode="&#xaf;" 
d="M342 1448h543v-121h-543v121z" />
    <glyph glyph-name="degree" unicode="&#xb0;" 
d="M614 811q-136 0 -231.5 95.5t-95.5 232.5q0 135 95.5 230t231.5 95q135 0 230.5 -95t95.5 -230q0 -136 -95.5 -232t-230.5 -96zM614 936q83 0 142 59t59 144q0 83 -59 141.5t-142 58.5q-85 0 -143.5 -58.5t-58.5 -141.5q0 -85 58.5 -144t143.5 -59z" />
    <glyph glyph-name="plusminus" unicode="&#xb1;" 
d="M686 899h420v-141h-420v-371h-141v371h-422v141h422v369h141v-369zM123 96v142h983v-142h-983z" />
    <glyph glyph-name="uni00B2" unicode="&#xb2;" 
d="M338 1204v15q0 110 73 177.5t193 67.5q115 0 188.5 -63t73.5 -168q0 -65 -38 -128t-146 -200q-22 -27 -33 -41l-114 -135v-6h356v-107h-518v97l176 200q117 140 155.5 199t38.5 117q0 65 -40 97t-99 32q-58 0 -97.5 -35.5t-39.5 -103.5v-15h-129z" />
    <glyph glyph-name="uni00B3" unicode="&#xb3;" 
d="M475 850v-12q0 -62 40 -100.5t101 -37.5q62 0 100 41.5t38 108.5q0 69 -38.5 106t-109.5 37h-55v105h55q58 0 88.5 37t30.5 106q0 54 -30 85.5t-81 31.5q-53 0 -83.5 -33.5t-30.5 -93.5v-23h-131v25q0 103 67 167t176 64q107 0 175.5 -61t68.5 -158q0 -72 -37 -125.5
t-98 -68.5v-4q75 -15 119.5 -71t44.5 -134q0 -106 -77 -177t-192 -71q-117 0 -194.5 69t-77.5 175v12h131z" />
    <glyph glyph-name="acute" unicode="&#xb4;" 
d="M686 1550l86 -84l-260 -233l-55 57z" />
    <glyph glyph-name="uni00B5" unicode="&#xb5;" 
d="M907 1065h170v-1065h-170v190h-12q-30 -104 -106.5 -162.5t-174.5 -58.5q-101 0 -177.5 57.5t-108.5 163.5h-11v-514h-170v1389h170v-612q0 -142 87 -243t208 -101q122 0 208.5 100t86.5 244v612z" />
    <glyph glyph-name="paragraph" unicode="&#xb6;" 
d="M1059 1434v-1649q0 -123 -65.5 -187.5t-188.5 -64.5h-217v113h217q63 0 97 33t34 96v1546h-178v-1501h-170v827h-99q-163 0 -278 115t-115 278t115 278.5t278 115.5h570z" />
    <glyph glyph-name="periodcentered" unicode="&#xb7;" 
d="M614 567q-147 0 -147 148q0 147 147 147q148 0 148 -147q0 -148 -148 -148z" />
    <glyph glyph-name="cedilla" unicode="&#xb8;" 
d="M391 -436v90q109 -45 199 -45q68 0 106 26.5t43 71.5q3 32 -14.5 54t-50.5 28q-62 13 -117 -35l-74 37l45 221h95l-37 -180l4 -2q25 20 60.5 30.5t66.5 6.5q59 -9 91.5 -52.5t29.5 -107.5q-3 -78 -70 -131t-182 -53q-108 0 -195 41z" />
    <glyph glyph-name="uni00B9" unicode="&#xb9;" 
d="M680 723h211v-107h-555v107h211v444h-187v105h105q82 0 82 82v80h133v-711z" />
    <glyph glyph-name="guillemotright" unicode="&#xbb;" 
d="M279 160h-164l334 399v4l-334 395h164l352 -397zM762 160h-164l334 399v4l-334 395h164l352 -397z" />
    <glyph glyph-name="onequarter" unicode="&#xbc;" 
d="M440 911v82h125v256h-110v82h59q51 0 51 51v52h99v-441h124v-82h-348zM250 743h729v-81h-729v81zM408 113v82l188 297h125v-297h84v-82h-84v-113h-96v113h-217zM498 195h127v202z" />
    <glyph glyph-name="onehalf" unicode="&#xbd;" 
d="M440 911v82h125v256h-110v82h59q51 0 51 51v52h99v-441h124v-82h-348zM250 743h729v-81h-729v81zM438 336v14q0 68 43.5 105t116.5 37q71 0 113.5 -33.5t42.5 -93.5q0 -47 -26.5 -97.5t-92.5 -128.5l-47 -55v-2h196v-82h-327v70l104 123q59 66 78.5 100t19.5 67
q0 25 -16.5 40.5t-44.5 15.5q-63 0 -63 -72v-8h-97z" />
    <glyph glyph-name="threequarters" unicode="&#xbe;" 
d="M557 1096v-11q0 -31 17.5 -49t48.5 -18q28 0 44.5 19.5t16.5 54.5q0 75 -68 75h-28v70h22q26 0 41 19t15 53q0 59 -48 59q-23 0 -36 -15.5t-13 -43.5v-17h-96v17q0 62 39 98.5t106 36.5q65 0 105.5 -35t40.5 -92q0 -39 -20 -68.5t-56 -42.5v-4q46 -9 70.5 -40.5
t23.5 -80.5q-1 -63 -45.5 -101t-113.5 -38q-74 0 -119 39.5t-45 103.5v11h98zM250 743h729v-81h-729v81zM414 113v82l188 297h127v-297h82v-82h-82v-113h-98v113h-217zM506 195h125v202z" />
    <glyph glyph-name="questiondown" unicode="&#xbf;" 
d="M735 838h-239v227h239v-227zM700 629v-39q0 -59 -21 -108t-54.5 -84t-74.5 -66.5t-81.5 -63t-74 -66t-54.5 -82.5t-21 -106q0 -123 82.5 -198.5t210.5 -75.5q132 0 207.5 78t75.5 200v23h170v-27q0 -185 -122 -298.5t-327 -114.5q-210 -1 -338 113t-128 296q0 69 21 127
t54 98.5t73.5 76t81 66.5t74 62t55 71t21.5 85v33h170z" />
    <glyph glyph-name="Agrave" unicode="&#xc0;" 
d="M672 1659l-56 -57l-260 233l86 84zM981 0l-117 408h-499l-117 -408h-180l426 1434h241l426 -1434h-180zM406 547h417l-209 729z" />
    <glyph glyph-name="Aacute" unicode="&#xc1;" 
d="M872 1835l-260 -233l-55 57l229 260zM981 0l-117 408h-499l-117 -408h-180l426 1434h241l426 -1434h-180zM406 547h417l-209 729z" />
    <glyph glyph-name="Acircumflex" unicode="&#xc2;" 
d="M612 1790l-213 -207l-47 51l197 250h129l196 -250l-47 -51l-213 207h-2zM981 0l-117 408h-499l-117 -408h-180l426 1434h241l426 -1434h-180zM406 547h417l-209 729z" />
    <glyph glyph-name="Atilde" unicode="&#xc3;" 
d="M473 1745q-34 0 -61 -23.5t-54 -79.5l-73 44q33 81 81.5 126.5t108.5 45.5q30 0 55.5 -9.5t90.5 -44.5q54 -30 77.5 -39.5t46.5 -9.5q39 0 68 26t59 81l72 -43q-35 -83 -86 -130t-113 -47q-37 0 -70.5 12.5t-90.5 47.5q-46 26 -67.5 34.5t-43.5 8.5zM981 0l-117 408h-499
l-117 -408h-180l426 1434h241l426 -1434h-180zM406 547h417l-209 729z" />
    <glyph glyph-name="Adieresis" unicode="&#xc4;" 
d="M430 1614q-108 0 -108 108q0 107 108 107q107 0 107 -107q0 -108 -107 -108zM801 1614q-109 0 -109 108q0 107 109 107q106 0 106 -107q0 -108 -106 -108zM981 0l-117 408h-499l-117 -408h-180l426 1434h241l426 -1434h-180zM406 547h417l-209 729z" />
    <glyph glyph-name="Aring" unicode="&#xc5;" 
d="M614 1593q-86 0 -144 58.5t-58 144.5q0 84 58.5 143.5t143.5 59.5q84 0 143.5 -59.5t59.5 -143.5q0 -86 -59 -144.5t-144 -58.5zM614 1909q-47 0 -79.5 -33.5t-32.5 -79.5q0 -48 32.5 -81.5t79.5 -33.5q46 0 79.5 34t33.5 81q0 46 -33.5 79.5t-79.5 33.5zM981 0l-117 408
h-499l-117 -408h-180l426 1434h241l426 -1434h-180zM406 547h417l-209 729z" />
    <glyph glyph-name="AE" unicode="&#xc6;" 
d="M1188 1294h-449v-506h387v-141h-387v-508h449v-139h-619v408h-266l-102 -408h-178l378 1434h787v-140zM569 547v747h-45l-186 -747h231z" />
    <glyph glyph-name="Ccedilla" unicode="&#xc7;" 
d="M629 109q131 0 209 97t86 265h170q-11 -221 -122.5 -354.5t-299.5 -145.5l-31 -151l4 -2q25 20 60.5 30.5t66.5 6.5q59 -9 91.5 -52.5t29.5 -107.5q-3 -78 -70 -131t-182 -53q-111 0 -195 40v91q109 -45 199 -45q68 0 106.5 26.5t43.5 71.5q3 32 -15 54t-51 28
q-62 13 -117 -35l-73 37l39 192q-220 23 -339.5 216t-119.5 530q0 362 134.5 553t375.5 194q210 1 332 -136t133 -365h-170q-8 164 -84 263t-211 99q-158 0 -246 -139t-94 -408v-123q6 -261 94.5 -403.5t245.5 -142.5z" />
    <glyph glyph-name="Egrave" unicode="&#xc8;" 
d="M686 1659l-55 -57l-260 233l86 84zM1126 1294h-782v-506h721v-141h-721v-508h782v-139h-952v1434h952v-140z" />
    <glyph glyph-name="Eacute" unicode="&#xc9;" 
d="M889 1835l-260 -233l-56 57l230 260zM1126 1294h-782v-506h721v-141h-721v-508h782v-139h-952v1434h952v-140z" />
    <glyph glyph-name="Ecircumflex" unicode="&#xca;" 
d="M627 1790l-213 -207l-47 51l196 250h129l197 -250l-47 -51l-213 207h-2zM1126 1294h-782v-506h721v-141h-721v-508h782v-139h-952v1434h952v-140z" />
    <glyph glyph-name="Edieresis" unicode="&#xcb;" 
d="M444 1614q-108 0 -108 108q0 107 108 107q107 0 107 -107q0 -108 -107 -108zM815 1614q-108 0 -108 108q0 107 108 107q107 0 107 -107q0 -108 -107 -108zM1126 1294h-782v-506h721v-141h-721v-508h782v-139h-952v1434h952v-140z" />
    <glyph glyph-name="Igrave" unicode="&#xcc;" 
d="M672 1659l-56 -57l-260 233l86 84zM1090 1294h-390v-1155h390v-139h-951v139h389v1155h-389v140h951v-140z" />
    <glyph glyph-name="Iacute" unicode="&#xcd;" 
d="M872 1835l-260 -233l-55 57l229 260zM1090 1294h-390v-1155h390v-139h-951v139h389v1155h-389v140h951v-140z" />
    <glyph glyph-name="Icircumflex" unicode="&#xce;" 
d="M612 1790l-213 -207l-47 51l197 250h129l196 -250l-47 -51l-213 207h-2zM1090 1294h-390v-1155h390v-139h-951v139h389v1155h-389v140h951v-140z" />
    <glyph glyph-name="Idieresis" unicode="&#xcf;" 
d="M430 1614q-108 0 -108 108q0 107 108 107q107 0 107 -107q0 -108 -107 -108zM801 1614q-109 0 -109 108q0 107 109 107q106 0 106 -107q0 -108 -106 -108zM1090 1294h-390v-1155h390v-139h-951v139h389v1155h-389v140h951v-140z" />
    <glyph glyph-name="Eth" unicode="&#xd0;" 
d="M551 1434q300 0 432.5 -167.5t132.5 -547.5q0 -381 -133 -550t-432 -169h-381v1434h381zM946 666v104q0 275 -99 399.5t-319 124.5h-186v-514h311v-125h-311v-516h186q219 0 318.5 125.5t99.5 401.5z" />
    <glyph glyph-name="Ntilde" unicode="&#xd1;" 
d="M285 1686q33 81 81.5 126.5t108.5 45.5q30 0 55.5 -9.5t90.5 -44.5q54 -30 77.5 -39.5t46.5 -9.5q39 0 68 26t59 81l72 -43q-35 -83 -86 -130t-113 -47q-37 0 -70.5 12.5t-90.5 47.5q-46 26 -67.5 34.5t-43.5 8.5q-34 0 -61 -23.5t-54 -79.5zM127 0v1434h225l580 -1172
v1172h170v-1434h-225l-580 1174v-1174h-170z" />
    <glyph glyph-name="Ograve" unicode="&#xd2;" 
d="M442 1919l230 -260l-56 -57l-260 233zM109 717q0 741 505 747q249 2 377.5 -186t128.5 -561q0 -372 -128 -560t-378 -188q-249 0 -377 188t-128 560zM279 655q9 -285 92 -415.5t243 -130.5t243.5 130.5t92.5 415.5v123q-9 283 -92 415t-244 132q-159 0 -242.5 -131
t-92.5 -416v-123z" />
    <glyph glyph-name="Oacute" unicode="&#xd3;" 
d="M786 1919l86 -84l-260 -233l-55 57zM109 717q0 741 505 747q249 2 377.5 -186t128.5 -561q0 -372 -128 -560t-378 -188q-249 0 -377 188t-128 560zM279 655q9 -285 92 -415.5t243 -130.5t243.5 130.5t92.5 415.5v123q-9 283 -92 415t-244 132q-159 0 -242.5 -131
t-92.5 -416v-123z" />
    <glyph glyph-name="Ocircumflex" unicode="&#xd4;" 
d="M352 1634l197 250h129l196 -250l-47 -51l-213 207h-2l-213 -207zM109 717q0 741 505 747q249 2 377.5 -186t128.5 -561q0 -372 -128 -560t-378 -188q-249 0 -377 188t-128 560zM279 655q9 -285 92 -415.5t243 -130.5t243.5 130.5t92.5 415.5v123q-9 283 -92 415t-244 132
q-159 0 -242.5 -131t-92.5 -416v-123z" />
    <glyph glyph-name="Otilde" unicode="&#xd5;" 
d="M285 1686q33 81 81.5 126.5t108.5 45.5q30 0 55.5 -9.5t90.5 -44.5q54 -30 77.5 -39.5t46.5 -9.5q39 0 68 26t59 81l72 -43q-35 -83 -86 -130t-113 -47q-37 0 -70.5 12.5t-90.5 47.5q-46 26 -67.5 34.5t-43.5 8.5q-34 0 -61 -23.5t-54 -79.5zM109 717q0 741 505 747
q249 2 377.5 -186t128.5 -561q0 -372 -128 -560t-378 -188q-249 0 -377 188t-128 560zM279 655q9 -285 92 -415.5t243 -130.5t243.5 130.5t92.5 415.5v123q-9 283 -92 415t-244 132q-159 0 -242.5 -131t-92.5 -416v-123z" />
    <glyph glyph-name="Odieresis" unicode="&#xd6;" 
d="M430 1614q-108 0 -108 108q0 107 108 107q107 0 107 -107q0 -108 -107 -108zM801 1614q-109 0 -109 108q0 107 109 107q106 0 106 -107q0 -108 -106 -108zM109 717q0 741 505 747q249 2 377.5 -186t128.5 -561q0 -372 -128 -560t-378 -188q-249 0 -377 188t-128 560z
M279 655q9 -285 92 -415.5t243 -130.5t243.5 130.5t92.5 415.5v123q-9 283 -92 415t-244 132q-159 0 -242.5 -131t-92.5 -416v-123z" />
    <glyph glyph-name="multiply" unicode="&#xd7;" 
d="M1012 940l-297 -297l297 -299l-99 -98l-297 299l-299 -299l-98 98l299 299l-299 297l98 100l299 -299l297 297z" />
    <glyph glyph-name="Oslash" unicode="&#xd8;" 
d="M614 1464q249 2 377.5 -186t128.5 -561q0 -372 -128 -560t-378 -188q-249 0 -377 188t-128 560q0 741 505 747zM279 778v-123q3 -84 12 -155l608 608q-77 217 -285 217q-159 0 -242.5 -131t-92.5 -416zM950 655v123q-3 104 -14 172l-610 -610q39 -119 110.5 -175
t177.5 -56q160 0 243.5 130.5t92.5 415.5z" />
    <glyph glyph-name="Ugrave" unicode="&#xd9;" 
d="M442 1919l230 -260l-56 -57l-260 233zM143 422v1012h170v-1004q0 -136 85.5 -227.5t215.5 -91.5t215.5 91.5t85.5 227.5v1004h170v-1012q-4 -198 -137 -325.5t-334 -127.5t-334 127.5t-137 325.5z" />
    <glyph glyph-name="Uacute" unicode="&#xda;" 
d="M786 1919l86 -84l-260 -233l-55 57zM143 422v1012h170v-1004q0 -136 85.5 -227.5t215.5 -91.5t215.5 91.5t85.5 227.5v1004h170v-1012q-4 -198 -137 -325.5t-334 -127.5t-334 127.5t-137 325.5z" />
    <glyph glyph-name="Ucircumflex" unicode="&#xdb;" 
d="M352 1634l197 250h129l196 -250l-47 -51l-213 207h-2l-213 -207zM143 422v1012h170v-1004q0 -136 85.5 -227.5t215.5 -91.5t215.5 91.5t85.5 227.5v1004h170v-1012q-4 -198 -137 -325.5t-334 -127.5t-334 127.5t-137 325.5z" />
    <glyph glyph-name="Udieresis" unicode="&#xdc;" 
d="M430 1614q-108 0 -108 108q0 107 108 107q107 0 107 -107q0 -108 -107 -108zM801 1614q-109 0 -109 108q0 107 109 107q106 0 106 -107q0 -108 -106 -108zM143 422v1012h170v-1004q0 -136 85.5 -227.5t215.5 -91.5t215.5 91.5t85.5 227.5v1004h170v-1012
q-4 -198 -137 -325.5t-334 -127.5t-334 127.5t-137 325.5z" />
    <glyph glyph-name="Yacute" unicode="&#xdd;" 
d="M872 1835l-260 -233l-55 57l229 260zM698 649l4 -510h390v-139h-951v139h394l-5 510l-495 785h201l378 -609l379 609h199z" />
    <glyph glyph-name="Thorn" unicode="&#xde;" 
d="M676 1178q198 0 312 -112t114 -306q0 -195 -114.5 -307.5t-311.5 -112.5h-348v-340h-170v1434h170v-256h348zM639 479q134 0 213.5 76t79.5 205q0 127 -79.5 202.5t-213.5 75.5h-311v-559h311z" />
    <glyph glyph-name="germandbls" unicode="&#xdf;" 
d="M473 141h125q163 0 249.5 69.5t86.5 201.5q0 126 -79 195t-224 69h-66v141h72q108 0 178 73t70 187q0 113 -69.5 180.5t-186.5 67.5q-118 0 -188 -76t-70 -205v-1044h-172v1044q0 191 119.5 305.5t318.5 114.5q189 0 304.5 -105t115.5 -276q0 -113 -62 -200t-170 -129v-9
q134 -32 207.5 -122.5t73.5 -223.5q0 -184 -132 -291.5t-358 -107.5h-143v141z" />
    <glyph glyph-name="agrave" unicode="&#xe0;" 
d="M420 1536l229 -260l-55 -57l-260 233zM156 272q0 139 103 223t314 91l244 8v104q0 145 -59.5 208t-167.5 63q-96 0 -158.5 -64.5t-62.5 -165.5h-170q0 161 109.5 261t281.5 100q181 0 289 -103.5t108 -304.5v-450q0 -103 103 -103h53v-139h-88q-93 0 -149.5 46t-63.5 130
h-13q-22 -77 -109.5 -142.5t-213.5 -64.5q-155 1 -252.5 86t-97.5 217zM330 281q0 -87 58.5 -139t154.5 -52q119 1 196.5 84.5t77.5 208.5v102l-213 -4q-139 -3 -206.5 -57t-67.5 -143z" />
    <glyph glyph-name="aacute" unicode="&#xe1;" 
d="M766 1536l86 -84l-260 -233l-55 57zM156 272q0 139 103 223t314 91l244 8v104q0 145 -59.5 208t-167.5 63q-96 0 -158.5 -64.5t-62.5 -165.5h-170q0 161 109.5 261t281.5 100q181 0 289 -103.5t108 -304.5v-450q0 -103 103 -103h53v-139h-88q-93 0 -149.5 46t-63.5 130
h-13q-22 -77 -109.5 -142.5t-213.5 -64.5q-155 1 -252.5 86t-97.5 217zM330 281q0 -87 58.5 -139t154.5 -52q119 1 196.5 84.5t77.5 208.5v102l-213 -4q-139 -3 -206.5 -57t-67.5 -143z" />
    <glyph glyph-name="acircumflex" unicode="&#xe2;" 
d="M330 1251l196 250h129l197 -250l-47 -51l-213 207h-2l-213 -207zM156 272q0 139 103 223t314 91l244 8v104q0 145 -59.5 208t-167.5 63q-96 0 -158.5 -64.5t-62.5 -165.5h-170q0 161 109.5 261t281.5 100q181 0 289 -103.5t108 -304.5v-450q0 -103 103 -103h53v-139h-88
q-93 0 -149.5 46t-63.5 130h-13q-22 -77 -109.5 -142.5t-213.5 -64.5q-155 1 -252.5 86t-97.5 217zM330 281q0 -87 58.5 -139t154.5 -52q119 1 196.5 84.5t77.5 208.5v102l-213 -4q-139 -3 -206.5 -57t-67.5 -143z" />
    <glyph glyph-name="atilde" unicode="&#xe3;" 
d="M262 1303q33 81 82 126.5t109 45.5q30 0 55 -9.5t90 -44.5q53 -30 77.5 -39.5t47.5 -9.5q39 0 68 26t59 81l72 -43q-75 -176 -199 -176q-38 0 -72 12.5t-90 46.5q-46 26 -67 34.5t-43 8.5q-34 0 -61 -23t-54 -79zM156 272q0 139 103 223t314 91l244 8v104
q0 145 -59.5 208t-167.5 63q-96 0 -158.5 -64.5t-62.5 -165.5h-170q0 161 109.5 261t281.5 100q181 0 289 -103.5t108 -304.5v-450q0 -103 103 -103h53v-139h-88q-93 0 -149.5 46t-63.5 130h-13q-22 -77 -109.5 -142.5t-213.5 -64.5q-155 1 -252.5 86t-97.5 217zM330 281
q0 -87 58.5 -139t154.5 -52q119 1 196.5 84.5t77.5 208.5v102l-213 -4q-139 -3 -206.5 -57t-67.5 -143z" />
    <glyph glyph-name="adieresis" unicode="&#xe4;" 
d="M408 1233q-109 0 -109 108q0 107 109 107q106 0 106 -107q0 -108 -106 -108zM778 1233q-108 0 -108 108q0 107 108 107q107 0 107 -107q0 -108 -107 -108zM156 272q0 139 103 223t314 91l244 8v104q0 145 -59.5 208t-167.5 63q-96 0 -158.5 -64.5t-62.5 -165.5h-170
q0 161 109.5 261t281.5 100q181 0 289 -103.5t108 -304.5v-450q0 -103 103 -103h53v-139h-88q-93 0 -149.5 46t-63.5 130h-13q-22 -77 -109.5 -142.5t-213.5 -64.5q-155 1 -252.5 86t-97.5 217zM330 281q0 -87 58.5 -139t154.5 -52q119 1 196.5 84.5t77.5 208.5v102l-213 -4
q-139 -3 -206.5 -57t-67.5 -143z" />
    <glyph glyph-name="aring" unicode="&#xe5;" 
d="M592 1212q-86 0 -144.5 58.5t-58.5 144.5q0 84 58.5 143.5t144.5 59.5q84 0 143.5 -59.5t59.5 -143.5q0 -86 -59 -144.5t-144 -58.5zM592 1300q46 0 79.5 34t33.5 81q0 46 -33.5 79.5t-79.5 33.5q-47 0 -80 -33.5t-33 -79.5q0 -47 33 -81t80 -34zM156 272q0 139 103 223
t314 91l244 8v104q0 145 -59.5 208t-167.5 63q-96 0 -158.5 -64.5t-62.5 -165.5h-170q0 161 109.5 261t281.5 100q181 0 289 -103.5t108 -304.5v-450q0 -103 103 -103h53v-139h-88q-93 0 -149.5 46t-63.5 130h-13q-22 -77 -109.5 -142.5t-213.5 -64.5q-155 1 -252.5 86
t-97.5 217zM330 281q0 -87 58.5 -139t154.5 -52q119 1 196.5 84.5t77.5 208.5v102l-213 -4q-139 -3 -206.5 -57t-67.5 -143z" />
    <glyph glyph-name="ae" unicode="&#xe6;" 
d="M27 260q0 153 103.5 239.5t299.5 96.5l76 6v88q0 143 -38.5 217t-113.5 74q-74 0 -119 -66t-45 -176h-133q0 160 81 260.5t206 100.5q93 0 158 -61.5t92 -182.5h8q39 121 111.5 182.5t169.5 61.5q153 0 235.5 -151t83.5 -437h-547q4 -201 63.5 -312.5t158.5 -111.5
q82 0 129 74t53 200h133q-15 -188 -96 -291t-211 -102q-100 0 -177 67t-116 200h-8q-34 -137 -108.5 -203t-176.5 -64q-121 2 -196.5 81.5t-75.5 209.5zM659 614h404q-4 177 -55.5 272t-139.5 95q-89 0 -146 -98t-63 -269zM158 264q0 -81 44 -127.5t111 -46.5q93 0 143 77
t50 216v106l-53 -4q-295 -9 -295 -221z" />
    <glyph glyph-name="ccedilla" unicode="&#xe7;" 
d="M625 109q103 0 170 67t86 186h170q-20 -174 -120.5 -276.5t-262.5 -114.5l-31 -151l4 -2q25 20 60.5 30.5t66.5 6.5q59 -9 91.5 -52.5t29.5 -107.5q-3 -78 -70 -131t-182 -53q-111 0 -195 40v91q109 -45 199 -45q68 0 106.5 26.5t43.5 71.5q3 32 -15 54t-51 28
q-62 13 -117 -35l-73 37l38 192q-198 19 -313 170t-115 394q0 259 129.5 412t350.5 153q180 0 292 -104.5t134 -290.5h-170q-17 119 -84.5 186t-171.5 67q-141 0 -225.5 -116t-84.5 -307q0 -195 84.5 -310.5t225.5 -115.5z" />
    <glyph glyph-name="egrave" unicode="&#xe8;" 
d="M672 1276l-56 -57l-260 233l86 84zM614 109q110 0 179 65.5t88 187.5h170q-22 -186 -134.5 -289.5t-295.5 -103.5q-217 0 -346.5 153.5t-129.5 412.5t129 412t347 153q214 0 326.5 -150t115.5 -438h-748q6 -181 89 -292t210 -111zM614 958q-120 0 -199 -92.5t-96 -251.5
h570q-11 164 -82 254t-193 90z" />
    <glyph glyph-name="eacute" unicode="&#xe9;" 
d="M872 1452l-260 -233l-55 57l229 260zM614 109q110 0 179 65.5t88 187.5h170q-22 -186 -134.5 -289.5t-295.5 -103.5q-217 0 -346.5 153.5t-129.5 412.5t129 412t347 153q214 0 326.5 -150t115.5 -438h-748q6 -181 89 -292t210 -111zM614 958q-120 0 -199 -92.5
t-96 -251.5h570q-11 164 -82 254t-193 90z" />
    <glyph glyph-name="ecircumflex" unicode="&#xea;" 
d="M612 1407l-213 -207l-47 51l197 250h129l196 -250l-47 -51l-213 207h-2zM614 109q110 0 179 65.5t88 187.5h170q-22 -186 -134.5 -289.5t-295.5 -103.5q-217 0 -346.5 153.5t-129.5 412.5t129 412t347 153q214 0 326.5 -150t115.5 -438h-748q6 -181 89 -292t210 -111z
M614 958q-120 0 -199 -92.5t-96 -251.5h570q-11 164 -82 254t-193 90z" />
    <glyph glyph-name="edieresis" unicode="&#xeb;" 
d="M430 1233q-108 0 -108 108q0 107 108 107q107 0 107 -107q0 -108 -107 -108zM801 1233q-109 0 -109 108q0 107 109 107q106 0 106 -107q0 -108 -106 -108zM614 109q110 0 179 65.5t88 187.5h170q-22 -186 -134.5 -289.5t-295.5 -103.5q-217 0 -346.5 153.5t-129.5 412.5
t129 412t347 153q214 0 326.5 -150t115.5 -438h-748q6 -181 89 -292t210 -111zM614 958q-120 0 -199 -92.5t-96 -251.5h570q-11 164 -82 254t-193 90z" />
    <glyph glyph-name="igrave" unicode="&#xec;" 
d="M682 1276l-55 -57l-260 233l86 84zM752 139h399v-139h-971v139h400v787h-400v139h455q57 0 87 -30t30 -87v-809z" />
    <glyph glyph-name="iacute" unicode="&#xed;" 
d="M883 1452l-260 -233l-56 57l230 260zM752 139h399v-139h-971v139h400v787h-400v139h455q57 0 87 -30t30 -87v-809z" />
    <glyph glyph-name="icircumflex" unicode="&#xee;" 
d="M623 1407l-213 -207l-48 51l197 250h129l197 -250l-47 -51l-213 207h-2zM752 139h399v-139h-971v139h400v787h-400v139h455q57 0 87 -30t30 -87v-809z" />
    <glyph glyph-name="idieresis" unicode="&#xef;" 
d="M440 1233q-108 0 -108 108q0 107 108 107q107 0 107 -107q0 -108 -107 -108zM811 1233q-109 0 -109 108q0 107 109 107q107 0 107 -107q0 -108 -107 -108zM752 139h399v-139h-971v139h400v787h-400v139h455q57 0 87 -30t30 -87v-809z" />
    <glyph glyph-name="ntilde" unicode="&#xf1;" 
d="M504 1362q-34 0 -61 -23t-54 -79l-74 43q33 81 82 126.5t109 45.5q30 0 55 -9.5t90 -44.5q53 -30 77.5 -39.5t47.5 -9.5q39 0 68 26t59 81l72 -43q-75 -176 -199 -176q-38 0 -72 12.5t-90 46.5q-46 26 -67 34.5t-43 8.5zM707 1100q163 0 260.5 -111t97.5 -313v-676h-170
v625q0 158 -64 235.5t-182 77.5t-202.5 -102.5t-84.5 -249.5v-586h-172v1065h172v-234h11q38 127 127 198t207 71z" />
    <glyph glyph-name="ograve" unicode="&#xf2;" 
d="M442 1536l230 -260l-56 -57l-260 233zM145 535q0 263 125.5 414t343.5 151t343.5 -151t125.5 -414t-125.5 -414.5t-343.5 -151.5t-343.5 151.5t-125.5 414.5zM317 535q0 -200 79 -313t218 -113t218 113t79 313q0 199 -78.5 311t-218.5 112t-218.5 -112t-78.5 -311z" />
    <glyph glyph-name="oacute" unicode="&#xf3;" 
d="M786 1536l86 -84l-260 -233l-55 57zM145 535q0 263 125.5 414t343.5 151t343.5 -151t125.5 -414t-125.5 -414.5t-343.5 -151.5t-343.5 151.5t-125.5 414.5zM317 535q0 -200 79 -313t218 -113t218 113t79 313q0 199 -78.5 311t-218.5 112t-218.5 -112t-78.5 -311z" />
    <glyph glyph-name="ocircumflex" unicode="&#xf4;" 
d="M352 1251l197 250h129l196 -250l-47 -51l-213 207h-2l-213 -207zM145 535q0 263 125.5 414t343.5 151t343.5 -151t125.5 -414t-125.5 -414.5t-343.5 -151.5t-343.5 151.5t-125.5 414.5zM317 535q0 -200 79 -313t218 -113t218 113t79 313q0 199 -78.5 311t-218.5 112
t-218.5 -112t-78.5 -311z" />
    <glyph glyph-name="otilde" unicode="&#xf5;" 
d="M285 1303q33 81 81.5 126.5t108.5 45.5q30 0 55.5 -9.5t90.5 -44.5q54 -30 77.5 -39.5t46.5 -9.5q39 0 68 26t59 81l72 -43q-75 -176 -199 -176q-38 0 -71.5 12.5t-89.5 46.5q-46 26 -67.5 34.5t-43.5 8.5q-34 0 -61 -23t-54 -79zM145 535q0 263 125.5 414t343.5 151
t343.5 -151t125.5 -414t-125.5 -414.5t-343.5 -151.5t-343.5 151.5t-125.5 414.5zM317 535q0 -200 79 -313t218 -113t218 113t79 313q0 199 -78.5 311t-218.5 112t-218.5 -112t-78.5 -311z" />
    <glyph glyph-name="odieresis" unicode="&#xf6;" 
d="M430 1233q-108 0 -108 108q0 107 108 107q107 0 107 -107q0 -108 -107 -108zM801 1233q-109 0 -109 108q0 107 109 107q106 0 106 -107q0 -108 -106 -108zM145 535q0 263 125.5 414t343.5 151t343.5 -151t125.5 -414t-125.5 -414.5t-343.5 -151.5t-343.5 151.5
t-125.5 414.5zM317 535q0 -200 79 -313t218 -113t218 113t79 313q0 199 -78.5 311t-218.5 112t-218.5 -112t-78.5 -311z" />
    <glyph glyph-name="divide" unicode="&#xf7;" 
d="M614 858q-60 0 -101.5 41.5t-41.5 101.5q0 59 41.5 101.5t101.5 42.5t102 -42.5t42 -101.5q0 -60 -42 -101.5t-102 -41.5zM123 715h983v-142h-983v142zM614 143q-60 0 -101.5 42.5t-41.5 101.5q0 60 41.5 101.5t101.5 41.5t102 -41.5t42 -101.5q0 -59 -42 -101.5
t-102 -42.5z" />
    <glyph glyph-name="oslash" unicode="&#xf8;" 
d="M614 1100q218 0 343.5 -151t125.5 -414t-125.5 -414.5t-343.5 -151.5t-343.5 151.5t-125.5 414.5t125.5 414t343.5 151zM614 958q-140 0 -218.5 -112t-78.5 -311q0 -101 23 -191l498 494q-78 120 -224 120zM614 109q139 0 218 113t79 313q0 102 -22 188l-496 -496
q77 -118 221 -118z" />
    <glyph glyph-name="ugrave" unicode="&#xf9;" 
d="M672 1276l-56 -57l-260 233l86 84zM881 1065h170v-1065h-170v233h-13q-38 -127 -126 -197.5t-207 -70.5q-163 0 -260 111t-97 313v676h170v-625q0 -158 64 -235.5t180 -77.5q119 0 204 102.5t85 249.5v586z" />
    <glyph glyph-name="uacute" unicode="&#xfa;" 
d="M872 1452l-260 -233l-55 57l229 260zM881 1065h170v-1065h-170v233h-13q-38 -127 -126 -197.5t-207 -70.5q-163 0 -260 111t-97 313v676h170v-625q0 -158 64 -235.5t180 -77.5q119 0 204 102.5t85 249.5v586z" />
    <glyph glyph-name="ucircumflex" unicode="&#xfb;" 
d="M612 1407l-213 -207l-47 51l197 250h129l196 -250l-47 -51l-213 207h-2zM881 1065h170v-1065h-170v233h-13q-38 -127 -126 -197.5t-207 -70.5q-163 0 -260 111t-97 313v676h170v-625q0 -158 64 -235.5t180 -77.5q119 0 204 102.5t85 249.5v586z" />
    <glyph glyph-name="udieresis" unicode="&#xfc;" 
d="M430 1233q-108 0 -108 108q0 107 108 107q107 0 107 -107q0 -108 -107 -108zM801 1233q-109 0 -109 108q0 107 109 107q106 0 106 -107q0 -108 -106 -108zM881 1065h170v-1065h-170v233h-13q-38 -127 -126 -197.5t-207 -70.5q-163 0 -260 111t-97 313v676h170v-625
q0 -158 64 -235.5t180 -77.5q119 0 204 102.5t85 249.5v586z" />
    <glyph glyph-name="yacute" unicode="&#xfd;" 
d="M786 1536l86 -84l-260 -233l-55 57zM92 1065h184l355 -883l321 883h183l-508 -1327q-66 -178 -258 -178h-222v139h215q82 0 109 76l68 174q10 30 0 53z" />
    <glyph glyph-name="thorn" unicode="&#xfe;" 
d="M694 1098q201 0 316.5 -150.5t115.5 -412.5t-116.5 -414t-317.5 -152q-119 0 -210 70.5t-138 200.5h-10v-680h-172v1874h172v-598h10q47 125 139 193.5t211 68.5zM647 109q143 0 226 114t83 312q0 196 -83 309.5t-226 113.5q-145 0 -229 -113.5t-84 -309.5
q0 -197 84 -311.5t229 -114.5z" />
    <glyph glyph-name="ydieresis" unicode="&#xff;" 
d="M430 1233q-108 0 -108 108q0 107 108 107q107 0 107 -107q0 -108 -107 -108zM801 1233q-109 0 -109 108q0 107 109 107q106 0 106 -107q0 -108 -106 -108zM92 1065h184l355 -883l321 883h183l-508 -1327q-66 -178 -258 -178h-222v139h215q82 0 109 76l68 174q10 30 0 53z
" />
    <glyph glyph-name="Amacron" unicode="&#x100;" 
d="M885 1776v-121h-543v121h543zM981 0l-117 408h-499l-117 -408h-180l426 1434h241l426 -1434h-180zM406 547h417l-209 729z" />
    <glyph glyph-name="amacron" unicode="&#x101;" 
d="M319 1393h543v-121h-543v121zM156 272q0 139 103 223t314 91l244 8v104q0 145 -59.5 208t-167.5 63q-96 0 -158.5 -64.5t-62.5 -165.5h-170q0 161 109.5 261t281.5 100q181 0 289 -103.5t108 -304.5v-450q0 -103 103 -103h53v-139h-88q-93 0 -149.5 46t-63.5 130h-13
q-22 -77 -109.5 -142.5t-213.5 -64.5q-155 1 -252.5 86t-97.5 217zM330 281q0 -87 58.5 -139t154.5 -52q119 1 196.5 84.5t77.5 208.5v102l-213 -4q-139 -3 -206.5 -57t-67.5 -143z" />
    <glyph glyph-name="Abreve" unicode="&#x102;" 
d="M614 1610q-114 0 -184 64.5t-72 168.5v15h103v-13q1 -66 43 -104.5t110 -38.5t110.5 38.5t43.5 104.5v13h102v-15q-2 -104 -72 -168.5t-184 -64.5zM981 0l-117 408h-499l-117 -408h-180l426 1434h241l426 -1434h-180zM406 547h417l-209 729z" />
    <glyph glyph-name="abreve" unicode="&#x103;" 
d="M848 1475v-15q-2 -104 -72 -168.5t-184 -64.5t-184 64.5t-72 168.5v15h102v-13q1 -66 43.5 -104.5t110.5 -38.5t110 38.5t43 104.5v13h103zM156 272q0 139 103 223t314 91l244 8v104q0 145 -59.5 208t-167.5 63q-96 0 -158.5 -64.5t-62.5 -165.5h-170q0 161 109.5 261
t281.5 100q181 0 289 -103.5t108 -304.5v-450q0 -103 103 -103h53v-139h-88q-93 0 -149.5 46t-63.5 130h-13q-22 -77 -109.5 -142.5t-213.5 -64.5q-155 1 -252.5 86t-97.5 217zM330 281q0 -87 58.5 -139t154.5 -52q119 1 196.5 84.5t77.5 208.5v102l-213 -4
q-139 -3 -206.5 -57t-67.5 -143z" />
    <glyph glyph-name="Aogonek" unicode="&#x104;" 
d="M975 -389q77 -3 139 33l23 -64q-70 -57 -166 -57q-39 0 -75 8.5t-71 27.5t-56 56t-21 88q0 58 35 111.5t87 88.5t103.5 58t93.5 31v8h-86l-117 408h-499l-117 -408h-180l426 1434h241l426 -1434q-35 -12 -71 -28.5t-80 -44t-77.5 -57.5t-56 -71t-22.5 -84q0 -53 36 -77.5
t85 -26.5zM406 547h417l-209 729z" />
    <glyph glyph-name="aogonek" unicode="&#x105;" 
d="M1143 0q-35 -12 -71 -28.5t-80 -44t-77.5 -57.5t-56 -71t-22.5 -84q0 -53 35.5 -77.5t84.5 -26.5q78 -3 140 33l22 -64q-70 -57 -166 -57q-39 0 -75 8.5t-71 27.5t-56 56t-21 88q0 58 35 111.5t87.5 88.5t104 58t93.5 31v8h6q-93 0 -149.5 46t-63.5 130h-13
q-22 -77 -109.5 -142.5t-213.5 -64.5q-155 1 -252.5 86t-97.5 217q0 139 103 223t314 91l244 8v104q0 145 -59.5 208t-167.5 63q-96 0 -158.5 -64.5t-62.5 -165.5h-170q0 161 109.5 261t281.5 100q181 0 289 -103.5t108 -304.5v-450q0 -103 103 -103h53v-139zM817 383v102
l-213 -4q-139 -3 -206.5 -57t-67.5 -143q0 -87 58.5 -139t154.5 -52q119 1 196.5 84.5t77.5 208.5z" />
    <glyph glyph-name="Cacute" unicode="&#x106;" 
d="M801 1919l86 -84l-260 -233l-56 57zM119 717q0 362 134.5 553t375.5 194q210 1 332 -136t133 -365h-170q-8 164 -84 263t-211 99q-158 0 -246 -139t-94 -408v-123q6 -261 94.5 -403.5t245.5 -142.5q131 0 209 97t86 265h170q-11 -233 -135 -368t-330 -134
q-245 3 -377.5 197.5t-132.5 550.5z" />
    <glyph glyph-name="cacute" unicode="&#x107;" 
d="M797 1536l86 -84l-260 -233l-56 57zM145 535q0 259 129.5 412t350.5 153q180 0 292 -104.5t134 -290.5h-170q-17 119 -84.5 186t-171.5 67q-141 0 -225.5 -116t-84.5 -307q0 -195 84.5 -310.5t225.5 -115.5q103 0 170 67t86 186h170q-22 -185 -133.5 -289t-292.5 -104
q-221 0 -350.5 153.5t-129.5 412.5z" />
    <glyph glyph-name="Cdotaccent" unicode="&#x10a;" 
d="M629 1614q-109 0 -109 108q0 107 109 107q106 0 106 -107q0 -108 -106 -108zM119 717q0 362 134.5 553t375.5 194q210 1 332 -136t133 -365h-170q-8 164 -84 263t-211 99q-158 0 -246 -139t-94 -408v-123q6 -261 94.5 -403.5t245.5 -142.5q131 0 209 97t86 265h170
q-11 -233 -135 -368t-330 -134q-245 3 -377.5 197.5t-132.5 550.5z" />
    <glyph glyph-name="cdotaccent" unicode="&#x10b;" 
d="M625 1233q-109 0 -109 108q0 107 109 107q106 0 106 -107q0 -108 -106 -108zM145 535q0 259 129.5 412t350.5 153q180 0 292 -104.5t134 -290.5h-170q-17 119 -84.5 186t-171.5 67q-141 0 -225.5 -116t-84.5 -307q0 -195 84.5 -310.5t225.5 -115.5q103 0 170 67t86 186
h170q-22 -185 -133.5 -289t-292.5 -104q-221 0 -350.5 153.5t-129.5 412.5z" />
    <glyph glyph-name="Ccaron" unicode="&#x10c;" 
d="M367 1839l47 51l213 -209h2l213 209l47 -51l-197 -250h-129zM119 717q0 362 134.5 553t375.5 194q210 1 332 -136t133 -365h-170q-8 164 -84 263t-211 99q-158 0 -246 -139t-94 -408v-123q6 -261 94.5 -403.5t245.5 -142.5q131 0 209 97t86 265h170q-11 -233 -135 -368
t-330 -134q-245 3 -377.5 197.5t-132.5 550.5z" />
    <glyph glyph-name="ccaron" unicode="&#x10d;" 
d="M362 1458l48 51l213 -209h2l213 209l47 -51l-197 -250h-129zM145 535q0 259 129.5 412t350.5 153q180 0 292 -104.5t134 -290.5h-170q-17 119 -84.5 186t-171.5 67q-141 0 -225.5 -116t-84.5 -307q0 -195 84.5 -310.5t225.5 -115.5q103 0 170 67t86 186h170
q-22 -185 -133.5 -289t-292.5 -104q-221 0 -350.5 153.5t-129.5 412.5z" />
    <glyph glyph-name="Dcaron" unicode="&#x10e;" 
d="M614 1589h-129l-196 250l47 51l213 -209h2l213 209l47 -51zM551 1434q300 0 432.5 -167.5t132.5 -547.5q0 -381 -133 -550t-432 -169h-381v1434h381zM946 666v104q0 275 -99 399.5t-319 124.5h-186v-1155h186q219 0 318.5 125.5t99.5 401.5z" />
    <glyph glyph-name="dcaron" unicode="&#x10f;" 
d="M901 827v678h170v-1505h-170v233h-12q-47 -126 -138 -195t-210 -69q-201 0 -316.5 151.5t-115.5 414.5t115.5 414t316.5 151q120 0 210.5 -71t137.5 -202h12zM1184 1505h194v-260q0 -82 -41 -120t-131 -38h-45v68h39q45 0 66.5 18.5t21.5 65.5v57h-104v209zM590 109
q143 0 226 115t83 311t-83 311t-226 115q-144 0 -227.5 -114.5t-83.5 -311.5t83.5 -311.5t227.5 -114.5z" />
    <glyph glyph-name="Dcroat" unicode="&#x110;" 
d="M551 1434q300 0 432.5 -167.5t132.5 -547.5q0 -381 -133 -550t-432 -169h-381v1434h381zM946 666v104q0 275 -99 399.5t-319 124.5h-186v-514h311v-125h-311v-516h186q219 0 318.5 125.5t99.5 401.5z" />
    <glyph glyph-name="dcroat" unicode="&#x111;" 
d="M1225 1360v-127h-154v-1233h-170v233h-12q-47 -126 -138 -195t-210 -69q-201 0 -316.5 151.5t-115.5 414.5t115.5 414t316.5 151q120 0 210.5 -71t137.5 -202h12v406h-278v127h278v145h170v-145h154zM590 109q143 0 226 115t83 311t-83 311t-226 115
q-144 0 -227.5 -114.5t-83.5 -311.5t83.5 -311.5t227.5 -114.5z" />
    <glyph glyph-name="Emacron" unicode="&#x112;" 
d="M899 1776v-121h-543v121h543zM1126 1294h-782v-506h721v-141h-721v-508h782v-139h-952v1434h952v-140z" />
    <glyph glyph-name="emacron" unicode="&#x113;" 
d="M885 1393v-121h-543v121h543zM614 109q110 0 179 65.5t88 187.5h170q-22 -186 -134.5 -289.5t-295.5 -103.5q-217 0 -346.5 153.5t-129.5 412.5t129 412t347 153q214 0 326.5 -150t115.5 -438h-748q6 -181 89 -292t210 -111zM614 958q-120 0 -199 -92.5t-96 -251.5h570
q-11 164 -82 254t-193 90z" />
    <glyph glyph-name="Edotaccent" unicode="&#x116;" 
d="M629 1614q-109 0 -109 108q0 107 109 107q106 0 106 -107q0 -108 -106 -108zM1126 1294h-782v-506h721v-141h-721v-508h782v-139h-952v1434h952v-140z" />
    <glyph glyph-name="edotaccent" unicode="&#x117;" 
d="M614 1233q-108 0 -108 108q0 107 108 107q107 0 107 -107q0 -108 -107 -108zM614 109q110 0 179 65.5t88 187.5h170q-22 -186 -134.5 -289.5t-295.5 -103.5q-217 0 -346.5 153.5t-129.5 412.5t129 412t347 153q214 0 326.5 -150t115.5 -438h-748q6 -181 89 -292t210 -111
zM614 958q-120 0 -199 -92.5t-96 -251.5h570q-11 164 -82 254t-193 90z" />
    <glyph glyph-name="Eogonek" unicode="&#x118;" 
d="M1126 1294h-782v-506h721v-141h-721v-508h782v-139q-35 -12 -71 -28.5t-80 -44t-77.5 -57.5t-56 -71t-22.5 -84q0 -53 36 -77.5t85 -26.5q77 -3 139 33l23 -64q-70 -57 -166 -57q-39 0 -75 8.5t-71 27.5t-56 56t-21 88q0 58 35 111.5t87 88.5t103.5 58t93.5 31v8h-858
v1434h952v-140z" />
    <glyph glyph-name="eogonek" unicode="&#x119;" 
d="M614 109q110 0 179 65.5t88 187.5h170q-17 -143 -88.5 -238t-188.5 -132q-46 -18 -90.5 -42t-91 -59t-75 -81t-28.5 -95q0 -53 36 -77.5t85 -26.5q78 -3 140 33l22 -64q-70 -57 -166 -57q-39 0 -75 8.5t-71 27.5t-56 56t-21 88q0 90 73.5 158.5t172.5 107.5h-8
q-217 0 -346.5 153.5t-129.5 412.5t129 412t347 153q214 0 326.5 -150t115.5 -438h-748q6 -181 89 -292t210 -111zM614 958q-120 0 -199 -92.5t-96 -251.5h570q-11 164 -82 254t-193 90z" />
    <glyph glyph-name="Ecaron" unicode="&#x11a;" 
d="M694 1589h-129l-196 250l47 51l213 -209h2l213 209l47 -51zM1126 1294h-782v-506h721v-141h-721v-508h782v-139h-952v1434h952v-140z" />
    <glyph glyph-name="ecaron" unicode="&#x11b;" 
d="M678 1208h-129l-197 250l47 51l213 -209h2l213 209l47 -51zM614 109q110 0 179 65.5t88 187.5h170q-22 -186 -134.5 -289.5t-295.5 -103.5q-217 0 -346.5 153.5t-129.5 412.5t129 412t347 153q214 0 326.5 -150t115.5 -438h-748q6 -181 89 -292t210 -111zM614 958
q-120 0 -199 -92.5t-96 -251.5h570q-11 164 -82 254t-193 90z" />
    <glyph glyph-name="Gbreve" unicode="&#x11e;" 
d="M885 1858v-15q-2 -104 -72 -168.5t-184 -64.5t-184 64.5t-72 168.5v15h102v-13q1 -66 43.5 -104.5t110.5 -38.5t110 38.5t43 104.5v13h103zM119 717q0 360 135 552t375 195q210 1 332 -136t133 -365h-170q-9 165 -84 263.5t-211 98.5q-157 0 -245.5 -140t-94.5 -407v-123
q6 -260 95 -403t245 -143q146 0 220.5 112.5t74.5 296.5v125h170v-643h-156v260h-12q-58 -291 -324 -291q-227 0 -355 199t-128 549z" />
    <glyph glyph-name="gbreve" unicode="&#x11f;" 
d="M592 1227q-114 0 -184 64.5t-72 168.5v15h102v-13q1 -66 43.5 -104.5t110.5 -38.5t110 38.5t43 104.5v13h103v-15q-2 -104 -72 -168.5t-184 -64.5zM1139 1083h-215v-118q104 -119 104 -314q0 -202 -117 -323t-311 -121q-33 0 -47 2q-95 0 -151 -27t-56 -73
q0 -37 33.5 -56.5t95.5 -19.5h316q155 0 240 -71t85 -200q0 -128 -81 -197t-230 -69h-424q-133 0 -216 67.5t-83 174.5q0 86 57.5 143.5t155.5 67.5v10q-42 15 -66 46.5t-24 70.5q0 71 61.5 108t179.5 37v8q-130 43 -203 154t-73 268q0 204 117.5 326.5t312.5 122.5
q110 0 191 -37v22q0 69 35.5 104.5t101.5 35.5h211v-142zM600 350q118 0 188 81.5t70 219.5q0 137 -65 217q-69 88 -193 88q-119 0 -188.5 -82t-69.5 -223q0 -138 70 -219.5t188 -81.5zM424 -106q-78 0 -124 -37.5t-46 -100.5q0 -121 170 -121h350q83 0 127.5 33.5
t44.5 93.5q0 62 -45.5 97t-126.5 35h-350z" />
    <glyph glyph-name="Gdotaccent" unicode="&#x120;" 
d="M629 1614q-109 0 -109 108q0 107 109 107q106 0 106 -107q0 -108 -106 -108zM119 717q0 360 135 552t375 195q210 1 332 -136t133 -365h-170q-9 165 -84 263.5t-211 98.5q-157 0 -245.5 -140t-94.5 -407v-123q6 -260 95 -403t245 -143q146 0 220.5 112.5t74.5 296.5v125
h170v-643h-156v260h-12q-58 -291 -324 -291q-227 0 -355 199t-128 549z" />
    <glyph glyph-name="gdotaccent" unicode="&#x121;" 
d="M592 1233q-109 0 -109 108q0 107 109 107q106 0 106 -107q0 -108 -106 -108zM1139 1083h-215v-118q104 -119 104 -314q0 -202 -117 -323t-311 -121q-33 0 -47 2q-95 0 -151 -27t-56 -73q0 -37 33.5 -56.5t95.5 -19.5h316q155 0 240 -71t85 -200q0 -128 -81 -197t-230 -69
h-424q-133 0 -216 67.5t-83 174.5q0 86 57.5 143.5t155.5 67.5v10q-42 15 -66 46.5t-24 70.5q0 71 61.5 108t179.5 37v8q-130 43 -203 154t-73 268q0 204 117.5 326.5t312.5 122.5q110 0 191 -37v22q0 69 35.5 104.5t101.5 35.5h211v-142zM600 350q118 0 188 81.5t70 219.5
q0 137 -65 217q-69 88 -193 88q-119 0 -188.5 -82t-69.5 -223q0 -138 70 -219.5t188 -81.5zM424 -106q-78 0 -124 -37.5t-46 -100.5q0 -121 170 -121h350q83 0 127.5 33.5t44.5 93.5q0 62 -45.5 97t-126.5 35h-350z" />
    <glyph glyph-name="uni0122" unicode="&#x122;" 
d="M119 717q0 360 135 552t375 195q210 1 332 -136t133 -365h-170q-9 165 -84 263.5t-211 98.5q-157 0 -245.5 -140t-94.5 -407v-123q6 -260 95 -403t245 -143q146 0 220.5 112.5t74.5 296.5v125h170v-643h-156v260h-12q-58 -291 -324 -291q-227 0 -355 199t-128 549z
M520 -195h195v-260q0 -80 -41 -118.5t-131 -38.5h-45v67h39q45 0 66.5 18.5t21.5 65.5v58h-105v208z" />
    <glyph glyph-name="uni0123" unicode="&#x123;" 
d="M702 1432v-209h-192v260q0 82 41 119.5t131 37.5h45v-67h-39q-45 0 -66.5 -18.5t-21.5 -65.5v-57h102zM1139 1083h-215v-118q104 -119 104 -314q0 -202 -117 -323t-311 -121q-33 0 -47 2q-95 0 -151 -27t-56 -73q0 -37 33.5 -56.5t95.5 -19.5h316q155 0 240 -71t85 -200
q0 -128 -81 -197t-230 -69h-424q-133 0 -216 67.5t-83 174.5q0 86 57.5 143.5t155.5 67.5v10q-42 15 -66 46.5t-24 70.5q0 71 61.5 108t179.5 37v8q-130 43 -203 154t-73 268q0 204 117.5 326.5t312.5 122.5q110 0 191 -37v22q0 69 35.5 104.5t101.5 35.5h211v-142zM600 350
q118 0 188 81.5t70 219.5q0 137 -65 217q-69 88 -193 88q-119 0 -188.5 -82t-69.5 -223q0 -138 70 -219.5t188 -81.5zM424 -106q-78 0 -124 -37.5t-46 -100.5q0 -121 170 -121h350q83 0 127.5 33.5t44.5 93.5q0 62 -45.5 97t-126.5 35h-350z" />
    <glyph glyph-name="Hbar" unicode="&#x126;" 
d="M936 1434h170v-1434h-170v709h-643v-709h-170v1434h170v-242h643v242zM293 850h643v215h-643v-215z" />
    <glyph glyph-name="hbar" unicode="&#x127;" 
d="M707 1100q163 0 260.5 -111t97.5 -313v-676h-170v625q0 158 -64 235.5t-182 77.5t-202.5 -102.5t-84.5 -249.5v-586h-172v1233h-153v127h153v145h172v-145h279v-127h-279v-402h11q38 127 127 198t207 71z" />
    <glyph glyph-name="Imacron" unicode="&#x12a;" 
d="M885 1776v-121h-543v121h543zM1090 1294h-390v-1155h390v-139h-951v139h389v1155h-389v140h951v-140z" />
    <glyph glyph-name="imacron" unicode="&#x12b;" 
d="M895 1393v-121h-543v121h543zM752 139h399v-139h-971v139h400v787h-400v139h455q57 0 87 -30t30 -87v-809z" />
    <glyph glyph-name="Iogonek" unicode="&#x12e;" 
d="M1090 1294h-390v-1155h390v-139q-45 -16 -91.5 -39.5t-98.5 -59t-85 -84.5t-33 -102t36 -77.5t85 -26.5q77 -3 139 33l23 -64q-70 -57 -166 -57q-39 0 -75 8.5t-71 27.5t-56 56t-21 88q0 58 35 111.5t87 88.5t103.5 58t93.5 31v8h-856v139h389v1155h-389v140h951v-140z
" />
    <glyph glyph-name="iogonek" unicode="&#x12f;" 
d="M743 1542v-242h-170v242h170zM1151 0q-45 -16 -91.5 -39.5t-99 -59t-85.5 -84.5t-33 -102t36 -77.5t87 -26.5q77 -3 139 33l22 -64q-70 -57 -168 -57q-38 0 -74 8.5t-70.5 27.5t-55.5 56t-21 88q0 58 35 111.5t87.5 88.5t104 58t93.5 31v8h-877v139h400v787h-400v139h455
q57 0 87 -30t30 -87v-809h399v-139z" />
    <glyph glyph-name="Idotaccent" unicode="&#x130;" 
d="M614 1614q-108 0 -108 108q0 107 108 107q107 0 107 -107q0 -108 -107 -108zM1090 1294h-390v-1155h390v-139h-951v139h389v1155h-389v140h951v-140z" />
    <glyph glyph-name="dotlessi" unicode="&#x131;" 
d="M752 139h399v-139h-971v139h400v787h-400v139h455q57 0 87 -30t30 -87v-809z" />
    <glyph glyph-name="uni0136" unicode="&#x136;" 
d="M659 866l515 -866h-197l-432 725l-232 -287v-438h-170v1434h170v-729l594 729h211zM504 -403v208h194v-260q0 -80 -41 -118.5t-131 -38.5h-45v67h39q45 0 66.5 18.5t21.5 65.5v58h-104z" />
    <glyph glyph-name="uni0137" unicode="&#x137;" 
d="M688 711l428 -711h-190l-365 598l-239 -215v-383h-170v1505h170v-911l528 471h231zM498 -403v208h194v-260q0 -80 -41 -118.5t-131 -38.5h-45v67h39q45 0 66.5 18.5t21.5 65.5v58h-104z" />
    <glyph glyph-name="Lacute" unicode="&#x139;" 
d="M629 1835l-260 -233l-56 57l230 260zM352 139h768v-139h-940v1434h172v-1295z" />
    <glyph glyph-name="lacute" unicode="&#x13a;" 
d="M922 1860l-260 -234l-56 57l230 261zM752 139h399v-139h-971v139h400v1227h-400v139h455q117 0 117 -116v-1250z" />
    <glyph glyph-name="uni013B" unicode="&#x13b;" 
d="M352 139h768v-139h-940v1434h172v-1295zM524 -403v208h195v-260q0 -80 -41 -118.5t-131 -38.5h-45v67h39q45 0 66.5 18.5t21.5 65.5v58h-105z" />
    <glyph glyph-name="uni013C" unicode="&#x13c;" 
d="M752 139h399v-139h-971v139h400v1227h-400v139h455q117 0 117 -116v-1250zM555 -403v208h195v-260q0 -80 -41 -118.5t-131 -38.5h-46v67h39q45 0 66.5 18.5t21.5 65.5v58h-104z" />
    <glyph glyph-name="Lcaron" unicode="&#x13d;" 
d="M352 139h768v-139h-940v1434h172v-1295zM750 1174q0 -82 -41 -120t-131 -38h-46v67h39q45 0 66.5 18.5t21.5 65.5v58h-102v209h193v-260z" />
    <glyph glyph-name="lcaron" unicode="&#x13e;" 
d="M727 1614h-129l-197 250l48 51l213 -209h2l213 209l47 -51zM752 139h399v-139h-971v139h400v1227h-400v139h455q117 0 117 -116v-1250z" />
    <glyph glyph-name="Lslash" unicode="&#x141;" 
d="M352 139h768v-139h-940v643l-211 -104l-51 116l262 127v652h172v-560l221 109l52 -113l-273 -135v-596z" />
    <glyph glyph-name="lslash" unicode="&#x142;" 
d="M752 139h399v-139h-971v139h400v508l-220 -108l-51 116l271 131v580h-400v139h455q117 0 117 -116v-510l213 104l51 -113l-264 -131v-600z" />
    <glyph glyph-name="Nacute" unicode="&#x143;" 
d="M786 1919l86 -84l-260 -233l-55 57zM127 0v1434h225l580 -1172v1172h170v-1434h-225l-580 1174v-1174h-170z" />
    <glyph glyph-name="nacute" unicode="&#x144;" 
d="M903 1452l-260 -233l-55 57l229 260zM707 1100q163 0 260.5 -111t97.5 -313v-676h-170v625q0 158 -64 235.5t-182 77.5t-202.5 -102.5t-84.5 -249.5v-586h-172v1065h172v-234h11q38 127 127 198t207 71z" />
    <glyph glyph-name="uni0145" unicode="&#x145;" 
d="M127 0v1434h225l580 -1172v1172h170v-1434h-225l-580 1174v-1174h-170zM512 -195h195v-260q0 -80 -41 -118.5t-131 -38.5h-46v67h39q45 0 66.5 18.5t21.5 65.5v58h-104v208z" />
    <glyph glyph-name="uni0146" unicode="&#x146;" 
d="M707 1100q163 0 260.5 -111t97.5 -313v-676h-170v625q0 158 -64 235.5t-182 77.5t-202.5 -102.5t-84.5 -249.5v-586h-172v1065h172v-234h11q38 127 127 198t207 71zM537 -403v208h194v-260q0 -80 -41 -118.5t-131 -38.5h-45v67h39q45 0 66.5 18.5t21.5 65.5v58h-104z" />
    <glyph glyph-name="Ncaron" unicode="&#x147;" 
d="M352 1839l47 51l213 -209h2l213 209l47 -51l-196 -250h-129zM127 0v1434h225l580 -1172v1172h170v-1434h-225l-580 1174v-1174h-170z" />
    <glyph glyph-name="ncaron" unicode="&#x148;" 
d="M709 1208h-129l-197 250l47 51l213 -209h2l213 209l47 -51zM707 1100q163 0 260.5 -111t97.5 -313v-676h-170v625q0 158 -64 235.5t-182 77.5t-202.5 -102.5t-84.5 -249.5v-586h-172v1065h172v-234h11q38 127 127 198t207 71z" />
    <glyph glyph-name="Eng" unicode="&#x14a;" 
d="M932 1434h170v-1563q0 -143 -75.5 -219t-217.5 -76h-178v141h172q69 0 106 37.5t37 106.5v139h-69l-580 1174v-1174h-170v1434h225l580 -1172v1172z" />
    <glyph glyph-name="eng" unicode="&#x14b;" 
d="M707 1100q163 0 260.5 -111t97.5 -313v-805q0 -142 -76 -218.5t-217 -76.5h-180v141h160q69 0 106 37.5t37 106.5v764q0 158 -64 235.5t-182 77.5t-202.5 -102.5t-84.5 -249.5v-586h-172v1065h172v-234h11q38 127 127 198t207 71z" />
    <glyph glyph-name="Omacron" unicode="&#x14c;" 
d="M342 1776h543v-121h-543v121zM109 717q0 741 505 747q249 2 377.5 -186t128.5 -561q0 -372 -128 -560t-378 -188q-249 0 -377 188t-128 560zM279 655q9 -285 92 -415.5t243 -130.5t243.5 130.5t92.5 415.5v123q-9 283 -92 415t-244 132q-159 0 -242.5 -131t-92.5 -416
v-123z" />
    <glyph glyph-name="omacron" unicode="&#x14d;" 
d="M342 1393h543v-121h-543v121zM145 535q0 263 125.5 414t343.5 151t343.5 -151t125.5 -414t-125.5 -414.5t-343.5 -151.5t-343.5 151.5t-125.5 414.5zM317 535q0 -200 79 -313t218 -113t218 113t79 313q0 199 -78.5 311t-218.5 112t-218.5 -112t-78.5 -311z" />
    <glyph glyph-name="Ohungarumlaut" unicode="&#x150;" 
d="M637 1917l94 -74l-244 -250l-59 49zM903 1913l90 -80l-252 -242l-59 54zM109 717q0 741 505 747q249 2 377.5 -186t128.5 -561q0 -372 -128 -560t-378 -188q-249 0 -377 188t-128 560zM279 655q9 -285 92 -415.5t243 -130.5t243.5 130.5t92.5 415.5v123q-9 283 -92 415
t-244 132q-159 0 -242.5 -131t-92.5 -416v-123z" />
    <glyph glyph-name="ohungarumlaut" unicode="&#x151;" 
d="M637 1534l94 -74l-244 -250l-59 50zM903 1530l90 -80l-252 -242l-59 54zM145 535q0 263 125.5 414t343.5 151t343.5 -151t125.5 -414t-125.5 -414.5t-343.5 -151.5t-343.5 151.5t-125.5 414.5zM317 535q0 -200 79 -313t218 -113t218 113t79 313q0 199 -78.5 311
t-218.5 112t-218.5 -112t-78.5 -311z" />
    <glyph glyph-name="OE" unicode="&#x152;" 
d="M1198 1294h-471v-506h410v-141h-410v-508h471v-139h-676q-247 0 -376.5 183.5t-129.5 533.5q0 349 129.5 533t376.5 184h676v-140zM522 139l35 2v1151l-35 2q-322 0 -334 -516v-123q12 -265 94.5 -390.5t239.5 -125.5z" />
    <glyph glyph-name="oe" unicode="&#x153;" 
d="M27 535q0 259 87.5 412t235.5 153q95 0 164 -72t107 -215h4q76 287 272 287q146 0 224 -151t81 -437h-518q3 -187 60.5 -303.5t146.5 -116.5q69 0 113 73t55 197h135q-17 -183 -96.5 -288t-200.5 -105q-197 0 -272 287h-7q-76 -287 -268 -287q-148 0 -235.5 153.5
t-87.5 412.5zM160 535q0 -207 50.5 -325t139.5 -118q91 0 147 121.5t56 321.5q0 203 -55 322.5t-148 119.5q-89 0 -139.5 -117.5t-50.5 -324.5zM688 614h377q-5 168 -51 265.5t-125 97.5q-85 0 -140 -100.5t-61 -262.5z" />
    <glyph glyph-name="Racute" unicode="&#x154;" 
d="M848 1835l-260 -233l-56 57l230 260zM975 711q62 0 95.5 -34t33.5 -97v-580h-170v614h-604v-614h-172v1434h522q205 0 314.5 -110t109.5 -286q0 -108 -58 -191t-163 -124v-12h92zM647 756q139 0 221 73.5t82 196.5q0 120 -83 194t-220 74h-317v-538h317z" />
    <glyph glyph-name="racute" unicode="&#x155;" 
d="M901 1452l-260 -233l-55 57l229 260zM618 563v-424h508v-139h-1003v139h323v787h-323v139h379q116 0 116 -117v-151h11q41 133 130 200.5t236 67.5h146v-160h-180q-158 0 -250.5 -98t-92.5 -244z" />
    <glyph glyph-name="uni0156" unicode="&#x156;" 
d="M975 711q62 0 95.5 -34t33.5 -97v-580h-170v614h-604v-614h-172v1434h522q205 0 314.5 -110t109.5 -286q0 -108 -58 -191t-163 -124v-12h92zM647 756q139 0 221 73.5t82 196.5q0 120 -83 194t-220 74h-317v-538h317zM506 -403v208h194v-260q0 -80 -41 -118.5t-131 -38.5
h-45v67h39q45 0 66.5 18.5t21.5 65.5v58h-104z" />
    <glyph glyph-name="uni0157" unicode="&#x157;" 
d="M618 563v-424h508v-139h-1003v139h323v787h-323v139h379q116 0 116 -117v-151h11q41 133 130 200.5t236 67.5h146v-160h-180q-158 0 -250.5 -98t-92.5 -244zM434 -403v208h195v-260q0 -80 -41 -118.5t-131 -38.5h-45v67h39q45 0 66.5 18.5t21.5 65.5v58h-105z" />
    <glyph glyph-name="Rcaron" unicode="&#x158;" 
d="M651 1589h-129l-196 250l47 51l213 -209h2l213 209l47 -51zM975 711q62 0 95.5 -34t33.5 -97v-580h-170v614h-604v-614h-172v1434h522q205 0 314.5 -110t109.5 -286q0 -108 -58 -191t-163 -124v-12h92zM647 756q139 0 221 73.5t82 196.5q0 120 -83 194t-220 74h-317v-538
h317z" />
    <glyph glyph-name="rcaron" unicode="&#x159;" 
d="M707 1208h-129l-197 250l47 51l213 -209h2l213 209l47 -51zM618 563v-424h508v-139h-1003v139h323v787h-323v139h379q116 0 116 -117v-151h11q41 133 130 200.5t236 67.5h146v-160h-180q-158 0 -250.5 -98t-92.5 -244z" />
    <glyph glyph-name="Sacute" unicode="&#x15a;" 
d="M793 1919l86 -84l-261 -233l-55 57zM623 1325q-144 0 -226 -59t-82 -160q0 -89 71.5 -151.5t275.5 -153.5q131 -57 212.5 -103t140 -100t83 -114.5t24.5 -139.5q0 -171 -131.5 -273t-351.5 -102q-248 0 -389 124.5t-141 342.5h170q0 -152 95.5 -239.5t258.5 -87.5
q149 0 233 64t84 175q0 33 -7.5 61.5t-19.5 51.5t-36.5 45.5t-48 40t-66 39.5t-79 39.5t-97.5 44.5q-260 117 -356.5 211t-94.5 229q2 160 131 257t345 97q213 2 348.5 -110t142.5 -301h-172q-7 131 -92 201.5t-225 70.5z" />
    <glyph glyph-name="sacute" unicode="&#x15b;" 
d="M793 1536l86 -84l-261 -233l-55 57zM623 963q-110 0 -178 -41t-68 -109q0 -28 12.5 -51t33 -40.5t56.5 -35.5t73.5 -33t92.5 -36q9 -3 14 -5q14 -5 42 -16q48 -18 72.5 -27.5t68.5 -29.5t68.5 -36.5t56 -43t48 -53.5t28.5 -63.5t12 -78.5q0 -73 -34.5 -131t-94 -93
t-133 -53t-156.5 -18q-206 0 -333 96t-130 271h172q0 -61 25 -107t68 -72t92.5 -38.5t105.5 -12.5q111 0 179.5 42.5t68.5 113.5q0 20 -4.5 37.5t-16 33t-22 28t-31.5 25t-35 20.5t-41.5 19.5t-43 17t-47.5 17.5t-46 17q-168 66 -215 90q-131 68 -164 162q-14 39 -14 86
q0 130 115 207.5t301 77.5q185 0 301 -85t125 -251h-170q-6 95 -73 147t-181 52z" />
    <glyph glyph-name="Scedilla" unicode="&#x15e;" 
d="M1122 344q0 -162 -119.5 -263t-320.5 -110l-31 -151l4 -2q25 20 60.5 30.5t66.5 6.5q59 -9 91.5 -52.5t29.5 -107.5q-3 -78 -70 -131t-182 -53q-110 0 -194 40v91q109 -45 198 -45q68 0 106.5 26.5t43.5 71.5q3 32 -15 54t-51 28q-61 13 -116 -35l-74 37l39 192
q-225 12 -352 135t-127 330h170q0 -152 95.5 -239.5t258.5 -87.5q149 0 233 64t84 175q0 33 -7.5 61.5t-19.5 51.5t-36.5 45.5t-48 40t-66 39.5t-79 39.5t-97.5 44.5q-260 117 -356.5 211t-94.5 229q2 160 131 257t345 97q213 2 348.5 -110t142.5 -301h-172
q-7 131 -92 201.5t-225 70.5q-144 0 -226 -59t-82 -160q0 -89 71.5 -151.5t275.5 -153.5q131 -57 212.5 -103t140 -100t83 -114.5t24.5 -139.5z" />
    <glyph glyph-name="scedilla" unicode="&#x15f;" 
d="M1055 264q0 -91 -54 -157.5t-136.5 -98.5t-186.5 -37l-31 -151l4 -2q25 20 60.5 30.5t66.5 6.5q59 -9 91.5 -52.5t29.5 -107.5q-3 -78 -70 -131t-182 -53q-110 0 -194 40v91q109 -45 198 -45q68 0 106.5 26.5t43.5 71.5q3 32 -15 54t-51 28q-62 13 -117 -35l-73 37
l39 192q-184 12 -295.5 107t-114.5 258h172q0 -61 25 -107t68 -72t92.5 -38.5t105.5 -12.5q111 0 179.5 42.5t68.5 113.5q0 20 -4.5 37.5t-16 33t-22 28t-31.5 25t-35 20.5t-41.5 19.5t-43 17t-47.5 17.5t-46 17q-168 66 -215 90q-131 68 -164 162q-14 39 -14 86
q0 130 115 207.5t301 77.5q185 0 301 -85t125 -251h-170q-6 95 -73 147t-181 52q-110 0 -178 -41t-68 -109q0 -28 12.5 -51t33 -40.5t56.5 -35.5t73.5 -33t92.5 -36q9 -3 14 -5q14 -5 42 -16q48 -18 72.5 -27.5t68.5 -29.5t68.5 -36.5t56 -43t48 -53.5t28.5 -63.5t12 -78.5z
" />
    <glyph glyph-name="Scaron" unicode="&#x160;" 
d="M358 1839l48 51l212 -209h3l213 209l47 -51l-197 -250h-129zM623 1325q-144 0 -226 -59t-82 -160q0 -89 71.5 -151.5t275.5 -153.5q131 -57 212.5 -103t140 -100t83 -114.5t24.5 -139.5q0 -171 -131.5 -273t-351.5 -102q-248 0 -389 124.5t-141 342.5h170
q0 -152 95.5 -239.5t258.5 -87.5q149 0 233 64t84 175q0 33 -7.5 61.5t-19.5 51.5t-36.5 45.5t-48 40t-66 39.5t-79 39.5t-97.5 44.5q-260 117 -356.5 211t-94.5 229q2 160 131 257t345 97q213 2 348.5 -110t142.5 -301h-172q-7 131 -92 201.5t-225 70.5z" />
    <glyph glyph-name="scaron" unicode="&#x161;" 
d="M358 1458l48 51l212 -209h3l213 209l47 -51l-197 -250h-129zM623 963q-110 0 -178 -41t-68 -109q0 -28 12.5 -51t33 -40.5t56.5 -35.5t73.5 -33t92.5 -36q9 -3 14 -5q14 -5 42 -16q48 -18 72.5 -27.5t68.5 -29.5t68.5 -36.5t56 -43t48 -53.5t28.5 -63.5t12 -78.5
q0 -73 -34.5 -131t-94 -93t-133 -53t-156.5 -18q-206 0 -333 96t-130 271h172q0 -61 25 -107t68 -72t92.5 -38.5t105.5 -12.5q111 0 179.5 42.5t68.5 113.5q0 20 -4.5 37.5t-16 33t-22 28t-31.5 25t-35 20.5t-41.5 19.5t-43 17t-47.5 17.5t-46 17q-168 66 -215 90
q-131 68 -164 162q-14 39 -14 86q0 130 115 207.5t301 77.5q185 0 301 -85t125 -251h-170q-6 95 -73 147t-181 52z" />
    <glyph glyph-name="uni0162" unicode="&#x162;" 
d="M700 0h-36l-37 -180l4 -2q25 20 60.5 30.5t66.5 6.5q59 -9 91.5 -52.5t29.5 -107.5q-3 -78 -70 -131t-182 -53q-111 0 -195 40v91q109 -45 199 -45q68 0 106 26.5t43 71.5q3 32 -14.5 54t-50.5 28q-62 13 -117 -35l-74 37l45 221h-41v1294h-452v140h1077v-140h-453v-1294
z" />
    <glyph glyph-name="uni0163" unicode="&#x163;" 
d="M1085 0h-354l-37 -180l4 -2q25 20 60.5 30.5t66.5 6.5q59 -9 91.5 -52.5t29.5 -107.5q-3 -78 -70 -131t-182 -53q-110 0 -194 40v91q109 -45 198 -45q68 0 106.5 26.5t43.5 71.5q3 32 -15 54t-51 28q-61 13 -116 -35l-74 37l45 221h6q-125 0 -191.5 67t-66.5 191v668
h-338v139h256q82 0 82 82v287h172v-369h508v-139h-508v-672q0 -56 27.5 -85.5t79.5 -29.5h421v-139z" />
    <glyph glyph-name="Tcaron" unicode="&#x164;" 
d="M678 1589h-129l-197 250l47 51l213 -209h2l213 209l47 -51zM1153 1434v-140h-453v-1294h-172v1294h-452v140h1077z" />
    <glyph glyph-name="tcaron" unicode="&#x165;" 
d="M862 1309q0 -80 -41 -118t-131 -38h-45v66h39q45 0 66.5 19t21.5 65v59h-102v209h192v-262zM664 139h421v-139h-442q-125 0 -191.5 67t-66.5 191v668h-338v139h256q82 0 82 82v287h172v-369h508v-139h-508v-672q0 -56 27.5 -85.5t79.5 -29.5z" />
    <glyph glyph-name="Tbar" unicode="&#x166;" 
d="M1153 1294h-453v-506h299v-141h-299v-647h-172v647h-299v141h299v506h-452v140h1077v-140z" />
    <glyph glyph-name="tbar" unicode="&#x167;" 
d="M664 139h421v-139h-442q-125 0 -191.5 67t-66.5 191v266h-338v127h338v275h-338v139h256q82 0 82 82v287h172v-369h508v-139h-508v-275h508v-127h-508v-270q0 -56 27.5 -85.5t79.5 -29.5z" />
    <glyph glyph-name="Umacron" unicode="&#x16a;" 
d="M342 1776h543v-121h-543v121zM143 422v1012h170v-1004q0 -136 85.5 -227.5t215.5 -91.5t215.5 91.5t85.5 227.5v1004h170v-1012q-4 -198 -137 -325.5t-334 -127.5t-334 127.5t-137 325.5z" />
    <glyph glyph-name="umacron" unicode="&#x16b;" 
d="M885 1393v-121h-543v121h543zM881 1065h170v-1065h-170v233h-13q-38 -127 -126 -197.5t-207 -70.5q-163 0 -260 111t-97 313v676h170v-625q0 -158 64 -235.5t180 -77.5q119 0 204 102.5t85 249.5v586z" />
    <glyph glyph-name="Uring" unicode="&#x16e;" 
d="M614 1593q-86 0 -144 58.5t-58 144.5q0 84 58.5 143.5t143.5 59.5q84 0 143.5 -59.5t59.5 -143.5q0 -86 -59 -144.5t-144 -58.5zM614 1681q46 0 79.5 34t33.5 81q0 46 -33.5 79.5t-79.5 33.5q-47 0 -79.5 -33.5t-32.5 -79.5q0 -48 32.5 -81.5t79.5 -33.5zM143 422v1012
h170v-1004q0 -136 85.5 -227.5t215.5 -91.5t215.5 91.5t85.5 227.5v1004h170v-1012q-4 -198 -137 -325.5t-334 -127.5t-334 127.5t-137 325.5z" />
    <glyph glyph-name="uring" unicode="&#x16f;" 
d="M614 1212q-86 0 -144 58.5t-58 144.5q0 84 58.5 143.5t143.5 59.5q84 0 143.5 -59.5t59.5 -143.5q0 -86 -59 -144.5t-144 -58.5zM614 1528q-47 0 -79.5 -33.5t-32.5 -79.5q0 -48 32.5 -81.5t79.5 -33.5q46 0 79.5 34t33.5 81q0 46 -33.5 79.5t-79.5 33.5zM881 1065h170
v-1065h-170v233h-13q-38 -127 -126 -197.5t-207 -70.5q-163 0 -260 111t-97 313v676h170v-625q0 -158 64 -235.5t180 -77.5q119 0 204 102.5t85 249.5v586z" />
    <glyph glyph-name="Uhungarumlaut" unicode="&#x170;" 
d="M637 1917l94 -74l-244 -250l-59 49zM903 1913l90 -80l-252 -242l-59 54zM143 422v1012h170v-1004q0 -136 85.5 -227.5t215.5 -91.5t215.5 91.5t85.5 227.5v1004h170v-1012q-4 -198 -137 -325.5t-334 -127.5t-334 127.5t-137 325.5z" />
    <glyph glyph-name="uhungarumlaut" unicode="&#x171;" 
d="M731 1460l-244 -250l-59 50l209 274zM741 1208l-59 54l221 268l90 -80zM881 1065h170v-1065h-170v233h-13q-38 -127 -126 -197.5t-207 -70.5q-163 0 -260 111t-97 313v676h170v-625q0 -158 64 -235.5t180 -77.5q119 0 204 102.5t85 249.5v586z" />
    <glyph glyph-name="Uogonek" unicode="&#x172;" 
d="M915 1434h170v-1012q-3 -154 -85.5 -267.5t-219.5 -158.5q-46 -17 -91 -41t-94 -59.5t-79.5 -83t-30.5 -97.5q0 -53 36 -77.5t85 -26.5q77 -3 139 33l23 -64q-70 -57 -166 -57q-39 0 -75 8.5t-71 27.5t-56 56t-21 88q0 90 73.5 158.5t172.5 107.5h-11q-201 0 -334 127.5
t-137 325.5v1012h170v-1004q0 -136 85.5 -227.5t215.5 -91.5t215.5 91.5t85.5 227.5v1004z" />
    <glyph glyph-name="uogonek" unicode="&#x173;" 
d="M1051 0q-45 -16 -91.5 -39.5t-98.5 -59t-85 -84.5t-33 -102t36 -77.5t85 -26.5q78 -3 140 33l22 -64q-70 -57 -166 -57q-39 0 -75 8.5t-71 27.5t-56 56t-21 88q0 58 35 111.5t87 88.5t103.5 58t93.5 31v8h-75v233h-13q-38 -127 -126 -197.5t-207 -70.5q-163 0 -260 111
t-97 313v676h170v-625q0 -158 64 -235.5t180 -77.5q119 0 204 102.5t85 249.5v586h170v-1065z" />
    <glyph glyph-name="Wcircumflex" unicode="&#x174;" 
d="M352 1634l197 250h129l196 -250l-47 -51l-213 207h-2l-213 -207zM72 1434h172l106 -1201h2l195 771h133l194 -775h5l106 1205h170l-125 -1434h-237l-177 756h-4l-178 -756h-237z" />
    <glyph glyph-name="wcircumflex" unicode="&#x175;" 
d="M352 1251l197 250h129l196 -250l-47 -51l-213 207h-2l-213 -207zM41 1065h172l154 -911h6l159 911h166l160 -911h6l154 911h172l-186 -1065h-242l-144 831h-4l-145 -831h-242z" />
    <glyph glyph-name="Ycircumflex" unicode="&#x176;" 
d="M612 1790l-213 -207l-47 51l197 250h129l196 -250l-47 -51l-213 207h-2zM698 649l4 -510h390v-139h-951v139h394l-5 510l-495 785h201l378 -609l379 609h199z" />
    <glyph glyph-name="ycircumflex" unicode="&#x177;" 
d="M352 1251l197 250h129l196 -250l-47 -51l-213 207h-2l-213 -207zM92 1065h184l355 -883l321 883h183l-508 -1327q-66 -178 -258 -178h-222v139h215q82 0 109 76l68 174q10 30 0 53z" />
    <glyph glyph-name="Ydieresis" unicode="&#x178;" 
d="M430 1614q-108 0 -108 108q0 107 108 107q107 0 107 -107q0 -108 -107 -108zM801 1614q-109 0 -109 108q0 107 109 107q106 0 106 -107q0 -108 -106 -108zM698 649l4 -510h390v-139h-951v139h394l-5 510l-495 785h201l378 -609l379 609h199z" />
    <glyph glyph-name="Zacute" unicode="&#x179;" 
d="M872 1835l-260 -233l-55 57l229 260zM309 147h821v-147h-1032v139l801 1147h-780v148h991v-146z" />
    <glyph glyph-name="zacute" unicode="&#x17a;" 
d="M872 1452l-260 -233l-55 57l229 260zM373 147h686v-147h-889v137l668 781h-648v147h848v-137z" />
    <glyph glyph-name="Zdotaccent" unicode="&#x17b;" 
d="M614 1614q-108 0 -108 108q0 107 108 107q107 0 107 -107q0 -108 -107 -108zM309 147h821v-147h-1032v139l801 1147h-780v148h991v-146z" />
    <glyph glyph-name="zdotaccent" unicode="&#x17c;" 
d="M614 1233q-108 0 -108 108q0 107 108 107q107 0 107 -107q0 -108 -107 -108zM373 147h686v-147h-889v137l668 781h-648v147h848v-137z" />
    <glyph glyph-name="Zcaron" unicode="&#x17d;" 
d="M678 1589h-129l-197 250l47 51l213 -209h2l213 209l47 -51zM309 147h821v-147h-1032v139l801 1147h-780v148h991v-146z" />
    <glyph glyph-name="zcaron" unicode="&#x17e;" 
d="M678 1208h-129l-197 250l47 51l213 -209h2l213 209l47 -51zM373 147h686v-147h-889v137l668 781h-648v147h848v-137z" />
    <glyph glyph-name="florin" unicode="&#x192;" 
d="M4 0l35 139h246q90 0 114 90l123 494h-368l34 141h371l113 453q46 188 241 188h312l-35 -139h-246q-91 0 -115 -90l-102 -412h363l-35 -141h-363l-135 -535q-46 -188 -242 -188h-311z" />
    <glyph glyph-name="uni0218" unicode="&#x218;" 
d="M623 1325q-144 0 -226 -59t-82 -160q0 -89 71.5 -151.5t275.5 -153.5q131 -57 212.5 -103t140 -100t83 -114.5t24.5 -139.5q0 -171 -131.5 -273t-351.5 -102q-248 0 -389 124.5t-141 342.5h170q0 -152 95.5 -239.5t258.5 -87.5q149 0 233 64t84 175q0 33 -7.5 61.5
t-19.5 51.5t-36.5 45.5t-48 40t-66 39.5t-79 39.5t-97.5 44.5q-260 117 -356.5 211t-94.5 229q2 160 131 257t345 97q213 2 348.5 -110t142.5 -301h-172q-7 131 -92 201.5t-225 70.5zM537 -195h194v-260q0 -80 -41 -118.5t-131 -38.5h-45v67h39q45 0 66.5 18.5t21.5 65.5v58
h-104v208z" />
    <glyph glyph-name="uni0219" unicode="&#x219;" 
d="M623 963q-110 0 -178 -41t-68 -109q0 -28 12.5 -51t33 -40.5t56.5 -35.5t73.5 -33t92.5 -36q9 -3 14 -5q14 -5 42 -16q48 -18 72.5 -27.5t68.5 -29.5t68.5 -36.5t56 -43t48 -53.5t28.5 -63.5t12 -78.5q0 -73 -34.5 -131t-94 -93t-133 -53t-156.5 -18q-206 0 -333 96
t-130 271h172q0 -61 25 -107t68 -72t92.5 -38.5t105.5 -12.5q111 0 179.5 42.5t68.5 113.5q0 20 -4.5 37.5t-16 33t-22 28t-31.5 25t-35 20.5t-41.5 19.5t-43 17t-47.5 17.5t-46 17q-168 66 -215 90q-131 68 -164 162q-14 39 -14 86q0 130 115 207.5t301 77.5q185 0 301 -85
t125 -251h-170q-6 95 -73 147t-181 52zM532 -195h195v-260q0 -80 -41 -118.5t-131 -38.5h-45v67h39q45 0 66.5 18.5t21.5 65.5v58h-105v208z" />
    <glyph glyph-name="uni021A" unicode="&#x21a;" 
d="M1153 1434v-140h-453v-1294h-172v1294h-452v140h1077zM512 -403v208h195v-260q0 -80 -41 -118.5t-131 -38.5h-46v67h39q45 0 66.5 18.5t21.5 65.5v58h-104z" />
    <glyph glyph-name="uni021B" unicode="&#x21b;" 
d="M47 926v139h256q82 0 82 82v287h172v-369h508v-139h-508v-672q0 -56 27.5 -85.5t79.5 -29.5h421v-139h-442q-125 0 -191.5 67t-66.5 191v668h-338zM580 -195h194v-260q0 -80 -41 -118.5t-131 -38.5h-45v67h39q45 0 66.5 18.5t21.5 65.5v58h-104v208z" />
    <glyph glyph-name="circumflex" unicode="&#x2c6;" 
d="M352 1286l197 250h129l196 -250l-47 -51l-213 207h-2l-213 -207z" />
    <glyph glyph-name="caron" unicode="&#x2c7;" 
d="M352 1485l47 51l213 -209h2l213 209l47 -51l-196 -250h-129z" />
    <glyph glyph-name="breve" unicode="&#x2d8;" 
d="M870 1536v-14q-2 -105 -72 -169.5t-184 -64.5t-184 64.5t-72 169.5v14h103v-12q1 -66 43 -105t110 -39t110.5 39t43.5 105v12h102z" />
    <glyph glyph-name="dotaccent" unicode="&#x2d9;" 
d="M614 1300q-108 0 -108 109q0 107 108 107q107 0 107 -107q0 -109 -107 -109z" />
    <glyph glyph-name="ring" unicode="&#x2da;" 
d="M614 1157q-86 0 -144 58.5t-58 144.5q0 84 58.5 143.5t143.5 59.5q84 0 143.5 -59.5t59.5 -143.5q0 -86 -59 -144.5t-144 -58.5zM614 1245q46 0 79.5 34t33.5 81q0 46 -33.5 79.5t-79.5 33.5q-47 0 -79.5 -33.5t-32.5 -79.5q0 -48 32.5 -81.5t79.5 -33.5z" />
    <glyph glyph-name="ogonek" unicode="&#x2db;" 
d="M631 -477q-39 0 -75 8.5t-71 27.5t-56 56t-21 88q0 58 35 111.5t87 88.5t103.5 58t93.5 31v8h94q-35 -12 -71 -28.5t-80 -44t-77.5 -57.5t-56 -71t-22.5 -84q0 -53 36 -77.5t85 -26.5q77 -3 139 33l23 -64q-70 -57 -166 -57z" />
    <glyph glyph-name="tilde" unicode="&#x2dc;" 
d="M285 1384q33 81 81.5 126.5t108.5 45.5q31 0 57 -9.5t89 -43.5q54 -30 77.5 -39.5t46.5 -9.5q39 0 68 26t59 81l72 -43q-35 -83 -86 -130t-113 -47q-37 0 -70.5 12.5t-90.5 47.5q-46 26 -67.5 34.5t-43.5 8.5q-34 0 -61 -23.5t-54 -79.5z" />
    <glyph glyph-name="hungarumlaut" unicode="&#x2dd;" 
d="M541 1548l94 -73l-244 -250l-59 49zM807 1544l90 -80l-252 -241l-59 53z" />
    <glyph glyph-name="gravecomb" unicode="&#x300;" horiz-adv-x="0" 
d="M-688 1550l229 -260l-55 -57l-260 233z" />
    <glyph glyph-name="acutecomb" unicode="&#x301;" horiz-adv-x="0" 
d="M-543 1550l86 -84l-260 -233l-55 57z" />
    <glyph glyph-name="uni0302" unicode="&#x302;" horiz-adv-x="0" 
d="M-877 1286l197 250h129l197 -250l-47 -51l-213 207h-2l-213 -207z" />
    <glyph glyph-name="tildecomb" unicode="&#x303;" horiz-adv-x="0" 
d="M-944 1384q33 81 81.5 126.5t108.5 45.5q31 0 57 -9.5t89 -43.5q53 -30 77.5 -39.5t47.5 -9.5q39 0 68 26t59 81l71 -43q-75 -177 -198 -177q-38 0 -71.5 13t-90.5 47q-46 26 -67.5 34.5t-43.5 8.5q-34 0 -60.5 -23.5t-53.5 -79.5z" />
    <glyph glyph-name="uni0304" unicode="&#x304;" horiz-adv-x="0" 
d="M-887 1448h543v-121h-543v121z" />
    <glyph glyph-name="uni0306" unicode="&#x306;" horiz-adv-x="0" 
d="M-358 1536v-14q-2 -105 -72 -169.5t-184 -64.5t-184 64.5t-72 169.5v14h102v-12q1 -66 43.5 -105t110.5 -39t110 39t43 105v12h103z" />
    <glyph glyph-name="uni0307" unicode="&#x307;" horiz-adv-x="0" 
d="M-614 1300q-109 0 -109 109q0 107 109 107q106 0 106 -107q0 -109 -106 -109z" />
    <glyph glyph-name="uni0308" unicode="&#x308;" horiz-adv-x="0" 
d="M-799 1300q-108 0 -108 109q0 107 108 107q107 0 107 -107q0 -109 -107 -109zM-428 1300q-109 0 -109 109q0 107 109 107q106 0 106 -107q0 -109 -106 -109z" />
    <glyph glyph-name="uni030A" unicode="&#x30a;" horiz-adv-x="0" 
d="M-614 1157q-86 0 -144.5 58.5t-58.5 144.5q0 84 58.5 143.5t144.5 59.5q84 0 143 -59.5t59 -143.5q0 -86 -58.5 -144.5t-143.5 -58.5zM-614 1245q46 0 79 34t33 81q0 46 -33 79.5t-79 33.5q-47 0 -80 -33.5t-33 -79.5q0 -47 33 -81t80 -34z" />
    <glyph glyph-name="uni030B" unicode="&#x30b;" horiz-adv-x="0" 
d="M-688 1548l94 -73l-244 -250l-59 49zM-422 1544l90 -80l-252 -241l-59 53z" />
    <glyph glyph-name="uni030C" unicode="&#x30c;" horiz-adv-x="0" 
d="M-877 1485l48 51l213 -209h2l213 209l47 -51l-197 -250h-129z" />
    <glyph glyph-name="uni0312" unicode="&#x312;" horiz-adv-x="0" 
d="M-545 1620q-45 0 -66.5 -18.5t-21.5 -65.5v-57h103v-209h-193v260q0 82 41 120t131 38h45v-68h-39z" />
    <glyph glyph-name="uni0326" unicode="&#x326;" horiz-adv-x="0" 
d="M-700 -195h194v-260q0 -80 -41 -118.5t-131 -38.5h-45v67h39q45 0 66.5 18.5t21.5 65.5v58h-104v208z" />
    <glyph glyph-name="uni0327" unicode="&#x327;" horiz-adv-x="0" 
d="M-838 -436v90q109 -45 199 -45q68 0 106.5 26.5t43.5 71.5q3 32 -15 54t-51 28q-62 13 -117 -35l-73 37l45 221h94l-37 -180l4 -2q25 20 60.5 30.5t66.5 6.5q59 -9 91.5 -52.5t29.5 -107.5q-3 -78 -70 -131t-182 -53q-108 0 -195 41z" />
    <glyph glyph-name="uni0328" unicode="&#x328;" horiz-adv-x="0" 
d="M-598 -477q-39 0 -75 8.5t-71 27.5t-56 56t-21 88q0 58 35 111.5t87 88.5t103.5 58t93.5 31v8h94q-35 -12 -71 -28.5t-80 -44t-77.5 -57.5t-56 -71t-22.5 -84q0 -53 36 -77.5t85 -26.5q77 -3 139 33l23 -64q-70 -57 -166 -57z" />
    <glyph glyph-name="uni0E3F" unicode="&#xe3f;" 
d="M825 754q127 -29 202 -126t75 -227q0 -181 -115 -291t-338 -110h-22v-164h-133v164h-351v1434h351v163h133v-163h12q191 0 297 -101t106 -260q0 -110 -57.5 -194.5t-159.5 -116.5v-8zM313 1294v-475h181v475h-181zM872 1055q0 101 -66.5 168t-178.5 71v-475h2
q104 0 173.5 67.5t69.5 168.5zM627 139q144 0 224.5 75.5t80.5 197.5q0 118 -81 192t-220 74h-318v-539h181v420l133 -2v-418z" />
    <glyph glyph-name="Wgrave" unicode="&#x1e80;" 
d="M442 1919l230 -260l-56 -57l-260 233zM72 1434h172l106 -1201h2l195 771h133l194 -775h5l106 1205h170l-125 -1434h-237l-177 756h-4l-178 -756h-237z" />
    <glyph glyph-name="wgrave" unicode="&#x1e81;" 
d="M442 1536l230 -260l-56 -57l-260 233zM41 1065h172l154 -911h6l159 911h166l160 -911h6l154 911h172l-186 -1065h-242l-144 831h-4l-145 -831h-242z" />
    <glyph glyph-name="Wacute" unicode="&#x1e82;" 
d="M786 1919l86 -84l-260 -233l-55 57zM72 1434h172l106 -1201h2l195 771h133l194 -775h5l106 1205h170l-125 -1434h-237l-177 756h-4l-178 -756h-237z" />
    <glyph glyph-name="wacute" unicode="&#x1e83;" 
d="M786 1536l86 -84l-260 -233l-55 57zM41 1065h172l154 -911h6l159 911h166l160 -911h6l154 911h172l-186 -1065h-242l-144 831h-4l-145 -831h-242z" />
    <glyph glyph-name="Wdieresis" unicode="&#x1e84;" 
d="M430 1614q-108 0 -108 108q0 107 108 107q107 0 107 -107q0 -108 -107 -108zM801 1614q-109 0 -109 108q0 107 109 107q106 0 106 -107q0 -108 -106 -108zM72 1434h172l106 -1201h2l195 771h133l194 -775h5l106 1205h170l-125 -1434h-237l-177 756h-4l-178 -756h-237z
" />
    <glyph glyph-name="wdieresis" unicode="&#x1e85;" 
d="M430 1233q-108 0 -108 108q0 107 108 107q107 0 107 -107q0 -108 -107 -108zM801 1233q-109 0 -109 108q0 107 109 107q106 0 106 -107q0 -108 -106 -108zM41 1065h172l154 -911h6l159 911h166l160 -911h6l154 911h172l-186 -1065h-242l-144 831h-4l-145 -831h-242z" />
    <glyph glyph-name="Ygrave" unicode="&#x1ef2;" 
d="M672 1659l-56 -57l-260 233l86 84zM698 649l4 -510h390v-139h-951v139h394l-5 510l-495 785h201l378 -609l379 609h199z" />
    <glyph glyph-name="ygrave" unicode="&#x1ef3;" 
d="M442 1536l230 -260l-56 -57l-260 233zM92 1065h184l355 -883l321 883h183l-508 -1327q-66 -178 -258 -178h-222v139h215q82 0 109 76l68 174q10 30 0 53z" />
    <glyph glyph-name="endash" unicode="&#x2013;" 
d="M123 653h983v-141h-983v141z" />
    <glyph glyph-name="emdash" unicode="&#x2014;" 
d="M0 653h1229v-141h-1229v141z" />
    <glyph glyph-name="quoteleft" unicode="&#x2018;" 
d="M684 1376q-59 0 -88 -26t-29 -88v-76h138v-281h-261v348q0 109 55 160t175 51h63v-88h-53z" />
    <glyph glyph-name="quoteright" unicode="&#x2019;" 
d="M477 1434h260v-349q0 -110 -54.5 -160.5t-174.5 -50.5h-64v89h54q59 0 87.5 25.5t28.5 86.5v78h-137v281z" />
    <glyph glyph-name="quotesinglbase" unicode="&#x201a;" 
d="M465 281h258v-349q0 -111 -53.5 -161t-173.5 -50h-64v89h53q59 0 87 25.5t28 86.5v78h-135v281z" />
    <glyph glyph-name="quotedblleft" unicode="&#x201c;" 
d="M274 1253q0 109 55 160t175 51h63v-88h-53q-59 0 -88 -26t-29 -88v-76h138v-281h-261v348zM903 1376q-59 0 -88 -26t-29 -88v-76h138v-281h-260v348q0 109 55 160t174 51h63v-88h-53z" />
    <glyph glyph-name="quotedblright" unicode="&#x201d;" 
d="M307 1153v281h260v-349q0 -110 -54.5 -160.5t-174.5 -50.5h-64v89h54q59 0 87.5 25.5t28.5 86.5v78h-137zM696 1434h260v-349q0 -110 -54.5 -160.5t-174.5 -50.5h-63v89h53q59 0 88 25.5t29 86.5v78h-138v281z" />
    <glyph glyph-name="quotedblbase" unicode="&#x201e;" 
d="M307 0v281h260v-349q0 -110 -54.5 -160.5t-174.5 -50.5h-64v89h54q59 0 87.5 25.5t28.5 86.5v78h-137zM696 281h260v-349q0 -110 -54.5 -160.5t-174.5 -50.5h-63v89h53q59 0 88 25.5t29 86.5v78h-138v281z" />
    <glyph glyph-name="dagger" unicode="&#x2020;" 
d="M1081 1065v-139h-387v-1254h-155v1254h-389v139h389v369h155v-369h387z" />
    <glyph glyph-name="daggerdbl" unicode="&#x2021;" 
d="M1081 926h-387v-746h387v-139h-387v-369h-155v369h-389v139h389v746h-389v139h389v369h155v-369h387v-139z" />
    <glyph glyph-name="bullet" unicode="&#x2022;" 
d="M616 250q-157 0 -267.5 111t-110.5 268q0 155 111 266t267 111q155 0 266 -111t111 -266q0 -157 -111 -268t-266 -111z" />
    <glyph glyph-name="ellipsis" unicode="&#x2026;" 
d="M82 281h260v-281h-260v281zM485 281h258v-281h-258v281zM887 281h260v-281h-260v281z" />
    <glyph glyph-name="perthousand" unicode="&#x2030;" 
d="M401 1204q0 120 57.5 191t155.5 71t155.5 -70.5t57.5 -191.5q0 -120 -57.5 -190t-155.5 -70q-99 0 -156 69.5t-57 190.5zM502 1204q0 -80 29 -124t83 -44t83.5 44t29.5 124t-29.5 125t-83.5 45t-83 -45t-29 -125zM137 750h955v-95h-955v95zM127 229q0 120 58.5 191.5
t156.5 71.5t155.5 -71t57.5 -192q0 -120 -57.5 -190t-155.5 -70t-156.5 70t-58.5 190zM674 229q0 120 57.5 191.5t155.5 71.5q99 0 157 -71t58 -192q0 -120 -58.5 -190t-156.5 -70t-155.5 70t-57.5 190zM229 229q0 -80 29.5 -124t83.5 -44q53 0 83 44.5t30 123.5t-30 124.5
t-83 45.5q-54 0 -83.5 -45t-29.5 -125zM774 229q0 -79 30 -123.5t83 -44.5q54 0 83 44t29 124t-29 125t-83 45q-53 0 -83 -45.5t-30 -124.5z" />
    <glyph glyph-name="guilsinglleft" unicode="&#x2039;" 
d="M666 160l-353 401l353 397h163l-333 -395v-4l333 -399h-163z" />
    <glyph glyph-name="guilsinglright" unicode="&#x203a;" 
d="M563 160h-164l334 399v4l-334 395h164l352 -397z" />
    <glyph glyph-name="fraction" unicode="&#x2044;" 
d="M922 1434h118l-735 -1434h-119z" />
    <glyph glyph-name="uni2070" unicode="&#x2070;" 
d="M614 1464q150 2 229 -109.5t79 -324.5t-79 -324.5t-229 -111.5t-228.5 111.5t-78.5 324.5q0 211 78 322t229 112zM438 1061v-64q0 -39 6 -73l318 317q-41 117 -148 117q-168 0 -176 -297zM791 997v64q0 39 -7 86l-321 -322q40 -125 151 -125q81 -2 126 68t51 229z" />
    <glyph glyph-name="uni2074" unicode="&#x2074;" 
d="M936 920v-105h-143v-199h-131v199l-369 -2v105l346 516h154v-514h143zM420 918l242 2v358z" />
    <glyph glyph-name="uni2075" unicode="&#x2075;" 
d="M651 1128q105 0 167.5 -69t62.5 -187q0 -129 -74 -204.5t-197 -73.5q-119 2 -190.5 67.5t-71.5 174.5v12h131v-12q0 -62 35.5 -99t95.5 -37q68 0 104 44.5t36 129.5q0 81 -36 124.5t-102 43.5q-79 0 -114 -71h-123l35 463h446v-107h-338l-22 -278h6q53 79 149 79z" />
    <glyph glyph-name="uni2076" unicode="&#x2076;" 
d="M344 973q0 248 70.5 369.5t214.5 121.5q99 0 161.5 -55t75.5 -160h-129q-15 109 -112 109q-147 0 -150 -334h6q56 106 176 106q101 2 164.5 -71t63.5 -191q0 -123 -72.5 -198.5t-191.5 -75.5q-134 2 -205.5 99t-71.5 280zM477 864q0 -74 38 -119t101 -45q64 0 101 43.5
t37 120.5q0 78 -36 119t-102 41q-64 0 -101.5 -43.5t-37.5 -116.5z" />
    <glyph glyph-name="uni2077" unicode="&#x2077;" 
d="M336 1434h557v-113l-299 -705h-141l299 705h-416v113z" />
    <glyph glyph-name="uni2078" unicode="&#x2078;" 
d="M324 840q0 77 47.5 133.5t136.5 85.5v4q-74 26 -114 76t-40 114q0 91 74 151t186 60t185 -60t73 -151q0 -66 -39 -115.5t-112 -74.5v-4q87 -28 134.5 -85t47.5 -134q0 -106 -82.5 -176t-206.5 -70q-126 0 -208 70t-82 176zM485 1233q0 -56 35.5 -89.5t93.5 -33.5
q57 0 92 34t35 89q0 57 -34.5 91t-92.5 34q-59 0 -94 -34t-35 -91zM455 850q0 -64 45.5 -107t113.5 -43q66 -2 112 42t46 108q0 70 -43 112t-115 44q-73 0 -116 -42.5t-43 -113.5z" />
    <glyph glyph-name="uni2079" unicode="&#x2079;" 
d="M885 1085q0 -491 -283 -491q-101 0 -164 54.5t-76 160.5h130q15 -109 110 -109q146 0 152 334h-6q-59 -106 -179 -106q-100 -2 -162.5 71t-62.5 191q0 123 72 198.5t192 75.5q133 -2 205 -99.5t72 -279.5zM750 1194q0 74 -38 119t-102 45q-63 0 -100 -44t-37 -120
q0 -78 36.5 -119t100.5 -41t102 44t38 116z" />
    <glyph glyph-name="uni2080" unicode="&#x2080;" 
d="M614 840q150 2 229 -109.5t79 -324.5t-79 -325t-229 -112q-149 0 -228 112t-79 325q0 211 78 322t229 112zM438 436v-63q0 -39 6 -74l318 317q-41 117 -148 117q-168 0 -176 -297zM791 373v63q0 39 -7 86l-321 -321q40 -125 151 -125q81 -2 126 68t51 229z" />
    <glyph glyph-name="uni2081" unicode="&#x2081;" 
d="M680 106h211v-106h-555v106h211v445h-187v104h105q82 0 82 82v80h133v-711z" />
    <glyph glyph-name="uni2082" unicode="&#x2082;" 
d="M338 588v14q0 110 73 178t193 68q115 0 188.5 -63.5t73.5 -168.5q0 -65 -37 -126.5t-144 -196.5q-23 -29 -36 -45l-114 -135v-7h356v-106h-518v96l176 201q118 141 156 199t38 116q0 65 -40 97t-99 32q-58 0 -97.5 -35.5t-39.5 -103.5v-14h-129z" />
    <glyph glyph-name="uni2083" unicode="&#x2083;" 
d="M475 225v-12q0 -61 39.5 -100t101.5 -37q62 0 100 41t38 108q0 69 -38.5 106.5t-109.5 37.5h-55v104h55q58 0 88.5 37t30.5 106q0 54 -30 85.5t-81 31.5q-53 0 -83.5 -33.5t-30.5 -93.5v-22h-131v24q0 103 67.5 167.5t175.5 64.5q107 0 175.5 -61t68.5 -158
q0 -72 -37 -126t-98 -69v-4q75 -15 119.5 -71t44.5 -134q0 -106 -77 -177t-192 -71q-117 0 -194.5 69t-77.5 175v12h131z" />
    <glyph glyph-name="uni2084" unicode="&#x2084;" 
d="M936 303v-104h-143v-199h-131v199l-369 -2v104l346 516h154v-514h143zM420 301l242 2v359z" />
    <glyph glyph-name="uni2085" unicode="&#x2085;" 
d="M651 504q105 0 167.5 -69t62.5 -187q0 -128 -73.5 -203.5t-197.5 -75.5q-119 2 -190.5 67.5t-71.5 174.5v12h131v-12q0 -62 35.5 -98.5t95.5 -36.5q68 0 104 44.5t36 129.5q0 81 -36 124.5t-102 43.5q-79 0 -114 -72h-123l35 463h446v-107h-338l-22 -278h6q54 80 149 80z
" />
    <glyph glyph-name="uni2086" unicode="&#x2086;" 
d="M344 348q0 248 70.5 370t214.5 122q99 0 161.5 -55t75.5 -160h-129q-15 108 -112 108q-147 0 -150 -334h6q57 107 176 107q101 2 164.5 -71t63.5 -191q0 -123 -73 -199t-191 -76q-134 2 -205.5 99t-71.5 280zM477 240q0 -74 38 -119t101 -45q64 0 101 43.5t37 120.5
q0 78 -36 118.5t-102 40.5q-64 0 -101.5 -43.5t-37.5 -115.5z" />
    <glyph glyph-name="uni2087" unicode="&#x2087;" 
d="M336 817h557v-112l-299 -705h-141l299 705h-416v112z" />
    <glyph glyph-name="uni2088" unicode="&#x2088;" 
d="M324 215q0 77 47.5 133.5t136.5 85.5v4q-73 26 -113.5 76t-40.5 115q0 91 74 151t186 60t185 -60t73 -151q0 -67 -39 -116.5t-112 -74.5v-4q87 -28 134.5 -85t47.5 -134q0 -106 -82.5 -176t-206.5 -70q-126 0 -208 70t-82 176zM485 608q0 -56 35.5 -89.5t93.5 -33.5
q57 0 92 34t35 89q0 57 -34.5 91t-92.5 34q-59 0 -94 -34t-35 -91zM455 225q0 -64 45.5 -106.5t113.5 -42.5q66 -2 112 41.5t46 107.5q0 70 -43 112t-115 44q-73 0 -116 -42.5t-43 -113.5z" />
    <glyph glyph-name="uni2089" unicode="&#x2089;" 
d="M885 461q0 -492 -283 -492q-101 0 -164 54.5t-76 160.5h130q15 -108 110 -108q146 0 152 334h-6q-60 -107 -179 -107q-100 -2 -162.5 71t-62.5 191q0 123 72 199t192 76q133 -2 205 -99.5t72 -279.5zM750 569q0 74 -38 119t-102 45q-63 0 -100 -44t-37 -120
q0 -78 36.5 -118.5t100.5 -40.5t102 43.5t38 115.5z" />
    <glyph glyph-name="uni20A9" unicode="&#x20a9;" 
d="M1223 858v-108h-125l-66 -750h-239l-175 756h-4l-178 -756h-237l-66 750h-127v108h117l-49 576h170l51 -576h217l37 146h131l37 -146h217l51 576h172l-49 -576h115zM354 233l131 517h-180l45 -517h4zM879 229l45 521h-181l134 -521h2z" />
    <glyph glyph-name="Euro" unicode="&#x20ac;" 
d="M629 109q131 0 209 97t86 265h170q-11 -233 -135 -368t-330 -134q-245 3 -377.5 197.5t-132.5 550.5q0 362 134.5 553t375.5 194q210 1 332 -136t133 -365h-170q-8 164 -84 263t-211 99q-139 0 -224 -107.5t-108 -318.5h436v-108h-444v-13v-123v-12h444v-111h-436
q25 -204 110.5 -313.5t221.5 -109.5z" />
    <glyph glyph-name="uni20AD" unicode="&#x20ad;" 
d="M70 668v141h155v625h172v-625h150l358 625h205l-375 -625h291v-141h-291l398 -668h-203l-383 668h-150v-668h-172v668h-155z" />
    <glyph glyph-name="uni20B2" unicode="&#x20b2;" 
d="M694 1317v-580h400v-215q-1 -243 -108.5 -384.5t-291.5 -162.5v-139h-125v139q-217 26 -333.5 218.5t-116.5 525.5q0 332 116.5 523.5t333.5 217.5v137h125v-137q178 -20 284 -151t116 -346h-170q-7 146 -68 238t-162 116zM924 596h-230v-358h-125v1081
q-132 -25 -203 -162t-77 -379v-121q6 -265 93 -404.5t247 -139.5q143 0 219 103t76 306v74z" />
    <glyph glyph-name="uni20B8" unicode="&#x20b8;" 
d="M76 1434h1077v-140h-1077v140zM1153 1096v-140h-453v-956h-172v956h-452v140h1077z" />
    <glyph glyph-name="uni20B9" unicode="&#x20b9;" 
d="M1149 1294h-240q68 -83 80 -204h156v-127h-162q-17 -82 -71.5 -144t-139.5 -96v-12h90q63 0 96 -34t33 -97v-580h-170v614h-741v142h455q120 0 198 55.5t98 151.5h-751v127h751q-22 95 -100.5 149.5t-195.5 54.5h-455v140h1069v-140z" />
    <glyph glyph-name="uni20BD" unicode="&#x20bd;" 
d="M737 594h-348v-150h508v-127h-508v-317h-170v317h-158v127h158v150h-158v141h158v699h518q198 0 312 -112.5t114 -307.5q0 -194 -115 -307t-311 -113zM389 1294v-559h311q134 0 213.5 75t79.5 204q0 128 -80 204t-213 76h-311z" />
    <glyph glyph-name="uni20BF" unicode="&#x20bf;" 
d="M1102 401q0 -161 -91 -266.5t-268 -128.5v-170h-127v164h-157v-164h-125v164h-191v1434h191v163h125v-163h157v163h127v-172q143 -27 221 -122t78 -230q0 -110 -57.5 -194.5t-159.5 -116.5v-8q127 -29 202 -126t75 -227zM313 1294v-475h316q104 0 173.5 67.5t69.5 168.5
q0 105 -70 172t-188 67h-301zM625 139q145 0 226 75.5t81 197.5q0 118 -81 192t-220 74h-318v-539h312z" />
    <glyph glyph-name="uni2116" unicode="&#x2116;" 
d="M795 1204q0 120 57.5 191t155.5 71q99 0 157 -70.5t58 -191.5q0 -120 -58.5 -190t-156.5 -70t-155.5 70t-57.5 190zM6 0v1434h203l328 -1131h2v1131h151v-1434h-203l-327 1130h-2v-1130h-152zM895 1204q0 -79 30 -123.5t83 -44.5q54 0 83 44t29 124t-29 125t-83 45
q-53 0 -83 -45.5t-30 -124.5zM825 838h367v-95h-367v95z" />
    <glyph glyph-name="trademark" unicode="&#x2122;" 
d="M524 1434l-2 -95h-182v-495l-109 -2v497h-186v95h479zM987 1434h137v-592h-108v461h-2l-103 -216h-71l-103 216h-2v-461h-108v592h139l108 -240h5z" />
    <glyph glyph-name="arrowleft" unicode="&#x2190;" 
d="M469 215l-430 428l430 428l88 -88l-278 -270l2 -4h888v-131h-886l-2 -5l276 -272z" />
    <glyph glyph-name="arrowup" unicode="&#x2191;" 
d="M549 0v1264l-4 2l-271 -277l-90 86l430 430l428 -430l-88 -88l-270 277l-4 -2v-1262h-131z" />
    <glyph glyph-name="arrowright" unicode="&#x2192;" 
d="M760 215l-88 86l276 272l-2 5h-887v131h889l2 4l-278 270l88 88l430 -428z" />
    <glyph glyph-name="arrowdown" unicode="&#x2193;" 
d="M614 -51l-430 430l90 86l271 -277l4 2v1315h131v-1312l4 -3l270 277l88 -88z" />
    <glyph glyph-name="arrowboth" unicode="&#x2194;" 
d="M20 623l410 409l88 -88l-258 -252l2 -4h705l2 4l-258 252l88 88l409 -409l-409 -410l-90 88l258 252l-2 4h-701l-2 -4l258 -252l-90 -88z" />
    <glyph glyph-name="arrowupdn" unicode="&#x2195;" 
d="M616 -20l-430 430l88 86l271 -277l4 2v1043l-4 2l-271 -277l-88 86l430 430l428 -430l-88 -88l-272 277l-4 -2v-1039l4 -2l272 277l88 -88z" />
    <glyph glyph-name="uni2196" unicode="&#x2196;" 
d="M1053 393l-824 824l-4 -3l4 -387h-125l-2 607h609v-123l-389 4l-3 -4l826 -824z" />
    <glyph glyph-name="uni2197" unicode="&#x2197;" 
d="M180 401l-92 93l825 823l-2 4l-389 -4v123h608l-2 -606h-124l4 387l-4 2z" />
    <glyph glyph-name="uni2198" unicode="&#x2198;" 
d="M180 1040l824 -823l4 2l-4 387h124l2 -606h-608v123l389 -4l2 4l-825 823z" />
    <glyph glyph-name="uni2199" unicode="&#x2199;" 
d="M1049 1040l92 -94l-826 -823l2 -4l390 4v-123h-609l2 606h125l-4 -387l4 -2z" />
    <glyph glyph-name="uni21A9" unicode="&#x21a9;" 
d="M31 629l430 430l86 -90l-277 -271l2 -4h504q125 0 204 76.5t79 200.5t-77.5 200t-199.5 76h-112v131h121q175 0 291 -115t116 -290q0 -177 -117.5 -293.5t-296.5 -116.5h-510l-2 -4l277 -270l-88 -88z" />
    <glyph glyph-name="uni21AA" unicode="&#x21aa;" 
d="M768 201l-88 88l276 270l-2 4h-510q-178 0 -295.5 116.5t-117.5 293.5q0 175 116 290t291 115h121v-131h-113q-122 0 -199 -76t-77 -200t79 -200.5t204 -76.5h503l2 4l-276 271l86 90l430 -430z" />
    <glyph glyph-name="uni21B0" unicode="&#x21b0;" 
d="M942 0v940h-633l-2 -4l279 -270l-88 -88l-430 428l430 428l88 -86l-277 -273l2 -4h764v-1071h-133z" />
    <glyph glyph-name="uni21B1" unicode="&#x21b1;" 
d="M154 0v1071h764l2 4l-277 273l88 86l430 -428l-430 -428l-88 88l279 270l-2 4h-633v-940h-133z" />
    <glyph glyph-name="uni21B2" unicode="&#x21b2;" 
d="M1075 1434v-1072h-764l-2 -4l277 -272l-88 -86l-430 428l430 428l88 -88l-279 -270l2 -4h633v940h133z" />
    <glyph glyph-name="uni21B3" unicode="&#x21b3;" 
d="M154 1434h133v-940h633l2 4l-279 270l88 88l430 -428l-430 -428l-88 86l277 272l-2 4h-764v1072z" />
    <glyph glyph-name="uni21B6" unicode="&#x21b6;" 
d="M455 227l-428 430l88 88l270 -276l4 2v510q0 179 116.5 296.5t293.5 117.5q174 0 289.5 -116.5t115.5 -291.5v-121h-131v119q0 123 -76.5 200t-199.5 77t-200 -78.5t-77 -204.5v-510l4 -2l271 276l90 -86z" />
    <glyph glyph-name="uni21B7" unicode="&#x21b7;" 
d="M774 227l-430 430l90 86l271 -276l4 2v510q0 126 -77 204.5t-200 78.5t-199.5 -77t-76.5 -200v-119h-131v121q0 175 115.5 291.5t289.5 116.5q177 0 293.5 -117.5t116.5 -296.5v-510l4 -2l270 276l88 -88z" />
    <glyph glyph-name="uni21C4" unicode="&#x21c4;" 
d="M766 694l-88 88l276 271l-2 4h-886v131h886l2 4l-278 272l90 86l428 -428zM463 -55l-428 430l428 428l90 -88l-279 -273l2 -4h887v-131h-887l-2 -4l277 -270z" />
    <glyph glyph-name="uni21C6" unicode="&#x21c6;" 
d="M463 694l-428 428l428 428l88 -88l-277 -270l2 -4h887v-131h-887l-2 -4l279 -273zM766 -55l-90 88l278 270l-2 4h-886v131h886l2 4l-276 271l88 90l428 -430z" />
    <glyph glyph-name="emptyset" unicode="&#x2205;" 
d="M614 1096q115 0 219 -44.5t180 -120.5t120.5 -180t44.5 -219q0 -153 -75.5 -282.5t-205.5 -205t-283 -75.5t-282.5 75.5t-205 205t-75.5 282.5t75.5 283t205 205.5t282.5 75.5zM614 963q-177 0 -303.5 -127t-126.5 -304q0 -139 86 -256l600 601q-117 86 -256 86zM614 102
q178 0 304 126.5t126 303.5q0 146 -88 261l-600 -603q115 -88 258 -88z" />
    <glyph glyph-name="product" unicode="&#x220f;" 
d="M1065 1434v-1434h-158v1294h-585v-1294h-158v1434h901z" />
    <glyph glyph-name="summation" unicode="&#x2211;" 
d="M117 -328v140l737 735l-737 747v140h1007v-140h-778l735 -743v-8l-733 -731h776v-140h-1007z" />
    <glyph glyph-name="minus" unicode="&#x2212;" 
d="M123 715h983v-142h-983v142z" />
    <glyph glyph-name="radical" unicode="&#x221a;" 
d="M20 731h183l286 -907l562 1610h184l-627 -1762h-229z" />
    <glyph glyph-name="integral" unicode="&#x222b;" 
d="M82 -309v139h426v1440q0 79 43 121.5t121 42.5h434v-140h-426v-1439q0 -79 -43 -121.5t-121 -42.5h-434z" />
    <glyph glyph-name="approxequal" unicode="&#x2248;" 
d="M47 700q109 269 307 269q60 0 106.5 -20t180.5 -95q99 -57 141.5 -73.5t83.5 -14.5q71 3 113 43.5t94 155.5l94 -54q-57 -139 -127.5 -200.5t-173.5 -61.5q-111 0 -268 101q-92 58 -145 80t-95 22q-66 0 -118 -48t-101 -155zM59 326q110 268 310 268q56 0 101 -18.5
t152 -78.5q20 -12 31 -18q100 -56 143 -73t83 -15q71 3 113 43.5t95 155.5l95 -51q-59 -140 -129.5 -201.5t-171.5 -61.5q-60 0 -123 24t-148 75q-91 58 -143 80t-94 22q-67 0 -119 -48t-102 -155z" />
    <glyph glyph-name="notequal" unicode="&#x2260;" 
d="M1106 788h-338l-154 -339h492v-142h-555l-62 -135h-151l61 135h-276v142h340l153 339h-493v142h557l61 135h152l-62 -135h275v-142z" />
    <glyph glyph-name="lessequal" unicode="&#x2264;" 
d="M1055 408l-881 294v193l881 297v-170l-746 -217v-12l746 -218v-167zM1055 283v-140h-881v140h881z" />
    <glyph glyph-name="greaterequal" unicode="&#x2265;" 
d="M174 408v167l746 218v12l-746 217v170l881 -297v-193zM174 283h881v-140h-881v140z" />
    <glyph glyph-name="lozenge" unicode="&#x25ca;" 
d="M571 0l-467 719l467 715h86l469 -715l-469 -719h-86zM618 184l349 535l-349 530h-6l-348 -530l348 -535h6z" />
    <glyph glyph-name="circle" unicode="&#x25cb;" 
d="M1178 532q0 -153 -75.5 -282.5t-205.5 -205t-283 -75.5t-282.5 75.5t-205 205t-75.5 282.5t75.5 283t205 205.5t282.5 75.5q115 0 219 -44.5t180 -120.5t120.5 -180t44.5 -219zM141 532q0 -128 63.5 -237t172.5 -172.5t237 -63.5q196 0 334.5 139t138.5 334t-138.5 334.5
t-334.5 139.5q-128 0 -237 -64t-172.5 -173t-63.5 -237z" />
    <glyph glyph-name="uni25CF" unicode="&#x25cf;" 
d="M1178 532q0 -153 -75.5 -282.5t-205.5 -205t-283 -75.5t-282.5 75.5t-205 205t-75.5 282.5t75.5 283t205 205.5t282.5 75.5q115 0 219 -44.5t180 -120.5t120.5 -180t44.5 -219z" />
    <glyph glyph-name="uni25D0" unicode="&#x25d0;" 
d="M1178 532q0 -153 -75.5 -282.5t-205.5 -205t-283 -75.5t-282.5 75.5t-205 205t-75.5 282.5t75.5 283t205 205.5t282.5 75.5q115 0 219 -44.5t180 -120.5t120.5 -180t44.5 -219zM614 59q196 0 334.5 139t138.5 334t-138.5 334.5t-334.5 139.5v-947z" />
    <glyph glyph-name="uni25D1" unicode="&#x25d1;" 
d="M51 532q0 153 75.5 283t205 205.5t282.5 75.5q115 0 219 -44.5t180 -120.5t120.5 -180t44.5 -219q0 -153 -75.5 -282.5t-205.5 -205t-283 -75.5t-282.5 75.5t-205 205t-75.5 282.5zM614 59v947q-196 0 -334.5 -139.5t-138.5 -334.5t138.5 -334t334.5 -139z" />
    <glyph glyph-name="uni25D2" unicode="&#x25d2;" 
d="M614 1096q115 0 219 -44.5t180 -120.5t120.5 -180t44.5 -219q0 -153 -75.5 -282.5t-205.5 -205t-283 -75.5t-282.5 75.5t-205 205t-75.5 282.5t75.5 283t205 205.5t282.5 75.5zM1087 532q0 196 -139 335t-334 139t-334 -139t-139 -335h946z" />
    <glyph glyph-name="uni25D3" unicode="&#x25d3;" 
d="M614 -31q-153 0 -282.5 75.5t-205 205t-75.5 282.5t75.5 283t205 205.5t282.5 75.5q115 0 219 -44.5t180 -120.5t120.5 -180t44.5 -219q0 -153 -75.5 -282.5t-205.5 -205t-283 -75.5zM1087 532h-946q0 -196 139 -334.5t334 -138.5t334 138.5t139 334.5z" />
    <glyph glyph-name="uni2734" unicode="&#x2734;" 
d="M741 489l254 -331l-329 258l-50 -416l-51 416l-332 -256l261 329l-418 52l416 53l-259 328l332 -258l49 413l54 -415l331 256l-260 -326l414 -53z" />
    <glyph glyph-name="uni2736" unicode="&#x2736;" 
d="M791 537l284 -271l-375 113l-90 -379l-88 379l-375 -113l285 271l-285 268l375 -115l88 381l90 -381l375 115z" />
    <glyph glyph-name="uni2739" unicode="&#x2739;" 
d="M909 532l236 -141l-275 -6l134 -242l-242 133l-6 -276l-144 236l-141 -236l-6 276l-242 -133l133 242l-274 6l235 141l-235 144l274 4l-133 242l242 -134l6 277l141 -236l144 236l6 -277l242 134l-134 -242l275 -4z" />
    <glyph glyph-name="uni2B0E" unicode="&#x2b0e;" 
d="M82 1235h741v-832l4 -2l273 277l86 -88l-428 -430l-428 430l88 88l270 -279l4 2v705h-610v129z" />
    <glyph glyph-name="uni2B0F" unicode="&#x2b0f;" 
d="M82 184v131h610v703l-4 2l-270 -277l-88 88l428 429l428 -429l-86 -90l-273 279l-4 -2v-834h-741z" />
    <glyph glyph-name="uni2B10" unicode="&#x2b10;" 
d="M1147 1235v-129h-610v-705l4 -2l270 279l88 -88l-428 -430l-428 430l86 88l272 -277l5 2v832h741z" />
    <glyph glyph-name="uni2B11" unicode="&#x2b11;" 
d="M1147 184h-741v834l-5 2l-272 -279l-86 90l428 429l428 -429l-88 -88l-270 277l-4 -2v-703h610v-131z" />
    <glyph glyph-name="G.ss01" 
d="M119 717q0 360 135 552t375 195q210 1 332 -136t133 -365h-170q-9 165 -84 263.5t-211 98.5q-157 0 -245.5 -140t-94.5 -407v-123q6 -260 95 -403t245 -143q143 0 219 109.5t76 285.5v80h-349v139h390q61 0 95 -33.5t34 -95.5v-594h-156v260h-12q-58 -291 -324 -291
q-227 0 -355 199t-128 549z" />
    <glyph glyph-name="Gbreve.ss01" 
d="M881 1858v-15q-2 -104 -72 -168.5t-184 -64.5t-184 64.5t-72 168.5v15h102v-13q1 -66 43.5 -104.5t110.5 -38.5t110 38.5t43 104.5v13h103zM119 717q0 360 135 552t375 195q210 1 332 -136t133 -365h-170q-9 165 -84 263.5t-211 98.5q-157 0 -245.5 -140t-94.5 -407v-123
q6 -260 95 -403t245 -143q143 0 219 109.5t76 285.5v80h-349v139h390q61 0 95 -33.5t34 -95.5v-594h-156v260h-12q-58 -291 -324 -291q-227 0 -355 199t-128 549z" />
    <glyph glyph-name="uni0122.ss01" 
d="M119 717q0 360 135 552t375 195q210 1 332 -136t133 -365h-170q-9 165 -84 263.5t-211 98.5q-157 0 -245.5 -140t-94.5 -407v-123q6 -260 95 -403t245 -143q143 0 219 109.5t76 285.5v80h-349v139h390q61 0 95 -33.5t34 -95.5v-594h-156v260h-12q-58 -291 -324 -291
q-227 0 -355 199t-128 549zM510 -195h195v-260q0 -80 -41.5 -118.5t-131.5 -38.5h-45v67h39q45 0 66.5 18.5t21.5 65.5v58h-104v208z" />
    <glyph glyph-name="Gdotaccent.ss01" 
d="M625 1614q-109 0 -109 108q0 107 109 107q106 0 106 -107q0 -108 -106 -108zM119 717q0 360 135 552t375 195q210 1 332 -136t133 -365h-170q-9 165 -84 263.5t-211 98.5q-157 0 -245.5 -140t-94.5 -407v-123q6 -260 95 -403t245 -143q143 0 219 109.5t76 285.5v80h-349
v139h390q61 0 95 -33.5t34 -95.5v-594h-156v260h-12q-58 -291 -324 -291q-227 0 -355 199t-128 549z" />
    <glyph glyph-name="Q.ss01" 
d="M922 119h211v-119h-527q-243 0 -368 184.5t-125 548.5q0 363 124.5 546t368.5 185t370 -182t126 -549q0 -437 -180 -614zM281 672q3 -531 325 -531q325 0 328 531v121q-3 532 -328 532q-322 0 -325 -532v-121z" />
    <glyph glyph-name="H.ss02" 
d="M123 0v1434h170v-772h8q33 89 103.5 138.5t205.5 49.5h326v584h170v-1434h-170v709h-348q-215 0 -277 -134q-18 -41 -18 -92v-483h-170z" />
    <glyph glyph-name="Hbar.ss02" 
d="M936 1434h170v-1434h-170v709h-348q-215 0 -277 -134q-18 -41 -18 -92v-483h-170v1434h170v-242h643v242zM610 850h326v215h-643v-403h8q33 89 103.5 138.5t205.5 49.5z" />
    <glyph glyph-name="I.ss02" 
d="M700 455q0 -135 -49.5 -205t-138.5 -103v-8h578v-139h-951v139h164q54 0 92 17q133 62 133 276v862h-389v140h951v-140h-390v-839z" />
    <glyph glyph-name="Iacute.ss02" 
d="M872 1835l-260 -233l-55 57l229 260zM700 455q0 -135 -49.5 -205t-138.5 -103v-8h578v-139h-951v139h164q54 0 92 17q133 62 133 276v862h-389v140h951v-140h-390v-839z" />
    <glyph glyph-name="Icircumflex.ss02" 
d="M612 1790l-213 -207l-47 51l197 250h129l196 -250l-47 -51l-213 207h-2zM700 455q0 -135 -49.5 -205t-138.5 -103v-8h578v-139h-951v139h164q54 0 92 17q133 62 133 276v862h-389v140h951v-140h-390v-839z" />
    <glyph glyph-name="Idieresis.ss02" 
d="M430 1614q-108 0 -108 108q0 107 108 107q107 0 107 -107q0 -108 -107 -108zM801 1614q-109 0 -109 108q0 107 109 107q106 0 106 -107q0 -108 -106 -108zM700 455q0 -135 -49.5 -205t-138.5 -103v-8h578v-139h-951v139h164q54 0 92 17q133 62 133 276v862h-389v140h951
v-140h-390v-839z" />
    <glyph glyph-name="Idotaccent.ss02" 
d="M614 1614q-108 0 -108 108q0 107 108 107q107 0 107 -107q0 -108 -107 -108zM700 455q0 -135 -49.5 -205t-138.5 -103v-8h578v-139h-951v139h164q54 0 92 17q133 62 133 276v862h-389v140h951v-140h-390v-839z" />
    <glyph glyph-name="Igrave.ss02" 
d="M672 1659l-56 -57l-260 233l86 84zM700 455q0 -135 -49.5 -205t-138.5 -103v-8h578v-139h-951v139h164q54 0 92 17q133 62 133 276v862h-389v140h951v-140h-390v-839z" />
    <glyph glyph-name="Imacron.ss02" 
d="M885 1776v-121h-543v121h543zM700 455q0 -135 -49.5 -205t-138.5 -103v-8h578v-139h-951v139h164q54 0 92 17q133 62 133 276v862h-389v140h951v-140h-390v-839z" />
    <glyph glyph-name="Iogonek.ss02" 
d="M700 455q0 -135 -49.5 -205t-138.5 -103v-8h578v-139q-45 -16 -91.5 -39.5t-98.5 -59t-85 -84.5t-33 -102t36 -77.5t85 -26.5q77 -3 139 33l23 -64q-70 -57 -166 -57q-39 0 -75 8.5t-71 27.5t-56 56t-21 88q0 58 35 111.5t87 88.5t103.5 58t93.5 31v8h-856v139h164
q54 0 92 17q133 62 133 276v862h-389v140h951v-140h-390v-839z" />
    <glyph glyph-name="O.ss02" 
d="M590 1464q263 1 396.5 -187.5t133.5 -559.5t-127 -559.5t-379 -188.5q-250 0 -377.5 188.5t-127.5 559.5v47h170v-109q8 -274 90 -410t245 -136q165 0 246.5 134.5t89.5 411.5v123q0 32 -4 94q-166 -129 -368 -129q-64 0 -125 9.5t-122.5 33.5t-107 61t-74 97t-28.5 135
q0 74 30.5 142t87.5 122.5t148 87t203 33.5zM592 850q91 0 183 30.5t161 75.5q-58 369 -344 369q-124 0 -212.5 -73t-88.5 -183t84.5 -164.5t216.5 -54.5z" />
    <glyph glyph-name="Oacute.ss02" 
d="M854 1835l-260 -233l-55 57l229 260zM590 1464q263 1 396.5 -187.5t133.5 -559.5t-127 -559.5t-379 -188.5q-250 0 -377.5 188.5t-127.5 559.5v47h170v-109q8 -274 90 -410t245 -136q165 0 246.5 134.5t89.5 411.5v123q0 32 -4 94q-166 -129 -368 -129q-64 0 -125 9.5
t-122.5 33.5t-107 61t-74 97t-28.5 135q0 74 30.5 142t87.5 122.5t148 87t203 33.5zM592 850q91 0 183 30.5t161 75.5q-58 369 -344 369q-124 0 -212.5 -73t-88.5 -183t84.5 -164.5t216.5 -54.5z" />
    <glyph glyph-name="Ocircumflex.ss02" 
d="M592 1790l-213 -207l-47 51l196 250h129l197 -250l-47 -51l-213 207h-2zM590 1464q263 1 396.5 -187.5t133.5 -559.5t-127 -559.5t-379 -188.5q-250 0 -377.5 188.5t-127.5 559.5v47h170v-109q8 -274 90 -410t245 -136q165 0 246.5 134.5t89.5 411.5v123q0 32 -4 94
q-166 -129 -368 -129q-64 0 -125 9.5t-122.5 33.5t-107 61t-74 97t-28.5 135q0 74 30.5 142t87.5 122.5t148 87t203 33.5zM592 850q91 0 183 30.5t161 75.5q-58 369 -344 369q-124 0 -212.5 -73t-88.5 -183t84.5 -164.5t216.5 -54.5z" />
    <glyph glyph-name="Odieresis.ss02" 
d="M410 1614q-109 0 -109 108q0 107 109 107q106 0 106 -107q0 -108 -106 -108zM780 1614q-108 0 -108 108q0 107 108 107q107 0 107 -107q0 -108 -107 -108zM590 1464q263 1 396.5 -187.5t133.5 -559.5t-127 -559.5t-379 -188.5q-250 0 -377.5 188.5t-127.5 559.5v47h170
v-109q8 -274 90 -410t245 -136q165 0 246.5 134.5t89.5 411.5v123q0 32 -4 94q-166 -129 -368 -129q-64 0 -125 9.5t-122.5 33.5t-107 61t-74 97t-28.5 135q0 74 30.5 142t87.5 122.5t148 87t203 33.5zM592 850q91 0 183 30.5t161 75.5q-58 369 -344 369q-124 0 -212.5 -73
t-88.5 -183t84.5 -164.5t216.5 -54.5z" />
    <glyph glyph-name="Ograve.ss02" 
d="M651 1659l-55 -57l-260 233l86 84zM590 1464q263 1 396.5 -187.5t133.5 -559.5t-127 -559.5t-379 -188.5q-250 0 -377.5 188.5t-127.5 559.5v47h170v-109q8 -274 90 -410t245 -136q165 0 246.5 134.5t89.5 411.5v123q0 32 -4 94q-166 -129 -368 -129q-64 0 -125 9.5
t-122.5 33.5t-107 61t-74 97t-28.5 135q0 74 30.5 142t87.5 122.5t148 87t203 33.5zM592 850q91 0 183 30.5t161 75.5q-58 369 -344 369q-124 0 -212.5 -73t-88.5 -183t84.5 -164.5t216.5 -54.5z" />
    <glyph glyph-name="Ohungarumlaut.ss02" 
d="M711 1843l-244 -250l-59 49l208 275zM721 1591l-59 54l221 268l90 -80zM590 1464q263 1 396.5 -187.5t133.5 -559.5t-127 -559.5t-379 -188.5q-250 0 -377.5 188.5t-127.5 559.5v47h170v-109q8 -274 90 -410t245 -136q165 0 246.5 134.5t89.5 411.5v123q0 32 -4 94
q-166 -129 -368 -129q-64 0 -125 9.5t-122.5 33.5t-107 61t-74 97t-28.5 135q0 74 30.5 142t87.5 122.5t148 87t203 33.5zM592 850q91 0 183 30.5t161 75.5q-58 369 -344 369q-124 0 -212.5 -73t-88.5 -183t84.5 -164.5t216.5 -54.5z" />
    <glyph glyph-name="Omacron.ss02" 
d="M864 1776v-121h-542v121h542zM590 1464q263 1 396.5 -187.5t133.5 -559.5t-127 -559.5t-379 -188.5q-250 0 -377.5 188.5t-127.5 559.5v47h170v-109q8 -274 90 -410t245 -136q165 0 246.5 134.5t89.5 411.5v123q0 32 -4 94q-166 -129 -368 -129q-64 0 -125 9.5
t-122.5 33.5t-107 61t-74 97t-28.5 135q0 74 30.5 142t87.5 122.5t148 87t203 33.5zM592 850q91 0 183 30.5t161 75.5q-58 369 -344 369q-124 0 -212.5 -73t-88.5 -183t84.5 -164.5t216.5 -54.5z" />
    <glyph glyph-name="Otilde.ss02" 
d="M453 1745q-34 0 -61 -23.5t-54 -79.5l-74 44q33 81 82 126.5t109 45.5q30 0 55 -9.5t90 -44.5q53 -30 77.5 -39.5t47.5 -9.5q39 0 68 26t59 81l72 -43q-35 -83 -86 -130t-113 -47q-38 0 -71.5 13t-90.5 47q-46 26 -67 34.5t-43 8.5zM590 1464q263 1 396.5 -187.5
t133.5 -559.5t-127 -559.5t-379 -188.5q-250 0 -377.5 188.5t-127.5 559.5v47h170v-109q8 -274 90 -410t245 -136q165 0 246.5 134.5t89.5 411.5v123q0 32 -4 94q-166 -129 -368 -129q-64 0 -125 9.5t-122.5 33.5t-107 61t-74 97t-28.5 135q0 74 30.5 142t87.5 122.5t148 87
t203 33.5zM592 850q91 0 183 30.5t161 75.5q-58 369 -344 369q-124 0 -212.5 -73t-88.5 -183t84.5 -164.5t216.5 -54.5z" />
    <glyph glyph-name="T.ss02" 
d="M76 1294v140h1077v-146h-231q-295 -123 -466 -328t-171 -436q0 -181 100.5 -298t255.5 -117q148 0 245 92.5t97 234.5v70h170v-70q0 -201 -146 -334t-366 -133q-230 0 -378 154.5t-148 394.5q0 228 165 437t433 327v12h-637z" />
    <glyph glyph-name="Tbar.ss02" 
d="M922 1288q-178 -74 -314 -181.5t-219 -236.5h385v-141h-452q-37 -98 -37 -205q0 -181 100.5 -298t255.5 -117q148 0 245 92.5t97 234.5v70h170v-70q0 -201 -146 -334t-366 -133q-230 0 -378 154.5t-148 394.5q0 107 37 211h-162v141h231q77 128 204 235t288 177v12h-637
v140h1077v-146h-231z" />
    <glyph glyph-name="Tcaron.ss02" 
d="M352 1839l47 51l213 -209h2l213 209l47 -51l-196 -250h-129zM76 1294v140h1077v-146h-231q-295 -123 -466 -328t-171 -436q0 -181 100.5 -298t255.5 -117q148 0 245 92.5t97 234.5v70h170v-70q0 -201 -146 -334t-366 -133q-230 0 -378 154.5t-148 394.5q0 228 165 437
t433 327v12h-637z" />
    <glyph glyph-name="uni0162.ss02" 
d="M922 1288q-295 -123 -466 -328t-171 -436q0 -181 100.5 -298t255.5 -117q148 0 245 92.5t97 234.5v70h170v-70q0 -191 -133 -322t-338 -143l-31 -151l4 -2q25 20 60.5 30.5t66.5 6.5q59 -9 91.5 -52.5t29.5 -107.5q-3 -78 -70 -131t-182 -53q-110 0 -194 40v91
q109 -45 198 -45q68 0 106.5 26.5t43.5 71.5q3 32 -15 54t-51 28q-61 13 -116 -35l-74 37l39 192q-210 19 -341.5 170.5t-131.5 376.5q0 228 165 437t433 327v12h-637v140h1077v-146h-231z" />
    <glyph glyph-name="uni021A.ss02" 
d="M76 1294v140h1077v-146h-231q-295 -123 -466 -328t-171 -436q0 -181 100.5 -298t255.5 -117q148 0 245 92.5t97 234.5v70h170v-70q0 -201 -146 -334t-366 -133q-230 0 -378 154.5t-148 394.5q0 228 165 437t433 327v12h-637zM537 -195h194v-260q0 -80 -41 -118.5
t-131 -38.5h-45v67h39q45 0 66.5 18.5t21.5 65.5v58h-104v208z" />
    <glyph glyph-name="O.ss04" 
d="M109 717q0 741 505 747q249 2 377.5 -186t128.5 -561q0 -372 -128 -560t-378 -188q-249 0 -377 188t-128 560zM279 655q9 -285 92 -414.5t243 -129.5t243.5 129.5t92.5 414.5v125q-9 282 -92 413.5t-244 131.5q-159 0 -242.5 -131t-92.5 -414v-125zM616 614
q-104 0 -104 105q0 102 104 102q103 0 103 -102q0 -105 -103 -105z" />
    <glyph glyph-name="Oacute.ss04" 
d="M786 1919l86 -84l-260 -233l-55 57zM109 717q0 741 505 747q249 2 377.5 -186t128.5 -561q0 -372 -128 -560t-378 -188q-249 0 -377 188t-128 560zM279 655q9 -285 92 -414.5t243 -129.5t243.5 129.5t92.5 414.5v125q-9 282 -92 413.5t-244 131.5q-159 0 -242.5 -131
t-92.5 -414v-125zM616 614q-104 0 -104 105q0 102 104 102q103 0 103 -102q0 -105 -103 -105z" />
    <glyph glyph-name="Ocircumflex.ss04" 
d="M352 1634l197 250h129l196 -250l-47 -51l-213 207h-2l-213 -207zM109 717q0 741 505 747q249 2 377.5 -186t128.5 -561q0 -372 -128 -560t-378 -188q-249 0 -377 188t-128 560zM279 655q9 -285 92 -414.5t243 -129.5t243.5 129.5t92.5 414.5v125q-9 282 -92 413.5
t-244 131.5q-159 0 -242.5 -131t-92.5 -414v-125zM616 614q-104 0 -104 105q0 102 104 102q103 0 103 -102q0 -105 -103 -105z" />
    <glyph glyph-name="Odieresis.ss04" 
d="M430 1614q-108 0 -108 108q0 107 108 107q107 0 107 -107q0 -108 -107 -108zM801 1614q-109 0 -109 108q0 107 109 107q106 0 106 -107q0 -108 -106 -108zM109 717q0 741 505 747q249 2 377.5 -186t128.5 -561q0 -372 -128 -560t-378 -188q-249 0 -377 188t-128 560z
M279 655q9 -285 92 -414.5t243 -129.5t243.5 129.5t92.5 414.5v125q-9 282 -92 413.5t-244 131.5q-159 0 -242.5 -131t-92.5 -414v-125zM616 614q-104 0 -104 105q0 102 104 102q103 0 103 -102q0 -105 -103 -105z" />
    <glyph glyph-name="Ograve.ss04" 
d="M442 1919l230 -260l-56 -57l-260 233zM109 717q0 741 505 747q249 2 377.5 -186t128.5 -561q0 -372 -128 -560t-378 -188q-249 0 -377 188t-128 560zM279 655q9 -285 92 -414.5t243 -129.5t243.5 129.5t92.5 414.5v125q-9 282 -92 413.5t-244 131.5q-159 0 -242.5 -131
t-92.5 -414v-125zM616 614q-104 0 -104 105q0 102 104 102q103 0 103 -102q0 -105 -103 -105z" />
    <glyph glyph-name="Ohungarumlaut.ss04" 
d="M637 1917l94 -74l-244 -250l-59 49zM903 1913l90 -80l-252 -242l-59 54zM109 717q0 741 505 747q249 2 377.5 -186t128.5 -561q0 -372 -128 -560t-378 -188q-249 0 -377 188t-128 560zM279 655q9 -285 92 -414.5t243 -129.5t243.5 129.5t92.5 414.5v125q-9 282 -92 413.5
t-244 131.5q-159 0 -242.5 -131t-92.5 -414v-125zM616 614q-104 0 -104 105q0 102 104 102q103 0 103 -102q0 -105 -103 -105z" />
    <glyph glyph-name="Omacron.ss04" 
d="M342 1776h543v-121h-543v121zM109 717q0 741 505 747q249 2 377.5 -186t128.5 -561q0 -372 -128 -560t-378 -188q-249 0 -377 188t-128 560zM279 655q9 -285 92 -414.5t243 -129.5t243.5 129.5t92.5 414.5v125q-9 282 -92 413.5t-244 131.5q-159 0 -242.5 -131
t-92.5 -414v-125zM616 614q-104 0 -104 105q0 102 104 102q103 0 103 -102q0 -105 -103 -105z" />
    <glyph glyph-name="Otilde.ss04" 
d="M285 1686q33 81 81.5 126.5t108.5 45.5q30 0 55.5 -9.5t90.5 -44.5q54 -30 77.5 -39.5t46.5 -9.5q39 0 68 26t59 81l72 -43q-35 -83 -86 -130t-113 -47q-37 0 -70.5 12.5t-90.5 47.5q-46 26 -67.5 34.5t-43.5 8.5q-34 0 -61 -23.5t-54 -79.5zM109 717q0 741 505 747
q249 2 377.5 -186t128.5 -561q0 -372 -128 -560t-378 -188q-249 0 -377 188t-128 560zM279 655q9 -285 92 -414.5t243 -129.5t243.5 129.5t92.5 414.5v125q-9 282 -92 413.5t-244 131.5q-159 0 -242.5 -131t-92.5 -414v-125zM616 614q-104 0 -104 105q0 102 104 102
q103 0 103 -102q0 -105 -103 -105z" />
    <glyph glyph-name="Q.ss04" 
d="M692 -27v-245h359v-142h-873v142h359v245q-211 29 -319.5 216t-108.5 528q0 741 505 747q249 2 377.5 -186t128.5 -561q0 -341 -108 -528t-320 -216zM279 655q9 -285 92 -415.5t243 -130.5t243.5 130.5t92.5 415.5v123q-9 283 -92 415t-244 132q-159 0 -242.5 -131
t-92.5 -416v-123z" />
    <glyph glyph-name="i.loclTRK" 
d="M625 1233q-109 0 -109 108q0 107 109 107q106 0 106 -107q0 -108 -106 -108zM752 139h399v-139h-971v139h400v787h-400v139h455q57 0 87 -30t30 -87v-809z" />
    <glyph glyph-name="a.ss01" 
d="M901 1065h170v-1065h-170v225h-12q-47 -124 -138 -190t-210 -66q-201 0 -316.5 151.5t-115.5 414.5t115.5 414t316.5 151q121 0 210 -67t138 -197h12v229zM590 109q143 0 226 115t83 311t-83 311t-226 115q-144 0 -227.5 -114.5t-83.5 -311.5t83.5 -311.5t227.5 -114.5z
" />
    <glyph glyph-name="aacute.ss01" 
d="M862 1452l-260 -233l-55 57l229 260zM901 1065h170v-1065h-170v225h-12q-47 -124 -138 -190t-210 -66q-201 0 -316.5 151.5t-115.5 414.5t115.5 414t316.5 151q121 0 210 -67t138 -197h12v229zM590 109q143 0 226 115t83 311t-83 311t-226 115q-144 0 -227.5 -114.5
t-83.5 -311.5t83.5 -311.5t227.5 -114.5z" />
    <glyph glyph-name="abreve.ss01" 
d="M602 1227q-114 0 -184 64.5t-72 168.5v15h103v-13q1 -66 43 -104.5t110 -38.5t110.5 38.5t43.5 104.5v13h102v-15q-2 -104 -72 -168.5t-184 -64.5zM901 1065h170v-1065h-170v225h-12q-47 -124 -138 -190t-210 -66q-201 0 -316.5 151.5t-115.5 414.5t115.5 414t316.5 151
q121 0 210 -67t138 -197h12v229zM590 109q143 0 226 115t83 311t-83 311t-226 115q-144 0 -227.5 -114.5t-83.5 -311.5t83.5 -311.5t227.5 -114.5z" />
    <glyph glyph-name="acircumflex.ss01" 
d="M600 1407l-213 -207l-47 51l197 250h129l196 -250l-47 -51l-213 207h-2zM901 1065h170v-1065h-170v225h-12q-47 -124 -138 -190t-210 -66q-201 0 -316.5 151.5t-115.5 414.5t115.5 414t316.5 151q121 0 210 -67t138 -197h12v229zM590 109q143 0 226 115t83 311t-83 311
t-226 115q-144 0 -227.5 -114.5t-83.5 -311.5t83.5 -311.5t227.5 -114.5z" />
    <glyph glyph-name="adieresis.ss01" 
d="M418 1233q-109 0 -109 108q0 107 109 107q106 0 106 -107q0 -108 -106 -108zM788 1233q-108 0 -108 108q0 107 108 107q107 0 107 -107q0 -108 -107 -108zM901 1065h170v-1065h-170v225h-12q-47 -124 -138 -190t-210 -66q-201 0 -316.5 151.5t-115.5 414.5t115.5 414
t316.5 151q121 0 210 -67t138 -197h12v229zM590 109q143 0 226 115t83 311t-83 311t-226 115q-144 0 -227.5 -114.5t-83.5 -311.5t83.5 -311.5t227.5 -114.5z" />
    <glyph glyph-name="agrave.ss01" 
d="M659 1276l-55 -57l-260 233l86 84zM901 1065h170v-1065h-170v225h-12q-47 -124 -138 -190t-210 -66q-201 0 -316.5 151.5t-115.5 414.5t115.5 414t316.5 151q121 0 210 -67t138 -197h12v229zM590 109q143 0 226 115t83 311t-83 311t-226 115q-144 0 -227.5 -114.5
t-83.5 -311.5t83.5 -311.5t227.5 -114.5z" />
    <glyph glyph-name="amacron.ss01" 
d="M872 1393v-121h-542v121h542zM901 1065h170v-1065h-170v225h-12q-47 -124 -138 -190t-210 -66q-201 0 -316.5 151.5t-115.5 414.5t115.5 414t316.5 151q121 0 210 -67t138 -197h12v229zM590 109q143 0 226 115t83 311t-83 311t-226 115q-144 0 -227.5 -114.5
t-83.5 -311.5t83.5 -311.5t227.5 -114.5z" />
    <glyph glyph-name="aogonek.ss01" 
d="M1071 0q-35 -12 -71 -28.5t-80 -44t-77.5 -57.5t-56 -71t-22.5 -84q0 -53 36 -77.5t85 -26.5q77 -3 139 33l23 -64q-70 -57 -166 -57q-39 0 -75.5 8.5t-71.5 27.5t-56 56t-21 88q0 58 35 111.5t87.5 88.5t104 58t93.5 31v8h-76v225h-12q-47 -124 -138 -190t-210 -66
q-201 0 -316.5 151.5t-115.5 414.5t115.5 414t316.5 151q121 0 210 -67t138 -197h12v229h170v-1065zM590 109q143 0 226 115t83 311t-83 311t-226 115q-144 0 -227.5 -114.5t-83.5 -311.5t83.5 -311.5t227.5 -114.5z" />
    <glyph glyph-name="aring.ss01" 
d="M602 1212q-86 0 -144.5 58.5t-58.5 144.5q0 84 58.5 143.5t144.5 59.5q84 0 143.5 -59.5t59.5 -143.5q0 -86 -59 -144.5t-144 -58.5zM602 1528q-47 0 -80 -33.5t-33 -79.5q0 -47 33 -81t80 -34q46 0 79.5 34t33.5 81q0 46 -33.5 79.5t-79.5 33.5zM901 1065h170v-1065
h-170v225h-12q-47 -124 -138 -190t-210 -66q-201 0 -316.5 151.5t-115.5 414.5t115.5 414t316.5 151q121 0 210 -67t138 -197h12v229zM590 109q143 0 226 115t83 311t-83 311t-226 115q-144 0 -227.5 -114.5t-83.5 -311.5t83.5 -311.5t227.5 -114.5z" />
    <glyph glyph-name="atilde.ss01" 
d="M461 1362q-34 0 -61 -23t-54 -79l-74 43q33 81 82 126.5t109 45.5q30 0 55 -9.5t90 -44.5q53 -30 77.5 -39.5t47.5 -9.5q39 0 68 26t59 81l72 -43q-75 -176 -199 -176q-38 0 -72 12.5t-90 46.5q-46 26 -67 34.5t-43 8.5zM901 1065h170v-1065h-170v225h-12
q-47 -124 -138 -190t-210 -66q-201 0 -316.5 151.5t-115.5 414.5t115.5 414t316.5 151q121 0 210 -67t138 -197h12v229zM590 109q143 0 226 115t83 311t-83 311t-226 115q-144 0 -227.5 -114.5t-83.5 -311.5t83.5 -311.5t227.5 -114.5z" />
    <glyph glyph-name="g.ss01" 
d="M901 1065h170v-1071q0 -234 -122 -366t-339 -134q-186 0 -307.5 97.5t-140.5 263.5h170q17 -103 90.5 -161.5t187.5 -58.5q138 0 213.5 88.5t77.5 251.5v250h-12q-47 -124 -138 -190t-210 -66q-201 0 -316.5 151.5t-115.5 414.5t115.5 414t316.5 151q121 0 210 -67
t138 -197h12v229zM590 109q143 0 226 115t83 311t-83 311t-226 115q-144 0 -227.5 -114.5t-83.5 -311.5t83.5 -311.5t227.5 -114.5z" />
    <glyph glyph-name="gbreve.ss01" 
d="M608 1227q-114 0 -184 64.5t-72 168.5v15h103v-13q1 -66 43 -104.5t110 -38.5t110.5 38.5t43.5 104.5v13h102v-15q-2 -104 -72 -168.5t-184 -64.5zM901 1065h170v-1071q0 -234 -122 -366t-339 -134q-186 0 -307.5 97.5t-140.5 263.5h170q17 -103 90.5 -161.5t187.5 -58.5
q138 0 213.5 88.5t77.5 251.5v250h-12q-47 -124 -138 -190t-210 -66q-201 0 -316.5 151.5t-115.5 414.5t115.5 414t316.5 151q121 0 210 -67t138 -197h12v229zM590 109q143 0 226 115t83 311t-83 311t-226 115q-144 0 -227.5 -114.5t-83.5 -311.5t83.5 -311.5t227.5 -114.5z
" />
    <glyph glyph-name="uni0123.ss01" 
d="M719 1432v-209h-193v260q0 82 41 119.5t131 37.5h45v-67h-38q-45 0 -67 -18.5t-22 -65.5v-57h103zM901 1065h170v-1071q0 -234 -122 -366t-339 -134q-186 0 -307.5 97.5t-140.5 263.5h170q17 -103 90.5 -161.5t187.5 -58.5q138 0 213.5 88.5t77.5 251.5v250h-12
q-47 -124 -138 -190t-210 -66q-201 0 -316.5 151.5t-115.5 414.5t115.5 414t316.5 151q121 0 210 -67t138 -197h12v229zM590 109q143 0 226 115t83 311t-83 311t-226 115q-144 0 -227.5 -114.5t-83.5 -311.5t83.5 -311.5t227.5 -114.5z" />
    <glyph glyph-name="gdotaccent.ss01" 
d="M608 1233q-108 0 -108 108q0 107 108 107q107 0 107 -107q0 -108 -107 -108zM901 1065h170v-1071q0 -234 -122 -366t-339 -134q-186 0 -307.5 97.5t-140.5 263.5h170q17 -103 90.5 -161.5t187.5 -58.5q138 0 213.5 88.5t77.5 251.5v250h-12q-47 -124 -138 -190t-210 -66
q-201 0 -316.5 151.5t-115.5 414.5t115.5 414t316.5 151q121 0 210 -67t138 -197h12v229zM590 109q143 0 226 115t83 311t-83 311t-226 115q-144 0 -227.5 -114.5t-83.5 -311.5t83.5 -311.5t227.5 -114.5z" />
    <glyph glyph-name="f.ss02" 
d="M1092 926h-523v-17q76 -36 149 -88t147 -128t129 -182.5t75 -227.5q30 -153 -5.5 -287t-125 -213.5t-211.5 -79.5q-146 0 -237 95.5t-91 277.5v850h-338v139h256q82 0 82 82v287h170v-369h523v-139zM922 274q-48 318 -353 568v-766q0 -121 47.5 -177.5t118.5 -56.5
q111 0 165 122t22 310z" />
    <glyph glyph-name="k.ss02" 
d="M1126 0h-188l-258 446q-86 -11 -160 -8v113q170 -6 289 63.5t119 173.5q0 75 -61 122.5t-156 47.5q-74 0 -146 -38.5t-125.5 -101t-87 -146.5t-33.5 -170v-502h-169v1505h169v-755h13q51 159 165 249.5t265 90.5q147 0 240.5 -80.5t93.5 -208.5q0 -108 -66 -189.5
t-184 -126.5z" />
    <glyph glyph-name="uni0137.ss02" 
d="M846 485l280 -485h-188l-258 446q-86 -11 -160 -8v113q170 -6 289 63.5t119 173.5q0 75 -61 122.5t-156 47.5q-74 0 -146 -38.5t-125.5 -101t-87 -146.5t-33.5 -170v-502h-169v1505h169v-755h13q51 159 165 249.5t265 90.5q147 0 240.5 -80.5t93.5 -208.5
q0 -108 -66 -189.5t-184 -126.5zM512 -403v208h195v-260q0 -80 -41 -118.5t-131 -38.5h-46v67h39q45 0 66.5 18.5t21.5 65.5v58h-104z" />
    <glyph glyph-name="o.ss02" 
d="M600 1100q229 0 356 -151t127 -417q0 -262 -125 -412.5t-344 -150.5q-214 0 -341.5 147t-127.5 410v11h156q-107 76 -113 213q-3 68 21 129.5t73 111.5t131 79.5t187 29.5zM602 958q-113 0 -183 -62.5t-65 -152.5q5 -76 62.5 -120t138.5 -50.5t175 20t169 81.5
q-25 136 -101 210t-196 74zM614 109q142 0 219.5 115.5t77.5 307.5q0 36 -2 52q-114 -100 -291.5 -117.5t-300.5 59.5q0 -192 78.5 -304.5t218.5 -112.5z" />
    <glyph glyph-name="oacute.ss02" 
d="M858 1452l-260 -233l-55 57l229 260zM600 1100q229 0 356 -151t127 -417q0 -262 -125 -412.5t-344 -150.5q-214 0 -341.5 147t-127.5 410v11h156q-107 76 -113 213q-3 68 21 129.5t73 111.5t131 79.5t187 29.5zM602 958q-113 0 -183 -62.5t-65 -152.5q5 -76 62.5 -120
t138.5 -50.5t175 20t169 81.5q-25 136 -101 210t-196 74zM614 109q142 0 219.5 115.5t77.5 307.5q0 36 -2 52q-114 -100 -291.5 -117.5t-300.5 59.5q0 -192 78.5 -304.5t218.5 -112.5z" />
    <glyph glyph-name="ocircumflex.ss02" 
d="M598 1407l-213 -207l-47 51l197 250h129l196 -250l-47 -51l-213 207h-2zM600 1100q229 0 356 -151t127 -417q0 -262 -125 -412.5t-344 -150.5q-214 0 -341.5 147t-127.5 410v11h156q-107 76 -113 213q-3 68 21 129.5t73 111.5t131 79.5t187 29.5zM602 958
q-113 0 -183 -62.5t-65 -152.5q5 -76 62.5 -120t138.5 -50.5t175 20t169 81.5q-25 136 -101 210t-196 74zM614 109q142 0 219.5 115.5t77.5 307.5q0 36 -2 52q-114 -100 -291.5 -117.5t-300.5 59.5q0 -192 78.5 -304.5t218.5 -112.5z" />
    <glyph glyph-name="odieresis.ss02" 
d="M416 1233q-109 0 -109 108q0 107 109 107q106 0 106 -107q0 -108 -106 -108zM786 1233q-108 0 -108 108q0 107 108 107q107 0 107 -107q0 -108 -107 -108zM600 1100q229 0 356 -151t127 -417q0 -262 -125 -412.5t-344 -150.5q-214 0 -341.5 147t-127.5 410v11h156
q-107 76 -113 213q-3 68 21 129.5t73 111.5t131 79.5t187 29.5zM602 958q-113 0 -183 -62.5t-65 -152.5q5 -76 62.5 -120t138.5 -50.5t175 20t169 81.5q-25 136 -101 210t-196 74zM614 109q142 0 219.5 115.5t77.5 307.5q0 36 -2 52q-114 -100 -291.5 -117.5t-300.5 59.5
q0 -192 78.5 -304.5t218.5 -112.5z" />
    <glyph glyph-name="ograve.ss02" 
d="M655 1276l-55 -57l-260 233l86 84zM600 1100q229 0 356 -151t127 -417q0 -262 -125 -412.5t-344 -150.5q-214 0 -341.5 147t-127.5 410v11h156q-107 76 -113 213q-3 68 21 129.5t73 111.5t131 79.5t187 29.5zM602 958q-113 0 -183 -62.5t-65 -152.5q5 -76 62.5 -120
t138.5 -50.5t175 20t169 81.5q-25 136 -101 210t-196 74zM614 109q142 0 219.5 115.5t77.5 307.5q0 36 -2 52q-114 -100 -291.5 -117.5t-300.5 59.5q0 -192 78.5 -304.5t218.5 -112.5z" />
    <glyph glyph-name="ohungarumlaut.ss02" 
d="M715 1460l-244 -250l-59 50l209 274zM725 1208l-59 54l221 268l90 -80zM600 1100q229 0 356 -151t127 -417q0 -262 -125 -412.5t-344 -150.5q-214 0 -341.5 147t-127.5 410v11h156q-107 76 -113 213q-3 68 21 129.5t73 111.5t131 79.5t187 29.5zM602 958
q-113 0 -183 -62.5t-65 -152.5q5 -76 62.5 -120t138.5 -50.5t175 20t169 81.5q-25 136 -101 210t-196 74zM614 109q142 0 219.5 115.5t77.5 307.5q0 36 -2 52q-114 -100 -291.5 -117.5t-300.5 59.5q0 -192 78.5 -304.5t218.5 -112.5z" />
    <glyph glyph-name="omacron.ss02" 
d="M870 1393v-121h-542v121h542zM600 1100q229 0 356 -151t127 -417q0 -262 -125 -412.5t-344 -150.5q-214 0 -341.5 147t-127.5 410v11h156q-107 76 -113 213q-3 68 21 129.5t73 111.5t131 79.5t187 29.5zM602 958q-113 0 -183 -62.5t-65 -152.5q5 -76 62.5 -120
t138.5 -50.5t175 20t169 81.5q-25 136 -101 210t-196 74zM614 109q142 0 219.5 115.5t77.5 307.5q0 36 -2 52q-114 -100 -291.5 -117.5t-300.5 59.5q0 -192 78.5 -304.5t218.5 -112.5z" />
    <glyph glyph-name="otilde.ss02" 
d="M459 1362q-34 0 -61 -23t-54 -79l-74 43q33 81 82 126.5t109 45.5q30 0 55 -9.5t90 -44.5q53 -30 77.5 -39.5t47.5 -9.5q39 0 68 26t59 81l72 -43q-75 -176 -199 -176q-38 0 -72 12.5t-90 46.5q-46 26 -67 34.5t-43 8.5zM600 1100q229 0 356 -151t127 -417
q0 -262 -125 -412.5t-344 -150.5q-214 0 -341.5 147t-127.5 410v11h156q-107 76 -113 213q-3 68 21 129.5t73 111.5t131 79.5t187 29.5zM602 958q-113 0 -183 -62.5t-65 -152.5q5 -76 62.5 -120t138.5 -50.5t175 20t169 81.5q-25 136 -101 210t-196 74zM614 109
q142 0 219.5 115.5t77.5 307.5q0 36 -2 52q-114 -100 -291.5 -117.5t-300.5 59.5q0 -192 78.5 -304.5t218.5 -112.5z" />
    <glyph glyph-name="t.ss02" 
d="M1010 926q-96 0 -191 -27.5t-175 -77.5t-142.5 -114.5t-97.5 -144t-35 -161.5q0 -128 79 -210t203 -82q122 0 193 83.5t71 223.5h170q0 -205 -116.5 -326t-313.5 -121q-203 0 -330.5 116t-127.5 302q0 173 122 318.5t328 207.5v13h-579v139h256q82 0 82 82v287h172v-369
h507v-139h-75z" />
    <glyph glyph-name="tbar.ss02" 
d="M1010 926q-154 0 -298 -68.5t-235 -179.5h608v-100h-673q-43 -82 -43 -177q0 -128 79 -210t203 -82q122 0 193 83.5t71 223.5h170q0 -205 -116.5 -326t-313.5 -121q-203 0 -330.5 116t-127.5 302q0 98 41 191h-170v100h229q127 169 350 235v13h-579v139h256q82 0 82 82
v287h172v-369h507v-139h-75z" />
    <glyph glyph-name="tcaron.ss02" 
d="M883 1309q0 -80 -41 -118t-131 -38h-45v66h39q45 0 66.5 19t21.5 65v59h-103v209h193v-262zM1010 926q-96 0 -191 -27.5t-175 -77.5t-142.5 -114.5t-97.5 -144t-35 -161.5q0 -128 79 -210t203 -82q122 0 193 83.5t71 223.5h170q0 -205 -116.5 -326t-313.5 -121
q-203 0 -330.5 116t-127.5 302q0 173 122 318.5t328 207.5v13h-579v139h256q82 0 82 82v287h172v-369h507v-139h-75z" />
    <glyph glyph-name="uni0163.ss02" 
d="M1010 926q-96 0 -191 -27.5t-175 -77.5t-142.5 -114.5t-97.5 -144t-35 -161.5q0 -128 79 -210t203 -82q122 0 193 83.5t71 223.5h170q0 -195 -104.5 -314t-284.5 -131l-30 -151l4 -2q25 20 60.5 30.5t66.5 6.5q59 -9 91.5 -52.5t29.5 -107.5q-3 -78 -70 -131t-182 -53
q-111 0 -195 40v91q109 -45 199 -45q68 0 106 26.5t43 71.5q3 32 -14.5 54t-50.5 28q-62 13 -117 -35l-74 37l39 192q-182 15 -293.5 129t-111.5 287t122 318.5t328 207.5v13h-579v139h256q82 0 82 82v287h172v-369h507v-139h-75z" />
    <glyph glyph-name="uni021B.ss02" 
d="M1010 926q-96 0 -191 -27.5t-175 -77.5t-142.5 -114.5t-97.5 -144t-35 -161.5q0 -128 79 -210t203 -82q122 0 193 83.5t71 223.5h170q0 -205 -116.5 -326t-313.5 -121q-203 0 -330.5 116t-127.5 302q0 173 122 318.5t328 207.5v13h-579v139h256q82 0 82 82v287h172v-369
h507v-139h-75zM551 -403v208h194v-260q0 -80 -41 -118.5t-131 -38.5h-45v67h39q45 0 66.5 18.5t21.5 65.5v58h-104z" />
    <glyph glyph-name="u.ss02" 
d="M178 385v680h170v-674q0 -129 72 -205.5t194 -76.5t194.5 76.5t72.5 205.5v674h170v-680q0 -187 -120 -301.5t-317 -114.5t-316.5 114.5t-119.5 301.5z" />
    <glyph glyph-name="uacute.ss02" 
d="M786 1536l86 -84l-260 -233l-55 57zM178 385v680h170v-674q0 -129 72 -205.5t194 -76.5t194.5 76.5t72.5 205.5v674h170v-680q0 -187 -120 -301.5t-317 -114.5t-316.5 114.5t-119.5 301.5z" />
    <glyph glyph-name="ucircumflex.ss02" 
d="M352 1251l197 250h129l196 -250l-47 -51l-213 207h-2l-213 -207zM178 385v680h170v-674q0 -129 72 -205.5t194 -76.5t194.5 76.5t72.5 205.5v674h170v-680q0 -187 -120 -301.5t-317 -114.5t-316.5 114.5t-119.5 301.5z" />
    <glyph glyph-name="udieresis.ss02" 
d="M430 1233q-108 0 -108 108q0 107 108 107q107 0 107 -107q0 -108 -107 -108zM801 1233q-109 0 -109 108q0 107 109 107q106 0 106 -107q0 -108 -106 -108zM178 385v680h170v-674q0 -129 72 -205.5t194 -76.5t194.5 76.5t72.5 205.5v674h170v-680q0 -187 -120 -301.5
t-317 -114.5t-316.5 114.5t-119.5 301.5z" />
    <glyph glyph-name="ugrave.ss02" 
d="M442 1536l230 -260l-56 -57l-260 233zM178 385v680h170v-674q0 -129 72 -205.5t194 -76.5t194.5 76.5t72.5 205.5v674h170v-680q0 -187 -120 -301.5t-317 -114.5t-316.5 114.5t-119.5 301.5z" />
    <glyph glyph-name="uhungarumlaut.ss02" 
d="M637 1534l94 -74l-244 -250l-59 50zM903 1530l90 -80l-252 -242l-59 54zM178 385v680h170v-674q0 -129 72 -205.5t194 -76.5t194.5 76.5t72.5 205.5v674h170v-680q0 -187 -120 -301.5t-317 -114.5t-316.5 114.5t-119.5 301.5z" />
    <glyph glyph-name="umacron.ss02" 
d="M342 1393h543v-121h-543v121zM178 385v680h170v-674q0 -129 72 -205.5t194 -76.5t194.5 76.5t72.5 205.5v674h170v-680q0 -187 -120 -301.5t-317 -114.5t-316.5 114.5t-119.5 301.5z" />
    <glyph glyph-name="uogonek.ss02" 
d="M881 1065h170v-680q0 -145 -73 -248t-202 -143q-47 -18 -91 -42t-92 -59t-77 -81.5t-29 -96.5q0 -53 36 -77.5t85 -26.5q78 -3 140 33l22 -64q-70 -57 -166 -57q-39 0 -75 8.5t-71 27.5t-56 56t-21 88q0 90 73.5 158.5t172.5 107.5h-13q-197 0 -316.5 114.5t-119.5 301.5
v680h170v-674q0 -129 72 -205.5t194 -76.5t194.5 76.5t72.5 205.5v674z" />
    <glyph glyph-name="uring.ss02" 
d="M614 1212q-86 0 -144 58.5t-58 144.5q0 84 58.5 143.5t143.5 59.5q84 0 143.5 -59.5t59.5 -143.5q0 -86 -59 -144.5t-144 -58.5zM614 1300q46 0 79.5 34t33.5 81q0 46 -33.5 79.5t-79.5 33.5q-47 0 -79.5 -33.5t-32.5 -79.5q0 -48 32.5 -81.5t79.5 -33.5zM178 385v680
h170v-674q0 -129 72 -205.5t194 -76.5t194.5 76.5t72.5 205.5v674h170v-680q0 -187 -120 -301.5t-317 -114.5t-316.5 114.5t-119.5 301.5z" />
    <glyph glyph-name="i.ss03" 
d="M492 1542h170v-242h-170v242zM150 926v139h403q57 0 87 -30t30 -87v-637q0 -83 43.5 -127.5t126.5 -44.5h239v-139h-254q-160 0 -243.5 84t-83.5 244v598h-348z" />
    <glyph glyph-name="dotlessi.ss03" 
d="M150 926v139h403q57 0 87 -30t30 -87v-637q0 -83 43.5 -127.5t126.5 -44.5h239v-139h-254q-160 0 -243.5 84t-83.5 244v598h-348z" />
    <glyph glyph-name="iacute.ss03" 
d="M745 1536l86 -84l-260 -233l-55 57zM150 926v139h403q57 0 87 -30t30 -87v-637q0 -83 43.5 -127.5t126.5 -44.5h239v-139h-254q-160 0 -243.5 84t-83.5 244v598h-348z" />
    <glyph glyph-name="icircumflex.ss03" 
d="M311 1251l197 250h129l197 -250l-48 -51l-213 207h-2l-213 -207zM150 926v139h403q57 0 87 -30t30 -87v-637q0 -83 43.5 -127.5t126.5 -44.5h239v-139h-254q-160 0 -243.5 84t-83.5 244v598h-348z" />
    <glyph glyph-name="idieresis.ss03" 
d="M389 1233q-108 0 -108 108q0 107 108 107q107 0 107 -107q0 -108 -107 -108zM760 1233q-109 0 -109 108q0 107 109 107q106 0 106 -107q0 -108 -106 -108zM150 926v139h403q57 0 87 -30t30 -87v-637q0 -83 43.5 -127.5t126.5 -44.5h239v-139h-254q-160 0 -243.5 84
t-83.5 244v598h-348z" />
    <glyph glyph-name="i.loclTRK.ss03" 
d="M573 1233q-108 0 -108 108q0 107 108 107q107 0 107 -107q0 -108 -107 -108zM150 926v139h403q57 0 87 -30t30 -87v-637q0 -83 43.5 -127.5t126.5 -44.5h239v-139h-254q-160 0 -243.5 84t-83.5 244v598h-348z" />
    <glyph glyph-name="igrave.ss03" 
d="M401 1536l230 -260l-56 -57l-260 233zM150 926v139h403q57 0 87 -30t30 -87v-637q0 -83 43.5 -127.5t126.5 -44.5h239v-139h-254q-160 0 -243.5 84t-83.5 244v598h-348z" />
    <glyph glyph-name="imacron.ss03" 
d="M301 1393h543v-121h-543v121zM150 926v139h403q57 0 87 -30t30 -87v-637q0 -83 43.5 -127.5t126.5 -44.5h239v-139h-254q-160 0 -243.5 84t-83.5 244v598h-348z" />
    <glyph glyph-name="iogonek.ss03" 
d="M662 1542v-242h-170v242h170zM1079 0q-35 -12 -71 -28.5t-80 -44t-77.5 -57.5t-56 -71t-22.5 -84q0 -53 36 -77.5t85 -26.5q77 -3 139 33l23 -64q-70 -57 -166 -57q-39 0 -75 8.5t-71 27.5t-56 56t-21 88q0 58 35 111.5t87 88.5t103.5 58t93.5 31v8h-160
q-160 0 -243.5 84t-83.5 244v598h-348v139h403q57 0 87 -30t30 -87v-637q0 -83 43.5 -127.5t126.5 -44.5h239v-139z" />
    <glyph glyph-name="l.ss03" 
d="M150 1366v139h403q117 0 117 -116v-1078q0 -83 43.5 -127.5t126.5 -44.5h239v-139h-254q-160 0 -243.5 84t-83.5 244v1038h-348z" />
    <glyph glyph-name="lacute.ss03" 
d="M774 1944l86 -84l-260 -234l-55 57zM150 1366v139h403q117 0 117 -116v-1078q0 -83 43.5 -127.5t126.5 -44.5h239v-139h-254q-160 0 -243.5 84t-83.5 244v1038h-348z" />
    <glyph glyph-name="lcaron.ss03" 
d="M338 1864l47 51l213 -209h2l213 209l47 -51l-196 -250h-129zM150 1366v139h403q117 0 117 -116v-1078q0 -83 43.5 -127.5t126.5 -44.5h239v-139h-254q-160 0 -243.5 84t-83.5 244v1038h-348z" />
    <glyph glyph-name="uni013C.ss03" 
d="M150 1366v139h403q117 0 117 -116v-1078q0 -83 43.5 -127.5t126.5 -44.5h239v-139h-254q-160 0 -243.5 84t-83.5 244v1038h-348zM518 -195h195v-260q0 -80 -41 -118.5t-131 -38.5h-45v67h39q45 0 66.5 18.5t21.5 65.5v58h-105v208z" />
    <glyph glyph-name="lslash.ss03" 
d="M840 139h239v-139h-254q-160 0 -243.5 84t-83.5 244v321l-222 -110l-51 116l273 131v580h-348v139h403q117 0 117 -116v-510l211 104l51 -113l-262 -131v-428q0 -83 43.5 -127.5t126.5 -44.5z" />
    <glyph glyph-name="g.ss04" 
d="M1124 1083h-217v-118q105 -117 105 -314q0 -182 -96 -299.5t-261 -140.5v-117h148q134 0 216.5 -84.5t82.5 -214.5q0 -131 -82 -215t-217 -84h-461q-120 0 -183 63t-63 183v86h170v-90q0 -50 27 -76.5t76 -26.5h393q77 0 122.5 46t45.5 114t-45.5 114t-122.5 46h-135
q-63 0 -96 33t-33 96v129q-159 26 -250.5 143t-91.5 295q0 204 116.5 326.5t311.5 122.5q113 0 192 -39v41q0 60 32 91.5t91 31.5h225v-142zM584 350q118 0 188 81.5t70 219.5q0 141 -69.5 223t-188.5 82t-188.5 -82t-69.5 -223q0 -138 70 -219.5t188 -81.5z" />
    <glyph glyph-name="gbreve.ss04" 
d="M578 1227q-114 0 -184 64.5t-72 168.5v15h102v-13q1 -66 43.5 -104.5t110.5 -38.5t110 38.5t43 104.5v13h103v-15q-2 -104 -72 -168.5t-184 -64.5zM1124 1083h-217v-118q105 -117 105 -314q0 -182 -96 -299.5t-261 -140.5v-117h148q134 0 216.5 -84.5t82.5 -214.5
q0 -131 -82 -215t-217 -84h-461q-120 0 -183 63t-63 183v86h170v-90q0 -50 27 -76.5t76 -26.5h393q77 0 122.5 46t45.5 114t-45.5 114t-122.5 46h-135q-63 0 -96 33t-33 96v129q-159 26 -250.5 143t-91.5 295q0 204 116.5 326.5t311.5 122.5q113 0 192 -39v41q0 60 32 91.5
t91 31.5h225v-142zM584 350q118 0 188 81.5t70 219.5q0 141 -69.5 223t-188.5 82t-188.5 -82t-69.5 -223q0 -138 70 -219.5t188 -81.5z" />
    <glyph glyph-name="uni0123.ss04" 
d="M688 1432v-209h-192v260q0 82 41 119.5t131 37.5h45v-67h-39q-45 0 -66.5 -18.5t-21.5 -65.5v-57h102zM1124 1083h-217v-118q105 -117 105 -314q0 -182 -96 -299.5t-261 -140.5v-117h148q134 0 216.5 -84.5t82.5 -214.5q0 -131 -82 -215t-217 -84h-461q-120 0 -183 63
t-63 183v86h170v-90q0 -50 27 -76.5t76 -26.5h393q77 0 122.5 46t45.5 114t-45.5 114t-122.5 46h-135q-63 0 -96 33t-33 96v129q-159 26 -250.5 143t-91.5 295q0 204 116.5 326.5t311.5 122.5q113 0 192 -39v41q0 60 32 91.5t91 31.5h225v-142zM584 350q118 0 188 81.5
t70 219.5q0 141 -69.5 223t-188.5 82t-188.5 -82t-69.5 -223q0 -138 70 -219.5t188 -81.5z" />
    <glyph glyph-name="gdotaccent.ss04" 
d="M578 1233q-109 0 -109 108q0 107 109 107q106 0 106 -107q0 -108 -106 -108zM1124 1083h-217v-118q105 -117 105 -314q0 -182 -96 -299.5t-261 -140.5v-117h148q134 0 216.5 -84.5t82.5 -214.5q0 -131 -82 -215t-217 -84h-461q-120 0 -183 63t-63 183v86h170v-90
q0 -50 27 -76.5t76 -26.5h393q77 0 122.5 46t45.5 114t-45.5 114t-122.5 46h-135q-63 0 -96 33t-33 96v129q-159 26 -250.5 143t-91.5 295q0 204 116.5 326.5t311.5 122.5q113 0 192 -39v41q0 60 32 91.5t91 31.5h225v-142zM584 350q118 0 188 81.5t70 219.5
q0 141 -69.5 223t-188.5 82t-188.5 -82t-69.5 -223q0 -138 70 -219.5t188 -81.5z" />
    <glyph glyph-name="o.ss04" 
d="M145 535q0 263 125.5 414t343.5 151t343.5 -151t125.5 -414t-125.5 -414.5t-343.5 -151.5t-343.5 151.5t-125.5 414.5zM317 535q0 -200 79 -313t218 -113t218 113t79 313q0 199 -78.5 311t-218.5 112t-218.5 -112t-78.5 -311zM616 432q-102 0 -102 103q0 100 102 100
q101 0 101 -100q0 -103 -101 -103z" />
    <glyph glyph-name="oacute.ss04" 
d="M786 1536l86 -84l-260 -233l-55 57zM145 535q0 263 125.5 414t343.5 151t343.5 -151t125.5 -414t-125.5 -414.5t-343.5 -151.5t-343.5 151.5t-125.5 414.5zM317 535q0 -200 79 -313t218 -113t218 113t79 313q0 199 -78.5 311t-218.5 112t-218.5 -112t-78.5 -311zM616 432
q-102 0 -102 103q0 100 102 100q101 0 101 -100q0 -103 -101 -103z" />
    <glyph glyph-name="ocircumflex.ss04" 
d="M352 1251l197 250h129l196 -250l-47 -51l-213 207h-2l-213 -207zM145 535q0 263 125.5 414t343.5 151t343.5 -151t125.5 -414t-125.5 -414.5t-343.5 -151.5t-343.5 151.5t-125.5 414.5zM317 535q0 -200 79 -313t218 -113t218 113t79 313q0 199 -78.5 311t-218.5 112
t-218.5 -112t-78.5 -311zM616 432q-102 0 -102 103q0 100 102 100q101 0 101 -100q0 -103 -101 -103z" />
    <glyph glyph-name="odieresis.ss04" 
d="M430 1233q-108 0 -108 108q0 107 108 107q107 0 107 -107q0 -108 -107 -108zM801 1233q-109 0 -109 108q0 107 109 107q106 0 106 -107q0 -108 -106 -108zM145 535q0 263 125.5 414t343.5 151t343.5 -151t125.5 -414t-125.5 -414.5t-343.5 -151.5t-343.5 151.5
t-125.5 414.5zM317 535q0 -200 79 -313t218 -113t218 113t79 313q0 199 -78.5 311t-218.5 112t-218.5 -112t-78.5 -311zM616 432q-102 0 -102 103q0 100 102 100q101 0 101 -100q0 -103 -101 -103z" />
    <glyph glyph-name="ograve.ss04" 
d="M442 1536l230 -260l-56 -57l-260 233zM145 535q0 263 125.5 414t343.5 151t343.5 -151t125.5 -414t-125.5 -414.5t-343.5 -151.5t-343.5 151.5t-125.5 414.5zM317 535q0 -200 79 -313t218 -113t218 113t79 313q0 199 -78.5 311t-218.5 112t-218.5 -112t-78.5 -311z
M616 432q-102 0 -102 103q0 100 102 100q101 0 101 -100q0 -103 -101 -103z" />
    <glyph glyph-name="ohungarumlaut.ss04" 
d="M637 1534l94 -74l-244 -250l-59 50zM903 1530l90 -80l-252 -242l-59 54zM145 535q0 263 125.5 414t343.5 151t343.5 -151t125.5 -414t-125.5 -414.5t-343.5 -151.5t-343.5 151.5t-125.5 414.5zM317 535q0 -200 79 -313t218 -113t218 113t79 313q0 199 -78.5 311
t-218.5 112t-218.5 -112t-78.5 -311zM616 432q-102 0 -102 103q0 100 102 100q101 0 101 -100q0 -103 -101 -103z" />
    <glyph glyph-name="omacron.ss04" 
d="M342 1393h543v-121h-543v121zM145 535q0 263 125.5 414t343.5 151t343.5 -151t125.5 -414t-125.5 -414.5t-343.5 -151.5t-343.5 151.5t-125.5 414.5zM317 535q0 -200 79 -313t218 -113t218 113t79 313q0 199 -78.5 311t-218.5 112t-218.5 -112t-78.5 -311zM616 432
q-102 0 -102 103q0 100 102 100q101 0 101 -100q0 -103 -101 -103z" />
    <glyph glyph-name="otilde.ss04" 
d="M285 1303q33 81 81.5 126.5t108.5 45.5q30 0 55.5 -9.5t90.5 -44.5q54 -30 77.5 -39.5t46.5 -9.5q39 0 68 26t59 81l72 -43q-75 -176 -199 -176q-38 0 -71.5 12.5t-89.5 46.5q-46 26 -67.5 34.5t-43.5 8.5q-34 0 -61 -23t-54 -79zM145 535q0 263 125.5 414t343.5 151
t343.5 -151t125.5 -414t-125.5 -414.5t-343.5 -151.5t-343.5 151.5t-125.5 414.5zM317 535q0 -200 79 -313t218 -113t218 113t79 313q0 199 -78.5 311t-218.5 112t-218.5 -112t-78.5 -311zM616 432q-102 0 -102 103q0 100 102 100q101 0 101 -100q0 -103 -101 -103z" />
    <glyph glyph-name="y.ss04" 
d="M836 94q134 0 216.5 -84.5t82.5 -214.5q0 -131 -82 -215t-217 -84h-459q-120 0 -183 63t-63 183v86h172v-90q0 -103 103 -103l389 3q77 0 122.5 44.5t45.5 112.5t-45.5 113t-122.5 45h-133q-63 0 -96.5 34t-33.5 97v78l-438 901h189l327 -715l332 715h191l-445 -901v-68
h148z" />
    <glyph glyph-name="yacute.ss04" 
d="M872 1452l-260 -233l-55 57l229 260zM836 94q134 0 216.5 -84.5t82.5 -214.5q0 -131 -82 -215t-217 -84h-459q-120 0 -183 63t-63 183v86h172v-90q0 -103 103 -103l389 3q77 0 122.5 44.5t45.5 112.5t-45.5 113t-122.5 45h-133q-63 0 -96.5 34t-33.5 97v78l-438 901h189
l327 -715l332 715h191l-445 -901v-68h148z" />
    <glyph glyph-name="ycircumflex.ss04" 
d="M612 1407l-213 -207l-47 51l197 250h129l196 -250l-47 -51l-213 207h-2zM836 94q134 0 216.5 -84.5t82.5 -214.5q0 -131 -82 -215t-217 -84h-459q-120 0 -183 63t-63 183v86h172v-90q0 -103 103 -103l389 3q77 0 122.5 44.5t45.5 112.5t-45.5 113t-122.5 45h-133
q-63 0 -96.5 34t-33.5 97v78l-438 901h189l327 -715l332 715h191l-445 -901v-68h148z" />
    <glyph glyph-name="ydieresis.ss04" 
d="M430 1233q-108 0 -108 108q0 107 108 107q107 0 107 -107q0 -108 -107 -108zM801 1233q-109 0 -109 108q0 107 109 107q106 0 106 -107q0 -108 -106 -108zM836 94q134 0 216.5 -84.5t82.5 -214.5q0 -131 -82 -215t-217 -84h-459q-120 0 -183 63t-63 183v86h172v-90
q0 -103 103 -103l389 3q77 0 122.5 44.5t45.5 112.5t-45.5 113t-122.5 45h-133q-63 0 -96.5 34t-33.5 97v78l-438 901h189l327 -715l332 715h191l-445 -901v-68h148z" />
    <glyph glyph-name="ygrave.ss04" 
d="M672 1276l-56 -57l-260 233l86 84zM836 94q134 0 216.5 -84.5t82.5 -214.5q0 -131 -82 -215t-217 -84h-459q-120 0 -183 63t-63 183v86h172v-90q0 -103 103 -103l389 3q77 0 122.5 44.5t45.5 112.5t-45.5 113t-122.5 45h-133q-63 0 -96.5 34t-33.5 97v78l-438 901h189
l327 -715l332 715h191l-445 -901v-68h148z" />
    <glyph glyph-name="zero.ss04" 
d="M614 1464q249 2 377.5 -186t128.5 -561q0 -372 -128 -560t-378 -188q-249 0 -377 188t-128 560q0 741 505 747zM614 1327q-157 0 -241 -129.5t-94 -409.5h671q-10 279 -93.5 409t-242.5 130zM614 111q159 0 242.5 129t93.5 409h-671q10 -281 93.5 -409.5t241.5 -128.5z
" />
    <glyph glyph-name="zero.dnom" 
d="M612 696q124 2 191 -92t67 -270t-67 -270.5t-191 -94.5t-190 93.5t-66 271.5q0 176 66 269t190 93zM485 365v-64q0 -5 1 -14t1 -13l232 230q-31 86 -107 86q-117 0 -127 -225zM741 301v64q0 19 -4 43l-233 -234q30 -98 108 -98q57 0 90 51t39 174z" />
    <glyph glyph-name="one.dnom" 
d="M682 106h188v-106h-512v106h191v340h-168v105h96q72 0 72 74v61h133v-580z" />
    <glyph glyph-name="two.dnom" 
d="M379 487v19q0 89 61.5 142.5t163.5 53.5q101 0 162 -51t61 -139q0 -54 -29.5 -102.5t-121.5 -162.5q-18 -22 -27 -34l-86 -102v-5h285v-106h-440v96l124 152q9 10 25 30q85 102 113 145t28 87q0 47 -28.5 70.5t-67.5 23.5q-40 0 -67 -26t-27 -76v-15h-129z" />
    <glyph glyph-name="three.dnom" 
d="M508 188v-10q0 -51 29.5 -80.5t80.5 -29.5q45 0 73 31t28 83q0 58 -31.5 89.5t-85.5 31.5h-37v92h37q42 0 67 30.5t25 82.5q0 42 -22.5 66t-61.5 24q-37 0 -59.5 -26t-22.5 -70v-19h-129v21q0 89 57 140.5t154 51.5t155 -49t58 -131q0 -60 -30.5 -105.5t-81.5 -58.5v-6
q64 -12 100.5 -57t36.5 -111q0 -90 -67 -149.5t-169 -59.5q-101 -1 -167 56.5t-66 146.5v16h129z" />
    <glyph glyph-name="four.dnom" 
d="M897 262v-104h-127v-158h-131v158h-305v102l270 426h166v-424h127zM461 260l178 2v281z" />
    <glyph glyph-name="five.dnom" 
d="M659 428q86 0 138.5 -59.5t52.5 -159.5q0 -112 -64.5 -176t-173.5 -64q-106 0 -170.5 57.5t-64.5 151.5v15h129v-15q0 -51 28.5 -80.5t77.5 -29.5q53 0 81 37.5t28 107.5q0 139 -107 139q-59 0 -90 -51h-123l29 385h399v-106h-284l-17 -209l4 -2q41 59 127 59z" />
    <glyph glyph-name="six.dnom" 
d="M379 291q0 405 248 405q85 0 139.5 -46t67.5 -130h-132q-12 80 -81 80q-54 0 -81 -65t-30 -207h6q21 40 60 65t86 25q83 0 134.5 -59.5t51.5 -157.5q0 -106 -64 -169.5t-168 -62.5q-117 1 -177 83.5t-60 238.5zM512 197q0 -61 29.5 -96t76.5 -35q46 0 73.5 34.5
t27.5 96.5q0 125 -103 125q-48 0 -76 -33.5t-28 -91.5z" />
    <glyph glyph-name="seven.dnom" 
d="M377 686h473v-108l-232 -578h-139l230 578h-332v108z" />
    <glyph glyph-name="eight.dnom" 
d="M362 178q0 65 40 112.5t112 67.5v7q-125 42 -125 149q0 78 64 130t161 52q98 0 162 -51.5t64 -130.5q0 -107 -125 -149v-7q72 -22 110.5 -68.5t38.5 -111.5q0 -90 -71 -149.5t-179 -59.5t-180 60t-72 149zM518 510q0 -47 26.5 -73.5t69.5 -26.5q44 0 70.5 27t26.5 73
q0 40 -27 65t-70 25t-69.5 -25t-26.5 -65zM494 186q0 -53 32.5 -86.5t87.5 -33.5q54 0 86.5 33t32.5 87q0 58 -32.5 92.5t-86.5 34.5q-55 0 -87.5 -35t-32.5 -92z" />
    <glyph glyph-name="nine.dnom" 
d="M850 375q0 -406 -250 -406q-85 0 -139.5 46t-67.5 130h131q12 -79 82 -79q55 0 82.5 65.5t30.5 206.5h-6q-20 -40 -60.5 -65t-87.5 -25q-82 0 -134 59.5t-52 157.5q0 105 64 169t167 62q117 -2 178.5 -84t61.5 -237zM715 469q0 61 -30 96t-77 35q-46 0 -72 -34t-26 -97
q0 -125 100 -125q48 0 76.5 33.5t28.5 91.5z" />
    <glyph glyph-name="zero.numr" 
d="M612 1464q124 2 191 -92t67 -270t-67 -270.5t-191 -94.5t-190 93.5t-66 271.5q0 176 66 269t190 93zM485 1133v-64q0 -5 1 -14t1 -13l232 230q-31 86 -107 86q-117 0 -127 -225zM741 1069v64q0 19 -4 43l-233 -234q30 -98 108 -98q57 0 90 51t39 174z" />
    <glyph glyph-name="one.numr" 
d="M682 854h188v-106h-512v106h191v340h-168v104h96q72 0 72 74v62h133v-580z" />
    <glyph glyph-name="two.numr" 
d="M379 1249v17q0 92 60.5 145t164.5 53q102 0 162.5 -51.5t60.5 -140.5q0 -53 -34.5 -113t-139.5 -190l-90 -111v-4h285v-106h-440v96l131 157q92 112 125.5 169.5t33.5 101.5t-26 69t-70 25q-41 0 -67.5 -28t-26.5 -74v-15h-129z" />
    <glyph glyph-name="three.numr" 
d="M508 956v-10q0 -51 29.5 -80.5t80.5 -29.5q45 0 73 31t28 83q0 58 -31.5 89.5t-85.5 31.5h-37v92h37q42 0 67 30.5t25 82.5q0 42 -22.5 66t-61.5 24q-37 0 -59.5 -26t-22.5 -70v-19h-129v21q0 89 57 140.5t154 51.5t155 -49t58 -131q0 -60 -30.5 -105.5t-81.5 -58.5v-6
q64 -12 100.5 -57t36.5 -111q0 -90 -67 -149.5t-169 -59.5q-101 -1 -167 56.5t-66 146.5v16h129z" />
    <glyph glyph-name="four.numr" 
d="M897 1010v-105h-127v-157h-131v157h-305v103l270 426h166v-424h127zM461 1008l178 2v280z" />
    <glyph glyph-name="five.numr" 
d="M659 1176q86 0 138.5 -60t52.5 -160q0 -112 -64 -175.5t-174 -63.5q-106 0 -170.5 57.5t-64.5 151.5v14h129v-14q0 -51 28.5 -81t77.5 -30q53 0 81 38t28 108q0 139 -107 139q-59 0 -90 -51h-123l29 385h399v-107h-284l-17 -209l4 -2q42 60 127 60z" />
    <glyph glyph-name="six.numr" 
d="M379 1059q0 405 248 405q85 0 139.5 -46t67.5 -130h-132q-12 80 -81 80q-54 0 -81 -65t-30 -207h6q21 40 60 65t86 25q83 0 134.5 -59.5t51.5 -157.5q0 -106 -64 -169.5t-168 -62.5q-117 1 -177 83.5t-60 238.5zM512 965q0 -61 29.5 -96t76.5 -35q46 0 73.5 34.5
t27.5 96.5q0 125 -103 125q-48 0 -76 -33.5t-28 -91.5z" />
    <glyph glyph-name="seven.numr" 
d="M377 1434h473v-109l-232 -577h-139l230 577h-332v109z" />
    <glyph glyph-name="eight.numr" 
d="M362 946q0 65 40 112.5t112 67.5v7q-125 42 -125 149q0 78 64 130t161 52q98 0 162 -51.5t64 -130.5q0 -107 -125 -149v-7q72 -22 110.5 -68.5t38.5 -111.5q0 -90 -71 -149.5t-179 -59.5t-180 60t-72 149zM518 1278q0 -47 26.5 -73.5t69.5 -26.5q44 0 70.5 27t26.5 73
q0 40 -27 65t-70 25t-69.5 -25t-26.5 -65zM494 954q0 -53 32.5 -86.5t87.5 -33.5q54 0 86.5 33t32.5 87q0 58 -32.5 92.5t-86.5 34.5q-55 0 -87.5 -35t-32.5 -92z" />
    <glyph glyph-name="nine.numr" 
d="M850 1143q0 -406 -250 -406q-85 0 -139.5 46t-67.5 130h131q12 -79 82 -79q55 0 82.5 65.5t30.5 206.5h-6q-20 -40 -60.5 -65t-87.5 -25q-82 0 -134 59.5t-52 157.5q0 105 64 169t167 62q117 -2 178.5 -84t61.5 -237zM715 1237q0 61 -30 96t-77 35q-46 0 -72 -34t-26 -97
q0 -125 100 -125q48 0 76.5 33.5t28.5 91.5z" />
    <glyph glyph-name="asterisk.ss01" 
d="M1055 1231l-330 -191l330 -192l-56 -96l-329 190v-369h-111v369l-330 -190l-55 96l330 192l-330 191l55 96l330 -190v368h111v-368l329 190z" />
  </font>
</defs>
</svg>
