<?xml version="1.0" standalone="no"?>
<!DOCTYPE svg PUBLIC "-//W3C//DTD SVG 1.1//EN" "http://www.w3.org/Graphics/SVG/1.1/DTD/svg11.dtd" >
<svg xmlns="http://www.w3.org/2000/svg" xmlns:xlink="http://www.w3.org/1999/xlink" version="1.1">
<metadata>
Created by FontForge 20170731 at Fri Feb 28 19:28:05 2020
 By Aleksey,,,
Copyright (c) 2020 by Muhammad Iqbal Firdaus. All rights reserved.
</metadata>
<defs>
<font id="TGFrekuentMonoVariable" horiz-adv-x="600" >
  <font-face 
    font-family="TG Frekuent Mono Variable"
    font-weight="400"
    font-stretch="normal"
    units-per-em="1000"
    panose-1="0 0 5 0 0 0 0 0 0 0"
    ascent="800"
    descent="-200"
    x-height="520"
    cap-height="700"
    bbox="-448 -290 639 970"
    underline-thickness="50"
    underline-position="-150"
    unicode-range="U+0020-2B11"
  />
<missing-glyph 
 />
    <glyph glyph-name=".notdef" 
 />
    <glyph glyph-name=".null" horiz-adv-x="0" 
 />
    <glyph glyph-name="nonmarkingreturn" horiz-adv-x="333" 
 />
    <glyph glyph-name="space" unicode=" " 
 />
    <glyph glyph-name="exclam" unicode="!" 
d="M346 96v-96h-90v96h90zM321 715v-195l-10 -300h-20l-10 300v195h40z" />
    <glyph glyph-name="quotedbl" unicode="&#x22;" 
d="M270 700v-143l-10 -127h-20l-10 127v143h40zM370 700v-143l-10 -127h-20l-10 127v143h40z" />
    <glyph glyph-name="numbersign" unicode="#" 
d="M170 700v-700h-40v700h40zM470 700v-700h-40v700h40zM575 504v-35h-550v35h550zM575 231v-35h-550v35h550z" />
    <glyph glyph-name="dollar" unicode="$" 
d="M103 213q0 -81 48 -132t130 -59v327q-78 36 -121 66t-61 61t-18 72q1 69 55.5 115t144.5 51v66h40v-65q59 -4 106 -29.5t75.5 -70t30.5 -101.5h-40q-4 75 -50 117.5t-122 47.5v-304q83 -36 130 -67t67 -65t20 -80q0 -79 -59.5 -127.5t-157.5 -50.5v-65h-40v66
q-101 8 -159.5 69t-58.5 158h40zM121 548q0 -32 14 -56t48.5 -47.5t97.5 -52.5v287q-74 -4 -117 -39.5t-43 -91.5zM321 20q82 2 129.5 40.5t47.5 102.5q0 38 -14.5 62.5t-51 48t-111.5 57.5v-311z" />
    <glyph glyph-name="percent" unicode="%" 
d="M60 588q0 59 27 93.5t73 34.5q47 0 73.5 -34t26.5 -94q0 -59 -26.5 -93t-73.5 -34t-73.5 34t-26.5 93zM94 588q0 -45 17.5 -71t48.5 -26t48.5 26t17.5 71q0 46 -17.5 72t-48.5 26t-48.5 -26t-17.5 -72zM340 112q0 59 27 93.5t73 34.5q47 0 73.5 -34t26.5 -94
q0 -59 -26.5 -93t-73.5 -34t-73.5 34t-26.5 93zM374 112q0 -45 17.5 -71t48.5 -26t48.5 26t17.5 71q0 46 -17.5 72t-48.5 26t-48.5 -26t-17.5 -72zM506 700l-372 -700h-40l372 700h40z" />
    <glyph glyph-name="ampersand" unicode="&#x26;" 
d="M554 0h-50l-73 73l25 25zM294 209q-69 70 -111 124.5t-61 100t-19 88.5q0 57 26 101t73.5 68t108.5 24q58 0 103 -26.5t70.5 -72t25.5 -103.5v-13h-40v13q0 48 -20.5 86t-57 59.5t-81.5 21.5q-76 0 -122 -44t-46 -116q0 -38 15.5 -77t52 -88t100.5 -113l6 -6l139 -138
l-25 -25zM464 59q-18 -18 -29 -25q-21 -16 -46.5 -27t-55.5 -16.5t-65 -5.5q-55 0 -107 23t-84.5 67t-32.5 104q0 66 38.5 113t99.5 68l11 -17q-50 -24 -80 -66t-29 -102q1 -49 29.5 -84.5t70.5 -53t84 -17.5q56 0 99 17t72 49zM439 86q35 38 47.5 93.5t3.5 119.5h35
q10 -74 -5.5 -135.5t-55.5 -104.5z" />
    <glyph glyph-name="quotesingle" unicode="'" 
d="M320 700v-143l-10 -127h-20l-10 127v143h40z" />
    <glyph glyph-name="parenleft" unicode="(" 
d="M225 295q0 138 57 261.5t158 203.5h40q-106 -81 -160.5 -199.5t-54.5 -265.5t54.5 -265.5t160.5 -199.5h-40q-101 80 -158 203.5t-57 261.5z" />
    <glyph glyph-name="parenright" unicode=")" 
d="M375 295q0 -138 -57 -261.5t-158 -203.5h-40q106 81 160.5 199.5t54.5 265.5t-54.5 265.5t-160.5 199.5h40q101 -80 158 -203.5t57 -261.5z" />
    <glyph glyph-name="asterisk" unicode="*" 
d="M282 735h36v-231h-36v231zM89 587l209 -58l213 59l9 -34l-204 -56l-31 -1l-205 56zM296 541h9l151 -217l-29 -19l-127 181l-126 -180l-30 18z" />
    <glyph glyph-name="plus" unicode="+" 
d="M540 332v-35h-480v35h480zM283 554h35v-480h-35v480z" />
    <glyph glyph-name="comma" unicode="," 
d="M345 119v-119h-110v119h110zM221 -88h24q25 0 37.5 10.5t12.5 35.5v42h50v-38q0 -43 -23.5 -64t-76.5 -21h-24v35z" />
    <glyph glyph-name="hyphen" unicode="-" 
d="M435 302v-35h-270v35h270z" />
    <glyph glyph-name="period" unicode="." 
d="M356 119v-119h-110v119h110z" />
    <glyph glyph-name="slash" unicode="/" 
d="M500 700l-357 -870h-43l357 870h43z" />
    <glyph glyph-name="zero" unicode="0" 
d="M514 544l-403 -403l-24 25l403 403zM63 350q0 180 59.5 271.5t177.5 93.5q117 1 177 -91.5t60 -273.5t-59.5 -273t-177.5 -92q-117 0 -177 92t-60 273zM103 320q3 -99 25.5 -165.5t65 -100.5t106.5 -34t106.5 34t65 100.5t25.5 165.5v60q-5 149 -53.5 224.5t-143.5 75.5
t-143.5 -75.5t-53.5 -224.5v-60z" />
    <glyph glyph-name="one" unicode="1" 
d="M545 35v-35h-450v35h450zM115 555h135q24 0 37 13t13 37v95h40v-700h-40v520h-185v35z" />
    <glyph glyph-name="two" unicode="2" 
d="M83 513q0 59 26.5 105t74 71.5t108.5 25.5q63 0 112.5 -25t77.5 -70.5t28 -104.5q0 -66 -41 -134.5t-143 -171.5l-160 -169v-5h364v-35h-418v35l191 201q95 104 131 163t36 114q0 75 -50 121t-128 46q-74 0 -121.5 -47t-47.5 -120v-13h-40v13z" />
    <glyph glyph-name="three" unicode="3" 
d="M128 189q0 -48 22.5 -86.5t62.5 -60.5t90 -22t90.5 22t63.5 60.5t23 86.5q0 71 -49.5 114.5t-130.5 43.5h-45v35h46q43 0 78 20.5t55.5 55.5t20.5 78q0 64 -43 104t-111 40q-69 0 -111 -44t-42 -116v-20h-40v20q0 57 24.5 101.5t68.5 69t100 24.5q55 0 99 -23t68.5 -64
t24.5 -92q0 -58 -30 -102.5t-83 -65.5v-4q65 -19 101 -65t36 -110q0 -57 -28 -103.5t-77 -73.5t-109 -27q-61 0 -110 26.5t-77 73.5t-28 104v11h40v-11z" />
    <glyph glyph-name="four" unicode="4" 
d="M422 700v-700h-40v700h40zM552 231v-35h-508v35h508zM392 700l-306 -469h-42l306 469h42z" />
    <glyph glyph-name="five" unicode="5" 
d="M82 200h40v-13q0 -74 47 -120.5t123 -46.5q81 0 129.5 52.5t48.5 139.5q0 86 -45 137t-125 51q-48 0 -88.5 -21.5t-63.5 -58.5h-43l30 380h355v-35h-345l29 23l-26 -330l3 -1q24 39 63 58.5t86 19.5q66 0 113.5 -28t72 -78t24.5 -117q0 -105 -59 -166.5t-159 -60.5
q-62 0 -110 25.5t-74 71.5t-26 105v13z" />
    <glyph glyph-name="six" unicode="6" 
d="M85 288q0 222 53.5 324.5t169.5 102.5q80 0 129 -42t63 -122h-40q-11 62 -50.5 95.5t-100.5 33.5q-92 0 -137.5 -89t-45.5 -267l5 -1q22 53 67.5 82.5t104.5 29.5q62 0 110.5 -28t75 -78.5t26.5 -116.5q0 -67 -26.5 -119t-75 -80t-110.5 -28q-108 1 -163 77.5t-55 225.5z
M131 212q0 -86 47.5 -139t124.5 -53q50 0 90 25t61.5 68.5t19.5 98.5q-3 87 -49 137.5t-122 50.5q-77 0 -124.5 -51.5t-47.5 -136.5z" />
    <glyph glyph-name="seven" unicode="7" 
d="M59 700h443v-35l-260 -665h-43l260 665h-400v35z" />
    <glyph glyph-name="eight" unicode="8" 
d="M68 189q0 64 39 113t109 72v4q-58 22 -89.5 63t-31.5 95q0 50 27 91t74 64.5t105 23.5t104.5 -23.5t73.5 -64.5t27 -91q0 -54 -31.5 -95.5t-89.5 -62.5v-4q70 -23 108.5 -72t38.5 -113q0 -57 -30.5 -103.5t-83.5 -73.5t-118 -27t-118 27t-83.5 73.5t-30.5 103.5zM108 189
q0 -47 25 -86t69 -61t98 -22t98 22t69 61t25 86t-25 85.5t-69 60.5t-98 22t-98 -22t-69 -60.5t-25 -85.5zM135 536q0 -40 22 -73t60 -52t84 -19t84 19t59.5 52t21.5 73t-21.5 73t-59.5 52t-84 19t-84 -19t-60 -52t-22 -73z" />
    <glyph glyph-name="nine" unicode="9" 
d="M514 412q0 -222 -53.5 -324.5t-169.5 -102.5q-80 0 -129 42t-63 122h40q11 -62 50.5 -95.5t100.5 -33.5q92 0 137.5 89t45.5 267l-5 1q-22 -53 -67.5 -82.5t-104.5 -29.5q-62 0 -110.5 28t-75 78.5t-26.5 116.5q0 67 26.5 119t75 80t110.5 28q108 -1 163 -77.5t55 -225.5
zM468 488q0 86 -47.5 139t-124.5 53q-50 0 -90 -25t-61.5 -68.5t-19.5 -98.5q3 -87 49 -137.5t122 -50.5q77 0 124.5 51.5t47.5 136.5z" />
    <glyph glyph-name="colon" unicode=":" 
d="M356 119v-119h-110v119h110zM356 520v-119h-110v119h110z" />
    <glyph glyph-name="semicolon" unicode=";" 
d="M356 520v-119h-110v119h110zM356 119v-119h-110v119h110zM232 -88h24q25 0 37.5 10.5t12.5 35.5v42h50v-38q0 -43 -23.5 -64t-76.5 -21h-24v35z" />
    <glyph glyph-name="less" unicode="&#x3c;" 
d="M85 291v50l430 221v-45l-391 -199v-4l391 -199v-45z" />
    <glyph glyph-name="equal" unicode="=" 
d="M540 202v-35h-480v35h480zM540 437v-35h-480v35h480z" />
    <glyph glyph-name="greater" unicode="&#x3e;" 
d="M85 115l391 199v4l-391 199v45l430 -221v-50l-430 -221v45z" />
    <glyph glyph-name="question" unicode="?" 
d="M281 228q0 32 12.5 56t30.5 41t49 39q33 24 52 42t32 44.5t13 62.5q0 49 -23.5 87t-64 59t-90.5 21q-76 0 -122.5 -46.5t-46.5 -120.5v-13h-40v13q0 59 26.5 105t74 71.5t108.5 25.5q63 0 112.5 -25.5t77.5 -71t28 -103.5q0 -43 -15.5 -75t-37.5 -53.5t-57 -48.5
q-41 -32 -60 -54.5t-19 -54.5v-9h-40v8zM346 96v-96h-90v96h90z" />
    <glyph glyph-name="at" unicode="@" 
d="M522 260q0 -36 -5.5 -65t-17.5 -59h-4q-13 -49 -47.5 -78t-78.5 -29q-75 0 -117 61.5t-42 169.5t42 169t117 61q44 0 78.5 -29.5t47.5 -80.5h4q12 -32 17.5 -60t5.5 -60zM499 260q0 89 -35 142t-95 53q-53 0 -86 -53.5t-33 -141.5q0 -89 33 -142.5t86 -53.5q60 0 95 53
t35 143zM60 262q0 242 62 357.5t193 115.5q106 0 163 -71.5t57 -204.5v-459h-36v458q0 115 -48 178.5t-136 63.5q-108 0 -161.5 -101.5t-53.5 -305.5v-61q0 -206 62.5 -309t194.5 -103h142v-35h-142q-155 0 -226 116.5t-71 360.5z" />
    <glyph glyph-name="A" unicode="A" 
d="M454 264v-35h-315v35h315zM263 700h74l218 -700h-42l-213 684l-213 -684h-42z" />
    <glyph glyph-name="B" unicode="B" 
d="M90 700h221q59 0 101 -23.5t63 -63.5t21 -89q0 -51 -27 -94t-73 -58v-4q58 -16 93.5 -65t35.5 -111q0 -84 -52.5 -138t-161.5 -54h-221v700zM311 35q81 0 127.5 44.5t46.5 112.5q0 43 -21 78.5t-59 56.5t-89 21h-186v-313h181zM316 383q38 0 70 19t51 51.5t19 70.5
q0 60 -41.5 100.5t-108.5 40.5h-176v-282h186z" />
    <glyph glyph-name="C" unicode="C" 
d="M68 350q0 176 64 269.5t175 95.5q98 1 155 -67.5t62 -177.5h-40q-4 91 -50 150.5t-127 59.5q-90 0 -143 -77.5t-57 -222.5v-60q5 -139 58.5 -219.5t141.5 -80.5q78 0 125.5 58t51.5 152h40q-5 -112 -63.5 -179t-153.5 -66q-113 2 -176 97.5t-63 267.5z" />
    <glyph glyph-name="D" unicode="D" 
d="M150 700v-700h-40v700h40zM271 700q93 0 151 -36t85.5 -112.5t27.5 -200.5t-27.5 -201t-85.5 -113.5t-151 -36.5h-134v35h133q118 0 171.5 68t53.5 219v57q0 150 -53.5 218t-171.5 68h-137v35h138z" />
    <glyph glyph-name="E" unicode="E" 
d="M135 700v-700h-40v700h40zM545 700v-35h-450v35h450zM545 35v-35h-450v35h450zM515 368v-35h-420v35h420z" />
    <glyph glyph-name="F" unicode="F" 
d="M135 700v-700h-40v700h40zM545 700v-35h-450v35h450zM515 353v-35h-420v35h420z" />
    <glyph glyph-name="G" unicode="G" 
d="M68 350q0 176 64 269.5t175 95.5q98 1 155 -67.5t62 -177.5h-40q-4 91 -50 150.5t-127 59.5q-90 0 -143 -77.5t-57 -222.5v-60q5 -139 58.5 -219.5t141.5 -80.5q86 0 131.5 66.5t45.5 166.5v61h40v-314h-40v120h-5q-17 -62 -59 -98.5t-113 -36.5q-75 0 -128.5 43.5
t-82 125.5t-28.5 196z" />
    <glyph glyph-name="H" unicode="H" 
d="M110 700v-700h-40v700h40zM530 700v-700h-40v700h40zM516 398v-35h-426v35h426z" />
    <glyph glyph-name="I" unicode="I" 
d="M320 700v-700h-40v700h40zM525 700v-35h-450v35h450zM525 35v-35h-450v35h450z" />
    <glyph glyph-name="J" unicode="J" 
d="M80 237h40v-31q0 -88 42 -136.5t118 -48.5t118 48.5t42 136.5v459h-310v35h300q24 0 37 -13t13 -37v-444q-2 -106 -54.5 -163.5t-145.5 -57.5t-146.5 58.5t-53.5 162.5v31z" />
    <glyph glyph-name="K" unicode="K" 
d="M130 700v-700h-40v700h40zM106 207l-6 54l376 439h53zM254 417l29 29l277 -446h-47z" />
    <glyph glyph-name="L" unicode="L" 
d="M140 700v-700h-40v700h40zM540 35v-35h-440v35h440z" />
    <glyph glyph-name="M" unicode="M" 
d="M50 700h69l180 -367h2l179 367h69v-700h-40v680h-1l-184 -377h-49l-184 377h-1v-680h-40v700z" />
    <glyph glyph-name="N" unicode="N" 
d="M70 700h69l351 -681v681h40v-700h-69l-351 681v-681h-40v700z" />
    <glyph glyph-name="O" unicode="O" 
d="M63 350q0 180 59.5 271.5t177.5 93.5q117 1 177 -91.5t60 -273.5t-59.5 -273t-177.5 -92q-117 0 -177 92t-60 273zM103 320q3 -99 25.5 -165.5t65 -100.5t106.5 -34t106.5 34t65 100.5t25.5 165.5v60q-5 149 -53.5 224.5t-143.5 75.5t-143.5 -75.5t-53.5 -224.5v-60z" />
    <glyph glyph-name="P" unicode="P" 
d="M100 700h223q93 0 147.5 -53t54.5 -144t-54.5 -143.5t-147.5 -52.5h-183v-307h-40v700zM318 342q76 0 121.5 44t45.5 117t-46 117.5t-121 44.5h-178v-323h178z" />
    <glyph glyph-name="Q" unicode="Q" 
d="M63 350q0 180 59.5 271.5t177.5 93.5q117 1 177 -91.5t60 -273.5q0 -78 -13 -143.5t-38 -115.5q-34 -68 -105.5 -130.5t-166.5 -106.5v-4h313v-35h-410v30q65 25 141.5 71.5t114.5 84.5l-4 4q-13 -9 -32 -14.5t-37 -5.5q-78 0 -131 41t-79.5 122.5t-26.5 201.5zM103 320
q3 -100 26 -166.5t65.5 -100t105.5 -33.5t105.5 33.5t65.5 100t26 166.5v60q-4 150 -53.5 225t-143.5 75t-143.5 -75t-53.5 -225v-60z" />
    <glyph glyph-name="R" unicode="R" 
d="M100 700h223q92 0 147 -52t55 -140q0 -50 -25.5 -88t-75.5 -63v-5h51q24 0 37 -13t13 -37v-302h-40v317h-370l25 12v-329h-40v700zM115 352h203q75 0 121 43t46 113q0 69 -46 113t-121 44h-204l26 23v-350z" />
    <glyph glyph-name="S" unicode="S" 
d="M303 680q-83 0 -132.5 -36t-49.5 -96q0 -35 16.5 -61t58 -51t120.5 -59q83 -35 129.5 -63.5t69.5 -64t23 -86.5q0 -53 -28.5 -93.5t-79.5 -62.5t-118 -22q-115 0 -182 61.5t-67 166.5h40q0 -88 57 -140.5t152 -52.5q86 0 136 38.5t50 104.5q0 43 -20 70.5t-56 48
t-112 54.5l-9 4q-87 39 -134 69.5t-67 62.5t-19 76q0 49 28 87t78 59t116 21q63 0 114.5 -24.5t82.5 -70.5t33 -106h-40q-4 80 -55.5 123t-134.5 43z" />
    <glyph glyph-name="T" unicode="T" 
d="M320 700v-700h-40v700h40zM563 700v-35h-526v35h526z" />
    <glyph glyph-name="U" unicode="U" 
d="M80 700h40v-494q0 -51 24 -93.5t65 -67t91 -24.5t91 24.5t65 67t24 93.5v494h40v-494q-1 -63 -30.5 -113.5t-79 -79t-110.5 -28.5t-110.5 28.5t-79 79t-30.5 113.5v494z" />
    <glyph glyph-name="V" unicode="V" 
d="M97 700l203 -683l203 683h42l-208 -700h-74l-208 700h42z" />
    <glyph glyph-name="W" unicode="W" 
d="M90 700l65 -672h1l118 462h51l118 -462h1l65 672h40l-68 -700h-71l-109 430h-2l-110 -430h-71l-68 700h40z" />
    <glyph glyph-name="X" unicode="X" 
d="M272 350l-229 350h48l209 -319l208 319h48l-229 -350l229 -350h-48l-208 319l-209 -319h-48z" />
    <glyph glyph-name="Y" unicode="Y" 
d="M73 700l247 -371h-40l247 371h48l-255 -383h-40l-255 383h48zM320 319l1 -319h-40l-1 319h40zM525 35v-35h-450v35h450z" />
    <glyph glyph-name="Z" unicode="Z" 
d="M48 41l471 654v-36h-461v41h484v-41l-470 -654v36h480v-41h-504v41z" />
    <glyph glyph-name="bracketleft" unicode="[" 
d="M295 735v-905h-40v905h40zM505 735v-35h-231v35h231zM505 -135v-35h-231v35h231z" />
    <glyph glyph-name="backslash" unicode="\" 
d="M500 -170h-43l-357 870h43z" />
    <glyph glyph-name="bracketright" unicode="]" 
d="M305 -170v905h40v-905h-40zM95 -170v35h231v-35h-231zM95 700v35h231v-35h-231z" />
    <glyph glyph-name="asciicircum" unicode="^" 
d="M278 700h44l181 -382h-44l-157 330h-4l-156 -330h-44z" />
    <glyph glyph-name="underscore" unicode="_" 
d="M435 -54v-35h-270v35h270z" />
    <glyph glyph-name="grave" unicode="`" 
d="M370 626l-17 -18l-124 117l25 25z" />
    <glyph glyph-name="a" unicode="a" 
d="M90 131q0 66 47.5 106.5t148.5 42.5l140 3v57q0 86 -37 123t-103 37q-61 0 -100 -38.5t-39 -100.5h-40q0 51 23.5 90.5t64 61.5t91.5 22q82 0 131 -48t49 -147v-250q0 -55 55 -55h31v-35h-31q-43 0 -68 22.5t-27 63.5h-5q-6 -21 -28 -44.5t-57.5 -40t-79.5 -16.5
q-47 0 -85 19t-59.5 52.5t-21.5 74.5zM130 133q0 -51 35 -82t93 -31q48 0 86 22.5t60 61.5t22 86v58l-140 -3q-81 -1 -118.5 -32t-37.5 -80z" />
    <glyph glyph-name="b" unicode="b" 
d="M125 735v-735h-40v735h40zM95 260q0 39 7 72t23 71h5q23 63 67.5 97.5t102.5 34.5q67 0 115 -33t74 -95t26 -147t-26 -147t-74 -95t-115 -33q-57 0 -102 33.5t-68 94.5h-5q-16 35 -23 69.5t-7 77.5zM125 260q0 -111 47 -175.5t128 -64.5t128 64.5t47 175.5t-47 175.5
t-128 64.5t-128 -64.5t-47 -175.5z" />
    <glyph glyph-name="c" unicode="c" 
d="M81 260q0 82 27.5 144.5t78 96.5t117.5 34q80 0 130.5 -49t61.5 -136h-40q-9 69 -49.5 109.5t-102.5 40.5q-54 0 -95.5 -30.5t-64.5 -85t-23 -124.5q0 -71 23 -125.5t64.5 -84.5t95.5 -30q62 0 102 40t50 110h40q-11 -87 -61.5 -136t-130.5 -49q-67 0 -117.5 34t-78 96.5
t-27.5 144.5z" />
    <glyph glyph-name="d" unicode="d" 
d="M495 0h-40v735h40v-735zM485 260q0 -43 -7 -77.5t-23 -69.5h-5q-23 -61 -68 -94.5t-102 -33.5q-67 0 -115 33t-74 95t-26 147t26 147t74 95t115 33q58 0 102.5 -34.5t67.5 -97.5h5q16 -38 23 -71t7 -72zM455 260q0 111 -47 175.5t-128 64.5t-128 -64.5t-47 -175.5
t47 -175.5t128 -64.5t128 64.5t47 175.5z" />
    <glyph glyph-name="e" unicode="e" 
d="M81 260q0 83 27 145.5t76.5 96t115.5 33.5q100 0 151.5 -70.5t53.5 -211.5h-396v35h380l-26 -28q2 114 -41 177t-122 63q-53 0 -93.5 -30t-63 -84.5t-22.5 -125.5q0 -70 23 -124.5t63.5 -85t92.5 -30.5q65 0 105.5 39.5t50.5 110.5h40q-11 -88 -62.5 -136.5t-133.5 -48.5
q-65 0 -114.5 34t-77 96t-27.5 145z" />
    <glyph glyph-name="f" unicode="f" 
d="M540 35v-35h-450v35h450zM530 520v-35h-440v35h440zM270 620q0 56 30 85.5t85 29.5h165v-35h-165q-36 0 -55.5 -19.5t-19.5 -55.5v-625h-40v620z" />
    <glyph glyph-name="g" unicode="g" 
d="M89 318q0 98 54.5 157.5t145.5 59.5t145.5 -59t54.5 -158q0 -65 -24.5 -114.5t-70 -76t-105.5 -26.5t-105.5 27t-70 76t-24.5 114zM129 318q0 -82 44 -132t116 -50t116 50t44 132t-44 132t-116 50t-116 -50t-44 -132zM386 537q-1 30 15 45.5t45 15.5h104v-40h-128v-81
h-35zM50 -120q0 39 25.5 64.5t71.5 30.5v5q-18 9 -27.5 23.5t-9.5 33.5q0 33 28.5 52.5t75.5 19.5v6h44v-12q-49 0 -78.5 -16.5t-29.5 -42.5q0 -21 19 -32.5t53 -11.5h154q72 0 112 -30.5t40 -85.5q0 -54 -37 -84t-104 -30h-196q-64 0 -102.5 30t-38.5 80zM90 -120
q0 -37 27 -56t79 -19h186q51 0 78.5 20.5t27.5 58.5t-28 59.5t-78 21.5h-186q-49 0 -77.5 -23t-28.5 -62z" />
    <glyph glyph-name="h" unicode="h" 
d="M150 735v-735h-40v735h40zM150 409h5q20 60 64 93t100 33q83 0 132 -55t49 -160v-320h-40v320q0 92 -37 136t-104 44q-43 0 -82 -27t-63 -71t-24 -93v-14h-12z" />
    <glyph glyph-name="i" unicode="i" 
d="M350 735v-92h-40v92h40zM560 35v-35h-460v35h460zM100 520h210q20 0 30 -10t10 -30v-480h-40v485h-210v35z" />
    <glyph glyph-name="j" unicode="j" 
d="M479 735v-92h-40v92h40zM120 -160h245q36 0 55.5 19.5t19.5 55.5v570h-280v35h270q24 0 37 -13t13 -37v-550q0 -56 -29.5 -85.5t-85.5 -29.5h-245v35z" />
    <glyph glyph-name="k" unicode="k" 
d="M131 735v-735h-40v735h40zM121 192v53l322 275h62zM523 0h-45l-206 327l30 28z" />
    <glyph glyph-name="l" unicode="l" 
d="M560 35v-35h-460v35h460zM100 735h210q20 0 30 -10t10 -30v-695h-40v700h-210v35z" />
    <glyph glyph-name="m" unicode="m" 
d="M90 520v-520h-40v520h40zM72 348q3 47 18 94h5q13 42 40.5 67.5t64.5 25.5q56 0 88 -37.5t32 -104.5v-393h-40v393q0 50 -21.5 78.5t-58.5 28.5q-31 0 -56 -22t-39.5 -62.5t-14.5 -91.5v-21zM302 348q0 7 1 10q2 55 11 84h6q13 40 43 66.5t67 26.5q56 0 88 -37.5
t32 -104.5v-393h-40v393q0 50 -21.5 78.5t-58.5 28.5q-48 0 -79 -47t-31 -129v-21z" />
    <glyph glyph-name="n" unicode="n" 
d="M150 520v-520h-40v520h40zM150 409h5q20 60 64 93t100 33q83 0 132 -55t49 -160v-320h-40v320q0 92 -37 136t-104 44q-43 0 -82 -27t-63 -71t-24 -93v-14h-12z" />
    <glyph glyph-name="o" unicode="o" 
d="M85 260q0 85 26 147t74 95t115 33t115 -33t74 -95t26 -147q0 -128 -57.5 -201.5t-157.5 -73.5t-157.5 73.5t-57.5 201.5zM125 260q0 -111 47 -175.5t128 -64.5t128 64.5t47 175.5t-47 175.5t-128 64.5t-128 -64.5t-47 -175.5z" />
    <glyph glyph-name="p" unicode="p" 
d="M105 520h40v-735h-40v735zM115 260q0 43 7 77.5t23 69.5h5q23 61 68 94.5t102 33.5q67 0 115 -33t74 -95t26 -147t-26 -147t-74 -95t-115 -33q-58 0 -102.5 34.5t-67.5 97.5h-5q-16 38 -23 71t-7 72zM145 260q0 -111 47 -175.5t128 -64.5t128 64.5t47 175.5t-47 175.5
t-128 64.5t-128 -64.5t-47 -175.5z" />
    <glyph glyph-name="q" unicode="q" 
d="M475 -215v735h40v-735h-40zM505 260q0 -39 -7 -72t-23 -71h-5q-23 -63 -67.5 -97.5t-102.5 -34.5q-67 0 -115 33t-74 95t-26 147t26 147t74 95t115 33q57 0 102 -33.5t68 -94.5h5q16 -35 23 -69.5t7 -77.5zM475 260q0 111 -47 175.5t-128 64.5t-128 -64.5t-47 -175.5
t47 -175.5t128 -64.5t128 64.5t47 175.5z" />
    <glyph glyph-name="r" unicode="r" 
d="M471 485q-58 0 -101.5 -26.5t-66.5 -70t-23 -93.5v-15h-12v114h17q20 63 66.5 94.5t119.5 31.5h79v-35h-79zM550 35v-35h-490v35h490zM60 520h180q20 0 30 -10t10 -30v-480h-40v485h-180v35z" />
    <glyph glyph-name="s" unicode="s" 
d="M303 500q-65 0 -107 -26t-42 -69q0 -28 17 -47t45.5 -32.5t85.5 -35.5l12 -5l20 -7q54 -21 86.5 -38t57 -47t24.5 -74q0 -61 -53.5 -97.5t-138.5 -36.5q-92 0 -151.5 44t-59.5 128h40q0 -72 52.5 -104.5t118.5 -32.5t109 27t43 72q0 46 -36.5 71.5t-100.5 48.5l-24 9
q-10 4 -14 6q-62 24 -96 41.5t-55.5 44t-21.5 65.5q0 58 53.5 94t135.5 36q79 0 135 -38.5t60 -113.5h-40q-4 55 -45 86t-110 31z" />
    <glyph glyph-name="t" unicode="t" 
d="M20 520h140q40 0 40 40v140h40v-180h270v-35h-270v-396q0 -27 12.5 -40.5t36.5 -13.5h231v-35h-231q-43 0 -66 23t-23 66v396h-180v35z" />
    <glyph glyph-name="u" unicode="u" 
d="M455 0v520h40v-520h-40zM455 111h-5q-20 -60 -64 -93t-100 -33q-83 0 -132 55t-49 160v320h40v-320q0 -92 37 -136t104 -44q43 0 82 27t63 71t24 93v14h12z" />
    <glyph glyph-name="v" unicode="v" 
d="M108 520l192 -500l191 500h43l-199 -520h-71l-199 520h43z" />
    <glyph glyph-name="w" unicode="w" 
d="M71 520l101 -487h2l101 487h51l101 -487h2l101 487h41l-109 -520h-68l-92 446h-2l-93 -446h-68l-109 520h41z" />
    <glyph glyph-name="x" unicode="x" 
d="M470 520h49l-189 -260l189 -260h-49l-189 260zM131 0h-49l189 260l-189 260h49l189 -260z" />
    <glyph glyph-name="y" unicode="y" 
d="M108 520l201 -477l182 477h43l-254 -664q-14 -36 -39 -53.5t-64 -17.5h-92v35h96q43 0 57 39l45 116q5 15 0 26l-218 519h43z" />
    <glyph glyph-name="z" unicode="z" 
d="M93 40l381 475l1 -35h-372v40h394v-40l-379 -475v35h389v-40h-414v40z" />
    <glyph glyph-name="braceleft" unicode="{" 
d="M110 300h175q25 0 34.5 14t1.5 38l-100 280q-11 31 -5.5 54.5t25.5 36t53 12.5h196v-35h-196q-25 0 -35 -14t-2 -38l101 -280q14 -38 1.5 -60.5t-45.5 -22.5v-4q34 0 46 -22.5t-2 -61.5l-101 -280q-8 -24 2 -38t35 -14h196v-35h-196q-33 0 -53 12.5t-25.5 36t5.5 54.5
l100 280q8 24 -1.5 38t-34.5 14h-175v35z" />
    <glyph glyph-name="bar" unicode="|" 
d="M320 700v-855h-40v855h40z" />
    <glyph glyph-name="braceright" unicode="}" 
d="M315 265q-25 0 -34.5 -14t-1.5 -38l100 -280q11 -31 5.5 -54.5t-25.5 -36t-53 -12.5h-196v35h196q25 0 35 14t2 38l-101 280q-14 39 -2 61.5t46 22.5v4q-33 0 -45.5 22.5t1.5 60.5l101 280q8 24 -2 38t-35 14h-196v35h196q33 0 53 -12.5t25.5 -36t-5.5 -54.5l-100 -280
q-8 -24 1.5 -38t34.5 -14h175v-35h-175z" />
    <glyph glyph-name="asciitilde" unicode="~" 
d="M33 266q48 118 138 118q27 0 46 -7.5t65 -33.5q18 -10 28 -16q48 -27 69.5 -35.5t40.5 -7.5q38 2 59 21t46 75l31 -17q-26 -61 -57.5 -87.5t-78.5 -26.5q-29 0 -58.5 11.5t-72.5 38.5q-48 30 -71.5 40t-46.5 10q-33 0 -58 -23t-50 -77z" />
    <glyph glyph-name="exclamdown" unicode="&#xa1;" 
d="M256 520h90v-96h-90v96zM281 0l10 300h20l10 -300v-195h-40v195z" />
    <glyph glyph-name="cent" unicode="&#xa2;" 
d="M321 700v-700h-40v700h40zM91 350q0 82 27.5 144.5t78 96.5t117.5 34q80 0 130.5 -49t61.5 -136h-40q-9 69 -49.5 109.5t-102.5 40.5q-54 0 -95.5 -30.5t-64.5 -85t-23 -124.5q0 -71 23 -125.5t64.5 -84.5t95.5 -30q62 0 102 40t50 110h40q-11 -87 -61.5 -136t-130.5 -49
q-67 0 -117.5 34t-78 96.5t-27.5 144.5z" />
    <glyph glyph-name="sterling" unicode="&#xa3;" 
d="M419 385v-35h-369v35h369zM50 35h387q24 0 37 13t13 37v57h40v-52q0 -43 -23 -66.5t-67 -23.5h-387v35zM160 529q0 56 25 100.5t69.5 69.5t100.5 25t100.5 -25t69.5 -69.5t25 -100.5v-11h-40v11q0 71 -43 115.5t-112 44.5t-112 -44.5t-43 -115.5v-529h-40v529z" />
    <glyph glyph-name="yen" unicode="&#xa5;" 
d="M73 700l247 -371h-40l247 371h48l-255 -383h-40l-255 383h48zM320 319l1 -319h-40l-1 319h40zM525 35v-35h-450v35h450zM522 317v-35h-450v35h450z" />
    <glyph glyph-name="brokenbar" unicode="&#xa6;" 
d="M320 700v-335h-40v335h40zM320 220v-335h-40v335h40z" />
    <glyph glyph-name="section" unicode="&#xa7;" 
d="M217 485q-63 -25 -63 -80q0 -24 12.5 -41t44.5 -34.5t97 -42.5q2 0 6 -2q73 -28 113 -52t57.5 -51t17.5 -63q0 -60 -53 -97t-139 -37q-98 0 -154.5 46.5t-56.5 125.5h40q0 -61 47 -99t124 -38q68 0 110 27.5t42 71.5q0 27 -14 46t-48 38t-99 45q-76 30 -115.5 53
t-55.5 47t-16 58q0 33 25.5 58.5t61.5 31.5zM420 220q21 11 31.5 31t10.5 48q0 27 -14 46t-48 38t-99 45q-77 31 -116.5 53.5t-55 46t-15.5 57.5q0 38 24 67.5t67 46t98 16.5q86 0 139 -41.5t56 -110.5h-40q-4 55 -44.5 86t-110.5 31q-66 0 -107.5 -26.5t-41.5 -68.5
q0 -25 13 -42t46.5 -34.5t100.5 -43.5q73 -28 113 -52t57.5 -51t17.5 -63q0 -21 -8 -39.5t-23 -32.5t-36 -22z" />
    <glyph glyph-name="dieresis" unicode="&#xa8;" 
d="M213 640q-24 0 -36 12t-12 36q0 47 48 47q47 0 47 -47q0 -48 -47 -48zM388 640q-24 0 -36 12t-12 36q0 47 48 47q47 0 47 -47q0 -48 -47 -48z" />
    <glyph glyph-name="copyright" unicode="&#xa9;" 
d="M307 180q-63 -1 -101 46t-38 125t38 125t101 46q49 1 80.5 -29.5t39.5 -85.5h-39q-5 38 -26.5 60t-54.5 23q-45 0 -73 -38.5t-28 -100.5t27.5 -100t73.5 -39q33 0 54.5 22t26.5 60l39 1q-8 -55 -39.5 -85.5t-80.5 -29.5zM300 -15q-120 0 -186 95.5t-66 269.5
q0 173 66 268.5t186 96.5q120 2 186 -94t66 -271q0 -174 -66 -269.5t-186 -95.5zM300 16q104 0 160.5 87t56.5 247t-56.5 247t-160.5 87t-160.5 -87t-56.5 -247t56.5 -247t160.5 -87z" />
    <glyph glyph-name="guillemotleft" unicode="&#xab;" 
d="M77 274l172 194h43l-163 -193v-2l163 -195h-43zM308 274l172 194h43l-163 -193v-2l163 -195h-43z" />
    <glyph glyph-name="logicalnot" unicode="&#xac;" 
d="M525 302v-35h-450v35h450zM525 301v-193h-40v193h40z" />
    <glyph glyph-name="registered" unicode="&#xae;" 
d="M48 350q0 173 66 268.5t186 96.5q120 2 186 -94t66 -271q0 -174 -66 -269.5t-186 -95.5t-186 95.5t-66 269.5zM300 16q104 0 160.5 87t56.5 247t-56.5 247t-160.5 87t-160.5 -87t-56.5 -247t56.5 -247t160.5 -87zM198 520h112q44 1 70.5 -24t26.5 -68q0 -48 -49 -73v-2
h25q11 0 17.5 -6.5t6.5 -17.5v-145h-34v144h-164l23 14v-158h-34v336zM209 360h88q38 0 56.5 17t19.5 51q0 29 -20 45.5t-56 16.5h-88l23 25v-169z" />
    <glyph glyph-name="macron" unicode="&#xaf;" 
d="M432 700v-35h-265v35h265z" />
    <glyph glyph-name="degree" unicode="&#xb0;" 
d="M300 396q-44 0 -80.5 21.5t-58 58t-21.5 80.5q0 43 21.5 79.5t58 58t80.5 21.5q43 0 79.5 -21.5t58 -58t21.5 -79.5q0 -44 -21.5 -80.5t-58 -58t-79.5 -21.5zM300 436q50 0 84.5 35t34.5 85t-34.5 84.5t-84.5 34.5t-85 -34.5t-35 -84.5t35 -85t85 -35z" />
    <glyph glyph-name="plusminus" unicode="&#xb1;" 
d="M540 99v-35h-480v35h480zM540 422v-35h-480v35h480zM283 629h35v-450h-35v450z" />
    <glyph glyph-name="uni00B2" unicode="&#xb2;" 
d="M170 598q0 52 33.5 84.5t87.5 32.5q56 0 91 -30.5t35 -82.5q0 -32 -16.5 -59.5t-61.5 -84.5l-28 -35l-70 -84v-3h188v-35h-242v30l94 111l19 23q46 57 61.5 82.5t15.5 53.5q0 40 -25 59.5t-61 19.5q-33 0 -57 -21t-24 -61v-7h-40v7z" />
    <glyph glyph-name="uni00B3" unicode="&#xb3;" 
d="M215 409q0 -37 24.5 -61t61.5 -23q37 0 60.5 24t23.5 62q0 39 -23 61t-63 22h-27v34h27q34 0 53 21.5t19 61.5q0 30 -19.5 49.5t-50.5 19.5q-34 0 -54 -21t-20 -57v-12h-40v12q0 50 31 81.5t81 31.5q49 0 80.5 -29.5t31.5 -74.5q0 -38 -17.5 -64.5t-48.5 -33.5v-2
q37 -7 58.5 -35t21.5 -67q0 -50 -36 -84.5t-89 -34.5t-89 34t-36 85v6h40v-6z" />
    <glyph glyph-name="acute" unicode="&#xb4;" 
d="M370 725l-124 -117l-17 18l116 124z" />
    <glyph glyph-name="uni00B5" unicode="&#xb5;" 
d="M469 0v520h40v-520h-40zM91 520h40v-660h-40v660zM131 225v-14q0 -49 24 -93t63 -71t82 -27t82 27t63 71t24 93v14h12l-12 -114h-5q-20 -60 -64 -93t-100 -33t-100 33t-64 93h-5l-12 114h12z" />
    <glyph glyph-name="paragraph" unicode="&#xb6;" 
d="M340 700v-795h-40v795h40zM300 -180h90q24 0 37 13t13 37v830h40v-825q0 -44 -23 -67t-67 -23h-90v35zM470 700v-35h-157v35h157zM247 326q-51 0 -94 25t-68 68t-25 94t25 94t68 68t94 25h60v-374h-60z" />
    <glyph glyph-name="periodcentered" unicode="&#xb7;" 
d="M300 284q-65 0 -65 65t65 65t65 -65t-65 -65z" />
    <glyph glyph-name="cedilla" unicode="&#xb8;" 
d="M196 -176q53 -22 97 -22q34 0 53.5 14.5t22.5 39.5q2 16 -7 28t-25 16q-13 4 -30 0.5t-32 -12.5l-27 13l22 105h36l-19 -91l2 -1q12 9 28.5 13t30.5 2q27 -5 42 -25t14 -50q-2 -35 -32 -59.5t-83 -24.5q-22 0 -47.5 5t-45.5 15v34z" />
    <glyph glyph-name="uni00B9" unicode="&#xb9;" 
d="M428 336v-35h-257v35h257zM183 618h56q40 0 40 40v42h41v-399h-41v282h-96v35z" />
    <glyph glyph-name="guillemotright" unicode="&#xbb;" 
d="M308 78l163 195v2l-163 193h43l172 -194l-172 -196h-43zM77 78l163 195v2l-163 193h43l172 -194l-172 -196h-43z" />
    <glyph glyph-name="onequarter" unicode="&#xbc;" 
d="M475 358v-30h-350v30h350zM218 475h65v142h-58v30h33q25 0 25 25v28h34v-225h65v-30h-164v30zM209 88l95 152h45v-152h44v-30h-44v-58h-34v58h-106v30zM315 88v112l-70 -112h70z" />
    <glyph glyph-name="onehalf" unicode="&#xbd;" 
d="M220 172q0 33 18.5 50.5t53.5 17.5q33 0 52 -16.5t19 -45.5q0 -24 -13.5 -49.5t-50.5 -71.5l-21 -26v-1h102v-30h-150v24l54 67q26 31 35.5 49.5t9.5 36.5q0 14 -10.5 23.5t-26.5 9.5q-18 0 -28 -9.5t-10 -28.5v-5h-34v5zM475 358v-30h-350v30h350zM218 475h65v142h-58
v30h33q25 0 25 25v28h34v-225h65v-30h-164v30z" />
    <glyph glyph-name="threequarters" unicode="&#xbe;" 
d="M265 528q0 -17 11 -27.5t28 -10.5t27 10.5t10 28.5q0 21 -10 32t-29 11h-15v30h12q15 0 24 11t9 29q0 33 -30 33q-14 0 -22.5 -9.5t-8.5 -25.5v-7h-34v6q0 29 18 47.5t47 18.5q28 0 46 -17t18 -44q0 -20 -9.5 -34t-27.5 -21v-2q23 -5 35 -19.5t11 -38.5q-1 -31 -21 -50
t-51 -19t-51.5 19.5t-20.5 48.5v4h34v-4zM475 358v-30h-350v30h350zM209 88l95 152h45v-152h44v-30h-44v-58h-34v58h-106v30zM315 88v112l-70 -112h70z" />
    <glyph glyph-name="questiondown" unicode="&#xbf;" 
d="M312 292q0 -32 -12.5 -56t-30.5 -41t-49 -39q-33 -24 -52 -42t-32 -44.5t-13 -62.5q0 -49 23.5 -87t64 -59t90.5 -21q76 0 122.5 46.5t46.5 120.5v13h40v-13q0 -59 -26.5 -105t-74 -71.5t-108.5 -25.5q-63 0 -112.5 25.5t-77.5 71t-28 103.5q0 43 15.5 75t37.5 53.5
t57 48.5q41 32 60 54.5t19 54.5v9h40v-8zM247 424v96h90v-96h-90z" />
    <glyph glyph-name="Agrave" unicode="&#xc0;" 
d="M454 264v-35h-315v35h315zM263 700h74l218 -700h-42l-213 684l-213 -684h-42zM317 806l-17 -18l-124 117l25 25z" />
    <glyph glyph-name="Aacute" unicode="&#xc1;" 
d="M454 264v-35h-315v35h315zM263 700h74l218 -700h-42l-213 684l-213 -684h-42zM424 905l-124 -117l-17 18l116 124z" />
    <glyph glyph-name="Acircumflex" unicode="&#xc2;" 
d="M454 264v-35h-315v35h315zM263 700h74l218 -700h-42l-213 684l-213 -684h-42zM278 920h43l101 -124l-17 -18l-105 113h-1l-105 -113l-17 18z" />
    <glyph glyph-name="Atilde" unicode="&#xc3;" 
d="M454 264v-35h-315v35h315zM263 700h74l218 -700h-42l-213 684l-213 -684h-42zM152 819q13 32 33.5 51.5t46.5 19.5q16 0 29 -4.5t42 -21.5q25 -14 37 -19t24 -5q20 0 33.5 12.5t27.5 37.5l23 -14q-14 -32 -35 -51.5t-49 -19.5q-19 0 -34.5 6t-44.5 23q-23 13 -33 17
t-21 4q-17 0 -30 -11t-25 -39z" />
    <glyph glyph-name="Adieresis" unicode="&#xc4;" 
d="M454 264v-35h-315v35h315zM263 700h74l218 -700h-42l-213 684l-213 -684h-42zM213 790q-24 0 -36 12t-12 36q0 47 48 47q47 0 47 -47q0 -48 -47 -48zM388 790q-24 0 -36 12t-12 36q0 47 48 47q47 0 47 -47q0 -48 -47 -48z" />
    <glyph glyph-name="Aring" unicode="&#xc5;" 
d="M454 264v-35h-315v35h315zM263 700h74l218 -700h-42l-213 684l-213 -684h-42zM300 778q-41 0 -68.5 28t-27.5 68t28 68t68 28t68 -28t28 -68t-28 -68t-68 -28zM300 808q27 0 46.5 19t19.5 47q0 27 -19.5 46.5t-46.5 19.5q-28 0 -47 -19.5t-19 -46.5q0 -28 19 -47t47 -19z
" />
    <glyph glyph-name="AE" unicode="&#xc6;" 
d="M309 264v-35h-211v35h211zM213 700h42l-198 -700h-42zM318 700v-700h-40v700h40zM575 700v-35h-347v35h347zM575 35v-35h-297v35h297zM545 368v-35h-267v35h267z" />
    <glyph glyph-name="Ccedilla" unicode="&#xc7;" 
d="M68 350q0 176 64 269.5t175 95.5q98 1 155 -67.5t62 -177.5h-40q-4 91 -50 150.5t-127 59.5q-90 0 -143 -77.5t-57 -222.5v-60q5 -139 58.5 -219.5t141.5 -80.5q78 0 125.5 58t51.5 152h40q-5 -112 -63.5 -179t-153.5 -66q-113 2 -176 97.5t-63 267.5zM217 -182
q53 -22 97 -22q34 0 53.5 14.5t22.5 39.5q2 16 -7 28t-25 16q-13 4 -30 0.5t-32 -12.5l-27 13l22 105h36l-19 -91l2 -1q12 9 28.5 13t30.5 2q27 -5 42 -25t14 -50q-2 -35 -32 -59.5t-83 -24.5q-22 0 -47.5 5t-45.5 15v34z" />
    <glyph glyph-name="Egrave" unicode="&#xc8;" 
d="M135 700v-700h-40v700h40zM545 700v-35h-450v35h450zM545 35v-35h-450v35h450zM515 368v-35h-420v35h420zM327 806l-17 -18l-124 117l25 25z" />
    <glyph glyph-name="Eacute" unicode="&#xc9;" 
d="M135 700v-700h-40v700h40zM545 700v-35h-450v35h450zM545 35v-35h-450v35h450zM515 368v-35h-420v35h420zM434 905l-124 -117l-17 18l116 124z" />
    <glyph glyph-name="Ecircumflex" unicode="&#xca;" 
d="M135 700v-700h-40v700h40zM545 700v-35h-450v35h450zM545 35v-35h-450v35h450zM515 368v-35h-420v35h420zM288 920h43l101 -124l-17 -18l-105 113h-1l-105 -113l-17 18z" />
    <glyph glyph-name="Edieresis" unicode="&#xcb;" 
d="M135 700v-700h-40v700h40zM545 700v-35h-450v35h450zM545 35v-35h-450v35h450zM515 368v-35h-420v35h420zM223 790q-24 0 -36 12t-12 36q0 47 48 47q47 0 47 -47q0 -48 -47 -48zM398 790q-24 0 -36 12t-12 36q0 47 48 47q47 0 47 -47q0 -48 -47 -48z" />
    <glyph glyph-name="Igrave" unicode="&#xcc;" 
d="M320 700v-700h-40v700h40zM525 700v-35h-450v35h450zM525 35v-35h-450v35h450zM317 806l-17 -18l-124 117l25 25z" />
    <glyph glyph-name="Iacute" unicode="&#xcd;" 
d="M320 700v-700h-40v700h40zM525 700v-35h-450v35h450zM525 35v-35h-450v35h450zM424 905l-124 -117l-17 18l116 124z" />
    <glyph glyph-name="Icircumflex" unicode="&#xce;" 
d="M320 700v-700h-40v700h40zM525 700v-35h-450v35h450zM525 35v-35h-450v35h450zM278 920h43l101 -124l-17 -18l-105 113h-1l-105 -113l-17 18z" />
    <glyph glyph-name="Idieresis" unicode="&#xcf;" 
d="M320 700v-700h-40v700h40zM525 700v-35h-450v35h450zM525 35v-35h-450v35h450zM213 790q-24 0 -36 12t-12 36q0 47 48 47q47 0 47 -47q0 -48 -47 -48zM388 790q-24 0 -36 12t-12 36q0 47 48 47q47 0 47 -47q0 -48 -47 -48z" />
    <glyph glyph-name="Eth" unicode="&#xd0;" 
d="M319 368v-35h-194v35h194zM150 700v-700h-40v700h40zM271 700q93 0 151 -36t85.5 -112.5t27.5 -200.5t-27.5 -201t-85.5 -113.5t-151 -36.5h-134v35h133q118 0 171.5 68t53.5 219v57q0 150 -53.5 218t-171.5 68h-137v35h138z" />
    <glyph glyph-name="Ntilde" unicode="&#xd1;" 
d="M70 700h69l351 -681v681h40v-700h-69l-351 681v-681h-40v700zM152 819q13 32 33.5 51.5t46.5 19.5q16 0 29 -4.5t42 -21.5q25 -14 37 -19t24 -5q20 0 33.5 12.5t27.5 37.5l23 -14q-14 -32 -35 -51.5t-49 -19.5q-19 0 -34.5 6t-44.5 23q-23 13 -33 17t-21 4q-17 0 -30 -11
t-25 -39z" />
    <glyph glyph-name="Ograve" unicode="&#xd2;" 
d="M63 350q0 180 59.5 271.5t177.5 93.5q117 1 177 -91.5t60 -273.5t-59.5 -273t-177.5 -92q-117 0 -177 92t-60 273zM103 320q3 -99 25.5 -165.5t65 -100.5t106.5 -34t106.5 34t65 100.5t25.5 165.5v60q-5 149 -53.5 224.5t-143.5 75.5t-143.5 -75.5t-53.5 -224.5v-60z
M317 806l-17 -18l-124 117l25 25z" />
    <glyph glyph-name="Oacute" unicode="&#xd3;" 
d="M63 350q0 180 59.5 271.5t177.5 93.5q117 1 177 -91.5t60 -273.5t-59.5 -273t-177.5 -92q-117 0 -177 92t-60 273zM103 320q3 -99 25.5 -165.5t65 -100.5t106.5 -34t106.5 34t65 100.5t25.5 165.5v60q-5 149 -53.5 224.5t-143.5 75.5t-143.5 -75.5t-53.5 -224.5v-60z
M424 905l-124 -117l-17 18l116 124z" />
    <glyph glyph-name="Ocircumflex" unicode="&#xd4;" 
d="M63 350q0 180 59.5 271.5t177.5 93.5q117 1 177 -91.5t60 -273.5t-59.5 -273t-177.5 -92q-117 0 -177 92t-60 273zM103 320q3 -99 25.5 -165.5t65 -100.5t106.5 -34t106.5 34t65 100.5t25.5 165.5v60q-5 149 -53.5 224.5t-143.5 75.5t-143.5 -75.5t-53.5 -224.5v-60z
M278 920h43l101 -124l-17 -18l-105 113h-1l-105 -113l-17 18z" />
    <glyph glyph-name="Otilde" unicode="&#xd5;" 
d="M63 350q0 180 59.5 271.5t177.5 93.5q117 1 177 -91.5t60 -273.5t-59.5 -273t-177.5 -92q-117 0 -177 92t-60 273zM103 320q3 -99 25.5 -165.5t65 -100.5t106.5 -34t106.5 34t65 100.5t25.5 165.5v60q-5 149 -53.5 224.5t-143.5 75.5t-143.5 -75.5t-53.5 -224.5v-60z
M152 819q13 32 33.5 51.5t46.5 19.5q16 0 29 -4.5t42 -21.5q25 -14 37 -19t24 -5q20 0 33.5 12.5t27.5 37.5l23 -14q-14 -32 -35 -51.5t-49 -19.5q-19 0 -34.5 6t-44.5 23q-23 13 -33 17t-21 4q-17 0 -30 -11t-25 -39z" />
    <glyph glyph-name="Odieresis" unicode="&#xd6;" 
d="M63 350q0 180 59.5 271.5t177.5 93.5q117 1 177 -91.5t60 -273.5t-59.5 -273t-177.5 -92q-117 0 -177 92t-60 273zM103 320q3 -99 25.5 -165.5t65 -100.5t106.5 -34t106.5 34t65 100.5t25.5 165.5v60q-5 149 -53.5 224.5t-143.5 75.5t-143.5 -75.5t-53.5 -224.5v-60z
M213 790q-24 0 -36 12t-12 36q0 47 48 47q47 0 47 -47q0 -48 -47 -48zM388 790q-24 0 -36 12t-12 36q0 47 48 47q47 0 47 -47q0 -48 -47 -48z" />
    <glyph glyph-name="multiply" unicode="&#xd7;" 
d="M483 157l-25 -25l-340 340l25 24zM458 496l25 -25l-340 -340l-25 25z" />
    <glyph glyph-name="Oslash" unicode="&#xd8;" 
d="M514 544l-403 -403l-24 25l403 403zM63 350q0 180 59.5 271.5t177.5 93.5q117 1 177 -91.5t60 -273.5t-59.5 -273t-177.5 -92q-117 0 -177 92t-60 273zM103 320q3 -99 25.5 -165.5t65 -100.5t106.5 -34t106.5 34t65 100.5t25.5 165.5v60q-5 149 -53.5 224.5t-143.5 75.5
t-143.5 -75.5t-53.5 -224.5v-60z" />
    <glyph glyph-name="Ugrave" unicode="&#xd9;" 
d="M80 700h40v-494q0 -51 24 -93.5t65 -67t91 -24.5t91 24.5t65 67t24 93.5v494h40v-494q-1 -63 -30.5 -113.5t-79 -79t-110.5 -28.5t-110.5 28.5t-79 79t-30.5 113.5v494zM317 806l-17 -18l-124 117l25 25z" />
    <glyph glyph-name="Uacute" unicode="&#xda;" 
d="M80 700h40v-494q0 -51 24 -93.5t65 -67t91 -24.5t91 24.5t65 67t24 93.5v494h40v-494q-1 -63 -30.5 -113.5t-79 -79t-110.5 -28.5t-110.5 28.5t-79 79t-30.5 113.5v494zM424 905l-124 -117l-17 18l116 124z" />
    <glyph glyph-name="Ucircumflex" unicode="&#xdb;" 
d="M80 700h40v-494q0 -51 24 -93.5t65 -67t91 -24.5t91 24.5t65 67t24 93.5v494h40v-494q-1 -63 -30.5 -113.5t-79 -79t-110.5 -28.5t-110.5 28.5t-79 79t-30.5 113.5v494zM278 920h43l101 -124l-17 -18l-105 113h-1l-105 -113l-17 18z" />
    <glyph glyph-name="Udieresis" unicode="&#xdc;" 
d="M80 700h40v-494q0 -51 24 -93.5t65 -67t91 -24.5t91 24.5t65 67t24 93.5v494h40v-494q-1 -63 -30.5 -113.5t-79 -79t-110.5 -28.5t-110.5 28.5t-79 79t-30.5 113.5v494zM213 790q-24 0 -36 12t-12 36q0 47 48 47q47 0 47 -47q0 -48 -47 -48zM388 790q-24 0 -36 12t-12 36
q0 47 48 47q47 0 47 -47q0 -48 -47 -48z" />
    <glyph glyph-name="Yacute" unicode="&#xdd;" 
d="M73 700l247 -371h-40l247 371h48l-255 -383h-40l-255 383h48zM320 319l1 -319h-40l-1 319h40zM525 35v-35h-450v35h450zM424 905l-124 -117l-17 18l116 124z" />
    <glyph glyph-name="Thorn" unicode="&#xde;" 
d="M323 567q93 0 147.5 -53t54.5 -144t-54.5 -143.5t-147.5 -52.5h-189v35h184q76 0 121.5 44t45.5 117t-46 117.5t-121 44.5h-184v35h189zM140 0h-40v700h40v-700z" />
    <glyph glyph-name="germandbls" unicode="&#xdf;" 
d="M281 35q99 0 152.5 41t53.5 117q0 72 -48 113t-133 41h-41v35h46q42 0 77 20.5t55 55.5t20 78q0 63 -42.5 103.5t-109.5 40.5q-69 0 -111 -44t-42 -116v-520h-40v520q0 57 24.5 101.5t68.5 69t100 24.5q55 0 99 -23t68.5 -64t24.5 -92q0 -58 -30 -102.5t-83 -65.5v-4
q65 -16 101 -60.5t36 -110.5q0 -60 -29.5 -103.5t-85 -66.5t-131.5 -23h-68v35h68z" />
    <glyph glyph-name="agrave" unicode="&#xe0;" 
d="M90 131q0 66 47.5 106.5t148.5 42.5l140 3v57q0 86 -37 123t-103 37q-61 0 -100 -38.5t-39 -100.5h-40q0 51 23.5 90.5t64 61.5t91.5 22q82 0 131 -48t49 -147v-250q0 -55 55 -55h31v-35h-31q-43 0 -68 22.5t-27 63.5h-5q-6 -21 -28 -44.5t-57.5 -40t-79.5 -16.5
q-47 0 -85 19t-59.5 52.5t-21.5 74.5zM130 133q0 -51 35 -82t93 -31q48 0 86 22.5t60 61.5t22 86v58l-140 -3q-81 -1 -118.5 -32t-37.5 -80zM305 616l-17 -18l-124 117l25 25z" />
    <glyph glyph-name="aacute" unicode="&#xe1;" 
d="M90 131q0 66 47.5 106.5t148.5 42.5l140 3v57q0 86 -37 123t-103 37q-61 0 -100 -38.5t-39 -100.5h-40q0 51 23.5 90.5t64 61.5t91.5 22q82 0 131 -48t49 -147v-250q0 -55 55 -55h31v-35h-31q-43 0 -68 22.5t-27 63.5h-5q-6 -21 -28 -44.5t-57.5 -40t-79.5 -16.5
q-47 0 -85 19t-59.5 52.5t-21.5 74.5zM130 133q0 -51 35 -82t93 -31q48 0 86 22.5t60 61.5t22 86v58l-140 -3q-81 -1 -118.5 -32t-37.5 -80zM412 715l-124 -117l-17 18l116 124z" />
    <glyph glyph-name="acircumflex" unicode="&#xe2;" 
d="M90 131q0 66 47.5 106.5t148.5 42.5l140 3v57q0 86 -37 123t-103 37q-61 0 -100 -38.5t-39 -100.5h-40q0 51 23.5 90.5t64 61.5t91.5 22q82 0 131 -48t49 -147v-250q0 -55 55 -55h31v-35h-31q-43 0 -68 22.5t-27 63.5h-5q-6 -21 -28 -44.5t-57.5 -40t-79.5 -16.5
q-47 0 -85 19t-59.5 52.5t-21.5 74.5zM130 133q0 -51 35 -82t93 -31q48 0 86 22.5t60 61.5t22 86v58l-140 -3q-81 -1 -118.5 -32t-37.5 -80zM266 730h43l101 -124l-17 -18l-105 113h-1l-105 -113l-17 18z" />
    <glyph glyph-name="atilde" unicode="&#xe3;" 
d="M90 131q0 66 47.5 106.5t148.5 42.5l140 3v57q0 86 -37 123t-103 37q-61 0 -100 -38.5t-39 -100.5h-40q0 51 23.5 90.5t64 61.5t91.5 22q82 0 131 -48t49 -147v-250q0 -55 55 -55h31v-35h-31q-43 0 -68 22.5t-27 63.5h-5q-6 -21 -28 -44.5t-57.5 -40t-79.5 -16.5
q-47 0 -85 19t-59.5 52.5t-21.5 74.5zM130 133q0 -51 35 -82t93 -31q48 0 86 22.5t60 61.5t22 86v58l-140 -3q-81 -1 -118.5 -32t-37.5 -80zM140 629q13 32 33.5 51.5t46.5 19.5q16 0 29 -4.5t42 -21.5q25 -14 37 -19t24 -5q20 0 33.5 12.5t27.5 37.5l23 -14
q-14 -32 -35 -51.5t-49 -19.5q-19 0 -34.5 6t-44.5 23q-23 13 -33 17t-21 4q-17 0 -30 -11t-25 -39z" />
    <glyph glyph-name="adieresis" unicode="&#xe4;" 
d="M90 131q0 66 47.5 106.5t148.5 42.5l140 3v57q0 86 -37 123t-103 37q-61 0 -100 -38.5t-39 -100.5h-40q0 51 23.5 90.5t64 61.5t91.5 22q82 0 131 -48t49 -147v-250q0 -55 55 -55h31v-35h-31q-43 0 -68 22.5t-27 63.5h-5q-6 -21 -28 -44.5t-57.5 -40t-79.5 -16.5
q-47 0 -85 19t-59.5 52.5t-21.5 74.5zM130 133q0 -51 35 -82t93 -31q48 0 86 22.5t60 61.5t22 86v58l-140 -3q-81 -1 -118.5 -32t-37.5 -80zM201 600q-24 0 -36 12t-12 36q0 47 48 47q47 0 47 -47q0 -48 -47 -48zM376 600q-24 0 -36 12t-12 36q0 47 48 47q47 0 47 -47
q0 -48 -47 -48z" />
    <glyph glyph-name="aring" unicode="&#xe5;" 
d="M90 131q0 66 47.5 106.5t148.5 42.5l140 3v57q0 86 -37 123t-103 37q-61 0 -100 -38.5t-39 -100.5h-40q0 51 23.5 90.5t64 61.5t91.5 22q82 0 131 -48t49 -147v-250q0 -55 55 -55h31v-35h-31q-43 0 -68 22.5t-27 63.5h-5q-6 -21 -28 -44.5t-57.5 -40t-79.5 -16.5
q-47 0 -85 19t-59.5 52.5t-21.5 74.5zM130 133q0 -51 35 -82t93 -31q48 0 86 22.5t60 61.5t22 86v58l-140 -3q-81 -1 -118.5 -32t-37.5 -80zM288 588q-41 0 -68.5 28t-27.5 68t28 68t68 28t68 -28t28 -68t-28 -68t-68 -28zM288 618q27 0 46.5 19t19.5 47q0 27 -19.5 46.5
t-46.5 19.5q-28 0 -47 -19.5t-19 -46.5q0 -28 19 -47t47 -19z" />
    <glyph glyph-name="ae" unicode="&#xe6;" 
d="M15 122q0 75 54 118t154 47l34 2v34q0 173 -91 173q-44 0 -71 -37.5t-27 -97.5h-40q0 51 17 90.5t47 61.5t70 22q48 0 80 -34t45 -98h3q20 65 56 98.5t85 33.5q73 0 113 -73t41 -209h-278q2 -104 36.5 -166.5t91.5 -62.5q44 0 71 38.5t32 107.5h40q-8 -88 -45.5 -136.5
t-97.5 -48.5q-52 0 -89.5 36.5t-57.5 104.5h-3q-15 -72 -51 -107t-93 -34q-54 1 -90 38.5t-36 98.5zM55 124q0 -45 25 -72.5t63 -27.5q56 0 85 42.5t29 123.5v60l-26 -2q-176 -3 -176 -124zM543 288q-2 99 -31.5 153.5t-80.5 54.5q-52 0 -85 -56t-38 -152h235z" />
    <glyph glyph-name="ccedilla" unicode="&#xe7;" 
d="M81 260q0 82 27.5 144.5t78 96.5t117.5 34q80 0 130.5 -49t61.5 -136h-40q-9 69 -49.5 109.5t-102.5 40.5q-54 0 -95.5 -30.5t-64.5 -85t-23 -124.5q0 -71 23 -125.5t64.5 -84.5t95.5 -30q62 0 102 40t50 110h40q-11 -87 -61.5 -136t-130.5 -49q-67 0 -117.5 34t-78 96.5
t-27.5 144.5zM214 -182q53 -22 97 -22q34 0 53.5 14.5t22.5 39.5q2 16 -7 28t-25 16q-13 4 -30 0.5t-32 -12.5l-27 13l22 105h36l-19 -91l2 -1q12 9 28.5 13t30.5 2q27 -5 42 -25t14 -50q-2 -35 -32 -59.5t-83 -24.5q-22 0 -47.5 5t-45.5 15v34z" />
    <glyph glyph-name="egrave" unicode="&#xe8;" 
d="M81 260q0 83 27 145.5t76.5 96t115.5 33.5q100 0 151.5 -70.5t53.5 -211.5h-396v35h380l-26 -28q2 114 -41 177t-122 63q-53 0 -93.5 -30t-63 -84.5t-22.5 -125.5q0 -70 23 -124.5t63.5 -85t92.5 -30.5q65 0 105.5 39.5t50.5 110.5h40q-11 -88 -62.5 -136.5t-133.5 -48.5
q-65 0 -114.5 34t-77 96t-27.5 145zM317 616l-17 -18l-124 117l25 25z" />
    <glyph glyph-name="eacute" unicode="&#xe9;" 
d="M81 260q0 83 27 145.5t76.5 96t115.5 33.5q100 0 151.5 -70.5t53.5 -211.5h-396v35h380l-26 -28q2 114 -41 177t-122 63q-53 0 -93.5 -30t-63 -84.5t-22.5 -125.5q0 -70 23 -124.5t63.5 -85t92.5 -30.5q65 0 105.5 39.5t50.5 110.5h40q-11 -88 -62.5 -136.5t-133.5 -48.5
q-65 0 -114.5 34t-77 96t-27.5 145zM424 715l-124 -117l-17 18l116 124z" />
    <glyph glyph-name="ecircumflex" unicode="&#xea;" 
d="M81 260q0 83 27 145.5t76.5 96t115.5 33.5q100 0 151.5 -70.5t53.5 -211.5h-396v35h380l-26 -28q2 114 -41 177t-122 63q-53 0 -93.5 -30t-63 -84.5t-22.5 -125.5q0 -70 23 -124.5t63.5 -85t92.5 -30.5q65 0 105.5 39.5t50.5 110.5h40q-11 -88 -62.5 -136.5t-133.5 -48.5
q-65 0 -114.5 34t-77 96t-27.5 145zM278 730h43l101 -124l-17 -18l-105 113h-1l-105 -113l-17 18z" />
    <glyph glyph-name="edieresis" unicode="&#xeb;" 
d="M81 260q0 83 27 145.5t76.5 96t115.5 33.5q100 0 151.5 -70.5t53.5 -211.5h-396v35h380l-26 -28q2 114 -41 177t-122 63q-53 0 -93.5 -30t-63 -84.5t-22.5 -125.5q0 -70 23 -124.5t63.5 -85t92.5 -30.5q65 0 105.5 39.5t50.5 110.5h40q-11 -88 -62.5 -136.5t-133.5 -48.5
q-65 0 -114.5 34t-77 96t-27.5 145zM213 600q-24 0 -36 12t-12 36q0 47 48 47q47 0 47 -47q0 -48 -47 -48zM388 600q-24 0 -36 12t-12 36q0 47 48 47q47 0 47 -47q0 -48 -47 -48z" />
    <glyph glyph-name="igrave" unicode="&#xec;" 
d="M560 35v-35h-460v35h460zM100 520h210q20 0 30 -10t10 -30v-480h-40v485h-210v35zM327 616l-17 -18l-124 117l25 25z" />
    <glyph glyph-name="iacute" unicode="&#xed;" 
d="M560 35v-35h-460v35h460zM100 520h210q20 0 30 -10t10 -30v-480h-40v485h-210v35zM434 715l-124 -117l-17 18l116 124z" />
    <glyph glyph-name="icircumflex" unicode="&#xee;" 
d="M560 35v-35h-460v35h460zM100 520h210q20 0 30 -10t10 -30v-480h-40v485h-210v35zM288 730h43l101 -124l-17 -18l-105 113h-1l-105 -113l-17 18z" />
    <glyph glyph-name="idieresis" unicode="&#xef;" 
d="M560 35v-35h-460v35h460zM100 520h210q20 0 30 -10t10 -30v-480h-40v485h-210v35zM223 600q-24 0 -36 12t-12 36q0 47 48 47q47 0 47 -47q0 -48 -47 -48zM398 600q-24 0 -36 12t-12 36q0 47 48 47q47 0 47 -47q0 -48 -47 -48z" />
    <glyph glyph-name="ntilde" unicode="&#xf1;" 
d="M150 520v-520h-40v520h40zM150 409h5q20 60 64 93t100 33q83 0 132 -55t49 -160v-320h-40v320q0 92 -37 136t-104 44q-43 0 -82 -27t-63 -71t-24 -93v-14h-12zM166 629q13 32 33.5 51.5t46.5 19.5q16 0 29 -4.5t42 -21.5q25 -14 37 -19t24 -5q20 0 33.5 12.5t27.5 37.5
l23 -14q-14 -32 -35 -51.5t-49 -19.5q-19 0 -34.5 6t-44.5 23q-23 13 -33 17t-21 4q-17 0 -30 -11t-25 -39z" />
    <glyph glyph-name="ograve" unicode="&#xf2;" 
d="M85 260q0 85 26 147t74 95t115 33t115 -33t74 -95t26 -147q0 -128 -57.5 -201.5t-157.5 -73.5t-157.5 73.5t-57.5 201.5zM125 260q0 -111 47 -175.5t128 -64.5t128 64.5t47 175.5t-47 175.5t-128 64.5t-128 -64.5t-47 -175.5zM317 616l-17 -18l-124 117l25 25z" />
    <glyph glyph-name="oacute" unicode="&#xf3;" 
d="M85 260q0 85 26 147t74 95t115 33t115 -33t74 -95t26 -147q0 -128 -57.5 -201.5t-157.5 -73.5t-157.5 73.5t-57.5 201.5zM125 260q0 -111 47 -175.5t128 -64.5t128 64.5t47 175.5t-47 175.5t-128 64.5t-128 -64.5t-47 -175.5zM424 715l-124 -117l-17 18l116 124z" />
    <glyph glyph-name="ocircumflex" unicode="&#xf4;" 
d="M85 260q0 85 26 147t74 95t115 33t115 -33t74 -95t26 -147q0 -128 -57.5 -201.5t-157.5 -73.5t-157.5 73.5t-57.5 201.5zM125 260q0 -111 47 -175.5t128 -64.5t128 64.5t47 175.5t-47 175.5t-128 64.5t-128 -64.5t-47 -175.5zM278 730h43l101 -124l-17 -18l-105 113h-1
l-105 -113l-17 18z" />
    <glyph glyph-name="otilde" unicode="&#xf5;" 
d="M85 260q0 85 26 147t74 95t115 33t115 -33t74 -95t26 -147q0 -128 -57.5 -201.5t-157.5 -73.5t-157.5 73.5t-57.5 201.5zM125 260q0 -111 47 -175.5t128 -64.5t128 64.5t47 175.5t-47 175.5t-128 64.5t-128 -64.5t-47 -175.5zM152 629q13 32 33.5 51.5t46.5 19.5
q16 0 29 -4.5t42 -21.5q25 -14 37 -19t24 -5q20 0 33.5 12.5t27.5 37.5l23 -14q-14 -32 -35 -51.5t-49 -19.5q-19 0 -34.5 6t-44.5 23q-23 13 -33 17t-21 4q-17 0 -30 -11t-25 -39z" />
    <glyph glyph-name="odieresis" unicode="&#xf6;" 
d="M85 260q0 85 26 147t74 95t115 33t115 -33t74 -95t26 -147q0 -128 -57.5 -201.5t-157.5 -73.5t-157.5 73.5t-57.5 201.5zM125 260q0 -111 47 -175.5t128 -64.5t128 64.5t47 175.5t-47 175.5t-128 64.5t-128 -64.5t-47 -175.5zM213 600q-24 0 -36 12t-12 36q0 47 48 47
q47 0 47 -47q0 -48 -47 -48zM388 600q-24 0 -36 12t-12 36q0 47 48 47q47 0 47 -47q0 -48 -47 -48z" />
    <glyph glyph-name="divide" unicode="&#xf7;" 
d="M540 332v-35h-480v35h480zM300 412q-27 0 -46 19t-19 46t19 46t46 19t46 -19t19 -46t-19 -46t-46 -19zM300 87q-27 0 -46 19t-19 46t19 46t46 19t46 -19t19 -46t-19 -46t-46 -19z" />
    <glyph glyph-name="oslash" unicode="&#xf8;" 
d="M478 413l-332 -332l-25 25l333 332zM85 260q0 85 26 147t74 95t115 33t115 -33t74 -95t26 -147q0 -128 -57.5 -201.5t-157.5 -73.5t-157.5 73.5t-57.5 201.5zM125 260q0 -111 47 -175.5t128 -64.5t128 64.5t47 175.5t-47 175.5t-128 64.5t-128 -64.5t-47 -175.5z" />
    <glyph glyph-name="ugrave" unicode="&#xf9;" 
d="M455 0v520h40v-520h-40zM455 111h-5q-20 -60 -64 -93t-100 -33q-83 0 -132 55t-49 160v320h40v-320q0 -92 37 -136t104 -44q43 0 82 27t63 71t24 93v14h12zM317 616l-17 -18l-124 117l25 25z" />
    <glyph glyph-name="uacute" unicode="&#xfa;" 
d="M455 0v520h40v-520h-40zM455 111h-5q-20 -60 -64 -93t-100 -33q-83 0 -132 55t-49 160v320h40v-320q0 -92 37 -136t104 -44q43 0 82 27t63 71t24 93v14h12zM424 715l-124 -117l-17 18l116 124z" />
    <glyph glyph-name="ucircumflex" unicode="&#xfb;" 
d="M455 0v520h40v-520h-40zM455 111h-5q-20 -60 -64 -93t-100 -33q-83 0 -132 55t-49 160v320h40v-320q0 -92 37 -136t104 -44q43 0 82 27t63 71t24 93v14h12zM278 730h43l101 -124l-17 -18l-105 113h-1l-105 -113l-17 18z" />
    <glyph glyph-name="udieresis" unicode="&#xfc;" 
d="M455 0v520h40v-520h-40zM455 111h-5q-20 -60 -64 -93t-100 -33q-83 0 -132 55t-49 160v320h40v-320q0 -92 37 -136t104 -44q43 0 82 27t63 71t24 93v14h12zM213 600q-24 0 -36 12t-12 36q0 47 48 47q47 0 47 -47q0 -48 -47 -48zM388 600q-24 0 -36 12t-12 36q0 47 48 47
q47 0 47 -47q0 -48 -47 -48z" />
    <glyph glyph-name="yacute" unicode="&#xfd;" 
d="M108 520l201 -477l182 477h43l-254 -664q-14 -36 -39 -53.5t-64 -17.5h-92v35h96q43 0 57 39l45 116q5 15 0 26l-218 519h43zM424 715l-124 -117l-17 18l116 124z" />
    <glyph glyph-name="thorn" unicode="&#xfe;" 
d="M105 700h40v-915h-40v915zM115 260q0 43 7 77.5t23 69.5h5q23 61 68 94.5t102 33.5q67 0 115 -33t74 -95t26 -147t-26 -147t-74 -95t-115 -33q-58 0 -102.5 34.5t-67.5 97.5h-5q-16 38 -23 71t-7 72zM145 260q0 -111 47 -175.5t128 -64.5t128 64.5t47 175.5t-47 175.5
t-128 64.5t-128 -64.5t-47 -175.5z" />
    <glyph glyph-name="ydieresis" unicode="&#xff;" 
d="M108 520l201 -477l182 477h43l-254 -664q-14 -36 -39 -53.5t-64 -17.5h-92v35h96q43 0 57 39l45 116q5 15 0 26l-218 519h43zM213 600q-24 0 -36 12t-12 36q0 47 48 47q47 0 47 -47q0 -48 -47 -48zM388 600q-24 0 -36 12t-12 36q0 47 48 47q47 0 47 -47q0 -48 -47 -48z
" />
    <glyph glyph-name="Amacron" unicode="&#x100;" 
d="M454 264v-35h-315v35h315zM263 700h74l218 -700h-42l-213 684l-213 -684h-42zM432 850v-35h-265v35h265z" />
    <glyph glyph-name="amacron" unicode="&#x101;" 
d="M90 131q0 66 47.5 106.5t148.5 42.5l140 3v57q0 86 -37 123t-103 37q-61 0 -100 -38.5t-39 -100.5h-40q0 51 23.5 90.5t64 61.5t91.5 22q82 0 131 -48t49 -147v-250q0 -55 55 -55h31v-35h-31q-43 0 -68 22.5t-27 63.5h-5q-6 -21 -28 -44.5t-57.5 -40t-79.5 -16.5
q-47 0 -85 19t-59.5 52.5t-21.5 74.5zM130 133q0 -51 35 -82t93 -31q48 0 86 22.5t60 61.5t22 86v58l-140 -3q-81 -1 -118.5 -32t-37.5 -80zM420 660v-35h-265v35h265z" />
    <glyph glyph-name="Abreve" unicode="&#x102;" 
d="M454 264v-35h-315v35h315zM263 700h74l218 -700h-42l-213 684l-213 -684h-42zM423 902q0 -50 -34.5 -81.5t-88.5 -31.5q-55 0 -89 31.5t-34 81.5v8h34v-8q0 -37 24.5 -60t64.5 -23t64.5 23t24.5 60v8h34v-8z" />
    <glyph glyph-name="abreve" unicode="&#x103;" 
d="M90 131q0 66 47.5 106.5t148.5 42.5l140 3v57q0 86 -37 123t-103 37q-61 0 -100 -38.5t-39 -100.5h-40q0 51 23.5 90.5t64 61.5t91.5 22q82 0 131 -48t49 -147v-250q0 -55 55 -55h31v-35h-31q-43 0 -68 22.5t-27 63.5h-5q-6 -21 -28 -44.5t-57.5 -40t-79.5 -16.5
q-47 0 -85 19t-59.5 52.5t-21.5 74.5zM130 133q0 -51 35 -82t93 -31q48 0 86 22.5t60 61.5t22 86v58l-140 -3q-81 -1 -118.5 -32t-37.5 -80zM411 712q0 -50 -34.5 -81.5t-88.5 -31.5q-55 0 -89 31.5t-34 81.5v8h34v-8q0 -37 24.5 -60t64.5 -23t64.5 23t24.5 60v8h34v-8z" />
    <glyph glyph-name="Aogonek" unicode="&#x104;" 
d="M454 264v-35h-315v35h315zM263 700h74l218 -700h-42l-213 684l-213 -684h-42zM464 -230q-38 0 -69.5 19t-31.5 65q0 36 25.5 66.5t61.5 50.5t66 26v3h39q-56 -20 -106.5 -56.5t-50.5 -88.5q0 -28 19 -41t46 -14q17 -1 36 3.5t33 12.5l11 -18q-18 -15 -39 -21.5t-40 -6.5z
" />
    <glyph glyph-name="aogonek" unicode="&#x105;" 
d="M90 131q0 66 47.5 106.5t148.5 42.5l140 3v57q0 86 -37 123t-103 37q-61 0 -100 -38.5t-39 -100.5h-40q0 51 23.5 90.5t64 61.5t91.5 22q82 0 131 -48t49 -147v-250q0 -55 55 -55h31v-35h-31q-43 0 -68 22.5t-27 63.5h-5q-6 -21 -28 -44.5t-57.5 -40t-79.5 -16.5
q-47 0 -85 19t-59.5 52.5t-21.5 74.5zM130 133q0 -51 35 -82t93 -31q48 0 86 22.5t60 61.5t22 86v58l-140 -3q-81 -1 -118.5 -32t-37.5 -80zM461 -230q-38 0 -69.5 19t-31.5 65q0 36 25.5 66.5t61.5 50.5t66 26v3h39q-56 -20 -106.5 -56.5t-50.5 -88.5q0 -28 19 -41t46 -14
q17 -1 36 3.5t33 12.5l11 -18q-18 -15 -39 -21.5t-40 -6.5z" />
    <glyph glyph-name="Cacute" unicode="&#x106;" 
d="M68 350q0 176 64 269.5t175 95.5q98 1 155 -67.5t62 -177.5h-40q-4 91 -50 150.5t-127 59.5q-90 0 -143 -77.5t-57 -222.5v-60q5 -139 58.5 -219.5t141.5 -80.5q78 0 125.5 58t51.5 152h40q-5 -112 -63.5 -179t-153.5 -66q-113 2 -176 97.5t-63 267.5zM431 905l-124 -117
l-17 18l116 124z" />
    <glyph glyph-name="cacute" unicode="&#x107;" 
d="M81 260q0 82 27.5 144.5t78 96.5t117.5 34q80 0 130.5 -49t61.5 -136h-40q-9 69 -49.5 109.5t-102.5 40.5q-54 0 -95.5 -30.5t-64.5 -85t-23 -124.5q0 -71 23 -125.5t64.5 -84.5t95.5 -30q62 0 102 40t50 110h40q-11 -87 -61.5 -136t-130.5 -49q-67 0 -117.5 34t-78 96.5
t-27.5 144.5zM428 715l-124 -117l-17 18l116 124z" />
    <glyph glyph-name="Cdotaccent" unicode="&#x10a;" 
d="M68 350q0 176 64 269.5t175 95.5q98 1 155 -67.5t62 -177.5h-40q-4 91 -50 150.5t-127 59.5q-90 0 -143 -77.5t-57 -222.5v-60q5 -139 58.5 -219.5t141.5 -80.5q78 0 125.5 58t51.5 152h40q-5 -112 -63.5 -179t-153.5 -66q-113 2 -176 97.5t-63 267.5zM307 790
q-24 0 -36 12t-12 36q0 47 48 47q47 0 47 -47q0 -48 -47 -48z" />
    <glyph glyph-name="cdotaccent" unicode="&#x10b;" 
d="M81 260q0 82 27.5 144.5t78 96.5t117.5 34q80 0 130.5 -49t61.5 -136h-40q-9 69 -49.5 109.5t-102.5 40.5q-54 0 -95.5 -30.5t-64.5 -85t-23 -124.5q0 -71 23 -125.5t64.5 -84.5t95.5 -30q62 0 102 40t50 110h40q-11 -87 -61.5 -136t-130.5 -49q-67 0 -117.5 34t-78 96.5
t-27.5 144.5zM304 600q-24 0 -36 12t-12 36q0 47 48 47q47 0 47 -47q0 -48 -47 -48z" />
    <glyph glyph-name="Ccaron" unicode="&#x10c;" 
d="M68 350q0 176 64 269.5t175 95.5q98 1 155 -67.5t62 -177.5h-40q-4 91 -50 150.5t-127 59.5q-90 0 -143 -77.5t-57 -222.5v-60q5 -139 58.5 -219.5t141.5 -80.5q78 0 125.5 58t51.5 152h40q-5 -112 -63.5 -179t-153.5 -66q-113 2 -176 97.5t-63 267.5zM201 920l105 -113
h1l105 113l17 -18l-101 -124h-43l-101 124z" />
    <glyph glyph-name="ccaron" unicode="&#x10d;" 
d="M81 260q0 82 27.5 144.5t78 96.5t117.5 34q80 0 130.5 -49t61.5 -136h-40q-9 69 -49.5 109.5t-102.5 40.5q-54 0 -95.5 -30.5t-64.5 -85t-23 -124.5q0 -71 23 -125.5t64.5 -84.5t95.5 -30q62 0 102 40t50 110h40q-11 -87 -61.5 -136t-130.5 -49q-67 0 -117.5 34t-78 96.5
t-27.5 144.5zM198 730l105 -113h1l105 113l17 -18l-101 -124h-43l-101 124z" />
    <glyph glyph-name="Dcaron" unicode="&#x10e;" 
d="M150 700v-700h-40v700h40zM271 700q93 0 151 -36t85.5 -112.5t27.5 -200.5t-27.5 -201t-85.5 -113.5t-151 -36.5h-134v35h133q118 0 171.5 68t53.5 219v57q0 150 -53.5 218t-171.5 68h-137v35h138zM164 920l105 -113h1l105 113l17 -18l-101 -124h-43l-101 124z" />
    <glyph glyph-name="dcaron" unicode="&#x10f;" 
d="M495 0h-40v735h40v-735zM485 260q0 -43 -7 -77.5t-23 -69.5h-5q-23 -61 -68 -94.5t-102 -33.5q-67 0 -115 33t-74 95t-26 147t26 147t74 95t115 33q58 0 102.5 -34.5t67.5 -97.5h5q16 -38 23 -71t7 -72zM455 260q0 111 -47 175.5t-128 64.5t-128 -64.5t-47 -175.5
t47 -175.5t128 -64.5t128 64.5t47 175.5zM639 735v-96h-89v96h89zM539 569h19q21 0 31 8t10 29v33h40v-30q0 -35 -19 -52t-62 -17h-19v29z" />
    <glyph glyph-name="Dcroat" unicode="&#x110;" 
d="M319 368v-35h-194v35h194zM150 700v-700h-40v700h40zM271 700q93 0 151 -36t85.5 -112.5t27.5 -200.5t-27.5 -201t-85.5 -113.5t-151 -36.5h-134v35h133q118 0 171.5 68t53.5 219v57q0 150 -53.5 218t-171.5 68h-137v35h138z" />
    <glyph glyph-name="dcroat" unicode="&#x111;" 
d="M570 654v-35h-266v35h266zM495 0h-40v735h40v-735zM485 260q0 -43 -7 -77.5t-23 -69.5h-5q-23 -61 -68 -94.5t-102 -33.5q-67 0 -115 33t-74 95t-26 147t26 147t74 95t115 33q58 0 102.5 -34.5t67.5 -97.5h5q16 -38 23 -71t7 -72zM455 260q0 111 -47 175.5t-128 64.5
t-128 -64.5t-47 -175.5t47 -175.5t128 -64.5t128 64.5t47 175.5z" />
    <glyph glyph-name="Emacron" unicode="&#x112;" 
d="M135 700v-700h-40v700h40zM545 700v-35h-450v35h450zM545 35v-35h-450v35h450zM515 368v-35h-420v35h420zM442 850v-35h-265v35h265z" />
    <glyph glyph-name="emacron" unicode="&#x113;" 
d="M81 260q0 83 27 145.5t76.5 96t115.5 33.5q100 0 151.5 -70.5t53.5 -211.5h-396v35h380l-26 -28q2 114 -41 177t-122 63q-53 0 -93.5 -30t-63 -84.5t-22.5 -125.5q0 -70 23 -124.5t63.5 -85t92.5 -30.5q65 0 105.5 39.5t50.5 110.5h40q-11 -88 -62.5 -136.5t-133.5 -48.5
q-65 0 -114.5 34t-77 96t-27.5 145zM432 660v-35h-265v35h265z" />
    <glyph glyph-name="Edotaccent" unicode="&#x116;" 
d="M135 700v-700h-40v700h40zM545 700v-35h-450v35h450zM545 35v-35h-450v35h450zM515 368v-35h-420v35h420zM310 790q-24 0 -36 12t-12 36q0 47 48 47q47 0 47 -47q0 -48 -47 -48z" />
    <glyph glyph-name="edotaccent" unicode="&#x117;" 
d="M81 260q0 83 27 145.5t76.5 96t115.5 33.5q100 0 151.5 -70.5t53.5 -211.5h-396v35h380l-26 -28q2 114 -41 177t-122 63q-53 0 -93.5 -30t-63 -84.5t-22.5 -125.5q0 -70 23 -124.5t63.5 -85t92.5 -30.5q65 0 105.5 39.5t50.5 110.5h40q-11 -88 -62.5 -136.5t-133.5 -48.5
q-65 0 -114.5 34t-77 96t-27.5 145zM300 600q-24 0 -36 12t-12 36q0 47 48 47q47 0 47 -47q0 -48 -47 -48z" />
    <glyph glyph-name="Eogonek" unicode="&#x118;" 
d="M135 700v-700h-40v700h40zM545 700v-35h-450v35h450zM545 35v-35h-450v35h450zM515 368v-35h-420v35h420zM454 -230q-38 0 -69.5 19t-31.5 65q0 36 25.5 66.5t61.5 50.5t66 26v3h39q-56 -20 -106.5 -56.5t-50.5 -88.5q0 -28 19 -41t46 -14q17 -1 36 3.5t33 12.5l11 -18
q-18 -15 -39 -21.5t-40 -6.5z" />
    <glyph glyph-name="eogonek" unicode="&#x119;" 
d="M81 260q0 83 27 145.5t76.5 96t115.5 33.5q100 0 151.5 -70.5t53.5 -211.5h-396v35h380l-26 -28q2 114 -41 177t-122 63q-53 0 -93.5 -30t-63 -84.5t-22.5 -125.5q0 -70 23 -124.5t63.5 -85t92.5 -30.5q65 0 105.5 39.5t50.5 110.5h40q-11 -88 -62.5 -136.5t-133.5 -48.5
q-65 0 -114.5 34t-77 96t-27.5 145zM290 -230q-38 0 -69.5 19t-31.5 65q0 36 25.5 66.5t61.5 50.5t66 26v3h39q-56 -20 -106.5 -56.5t-50.5 -88.5q0 -28 19 -41t46 -14q17 -1 36 3.5t33 12.5l11 -18q-18 -15 -39 -21.5t-40 -6.5z" />
    <glyph glyph-name="Ecaron" unicode="&#x11a;" 
d="M135 700v-700h-40v700h40zM545 700v-35h-450v35h450zM545 35v-35h-450v35h450zM515 368v-35h-420v35h420zM204 920l105 -113h1l105 113l17 -18l-101 -124h-43l-101 124z" />
    <glyph glyph-name="ecaron" unicode="&#x11b;" 
d="M81 260q0 83 27 145.5t76.5 96t115.5 33.5q100 0 151.5 -70.5t53.5 -211.5h-396v35h380l-26 -28q2 114 -41 177t-122 63q-53 0 -93.5 -30t-63 -84.5t-22.5 -125.5q0 -70 23 -124.5t63.5 -85t92.5 -30.5q65 0 105.5 39.5t50.5 110.5h40q-11 -88 -62.5 -136.5t-133.5 -48.5
q-65 0 -114.5 34t-77 96t-27.5 145zM194 730l105 -113h1l105 113l17 -18l-101 -124h-43l-101 124z" />
    <glyph glyph-name="Gbreve" unicode="&#x11e;" 
d="M68 350q0 176 64 269.5t175 95.5q98 1 155 -67.5t62 -177.5h-40q-4 91 -50 150.5t-127 59.5q-90 0 -143 -77.5t-57 -222.5v-60q5 -139 58.5 -219.5t141.5 -80.5q86 0 131.5 66.5t45.5 166.5v61h40v-314h-40v120h-5q-17 -62 -59 -98.5t-113 -36.5q-75 0 -128.5 43.5
t-82 125.5t-28.5 196zM430 902q0 -50 -34.5 -81.5t-88.5 -31.5q-55 0 -89 31.5t-34 81.5v8h34v-8q0 -37 24.5 -60t64.5 -23t64.5 23t24.5 60v8h34v-8z" />
    <glyph glyph-name="gbreve" unicode="&#x11f;" 
d="M89 318q0 98 54.5 157.5t145.5 59.5t145.5 -59t54.5 -158q0 -65 -24.5 -114.5t-70 -76t-105.5 -26.5t-105.5 27t-70 76t-24.5 114zM129 318q0 -82 44 -132t116 -50t116 50t44 132t-44 132t-116 50t-116 -50t-44 -132zM386 537q-1 30 15 45.5t45 15.5h104v-40h-128v-81
h-35zM50 -120q0 39 25.5 64.5t71.5 30.5v5q-18 9 -27.5 23.5t-9.5 33.5q0 33 28.5 52.5t75.5 19.5v6h44v-12q-49 0 -78.5 -16.5t-29.5 -42.5q0 -21 19 -32.5t53 -11.5h154q72 0 112 -30.5t40 -85.5q0 -54 -37 -84t-104 -30h-196q-64 0 -102.5 30t-38.5 80zM90 -120
q0 -37 27 -56t79 -19h186q51 0 78.5 20.5t27.5 58.5t-28 59.5t-78 21.5h-186q-49 0 -77.5 -23t-28.5 -62zM411 712q0 -50 -34.5 -81.5t-88.5 -31.5q-55 0 -89 31.5t-34 81.5v8h34v-8q0 -37 24.5 -60t64.5 -23t64.5 23t24.5 60v8h34v-8z" />
    <glyph glyph-name="Gdotaccent" unicode="&#x120;" 
d="M68 350q0 176 64 269.5t175 95.5q98 1 155 -67.5t62 -177.5h-40q-4 91 -50 150.5t-127 59.5q-90 0 -143 -77.5t-57 -222.5v-60q5 -139 58.5 -219.5t141.5 -80.5q86 0 131.5 66.5t45.5 166.5v61h40v-314h-40v120h-5q-17 -62 -59 -98.5t-113 -36.5q-75 0 -128.5 43.5
t-82 125.5t-28.5 196zM307 790q-24 0 -36 12t-12 36q0 47 48 47q47 0 47 -47q0 -48 -47 -48z" />
    <glyph glyph-name="gdotaccent" unicode="&#x121;" 
d="M89 318q0 98 54.5 157.5t145.5 59.5t145.5 -59t54.5 -158q0 -65 -24.5 -114.5t-70 -76t-105.5 -26.5t-105.5 27t-70 76t-24.5 114zM129 318q0 -82 44 -132t116 -50t116 50t44 132t-44 132t-116 50t-116 -50t-44 -132zM386 537q-1 30 15 45.5t45 15.5h104v-40h-128v-81
h-35zM50 -120q0 39 25.5 64.5t71.5 30.5v5q-18 9 -27.5 23.5t-9.5 33.5q0 33 28.5 52.5t75.5 19.5v6h44v-12q-49 0 -78.5 -16.5t-29.5 -42.5q0 -21 19 -32.5t53 -11.5h154q72 0 112 -30.5t40 -85.5q0 -54 -37 -84t-104 -30h-196q-64 0 -102.5 30t-38.5 80zM90 -120
q0 -37 27 -56t79 -19h186q51 0 78.5 20.5t27.5 58.5t-28 59.5t-78 21.5h-186q-49 0 -77.5 -23t-28.5 -62zM288 600q-24 0 -36 12t-12 36q0 47 48 47q47 0 47 -47q0 -48 -47 -48z" />
    <glyph glyph-name="uni0122" unicode="&#x122;" 
d="M68 350q0 176 64 269.5t175 95.5q98 1 155 -67.5t62 -177.5h-40q-4 91 -50 150.5t-127 59.5q-90 0 -143 -77.5t-57 -222.5v-60q5 -139 58.5 -219.5t141.5 -80.5q86 0 131.5 66.5t45.5 166.5v61h40v-314h-40v120h-5q-17 -62 -59 -98.5t-113 -36.5q-75 0 -128.5 43.5
t-82 125.5t-28.5 196zM347 -95v-96h-89v96h89zM247 -261h19q21 0 31 8t10 29v33h40v-30q0 -35 -19 -52t-62 -17h-19v29z" />
    <glyph glyph-name="uni0123" unicode="&#x123;" 
d="M89 318q0 98 54.5 157.5t145.5 59.5t145.5 -59t54.5 -158q0 -65 -24.5 -114.5t-70 -76t-105.5 -26.5t-105.5 27t-70 76t-24.5 114zM129 318q0 -82 44 -132t116 -50t116 50t44 132t-44 132t-116 50t-116 -50t-44 -132zM386 537q-1 30 15 45.5t45 15.5h104v-40h-128v-81
h-35zM50 -120q0 39 25.5 64.5t71.5 30.5v5q-18 9 -27.5 23.5t-9.5 33.5q0 33 28.5 52.5t75.5 19.5v6h44v-12q-49 0 -78.5 -16.5t-29.5 -42.5q0 -21 19 -32.5t53 -11.5h154q72 0 112 -30.5t40 -85.5q0 -54 -37 -84t-104 -30h-196q-64 0 -102.5 30t-38.5 80zM90 -120
q0 -37 27 -56t79 -19h186q51 0 78.5 20.5t27.5 58.5t-28 59.5t-78 21.5h-186q-49 0 -77.5 -23t-28.5 -62zM248 590v96h89v-96h-89zM348 756h-19q-21 0 -31 -8t-10 -29v-33h-40v30q0 35 19 52t62 17h19v-29z" />
    <glyph glyph-name="Hbar" unicode="&#x126;" 
d="M512 555v-35h-417v35h417zM110 700v-700h-40v700h40zM530 700v-700h-40v700h40zM516 398v-35h-426v35h426z" />
    <glyph glyph-name="hbar" unicode="&#x127;" 
d="M301 654v-35h-266v35h266zM150 735v-735h-40v735h40zM150 409h5q20 60 64 93t100 33q83 0 132 -55t49 -160v-320h-40v320q0 92 -37 136t-104 44q-43 0 -82 -27t-63 -71t-24 -93v-14h-12z" />
    <glyph glyph-name="Imacron" unicode="&#x12a;" 
d="M320 700v-700h-40v700h40zM525 700v-35h-450v35h450zM525 35v-35h-450v35h450zM432 850v-35h-265v35h265z" />
    <glyph glyph-name="imacron" unicode="&#x12b;" 
d="M560 35v-35h-460v35h460zM100 520h210q20 0 30 -10t10 -30v-480h-40v485h-210v35zM442 660v-35h-265v35h265z" />
    <glyph glyph-name="Iogonek" unicode="&#x12e;" 
d="M320 700v-700h-40v700h40zM525 700v-35h-450v35h450zM525 35v-35h-450v35h450zM434 -230q-38 0 -69.5 19t-31.5 65q0 36 25.5 66.5t61.5 50.5t66 26v3h39q-56 -20 -106.5 -56.5t-50.5 -88.5q0 -28 19 -41t46 -14q17 -1 36 3.5t33 12.5l11 -18q-18 -15 -39 -21.5t-40 -6.5
z" />
    <glyph glyph-name="iogonek" unicode="&#x12f;" 
d="M560 35v-35h-460v35h460zM100 520h210q20 0 30 -10t10 -30v-480h-40v485h-210v35zM469 -230q-38 0 -69.5 19t-31.5 65q0 36 25.5 66.5t61.5 50.5t66 26v3h39q-56 -20 -106.5 -56.5t-50.5 -88.5q0 -28 19 -41t46 -14q17 -1 36 3.5t33 12.5l11 -18q-18 -15 -39 -21.5
t-40 -6.5zM350 735v-92h-40v92h40z" />
    <glyph glyph-name="Idotaccent" unicode="&#x130;" 
d="M320 700v-700h-40v700h40zM525 700v-35h-450v35h450zM525 35v-35h-450v35h450zM300 790q-24 0 -36 12t-12 36q0 47 48 47q47 0 47 -47q0 -48 -47 -48z" />
    <glyph glyph-name="dotlessi" unicode="&#x131;" 
d="M560 35v-35h-460v35h460zM100 520h210q20 0 30 -10t10 -30v-480h-40v485h-210v35z" />
    <glyph glyph-name="uni0136" unicode="&#x136;" 
d="M130 700v-700h-40v700h40zM106 207l-6 54l376 439h53zM254 417l29 29l277 -446h-47zM340 -95v-96h-89v96h89zM240 -261h19q21 0 31 8t10 29v33h40v-30q0 -35 -19 -52t-62 -17h-19v29z" />
    <glyph glyph-name="uni0137" unicode="&#x137;" 
d="M131 735v-735h-40v735h40zM121 192v53l322 275h62zM523 0h-45l-206 327l30 28zM330 -95v-96h-89v96h89zM230 -261h19q21 0 31 8t10 29v33h40v-30q0 -35 -19 -52t-62 -17h-19v29z" />
    <glyph glyph-name="Lacute" unicode="&#x139;" 
d="M140 700v-700h-40v700h40zM540 35v-35h-440v35h440zM245 905l-124 -117l-17 18l116 124z" />
    <glyph glyph-name="lacute" unicode="&#x13a;" 
d="M560 35v-35h-460v35h460zM100 735h210q20 0 30 -10t10 -30v-695h-40v700h-210v35zM454 905l-124 -117l-17 18l116 124z" />
    <glyph glyph-name="uni013B" unicode="&#x13b;" 
d="M140 700v-700h-40v700h40zM540 35v-35h-440v35h440zM350 -95v-96h-89v96h89zM250 -261h19q21 0 31 8t10 29v33h40v-30q0 -35 -19 -52t-62 -17h-19v29z" />
    <glyph glyph-name="uni013C" unicode="&#x13c;" 
d="M560 35v-35h-460v35h460zM100 735h210q20 0 30 -10t10 -30v-695h-40v700h-210v35zM370 -95v-96h-89v96h89zM270 -261h19q21 0 31 8t10 29v33h40v-30q0 -35 -19 -52t-62 -17h-19v29z" />
    <glyph glyph-name="Lcaron" unicode="&#x13d;" 
d="M140 700v-700h-40v700h40zM540 35v-35h-440v35h440zM329 700v-96h-89v96h89zM229 534h19q21 0 31 8t10 29v33h40v-30q0 -35 -19 -52t-62 -17h-19v29z" />
    <glyph glyph-name="lcaron" unicode="&#x13e;" 
d="M560 35v-35h-460v35h460zM100 735h210q20 0 30 -10t10 -30v-695h-40v700h-210v35zM224 920l105 -113h1l105 113l17 -18l-101 -124h-43l-101 124z" />
    <glyph glyph-name="Lslash" unicode="&#x141;" 
d="M255 465l18 -30l-150 -87v41zM-17 267l-18 31l158 91v-41zM140 700v-700h-40v700h40zM540 35v-35h-440v35h440z" />
    <glyph glyph-name="lslash" unicode="&#x142;" 
d="M466 465l18 -30l-150 -87v41zM194 267l-18 31l158 91v-41zM560 35v-35h-460v35h460zM100 735h210q20 0 30 -10t10 -30v-695h-40v700h-210v35z" />
    <glyph glyph-name="Nacute" unicode="&#x143;" 
d="M70 700h69l351 -681v681h40v-700h-69l-351 681v-681h-40v700zM424 905l-124 -117l-17 18l116 124z" />
    <glyph glyph-name="nacute" unicode="&#x144;" 
d="M150 520v-520h-40v520h40zM150 409h5q20 60 64 93t100 33q83 0 132 -55t49 -160v-320h-40v320q0 92 -37 136t-104 44q-43 0 -82 -27t-63 -71t-24 -93v-14h-12zM438 715l-124 -117l-17 18l116 124z" />
    <glyph glyph-name="uni0145" unicode="&#x145;" 
d="M70 700h69l351 -681v681h40v-700h-69l-351 681v-681h-40v700zM340 -95v-96h-89v96h89zM240 -261h19q21 0 31 8t10 29v33h40v-30q0 -35 -19 -52t-62 -17h-19v29z" />
    <glyph glyph-name="uni0146" unicode="&#x146;" 
d="M150 520v-520h-40v520h40zM150 409h5q20 60 64 93t100 33q83 0 132 -55t49 -160v-320h-40v320q0 92 -37 136t-104 44q-43 0 -82 -27t-63 -71t-24 -93v-14h-12zM354 -95v-96h-89v96h89zM254 -261h19q21 0 31 8t10 29v33h40v-30q0 -35 -19 -52t-62 -17h-19v29z" />
    <glyph glyph-name="Ncaron" unicode="&#x147;" 
d="M70 700h69l351 -681v681h40v-700h-69l-351 681v-681h-40v700zM194 920l105 -113h1l105 113l17 -18l-101 -124h-43l-101 124z" />
    <glyph glyph-name="ncaron" unicode="&#x148;" 
d="M150 520v-520h-40v520h40zM150 409h5q20 60 64 93t100 33q83 0 132 -55t49 -160v-320h-40v320q0 92 -37 136t-104 44q-43 0 -82 -27t-63 -71t-24 -93v-14h-12zM208 730l105 -113h1l105 113l17 -18l-101 -124h-43l-101 124z" />
    <glyph glyph-name="Eng" unicode="&#x14a;" 
d="M70 700h69l351 -681v681h40v-700h-69l-351 681v-681h-40v700zM530 -80q0 -56 -29.5 -85.5t-85.5 -29.5h-80v35h80q36 0 55.5 19.5t19.5 55.5v125h40v-120z" />
    <glyph glyph-name="eng" unicode="&#x14b;" 
d="M150 520v-520h-40v520h40zM150 409h5q20 60 64 93t100 33q83 0 132 -55t49 -160v-320h-40v320q0 92 -37 136t-104 44q-43 0 -82 -27t-63 -71t-24 -93v-14h-12zM500 -80q0 -56 -29.5 -85.5t-85.5 -29.5h-80v35h80q36 0 55.5 19.5t19.5 55.5v125h40v-120z" />
    <glyph glyph-name="Omacron" unicode="&#x14c;" 
d="M63 350q0 180 59.5 271.5t177.5 93.5q117 1 177 -91.5t60 -273.5t-59.5 -273t-177.5 -92q-117 0 -177 92t-60 273zM103 320q3 -99 25.5 -165.5t65 -100.5t106.5 -34t106.5 34t65 100.5t25.5 165.5v60q-5 149 -53.5 224.5t-143.5 75.5t-143.5 -75.5t-53.5 -224.5v-60z
M432 850v-35h-265v35h265z" />
    <glyph glyph-name="omacron" unicode="&#x14d;" 
d="M85 260q0 85 26 147t74 95t115 33t115 -33t74 -95t26 -147q0 -128 -57.5 -201.5t-157.5 -73.5t-157.5 73.5t-57.5 201.5zM125 260q0 -111 47 -175.5t128 -64.5t128 64.5t47 175.5t-47 175.5t-128 64.5t-128 -64.5t-47 -175.5zM432 660v-35h-265v35h265z" />
    <glyph glyph-name="Ohungarumlaut" unicode="&#x150;" 
d="M63 350q0 180 59.5 271.5t177.5 93.5q117 1 177 -91.5t60 -273.5t-59.5 -273t-177.5 -92q-117 0 -177 92t-60 273zM103 320q3 -99 25.5 -165.5t65 -100.5t106.5 -34t106.5 34t65 100.5t25.5 165.5v60q-5 149 -53.5 224.5t-143.5 75.5t-143.5 -75.5t-53.5 -224.5v-60z
M366 905l-124 -117l-17 18l116 124zM475 905l-124 -117l-17 18l116 124z" />
    <glyph glyph-name="ohungarumlaut" unicode="&#x151;" 
d="M85 260q0 85 26 147t74 95t115 33t115 -33t74 -95t26 -147q0 -128 -57.5 -201.5t-157.5 -73.5t-157.5 73.5t-57.5 201.5zM125 260q0 -111 47 -175.5t128 -64.5t128 64.5t47 175.5t-47 175.5t-128 64.5t-128 -64.5t-47 -175.5zM366 715l-124 -117l-17 18l116 124zM475 715
l-124 -117l-17 18l116 124z" />
    <glyph glyph-name="OE" unicode="&#x152;" 
d="M313 700v-700h-40v700h40zM580 700v-35h-307v35h307zM580 35v-35h-307v35h307zM550 368v-35h-277v35h277zM247 665q-95 0 -144.5 -73.5t-52.5 -211.5v-60q6 -93 28 -156t64 -96t105 -33h26v-35h-26q-116 0 -176.5 90t-60.5 260t60 260t177 90h26v-35h-26z" />
    <glyph glyph-name="oe" unicode="&#x153;" 
d="M18 260q0 85 18 147t51.5 95t79.5 33q50 0 84.5 -39.5t50.5 -116.5h2q16 76 51 116t85 40q68 0 104 -72t38 -210h-260q1 -67 16.5 -120t42 -83t59.5 -30q38 0 63.5 40t32.5 110h40q-8 -87 -44 -136t-92 -49q-50 0 -85 39.5t-51 116.5h-2q-16 -76 -50.5 -116t-84.5 -40
q-46 0 -79.5 33t-51.5 95t-18 147zM58 260q0 -109 29.5 -174.5t79.5 -65.5q34 0 60 30.5t40.5 85t14.5 124.5q0 108 -31.5 174t-83.5 66q-50 0 -79.5 -65.5t-29.5 -174.5zM541 288q-3 99 -30 155.5t-71 56.5q-31 0 -56.5 -27t-41.5 -75.5t-19 -109.5h218z" />
    <glyph glyph-name="Racute" unicode="&#x154;" 
d="M100 700h223q92 0 147 -52t55 -140q0 -50 -25.5 -88t-75.5 -63v-5h51q24 0 37 -13t13 -37v-302h-40v317h-370l25 12v-329h-40v700zM115 352h203q75 0 121 43t46 113q0 69 -46 113t-121 44h-204l26 23v-350zM414 905l-124 -117l-17 18l116 124z" />
    <glyph glyph-name="racute" unicode="&#x155;" 
d="M471 485q-58 0 -101.5 -26.5t-66.5 -70t-23 -93.5v-15h-12v114h17q20 63 66.5 94.5t119.5 31.5h79v-35h-79zM550 35v-35h-490v35h490zM60 520h180q20 0 30 -10t10 -30v-480h-40v485h-180v35zM434 715l-124 -117l-17 18l116 124z" />
    <glyph glyph-name="uni0156" unicode="&#x156;" 
d="M100 700h223q92 0 147 -52t55 -140q0 -50 -25.5 -88t-75.5 -63v-5h51q24 0 37 -13t13 -37v-302h-40v317h-370l25 12v-329h-40v700zM115 352h203q75 0 121 43t46 113q0 69 -46 113t-121 44h-204l26 23v-350zM340 -95v-96h-89v96h89zM240 -261h19q21 0 31 8t10 29v33h40
v-30q0 -35 -19 -52t-62 -17h-19v29z" />
    <glyph glyph-name="uni0157" unicode="&#x157;" 
d="M471 485q-58 0 -101.5 -26.5t-66.5 -70t-23 -93.5v-15h-12v114h17q20 63 66.5 94.5t119.5 31.5h79v-35h-79zM550 35v-35h-490v35h490zM60 520h180q20 0 30 -10t10 -30v-480h-40v485h-180v35zM301 -95v-96h-89v96h89zM201 -261h19q21 0 31 8t10 29v33h40v-30
q0 -35 -19 -52t-62 -17h-19v29z" />
    <glyph glyph-name="Rcaron" unicode="&#x158;" 
d="M100 700h223q92 0 147 -52t55 -140q0 -50 -25.5 -88t-75.5 -63v-5h51q24 0 37 -13t13 -37v-302h-40v317h-370l25 12v-329h-40v700zM115 352h203q75 0 121 43t46 113q0 69 -46 113t-121 44h-204l26 23v-350zM184 920l105 -113h1l105 113l17 -18l-101 -124h-43l-101 124z
" />
    <glyph glyph-name="rcaron" unicode="&#x159;" 
d="M471 485q-58 0 -101.5 -26.5t-66.5 -70t-23 -93.5v-15h-12v114h17q20 63 66.5 94.5t119.5 31.5h79v-35h-79zM550 35v-35h-490v35h490zM60 520h180q20 0 30 -10t10 -30v-480h-40v485h-180v35zM204 730l105 -113h1l105 113l17 -18l-101 -124h-43l-101 124z" />
    <glyph glyph-name="Sacute" unicode="&#x15a;" 
d="M303 680q-83 0 -132.5 -36t-49.5 -96q0 -35 16.5 -61t58 -51t120.5 -59q83 -35 129.5 -63.5t69.5 -64t23 -86.5q0 -53 -28.5 -93.5t-79.5 -62.5t-118 -22q-115 0 -182 61.5t-67 166.5h40q0 -88 57 -140.5t152 -52.5q86 0 136 38.5t50 104.5q0 43 -20 70.5t-56 48
t-112 54.5l-9 4q-87 39 -134 69.5t-67 62.5t-19 76q0 49 28 87t78 59t116 21q63 0 114.5 -24.5t82.5 -70.5t33 -106h-40q-4 80 -55.5 123t-134.5 43zM427 905l-124 -117l-17 18l116 124z" />
    <glyph glyph-name="sacute" unicode="&#x15b;" 
d="M303 500q-65 0 -107 -26t-42 -69q0 -28 17 -47t45.5 -32.5t85.5 -35.5l12 -5l20 -7q54 -21 86.5 -38t57 -47t24.5 -74q0 -61 -53.5 -97.5t-138.5 -36.5q-92 0 -151.5 44t-59.5 128h40q0 -72 52.5 -104.5t118.5 -32.5t109 27t43 72q0 46 -36.5 71.5t-100.5 48.5l-24 9
q-10 4 -14 6q-62 24 -96 41.5t-55.5 44t-21.5 65.5q0 58 53.5 94t135.5 36q79 0 135 -38.5t60 -113.5h-40q-4 55 -45 86t-110 31zM427 715l-124 -117l-17 18l116 124z" />
    <glyph glyph-name="Scedilla" unicode="&#x15e;" 
d="M303 680q-83 0 -132.5 -36t-49.5 -96q0 -35 16.5 -61t58 -51t120.5 -59q83 -35 129.5 -63.5t69.5 -64t23 -86.5q0 -53 -28.5 -93.5t-79.5 -62.5t-118 -22q-115 0 -182 61.5t-67 166.5h40q0 -88 57 -140.5t152 -52.5q86 0 136 38.5t50 104.5q0 43 -20 70.5t-56 48
t-112 54.5l-9 4q-87 39 -134 69.5t-67 62.5t-19 76q0 49 28 87t78 59t116 21q63 0 114.5 -24.5t82.5 -70.5t33 -106h-40q-4 80 -55.5 123t-134.5 43zM222 -182q53 -22 97 -22q34 0 53.5 14.5t22.5 39.5q2 16 -7 28t-25 16q-13 4 -30 0.5t-32 -12.5l-27 13l22 105h36l-19 -91
l2 -1q12 9 28.5 13t30.5 2q27 -5 42 -25t14 -50q-2 -35 -32 -59.5t-83 -24.5q-22 0 -47.5 5t-45.5 15v34z" />
    <glyph glyph-name="scedilla" unicode="&#x15f;" 
d="M303 500q-65 0 -107 -26t-42 -69q0 -28 17 -47t45.5 -32.5t85.5 -35.5l12 -5l20 -7q54 -21 86.5 -38t57 -47t24.5 -74q0 -61 -53.5 -97.5t-138.5 -36.5q-92 0 -151.5 44t-59.5 128h40q0 -72 52.5 -104.5t118.5 -32.5t109 27t43 72q0 46 -36.5 71.5t-100.5 48.5l-24 9
q-10 4 -14 6q-62 24 -96 41.5t-55.5 44t-21.5 65.5q0 58 53.5 94t135.5 36q79 0 135 -38.5t60 -113.5h-40q-4 55 -45 86t-110 31zM220 -182q53 -22 97 -22q34 0 53.5 14.5t22.5 39.5q2 16 -7 28t-25 16q-13 4 -30 0.5t-32 -12.5l-27 13l22 105h36l-19 -91l2 -1q12 9 28.5 13
t30.5 2q27 -5 42 -25t14 -50q-2 -35 -32 -59.5t-83 -24.5q-22 0 -47.5 5t-45.5 15v34z" />
    <glyph glyph-name="Scaron" unicode="&#x160;" 
d="M303 680q-83 0 -132.5 -36t-49.5 -96q0 -35 16.5 -61t58 -51t120.5 -59q83 -35 129.5 -63.5t69.5 -64t23 -86.5q0 -53 -28.5 -93.5t-79.5 -62.5t-118 -22q-115 0 -182 61.5t-67 166.5h40q0 -88 57 -140.5t152 -52.5q86 0 136 38.5t50 104.5q0 43 -20 70.5t-56 48
t-112 54.5l-9 4q-87 39 -134 69.5t-67 62.5t-19 76q0 49 28 87t78 59t116 21q63 0 114.5 -24.5t82.5 -70.5t33 -106h-40q-4 80 -55.5 123t-134.5 43zM197 920l105 -113h1l105 113l17 -18l-101 -124h-43l-101 124z" />
    <glyph glyph-name="scaron" unicode="&#x161;" 
d="M303 500q-65 0 -107 -26t-42 -69q0 -28 17 -47t45.5 -32.5t85.5 -35.5l12 -5l20 -7q54 -21 86.5 -38t57 -47t24.5 -74q0 -61 -53.5 -97.5t-138.5 -36.5q-92 0 -151.5 44t-59.5 128h40q0 -72 52.5 -104.5t118.5 -32.5t109 27t43 72q0 46 -36.5 71.5t-100.5 48.5l-24 9
q-10 4 -14 6q-62 24 -96 41.5t-55.5 44t-21.5 65.5q0 58 53.5 94t135.5 36q79 0 135 -38.5t60 -113.5h-40q-4 55 -45 86t-110 31zM197 730l105 -113h1l105 113l17 -18l-101 -124h-43l-101 124z" />
    <glyph glyph-name="uni0162" unicode="&#x162;" 
d="M320 700v-700h-40v700h40zM563 700v-35h-526v35h526zM210 -182q53 -22 97 -22q34 0 53.5 14.5t22.5 39.5q2 16 -7 28t-25 16q-13 4 -30 0.5t-32 -12.5l-27 13l22 105h36l-19 -91l2 -1q12 9 28.5 13t30.5 2q27 -5 42 -25t14 -50q-2 -35 -32 -59.5t-83 -24.5q-22 0 -47.5 5
t-45.5 15v34z" />
    <glyph glyph-name="uni0163" unicode="&#x163;" 
d="M20 520h140q40 0 40 40v140h40v-180h270v-35h-270v-396q0 -27 12.5 -40.5t36.5 -13.5h231v-35h-231q-43 0 -66 23t-23 66v396h-180v35zM212 -182q53 -22 97 -22q34 0 53.5 14.5t22.5 39.5q2 16 -7 28t-25 16q-13 4 -30 0.5t-32 -12.5l-27 13l22 105h36l-19 -91l2 -1
q12 9 28.5 13t30.5 2q27 -5 42 -25t14 -50q-2 -35 -32 -59.5t-83 -24.5q-22 0 -47.5 5t-45.5 15v34z" />
    <glyph glyph-name="Tcaron" unicode="&#x164;" 
d="M320 700v-700h-40v700h40zM563 700v-35h-526v35h526zM194 920l105 -113h1l105 113l17 -18l-101 -124h-43l-101 124z" />
    <glyph glyph-name="tcaron" unicode="&#x165;" 
d="M20 520h140q40 0 40 40v140h40v-180h270v-35h-270v-396q0 -27 12.5 -40.5t36.5 -13.5h231v-35h-231q-43 0 -66 23t-23 66v396h-180v35zM384 760v-96h-89v96h89zM284 594h19q21 0 31 8t10 29v33h40v-30q0 -35 -19 -52t-62 -17h-19v29z" />
    <glyph glyph-name="Tbar" unicode="&#x166;" 
d="M485 368v-35h-370v35h370zM320 700v-700h-40v700h40zM563 700v-35h-526v35h526z" />
    <glyph glyph-name="tbar" unicode="&#x167;" 
d="M510 318v-35h-490v35h490zM20 520h140q40 0 40 40v140h40v-180h270v-35h-270v-396q0 -27 12.5 -40.5t36.5 -13.5h231v-35h-231q-43 0 -66 23t-23 66v396h-180v35z" />
    <glyph glyph-name="Umacron" unicode="&#x16a;" 
d="M80 700h40v-494q0 -51 24 -93.5t65 -67t91 -24.5t91 24.5t65 67t24 93.5v494h40v-494q-1 -63 -30.5 -113.5t-79 -79t-110.5 -28.5t-110.5 28.5t-79 79t-30.5 113.5v494zM432 850v-35h-265v35h265z" />
    <glyph glyph-name="umacron" unicode="&#x16b;" 
d="M455 0v520h40v-520h-40zM455 111h-5q-20 -60 -64 -93t-100 -33q-83 0 -132 55t-49 160v320h40v-320q0 -92 37 -136t104 -44q43 0 82 27t63 71t24 93v14h12zM432 660v-35h-265v35h265z" />
    <glyph glyph-name="Uring" unicode="&#x16e;" 
d="M80 700h40v-494q0 -51 24 -93.5t65 -67t91 -24.5t91 24.5t65 67t24 93.5v494h40v-494q-1 -63 -30.5 -113.5t-79 -79t-110.5 -28.5t-110.5 28.5t-79 79t-30.5 113.5v494zM300 778q-41 0 -68.5 28t-27.5 68t28 68t68 28t68 -28t28 -68t-28 -68t-68 -28zM300 808
q27 0 46.5 19t19.5 47q0 27 -19.5 46.5t-46.5 19.5q-28 0 -47 -19.5t-19 -46.5q0 -28 19 -47t47 -19z" />
    <glyph glyph-name="uring" unicode="&#x16f;" 
d="M455 0v520h40v-520h-40zM455 111h-5q-20 -60 -64 -93t-100 -33q-83 0 -132 55t-49 160v320h40v-320q0 -92 37 -136t104 -44q43 0 82 27t63 71t24 93v14h12zM300 588q-41 0 -68.5 28t-27.5 68t28 68t68 28t68 -28t28 -68t-28 -68t-68 -28zM300 618q27 0 46.5 19t19.5 47
q0 27 -19.5 46.5t-46.5 19.5q-28 0 -47 -19.5t-19 -46.5q0 -28 19 -47t47 -19z" />
    <glyph glyph-name="Uhungarumlaut" unicode="&#x170;" 
d="M80 700h40v-494q0 -51 24 -93.5t65 -67t91 -24.5t91 24.5t65 67t24 93.5v494h40v-494q-1 -63 -30.5 -113.5t-79 -79t-110.5 -28.5t-110.5 28.5t-79 79t-30.5 113.5v494zM366 905l-124 -117l-17 18l116 124zM475 905l-124 -117l-17 18l116 124z" />
    <glyph glyph-name="uhungarumlaut" unicode="&#x171;" 
d="M455 0v520h40v-520h-40zM455 111h-5q-20 -60 -64 -93t-100 -33q-83 0 -132 55t-49 160v320h40v-320q0 -92 37 -136t104 -44q43 0 82 27t63 71t24 93v14h12zM366 715l-124 -117l-17 18l116 124zM475 715l-124 -117l-17 18l116 124z" />
    <glyph glyph-name="Uogonek" unicode="&#x172;" 
d="M80 700h40v-494q0 -51 24 -93.5t65 -67t91 -24.5t91 24.5t65 67t24 93.5v494h40v-494q-1 -63 -30.5 -113.5t-79 -79t-110.5 -28.5t-110.5 28.5t-79 79t-30.5 113.5v494zM290 -230q-38 0 -69.5 19t-31.5 65q0 36 25.5 66.5t61.5 50.5t66 26v3h39q-56 -20 -106.5 -56.5
t-50.5 -88.5q0 -28 19 -41t46 -14q17 -1 36 3.5t33 12.5l11 -18q-18 -15 -39 -21.5t-40 -6.5z" />
    <glyph glyph-name="uogonek" unicode="&#x173;" 
d="M455 0v520h40v-520h-40zM455 111h-5q-20 -60 -64 -93t-100 -33q-83 0 -132 55t-49 160v320h40v-320q0 -92 37 -136t104 -44q43 0 82 27t63 71t24 93v14h12zM404 -230q-38 0 -69.5 19t-31.5 65q0 36 25.5 66.5t61.5 50.5t66 26v3h39q-56 -20 -106.5 -56.5t-50.5 -88.5
q0 -28 19 -41t46 -14q17 -1 36 3.5t33 12.5l11 -18q-18 -15 -39 -21.5t-40 -6.5z" />
    <glyph glyph-name="Wcircumflex" unicode="&#x174;" 
d="M90 700l65 -672h1l118 462h51l118 -462h1l65 672h40l-68 -700h-71l-109 430h-2l-110 -430h-71l-68 700h40zM278 920h43l101 -124l-17 -18l-105 113h-1l-105 -113l-17 18z" />
    <glyph glyph-name="wcircumflex" unicode="&#x175;" 
d="M71 520l101 -487h2l101 487h51l101 -487h2l101 487h41l-109 -520h-68l-92 446h-2l-93 -446h-68l-109 520h41zM278 730h43l101 -124l-17 -18l-105 113h-1l-105 -113l-17 18z" />
    <glyph glyph-name="Ycircumflex" unicode="&#x176;" 
d="M73 700l247 -371h-40l247 371h48l-255 -383h-40l-255 383h48zM320 319l1 -319h-40l-1 319h40zM525 35v-35h-450v35h450zM278 920h43l101 -124l-17 -18l-105 113h-1l-105 -113l-17 18z" />
    <glyph glyph-name="ycircumflex" unicode="&#x177;" 
d="M108 520l201 -477l182 477h43l-254 -664q-14 -36 -39 -53.5t-64 -17.5h-92v35h96q43 0 57 39l45 116q5 15 0 26l-218 519h43zM278 730h43l101 -124l-17 -18l-105 113h-1l-105 -113l-17 18z" />
    <glyph glyph-name="Ydieresis" unicode="&#x178;" 
d="M73 700l247 -371h-40l247 371h48l-255 -383h-40l-255 383h48zM320 319l1 -319h-40l-1 319h40zM525 35v-35h-450v35h450zM213 790q-24 0 -36 12t-12 36q0 47 48 47q47 0 47 -47q0 -48 -47 -48zM388 790q-24 0 -36 12t-12 36q0 47 48 47q47 0 47 -47q0 -48 -47 -48z" />
    <glyph glyph-name="Zacute" unicode="&#x179;" 
d="M48 41l471 654v-36h-461v41h484v-41l-470 -654v36h480v-41h-504v41zM424 905l-124 -117l-17 18l116 124z" />
    <glyph glyph-name="zacute" unicode="&#x17a;" 
d="M93 40l381 475l1 -35h-372v40h394v-40l-379 -475v35h389v-40h-414v40zM424 715l-124 -117l-17 18l116 124z" />
    <glyph glyph-name="Zdotaccent" unicode="&#x17b;" 
d="M48 41l471 654v-36h-461v41h484v-41l-470 -654v36h480v-41h-504v41zM300 790q-24 0 -36 12t-12 36q0 47 48 47q47 0 47 -47q0 -48 -47 -48z" />
    <glyph glyph-name="zdotaccent" unicode="&#x17c;" 
d="M93 40l381 475l1 -35h-372v40h394v-40l-379 -475v35h389v-40h-414v40zM300 600q-24 0 -36 12t-12 36q0 47 48 47q47 0 47 -47q0 -48 -47 -48z" />
    <glyph glyph-name="Zcaron" unicode="&#x17d;" 
d="M48 41l471 654v-36h-461v41h484v-41l-470 -654v36h480v-41h-504v41zM194 920l105 -113h1l105 113l17 -18l-101 -124h-43l-101 124z" />
    <glyph glyph-name="zcaron" unicode="&#x17e;" 
d="M93 40l381 475l1 -35h-372v40h394v-40l-379 -475v35h389v-40h-414v40zM194 730l105 -113h1l105 113l17 -18l-101 -124h-43l-101 124z" />
    <glyph glyph-name="florin" unicode="&#x192;" 
d="M11 35h137q49 0 61 48l72 287h-202l9 35h202l63 252q10 40 34 59t65 19h146l-9 -35h-137q-49 0 -61 -48l-62 -247h199l-9 -35h-198l-74 -292q-10 -40 -34 -59t-65 -19h-146z" />
    <glyph glyph-name="uni0218" unicode="&#x218;" 
d="M303 680q-83 0 -132.5 -36t-49.5 -96q0 -35 16.5 -61t58 -51t120.5 -59q83 -35 129.5 -63.5t69.5 -64t23 -86.5q0 -53 -28.5 -93.5t-79.5 -62.5t-118 -22q-115 0 -182 61.5t-67 166.5h40q0 -88 57 -140.5t152 -52.5q86 0 136 38.5t50 104.5q0 43 -20 70.5t-56 48
t-112 54.5l-9 4q-87 39 -134 69.5t-67 62.5t-19 76q0 49 28 87t78 59t116 21q63 0 114.5 -24.5t82.5 -70.5t33 -106h-40q-4 80 -55.5 123t-134.5 43zM352 -95v-96h-89v96h89zM252 -261h19q21 0 31 8t10 29v33h40v-30q0 -35 -19 -52t-62 -17h-19v29z" />
    <glyph glyph-name="uni0219" unicode="&#x219;" 
d="M303 500q-65 0 -107 -26t-42 -69q0 -28 17 -47t45.5 -32.5t85.5 -35.5l12 -5l20 -7q54 -21 86.5 -38t57 -47t24.5 -74q0 -61 -53.5 -97.5t-138.5 -36.5q-92 0 -151.5 44t-59.5 128h40q0 -72 52.5 -104.5t118.5 -32.5t109 27t43 72q0 46 -36.5 71.5t-100.5 48.5l-24 9
q-10 4 -14 6q-62 24 -96 41.5t-55.5 44t-21.5 65.5q0 58 53.5 94t135.5 36q79 0 135 -38.5t60 -113.5h-40q-4 55 -45 86t-110 31zM350 -95v-96h-89v96h89zM250 -261h19q21 0 31 8t10 29v33h40v-30q0 -35 -19 -52t-62 -17h-19v29z" />
    <glyph glyph-name="uni021A" unicode="&#x21a;" 
d="M320 700v-700h-40v700h40zM563 700v-35h-526v35h526zM340 -95v-96h-89v96h89zM240 -261h19q21 0 31 8t10 29v33h40v-30q0 -35 -19 -52t-62 -17h-19v29z" />
    <glyph glyph-name="uni021B" unicode="&#x21b;" 
d="M20 520h140q40 0 40 40v140h40v-180h270v-35h-270v-396q0 -27 12.5 -40.5t36.5 -13.5h231v-35h-231q-43 0 -66 23t-23 66v396h-180v35zM342 -95v-96h-89v96h89zM242 -261h19q21 0 31 8t10 29v33h40v-30q0 -35 -19 -52t-62 -17h-19v29z" />
    <glyph glyph-name="circumflex" unicode="&#x2c6;" 
d="M278 750h43l101 -124l-17 -18l-105 113h-1l-105 -113l-17 18z" />
    <glyph glyph-name="caron" unicode="&#x2c7;" 
d="M194 750l105 -113h1l105 113l17 -18l-101 -124h-43l-101 124z" />
    <glyph glyph-name="breve" unicode="&#x2d8;" 
d="M423 742q0 -50 -34.5 -81.5t-88.5 -31.5q-55 0 -89 31.5t-34 81.5v8h34v-8q0 -37 24.5 -60t64.5 -23t64.5 23t24.5 60v8h34v-8z" />
    <glyph glyph-name="dotaccent" unicode="&#x2d9;" 
d="M300 640q-24 0 -36 12t-12 36q0 47 48 47q47 0 47 -47q0 -48 -47 -48z" />
    <glyph glyph-name="ring" unicode="&#x2da;" 
d="M300 558q-41 0 -68.5 28t-27.5 68t28 68t68 28t68 -28t28 -68t-28 -68t-68 -28zM300 588q27 0 46.5 19t19.5 47q0 27 -19.5 46.5t-46.5 19.5q-28 0 -47 -19.5t-19 -46.5q0 -28 19 -47t47 -19z" />
    <glyph glyph-name="ogonek" unicode="&#x2db;" 
d="M305 -230q-38 0 -69.5 19t-31.5 65q0 36 25.5 66.5t61.5 50.5t66 26v3h39q-56 -20 -106.5 -56.5t-50.5 -88.5q0 -28 19 -41t46 -14q17 -1 36 3.5t33 12.5l11 -18q-18 -15 -39 -21.5t-40 -6.5z" />
    <glyph glyph-name="tilde" unicode="&#x2dc;" 
d="M152 679q13 32 33.5 51.5t46.5 19.5q16 0 29 -4.5t42 -21.5q25 -14 37 -19t24 -5q20 0 33.5 12.5t27.5 37.5l23 -14q-14 -32 -35 -51.5t-49 -19.5q-19 0 -34.5 6t-44.5 23q-23 13 -33 17t-21 4q-17 0 -30 -11t-25 -39z" />
    <glyph glyph-name="hungarumlaut" unicode="&#x2dd;" 
d="M316 725l-124 -117l-17 18l116 124zM425 725l-124 -117l-17 18l116 124z" />
    <glyph glyph-name="gravecomb" unicode="&#x300;" horiz-adv-x="0" 
d="M-230 626l-17 -18l-124 117l25 25z" />
    <glyph glyph-name="acutecomb" unicode="&#x301;" horiz-adv-x="0" 
d="M-230 725l-124 -117l-17 18l116 124z" />
    <glyph glyph-name="uni0302" unicode="&#x302;" horiz-adv-x="0" 
d="M-322 750h43l101 -124l-17 -18l-105 113h-1l-105 -113l-17 18z" />
    <glyph glyph-name="tildecomb" unicode="&#x303;" horiz-adv-x="0" 
d="M-448 679q13 32 33.5 51.5t46.5 19.5q16 0 29 -4.5t42 -21.5q25 -14 37 -19t24 -5q20 0 33.5 12.5t27.5 37.5l23 -14q-14 -32 -35 -51.5t-49 -19.5q-19 0 -34.5 6t-44.5 23q-23 13 -33 17t-21 4q-17 0 -30 -11t-25 -39z" />
    <glyph glyph-name="uni0304" unicode="&#x304;" horiz-adv-x="0" 
d="M-168 700v-35h-265v35h265z" />
    <glyph glyph-name="uni0306" unicode="&#x306;" horiz-adv-x="0" 
d="M-177 742q0 -50 -34.5 -81.5t-88.5 -31.5q-55 0 -89 31.5t-34 81.5v8h34v-8q0 -37 24.5 -60t64.5 -23t64.5 23t24.5 60v8h34v-8z" />
    <glyph glyph-name="uni0307" unicode="&#x307;" horiz-adv-x="0" 
d="M-300 640q-24 0 -36 12t-12 36q0 47 48 47q47 0 47 -47q0 -48 -47 -48z" />
    <glyph glyph-name="uni0308" unicode="&#x308;" horiz-adv-x="0" 
d="M-387 640q-24 0 -36 12t-12 36q0 47 48 47q47 0 47 -47q0 -48 -47 -48zM-212 640q-24 0 -36 12t-12 36q0 47 48 47q47 0 47 -47q0 -48 -47 -48z" />
    <glyph glyph-name="uni030A" unicode="&#x30a;" horiz-adv-x="0" 
d="M-300 558q-41 0 -68.5 28t-27.5 68t28 68t68 28t68 -28t28 -68t-28 -68t-68 -28zM-300 588q27 0 46.5 19t19.5 47q0 27 -19.5 46.5t-46.5 19.5q-28 0 -47 -19.5t-19 -46.5q0 -28 19 -47t47 -19z" />
    <glyph glyph-name="uni030B" unicode="&#x30b;" horiz-adv-x="0" 
d="M-284 725l-124 -117l-17 18l116 124zM-175 725l-124 -117l-17 18l116 124z" />
    <glyph glyph-name="uni030C" unicode="&#x30c;" horiz-adv-x="0" 
d="M-406 750l105 -113h1l105 113l17 -18l-101 -124h-43l-101 124z" />
    <glyph glyph-name="uni0312" unicode="&#x312;" horiz-adv-x="0" 
d="M-350 620v96h89v-96h-89zM-250 786h-19q-21 0 -31 -8t-10 -29v-33h-40v30q0 35 19 52t62 17h19v-29z" />
    <glyph glyph-name="uni0326" unicode="&#x326;" horiz-adv-x="0" 
d="M-250 -95v-96h-89v96h89zM-350 -261h19q21 0 31 8t10 29v33h40v-30q0 -35 -19 -52t-62 -17h-19v29z" />
    <glyph glyph-name="uni0327" unicode="&#x327;" horiz-adv-x="0" 
d="M-404 -176q53 -22 97 -22q34 0 53.5 14.5t22.5 39.5q2 16 -7 28t-25 16q-13 4 -30 0.5t-32 -12.5l-27 13l22 105h36l-19 -91l2 -1q12 9 28.5 13t30.5 2q27 -5 42 -25t14 -50q-2 -35 -32 -59.5t-83 -24.5q-22 0 -47.5 5t-45.5 15v34z" />
    <glyph glyph-name="uni0328" unicode="&#x328;" horiz-adv-x="0" 
d="M-295 -230q-38 0 -69.5 19t-31.5 65q0 36 25.5 66.5t61.5 50.5t66 26v3h39q-56 -20 -106.5 -56.5t-50.5 -88.5q0 -28 19 -41t46 -14q17 -1 36 3.5t33 12.5l11 -18q-18 -15 -39 -21.5t-40 -6.5z" />
    <glyph glyph-name="uni0E3F" unicode="&#xe3f;" 
d="M298 -80h-40v373l40 -1v-372zM90 700h221q59 0 101 -23.5t63 -63.5t21 -89q0 -51 -27 -94t-73 -58v-4q58 -16 93.5 -65t35.5 -111q0 -84 -52.5 -138t-161.5 -54h-221v700zM311 35q81 0 127.5 44.5t46.5 112.5q0 43 -21 78.5t-59 56.5t-89 21h-186v-313h181zM316 383
q38 0 70 19t51 51.5t19 70.5q0 60 -41.5 100.5t-108.5 40.5h-176v-282h186zM258 780h40v-418l-40 1v417z" />
    <glyph glyph-name="Wgrave" unicode="&#x1e80;" 
d="M90 700l65 -672h1l118 462h51l118 -462h1l65 672h40l-68 -700h-71l-109 430h-2l-110 -430h-71l-68 700h40zM317 806l-17 -18l-124 117l25 25z" />
    <glyph glyph-name="wgrave" unicode="&#x1e81;" 
d="M71 520l101 -487h2l101 487h51l101 -487h2l101 487h41l-109 -520h-68l-92 446h-2l-93 -446h-68l-109 520h41zM317 616l-17 -18l-124 117l25 25z" />
    <glyph glyph-name="Wacute" unicode="&#x1e82;" 
d="M90 700l65 -672h1l118 462h51l118 -462h1l65 672h40l-68 -700h-71l-109 430h-2l-110 -430h-71l-68 700h40zM424 905l-124 -117l-17 18l116 124z" />
    <glyph glyph-name="wacute" unicode="&#x1e83;" 
d="M71 520l101 -487h2l101 487h51l101 -487h2l101 487h41l-109 -520h-68l-92 446h-2l-93 -446h-68l-109 520h41zM424 715l-124 -117l-17 18l116 124z" />
    <glyph glyph-name="Wdieresis" unicode="&#x1e84;" 
d="M90 700l65 -672h1l118 462h51l118 -462h1l65 672h40l-68 -700h-71l-109 430h-2l-110 -430h-71l-68 700h40zM213 790q-24 0 -36 12t-12 36q0 47 48 47q47 0 47 -47q0 -48 -47 -48zM388 790q-24 0 -36 12t-12 36q0 47 48 47q47 0 47 -47q0 -48 -47 -48z" />
    <glyph glyph-name="wdieresis" unicode="&#x1e85;" 
d="M71 520l101 -487h2l101 487h51l101 -487h2l101 487h41l-109 -520h-68l-92 446h-2l-93 -446h-68l-109 520h41zM213 600q-24 0 -36 12t-12 36q0 47 48 47q47 0 47 -47q0 -48 -47 -48zM388 600q-24 0 -36 12t-12 36q0 47 48 47q47 0 47 -47q0 -48 -47 -48z" />
    <glyph glyph-name="Ygrave" unicode="&#x1ef2;" 
d="M73 700l247 -371h-40l247 371h48l-255 -383h-40l-255 383h48zM320 319l1 -319h-40l-1 319h40zM525 35v-35h-450v35h450zM317 806l-17 -18l-124 117l25 25z" />
    <glyph glyph-name="ygrave" unicode="&#x1ef3;" 
d="M108 520l201 -477l182 477h43l-254 -664q-14 -36 -39 -53.5t-64 -17.5h-92v35h96q43 0 57 39l45 116q5 15 0 26l-218 519h43zM317 616l-17 -18l-124 117l25 25z" />
    <glyph glyph-name="endash" unicode="&#x2013;" 
d="M540 302v-35h-480v35h480z" />
    <glyph glyph-name="emdash" unicode="&#x2014;" 
d="M600 302v-35h-600v35h600z" />
    <glyph glyph-name="quoteleft" unicode="&#x2018;" 
d="M221 473v119h110v-119h-110zM345 680h-24q-25 0 -37.5 -10.5t-12.5 -35.5v-42h-50v38q0 43 23.5 64t76.5 21h24v-35z" />
    <glyph glyph-name="quoteright" unicode="&#x2019;" 
d="M345 700v-119h-110v119h110zM221 493h24q25 0 37.5 10.5t12.5 35.5v42h50v-38q0 -43 -23.5 -64t-76.5 -21h-24v35z" />
    <glyph glyph-name="quotesinglbase" unicode="&#x201a;" 
d="M345 119v-119h-110v119h110zM221 -88h24q25 0 37.5 10.5t12.5 35.5v42h50v-38q0 -43 -23.5 -64t-76.5 -21h-24v35z" />
    <glyph glyph-name="quotedblleft" unicode="&#x201c;" 
d="M153 473v119h110v-119h-110zM277 680h-24q-25 0 -37.5 -10.5t-12.5 -35.5v-42h-50v38q0 43 23.5 64t76.5 21h24v-35zM323 473v119h110v-119h-110zM447 680h-24q-25 0 -37.5 -10.5t-12.5 -35.5v-42h-50v38q0 43 23.5 64t76.5 21h24v-35z" />
    <glyph glyph-name="quotedblright" unicode="&#x201d;" 
d="M447 700v-119h-110v119h110zM323 493h24q25 0 37.5 10.5t12.5 35.5v42h50v-38q0 -43 -23.5 -64t-76.5 -21h-24v35zM277 700v-119h-110v119h110zM153 493h24q25 0 37.5 10.5t12.5 35.5v42h50v-38q0 -43 -23.5 -64t-76.5 -21h-24v35z" />
    <glyph glyph-name="quotedblbase" unicode="&#x201e;" 
d="M447 119v-119h-110v119h110zM323 -88h24q25 0 37.5 10.5t12.5 35.5v42h50v-38q0 -43 -23.5 -64t-76.5 -21h-24v35zM277 119v-119h-110v119h110zM153 -88h24q25 0 37.5 10.5t12.5 35.5v42h50v-38q0 -43 -23.5 -64t-76.5 -21h-24v35z" />
    <glyph glyph-name="dagger" unicode="&#x2020;" 
d="M321 700v-860h-40v860h40zM528 485h-455v35h455v-35z" />
    <glyph glyph-name="daggerdbl" unicode="&#x2021;" 
d="M321 700v-860h-40v860h40zM528 485h-455v35h455v-35zM528 20h-455v35h455v-35z" />
    <glyph glyph-name="bullet" unicode="&#x2022;" 
d="M301 129q-48 0 -89 24t-65 65t-24 89t24 88.5t65 64.5t89 24t88.5 -24t64.5 -64.5t24 -88.5t-24 -89t-64.5 -65t-88.5 -24z" />
    <glyph glyph-name="ellipsis" unicode="&#x2026;" 
d="M545 119v-119h-110v119h110zM165 119v-119h-110v119h110zM355 119v-119h-110v119h110z" />
    <glyph glyph-name="perthousand" unicode="&#x2030;" 
d="M200 588q0 59 27 93.5t73 34.5q47 0 73.5 -34t26.5 -94q0 -59 -26.5 -93t-73.5 -34t-73.5 34t-26.5 93zM234 588q0 -45 17.5 -71t48.5 -26t48.5 26t17.5 71q0 46 -17.5 72t-48.5 26t-48.5 -26t-17.5 -72zM70 112q0 59 27 93.5t73 34.5q47 0 73.5 -34t26.5 -94
q0 -59 -26.5 -93t-73.5 -34t-73.5 34t-26.5 93zM104 112q0 -45 17.5 -71t48.5 -26t48.5 26t17.5 71q0 46 -17.5 72t-48.5 26t-48.5 -26t-17.5 -72zM330 112q0 59 27 93.5t73 34.5q47 0 73.5 -34t26.5 -94q0 -59 -26.5 -93t-73.5 -34t-73.5 34t-26.5 93zM364 112
q0 -45 17.5 -71t48.5 -26t48.5 26t17.5 71q0 46 -17.5 72t-48.5 26t-48.5 -26t-17.5 -72zM530 358v-30h-460v30h460z" />
    <glyph glyph-name="guilsinglleft" unicode="&#x2039;" 
d="M170 274l172 194h43l-163 -193v-2l163 -195h-43z" />
    <glyph glyph-name="guilsinglright" unicode="&#x203a;" 
d="M215 78l163 195v2l-163 193h43l172 -194l-172 -196h-43z" />
    <glyph glyph-name="fraction" unicode="&#x2044;" 
d="M508 700l-372 -700h-45l372 700h45z" />
    <glyph glyph-name="uni2070" unicode="&#x2070;" 
d="M422 603l-220 -220l-25 25l221 220zM162 503q0 105 34.5 158t103.5 54q68 1 103 -53t35 -159q0 -106 -35 -159.5t-103 -53.5t-103 53.5t-35 159.5zM202 485q4 -84 28.5 -122t69.5 -38q45 -1 69.5 37t28.5 123v35q-3 83 -28 121.5t-70 38.5t-70 -38.5t-28 -121.5v-35z" />
    <glyph glyph-name="uni2074" unicode="&#x2074;" 
d="M375 700v-399h-40v399h40zM450 441v-35l-300 -1v35zM367 700l-175 -260h-42l175 260h42z" />
    <glyph glyph-name="uni2075" unicode="&#x2075;" 
d="M177 414h40v-8q0 -37 22 -59t59 -22q41 0 63 25t22 71q0 44 -22.5 68.5t-62.5 24.5q-22 0 -39.5 -9.5t-27.5 -25.5h-41l17 221h204v-35h-198l34 29l-15 -184h2q26 39 73 39q52 0 84 -34.5t32 -93.5q0 -61 -34 -96.5t-91 -34.5q-55 1 -88 32.5t-33 83.5v8z" />
    <glyph glyph-name="uni2076" unicode="&#x2076;" 
d="M174 467q0 129 31.5 188.5t101.5 59.5q44 0 72.5 -24.5t36.5 -70.5h-41q-5 29 -23 44.5t-47 15.5q-88 0 -90 -180h3q14 25 37 38.5t52 13.5q53 1 85.5 -35t32.5 -95t-34 -95.5t-90 -36.5q-62 1 -94.5 45.5t-32.5 131.5zM217 422q0 -44 22.5 -70.5t61.5 -26.5t61.5 25.5
t22.5 71.5q0 47 -22 71t-62 24q-39 0 -61.5 -26t-22.5 -69z" />
    <glyph glyph-name="uni2077" unicode="&#x2077;" 
d="M426 700v-38h-252v38h252zM426 662l-149 -361h-43l149 361h43z" />
    <glyph glyph-name="uni2078" unicode="&#x2078;" 
d="M165 409q0 38 22.5 66t63.5 42v2q-34 13 -52.5 37t-18.5 55q0 44 34.5 74t85.5 30t85 -30t34 -74q0 -32 -18 -56t-52 -36v-2q40 -13 62.5 -41.5t22.5 -66.5q0 -50 -38.5 -84.5t-95.5 -34.5q-58 0 -96.5 34.5t-38.5 84.5zM205 411q0 -37 27.5 -61.5t67.5 -24.5
q39 0 66.5 24.5t27.5 61.5q0 40 -25.5 63.5t-68.5 24.5q-44 0 -69.5 -23.5t-25.5 -64.5zM220 606q0 -32 22 -52t58 -20q35 0 57 20t22 52q0 34 -21.5 54t-57.5 20q-37 0 -58.5 -20t-21.5 -54z" />
    <glyph glyph-name="uni2079" unicode="&#x2079;" 
d="M425 538q0 -129 -31.5 -188.5t-99.5 -59.5q-46 0 -74.5 24.5t-36.5 70.5h41q5 -29 23 -44.5t47 -15.5q89 0 90 180h-3q-14 -25 -37 -38.5t-52 -13.5q-53 -1 -85.5 35t-32.5 95t34 95.5t90 36.5q62 -1 94.5 -45.5t32.5 -131.5zM382 583q0 44 -22.5 70.5t-61.5 26.5
t-61.5 -25.5t-22.5 -71.5q0 -47 22 -71t62 -24q39 0 61.5 26t22.5 69z" />
    <glyph glyph-name="uni2080" unicode="&#x2080;" 
d="M422 298l-220 -220l-25 25l221 220zM162 198q0 105 34.5 158t103.5 54q68 1 103 -53t35 -159q0 -106 -35 -159.5t-103 -53.5t-103 53.5t-35 159.5zM202 180q4 -84 28.5 -122t69.5 -38q45 -1 69.5 37t28.5 123v35q-3 83 -28 121.5t-70 38.5t-70 -38.5t-28 -121.5v-35z" />
    <glyph glyph-name="uni2081" unicode="&#x2081;" 
d="M428 35v-35h-257v35h257zM183 317h56q40 0 40 40v42h41v-399h-41v282h-96v35z" />
    <glyph glyph-name="uni2082" unicode="&#x2082;" 
d="M170 297q0 52 33.5 84.5t87.5 32.5q56 0 91 -30.5t35 -82.5q0 -32 -16.5 -59.5t-61.5 -84.5l-28 -35l-70 -84v-3h188v-35h-242v30l94 111l19 23q46 57 61.5 82.5t15.5 53.5q0 40 -25 59.5t-61 19.5q-33 0 -57 -21t-24 -61v-7h-40v7z" />
    <glyph glyph-name="uni2083" unicode="&#x2083;" 
d="M215 104q0 -37 24.5 -61t61.5 -23q37 0 60.5 24t23.5 62q0 39 -23 61t-63 22h-27v34h27q34 0 53 21.5t19 61.5q0 30 -19.5 49.5t-50.5 19.5q-34 0 -54 -21t-20 -57v-12h-40v12q0 50 31 81.5t81 31.5q49 0 80.5 -29.5t31.5 -74.5q0 -38 -17.5 -64.5t-48.5 -33.5v-2
q37 -7 58.5 -35t21.5 -67q0 -50 -36 -84.5t-89 -34.5t-89 34t-36 85v6h40v-6z" />
    <glyph glyph-name="uni2084" unicode="&#x2084;" 
d="M375 399v-399h-40v399h40zM450 140v-35l-300 -1v35zM367 399l-175 -260h-42l175 260h42z" />
    <glyph glyph-name="uni2085" unicode="&#x2085;" 
d="M177 109h40v-8q0 -37 22 -59t59 -22q41 0 63 25t22 71q0 44 -22.5 68.5t-62.5 24.5q-22 0 -39.5 -9.5t-27.5 -25.5h-41l17 221h204v-35h-198l34 29l-15 -184h2q26 39 73 39q52 0 84 -34.5t32 -93.5q0 -61 -34 -96t-91 -35q-55 1 -88 32.5t-33 83.5v8z" />
    <glyph glyph-name="uni2086" unicode="&#x2086;" 
d="M174 162q0 129 31.5 188.5t101.5 59.5q44 0 72.5 -24.5t36.5 -70.5h-41q-5 29 -23 44.5t-47 15.5q-88 0 -90 -180h3q14 25 37 38.5t52 13.5q53 1 85.5 -35t32.5 -95t-34 -95.5t-90 -36.5q-62 1 -94.5 45.5t-32.5 131.5zM217 117q0 -44 22.5 -70.5t61.5 -26.5t61.5 25.5
t22.5 71.5q0 47 -22 71t-62 24q-39 0 -61.5 -26t-22.5 -69z" />
    <glyph glyph-name="uni2087" unicode="&#x2087;" 
d="M426 399v-38h-252v38h252zM426 361l-149 -361h-43l149 361h43z" />
    <glyph glyph-name="uni2088" unicode="&#x2088;" 
d="M165 104q0 38 22.5 66t63.5 42v2q-34 13 -52.5 37t-18.5 55q0 44 34.5 74t85.5 30t85 -30t34 -74q0 -32 -18 -56t-52 -36v-2q40 -13 62.5 -41.5t22.5 -66.5q0 -50 -38.5 -84.5t-95.5 -34.5q-58 0 -96.5 34.5t-38.5 84.5zM205 106q0 -37 27.5 -61.5t67.5 -24.5
q39 0 66.5 24.5t27.5 61.5q0 40 -25.5 63.5t-68.5 24.5q-44 0 -69.5 -23.5t-25.5 -64.5zM220 301q0 -32 22 -52t58 -20q35 0 57 20t22 52q0 34 -21.5 54t-57.5 20q-37 0 -58.5 -20t-21.5 -54z" />
    <glyph glyph-name="uni2089" unicode="&#x2089;" 
d="M425 233q0 -129 -31.5 -188.5t-99.5 -59.5q-46 0 -74.5 24.5t-36.5 70.5h41q5 -29 23 -44.5t47 -15.5q89 0 90 180h-3q-14 -25 -37 -38.5t-52 -13.5q-53 -1 -85.5 35t-32.5 95t34 95.5t90 36.5q62 -1 94.5 -45.5t32.5 -131.5zM382 278q0 44 -22.5 70.5t-61.5 26.5
t-61.5 -25.5t-22.5 -71.5q0 -47 22 -71t62 -24q39 0 61.5 26t22.5 69z" />
    <glyph glyph-name="uni20A9" unicode="&#x20a9;" 
d="M265 405v-35h-245v35h245zM580 405v-35h-245v35h245zM91 700l65 -672h1l118 462h51l118 -462h1l65 672h40l-68 -700h-71l-109 430h-2l-110 -430h-71l-68 700h40z" />
    <glyph glyph-name="Euro" unicode="&#x20ac;" 
d="M368 307v-35h-284v35h284zM368 427v-35h-284v35h284zM68 350q0 176 64 269.5t175 95.5q98 1 155 -67.5t62 -177.5h-40q-4 91 -50 150.5t-127 59.5q-90 0 -143 -77.5t-57 -222.5v-60q5 -139 58.5 -219.5t141.5 -80.5q78 0 125.5 58t51.5 152h40q-5 -112 -63.5 -179
t-153.5 -66q-113 2 -176 97.5t-63 267.5z" />
    <glyph glyph-name="uni20AD" unicode="&#x20ad;" 
d="M49 378h85v322h40v-322h106l192 322h48l-193 -322h173v-35h-173l204 -343h-47l-204 343h-106v-343h-40v343h-85v35z" />
    <glyph glyph-name="uni20B2" unicode="&#x20b2;" 
d="M291 19h35v-99h-35v99zM291 780h35v-700h-35v700zM68 351q0 171 63 266.5t176 97.5q94 1 152.5 -65.5t64.5 -179.5h-40q-5 96 -53 153t-124 57q-91 0 -143.5 -78.5t-56.5 -221.5v-58q4 -143 56.5 -221.5t143.5 -78.5q87 0 132 63t45 185v53h40v-54q0 -135 -58.5 -209
t-158.5 -73q-113 2 -176 97.5t-63 266.5zM524 353v-35h-216v35h216z" />
    <glyph glyph-name="uni20B8" unicode="&#x20b8;" 
d="M320 555v-555h-40v555h40zM563 555v-35h-526v35h526zM563 700v-35h-526v35h526z" />
    <glyph glyph-name="uni20B9" unicode="&#x20b9;" 
d="M277 700q92 0 147 -52t55 -140q0 -50 -25.5 -88t-75.5 -63v-5h51q24 0 37 -13t13 -37v-302h-40v317h-385v35h218q75 0 121 43t46 113q0 69 -46 113t-121 44h-218v35h223zM544 525v-35h-490v35h490zM546 700v-35h-492v35h492z" />
    <glyph glyph-name="uni20BD" unicode="&#x20bd;" 
d="M130 307h-85v35h85v358h223q93 0 147.5 -53t54.5 -144t-54.5 -143.5t-147.5 -52.5h-183v-307h-40v307zM45 222h395v-35h-395v35zM348 342q76 0 121.5 44t45.5 117t-46 117.5t-121 44.5h-178v-323h178z" />
    <glyph glyph-name="uni20BF" unicode="&#x20bf;" 
d="M191 19h35v-99h-35v99zM311 19h35v-99h-35v99zM191 780h35v-99h-35v99zM311 780h35v-99h-35v99zM90 700h221q59 0 101 -23.5t63 -63.5t21 -89q0 -51 -27 -94t-73 -58v-4q58 -16 93.5 -65t35.5 -111q0 -84 -52.5 -138t-161.5 -54h-221v700zM311 35q81 0 127.5 44.5
t46.5 112.5q0 43 -21 78.5t-59 56.5t-89 21h-186v-313h181zM316 383q38 0 70 19t51 51.5t19 70.5q0 60 -41.5 100.5t-108.5 40.5h-176v-282h186z" />
    <glyph glyph-name="uni2116" unicode="&#x2116;" 
d="M390 588q0 59 27 93.5t73 34.5q47 0 73.5 -34t26.5 -94q0 -59 -26.5 -93t-73.5 -34t-73.5 34t-26.5 93zM424 588q0 -45 17.5 -71t48.5 -26t48.5 26t17.5 71q0 46 -17.5 72t-48.5 26t-48.5 -26t-17.5 -72zM10 700h69l210 -659h1v659h40v-700h-69l-210 659h-1v-659h-40v700
zM578 406v-30h-176v30h176z" />
    <glyph glyph-name="trademark" unicode="&#x2122;" 
d="M155 700v-288l-32 -1v289h32zM253 700l-1 -27h-227v27h228zM314 700h43l67 -136h2l66 136h43v-289h-32v250h-1l-60 -124h-35l-60 124h-1v-250h-32v289z" />
    <glyph glyph-name="arrowleft" unicode="&#x2190;" 
d="M25 306l195 195l24 -25l-156 -151l1 -1h481v-35h-480l-1 -1l156 -152l-25 -24z" />
    <glyph glyph-name="arrowup" unicode="&#x2191;" 
d="M282 671l-1 1l-151 -156l-25 24l195 195l194 -195l-24 -25l-152 156l-1 -1v-670h-35v671z" />
    <glyph glyph-name="arrowright" unicode="&#x2192;" 
d="M355 136l156 152l-1 1h-480v35h481l1 1l-156 151l24 25l195 -195l-195 -194z" />
    <glyph glyph-name="arrowdown" unicode="&#x2193;" 
d="M105 170l25 24l151 -156l1 1v696h35v-695l1 -1l152 156l24 -25l-194 -195z" />
    <glyph glyph-name="arrowboth" unicode="&#x2194;" 
d="M215 501l24 -25l-156 -151l1 -1h432l1 1l-156 151l24 25l195 -195l-195 -194l-25 24l156 152l-1 1h-430l-1 -1l156 -152l-25 -24l-195 194z" />
    <glyph glyph-name="arrowupdn" unicode="&#x2195;" 
d="M106 180l25 24l151 -156l1 1v622l-1 1l-151 -156l-25 24l195 195l194 -195l-24 -25l-152 156l-1 -1v-620l1 -1l152 156l24 -25l-194 -195z" />
    <glyph glyph-name="uni2196" unicode="&#x2196;" 
d="M89 642h-1l3 -217h-35l-1 275h276v-34l-218 3v-1l435 -434l-25 -25z" />
    <glyph glyph-name="uni2197" unicode="&#x2197;" 
d="M55 239l435 434v1l-218 -3v34h276l-1 -275h-35l3 217h-1l-434 -433z" />
    <glyph glyph-name="uni2198" unicode="&#x2198;" 
d="M514 58h1l-3 217h35l1 -275h-276v34l218 -3v1l-435 434l25 25z" />
    <glyph glyph-name="uni2199" unicode="&#x2199;" 
d="M545 466l-435 -434v-1l218 3v-34h-276l1 275h35l-3 -217h1l434 433z" />
    <glyph glyph-name="uni21A9" unicode="&#x21a9;" 
d="M215 502l24 -25l-156 -151l1 -1h296q72 0 116 44t44 116t-44 116t-116 44h-55v35h60q56 0 100.5 -25t69.5 -69.5t25 -100.5t-25 -100.5t-69.5 -69.5t-100.5 -25h-300l-1 -1l156 -152l-25 -24l-195 194z" />
    <glyph glyph-name="uni21AA" unicode="&#x21aa;" 
d="M360 137l156 152l-1 1h-300q-56 0 -100.5 25t-69.5 69.5t-25 100.5t25 100.5t69.5 69.5t100.5 25h60v-35h-55q-72 0 -116 -44t-44 -116t44 -116t116 -44h296l1 1l-156 151l24 25l195 -195l-195 -194z" />
    <glyph glyph-name="uni21B0" unicode="&#x21b0;" 
d="M465 488h-356l-1 -1l156 -151l-24 -25l-195 195l195 194l25 -24l-156 -152l1 -1h390v-523h-35v488z" />
    <glyph glyph-name="uni21B1" unicode="&#x21b1;" 
d="M100 523h390l1 1l-156 152l25 24l195 -194l-195 -195l-24 25l156 151l-1 1h-356v-488h-35v523z" />
    <glyph glyph-name="uni21B2" unicode="&#x21b2;" 
d="M500 177h-390l-1 -1l156 -152l-25 -24l-195 194l195 195l24 -25l-156 -151l1 -1h356v488h35v-523z" />
    <glyph glyph-name="uni21B3" unicode="&#x21b3;" 
d="M135 700v-488h356l1 1l-156 151l24 25l195 -195l-195 -194l-25 24l156 152l-1 1h-390v523h35z" />
    <glyph glyph-name="uni21B6" unicode="&#x21b6;" 
d="M17 316l24 25l152 -156l1 1v300q0 56 25 100.5t69.5 69.5t100.5 25t100.5 -25t69.5 -69.5t25 -100.5v-60h-35v60q0 72 -44 116t-116 44t-116 -44t-44 -116v-301l1 -1l151 156l25 -24l-195 -195z" />
    <glyph glyph-name="uni21B7" unicode="&#x21b7;" 
d="M194 316l25 24l151 -156l1 1v301q0 72 -44 116t-116 44t-116 -44t-44 -116v-60h-35v60q0 56 25 100.5t69.5 69.5t100.5 25t100.5 -25t69.5 -69.5t25 -100.5v-300l1 -1l152 156l24 -25l-194 -195z" />
    <glyph glyph-name="uni21C4" unicode="&#x21c4;" 
d="M356 368l156 151l-1 1h-481v35h480l1 1l-156 152l25 24l195 -194l-195 -195zM25 213l195 194l25 -24l-156 -152l1 -1h480v-35h-481l-1 -1l156 -151l-24 -25z" />
    <glyph glyph-name="uni21C6" unicode="&#x21c6;" 
d="M25 537l195 195l24 -25l-156 -151l1 -1h481v-35h-480l-1 -1l156 -152l-25 -24zM355 42l156 152l-1 1h-480v35h481l1 1l-156 151l24 25l195 -195l-195 -194z" />
    <glyph glyph-name="emptyset" unicode="&#x2205;" 
d="M496 432l-367 -368l-25 25l368 368zM575 260q0 -75 -37 -138t-100 -100t-138 -37t-138 37t-100 100t-37 138t37 138t100 100t138 37t138 -37t100 -100t37 -138zM60 260q0 -65 32.5 -120t87.5 -87.5t120 -32.5t120.5 32.5t87.5 87.5t32 120t-32 120t-87.5 87.5
t-120.5 32.5t-120 -32.5t-87.5 -87.5t-32.5 -120z" />
    <glyph glyph-name="product" unicode="&#x220f;" 
d="M135 700v-700h-40v700h40zM505 700v-700h-40v700h40zM495 700v-35h-379v35h379z" />
    <glyph glyph-name="summation" unicode="&#x2211;" 
d="M70 -125l391 392l-391 398v35h460v-35h-410l389 -397v-2l-389 -391h410v-35h-460v35z" />
    <glyph glyph-name="minus" unicode="&#x2212;" 
d="M540 332v-35h-480v35h480z" />
    <glyph glyph-name="radical" unicode="&#x221a;" 
d="M53 357l174 -497l325 840h43l-333 -860h-70l-182 517h43z" />
    <glyph glyph-name="integral" unicode="&#x222b;" 
d="M40 -116h230v766q0 24 13 37t37 13h220v-35h-230v-766q0 -24 -13 -37t-37 -13h-220v35z" />
    <glyph glyph-name="approxequal" unicode="&#x2248;" 
d="M33 349q48 118 138 118q27 0 46 -7.5t65 -33.5q18 -10 28 -16q48 -27 69.5 -35.5t40.5 -7.5q38 2 59 21t46 75l31 -17q-26 -61 -57.5 -87.5t-78.5 -26.5q-29 0 -58.5 11.5t-72.5 38.5q-48 30 -71.5 40t-46.5 10q-33 0 -58 -23t-50 -77zM43 179q48 118 138 118
q27 0 46 -7.5t65 -33.5q18 -10 28 -16q48 -27 69.5 -35.5t40.5 -7.5q38 2 59 21t46 75l31 -17q-26 -61 -57.5 -87.5t-78.5 -26.5q-29 0 -58.5 11.5t-72.5 38.5q-48 30 -71.5 40t-46.5 10q-33 0 -58 -23t-50 -77z" />
    <glyph glyph-name="notequal" unicode="&#x2260;" 
d="M419 520l-197 -436h-40l197 436h40zM540 202v-35h-480v35h480zM540 437v-35h-480v35h480z" />
    <glyph glyph-name="lessequal" unicode="&#x2264;" 
d="M85 342v50l430 170v-44l-386 -149v-4l386 -149v-43zM515 70h-430v35h430v-35z" />
    <glyph glyph-name="greaterequal" unicode="&#x2265;" 
d="M85 216l386 149v4l-386 149v44l430 -170v-50l-430 -169v43zM515 105v-35h-430v35h430z" />
    <glyph glyph-name="lozenge" unicode="&#x25ca;" 
d="M54 351l228 349h36l229 -349l-229 -351h-36zM499 351l-197 301h-3l-197 -301l197 -303h3z" />
    <glyph glyph-name="circle" unicode="&#x25cb;" 
d="M575 260q0 -75 -37 -138t-100 -100t-138 -37t-138 37t-100 100t-37 138t37 138t100 100t138 37t138 -37t100 -100t37 -138zM60 260q0 -65 32.5 -120t87.5 -87.5t120 -32.5t120.5 32.5t87.5 87.5t32 120t-32 120t-87.5 87.5t-120.5 32.5t-120 -32.5t-87.5 -87.5
t-32.5 -120z" />
    <glyph glyph-name="uni25CF" unicode="&#x25cf;" 
d="M575 260q0 -75 -37 -138t-100 -100t-138 -37t-138 37t-100 100t-37 138t37 138t100 100t138 37t138 -37t100 -100t37 -138z" />
    <glyph glyph-name="uni25D0" unicode="&#x25d0;" 
d="M575 260q0 -75 -37 -138t-100 -100t-138 -37t-138 37t-100 100t-37 138t37 138t100 100t138 37t138 -37t100 -100t37 -138zM300 20q65 0 120.5 32.5t87.5 87.5t32 120t-32 120t-87.5 87.5t-120.5 32.5v-480z" />
    <glyph glyph-name="uni25D1" unicode="&#x25d1;" 
d="M25 260q0 75 37 138t100 100t138 37t138 -37t100 -100t37 -138t-37 -138t-100 -100t-138 -37t-138 37t-100 100t-37 138zM300 500q-65 0 -120.5 -32.5t-87.5 -87.5t-32 -120t32 -120t87.5 -87.5t120.5 -32.5v480z" />
    <glyph glyph-name="uni25D2" unicode="&#x25d2;" 
d="M300 535q75 0 138 -37t100 -100t37 -138t-37 -138t-100 -100t-138 -37t-138 37t-100 100t-37 138t37 138t100 100t138 37zM540 260q0 65 -32.5 120.5t-87.5 87.5t-120 32t-120 -32t-87.5 -87.5t-32.5 -120.5h480z" />
    <glyph glyph-name="uni25D3" unicode="&#x25d3;" 
d="M300 -15q-75 0 -138 37t-100 100t-37 138t37 138t100 100t138 37t138 -37t100 -100t37 -138t-37 -138t-100 -100t-138 -37zM60 260q0 -65 32.5 -120.5t87.5 -87.5t120 -32t120 32t87.5 87.5t32.5 120.5h-480z" />
    <glyph glyph-name="uni2734" unicode="&#x2734;" 
d="M486 77l-161 126l-24 -203l-25 203l-162 -125l127 161l-204 25l203 26l-126 160l162 -126l24 202l26 -203l162 125l-127 -159l202 -26l-201 -24z" />
    <glyph glyph-name="uni2736" unicode="&#x2736;" 
d="M525 130l-183 55l-44 -185l-43 185l-183 -55l139 132l-139 131l183 -56l43 186l44 -186l183 56l-139 -131z" />
    <glyph glyph-name="uni2739" unicode="&#x2739;" 
d="M559 191l-134 -3l65 -118l-118 65l-3 -135l-70 115l-69 -115l-3 135l-118 -65l65 118l-134 3l115 69l-115 70l134 2l-65 118l118 -65l3 135l69 -115l70 115l3 -135l118 65l-65 -118l134 -2l-115 -70z" />
    <glyph glyph-name="uni2B0E" unicode="&#x2b0e;" 
d="M397 605v-440l1 -1l152 156l24 -25l-194 -195l-195 195l25 24l151 -156l1 1v406h-315v35h350z" />
    <glyph glyph-name="uni2B0F" unicode="&#x2b0f;" 
d="M47 145h315v406l-1 1l-151 -156l-25 24l195 195l194 -195l-24 -25l-152 156l-1 -1v-440h-350v35z" />
    <glyph glyph-name="uni2B10" unicode="&#x2b10;" 
d="M553 570h-315v-406l1 -1l151 156l25 -24l-195 -195l-194 195l24 25l152 -156l1 1v440h350v-35z" />
    <glyph glyph-name="uni2B11" unicode="&#x2b11;" 
d="M203 110v440l-1 1l-152 -156l-24 25l194 195l195 -195l-25 -24l-151 156l-1 -1v-406h315v-35h-350z" />
    <glyph glyph-name="G.ss01" 
d="M68 350q0 176 64 269.5t175 95.5q98 1 155 -67.5t62 -177.5h-40q-4 91 -50 150.5t-127 59.5q-90 0 -143 -77.5t-57 -222.5v-60q5 -139 58.5 -219.5t141.5 -80.5q86 0 131.5 66.5t45.5 166.5v49h-206v35h196q24 0 37 -13t13 -37v-287h-40v120h-5q-17 -62 -59 -98.5
t-113 -36.5q-75 0 -128.5 43.5t-82 125.5t-28.5 196z" />
    <glyph glyph-name="Gbreve.ss01" 
d="M68 350q0 176 64 269.5t175 95.5q98 1 155 -67.5t62 -177.5h-40q-4 91 -50 150.5t-127 59.5q-90 0 -143 -77.5t-57 -222.5v-60q5 -139 58.5 -219.5t141.5 -80.5q86 0 131.5 66.5t45.5 166.5v49h-206v35h196q24 0 37 -13t13 -37v-287h-40v120h-5q-17 -62 -59 -98.5
t-113 -36.5q-75 0 -128.5 43.5t-82 125.5t-28.5 196zM430 902q0 -50 -34.5 -81.5t-88.5 -31.5q-55 0 -89 31.5t-34 81.5v8h34v-8q0 -37 24.5 -60t64.5 -23t64.5 23t24.5 60v8h34v-8z" />
    <glyph glyph-name="uni0122.ss01" 
d="M68 350q0 176 64 269.5t175 95.5q98 1 155 -67.5t62 -177.5h-40q-4 91 -50 150.5t-127 59.5q-90 0 -143 -77.5t-57 -222.5v-60q5 -139 58.5 -219.5t141.5 -80.5q86 0 131.5 66.5t45.5 166.5v49h-206v35h196q24 0 37 -13t13 -37v-287h-40v120h-5q-17 -62 -59 -98.5
t-113 -36.5q-75 0 -128.5 43.5t-82 125.5t-28.5 196zM347 -95v-96h-89v96h89zM247 -261h19q21 0 31 8t10 29v33h40v-30q0 -35 -19 -52t-62 -17h-19v29z" />
    <glyph glyph-name="Gdotaccent.ss01" 
d="M68 350q0 176 64 269.5t175 95.5q98 1 155 -67.5t62 -177.5h-40q-4 91 -50 150.5t-127 59.5q-90 0 -143 -77.5t-57 -222.5v-60q5 -139 58.5 -219.5t141.5 -80.5q86 0 131.5 66.5t45.5 166.5v49h-206v35h196q24 0 37 -13t13 -37v-287h-40v120h-5q-17 -62 -59 -98.5
t-113 -36.5q-75 0 -128.5 43.5t-82 125.5t-28.5 196zM307 790q-24 0 -36 12t-12 36q0 47 48 47q47 0 47 -47q0 -48 -47 -48z" />
    <glyph glyph-name="Q.ss01" 
d="M68 358q0 176 58.5 266t173.5 91q114 1 173 -89.5t59 -267.5t-58.5 -267.5t-173.5 -90.5t-173.5 90.5t-58.5 267.5zM108 328q0 -95 22 -160.5t65 -99t105 -33.5t105 33.5t65 99t22 160.5v59q0 143 -49.5 218t-142.5 75q-94 0 -143 -75t-49 -218v-59zM543 35v-35h-243v35
h243z" />
    <glyph glyph-name="H.ss02" 
d="M70 700h40v-387h3q15 42 49.5 63.5t101.5 21.5h226v302h40v-700h-40v363h-237q-56 0 -88.5 -17t-46.5 -48q-8 -17 -8 -45v-253h-40v700z" />
    <glyph glyph-name="Hbar.ss02" 
d="M512 555v-35h-417v35h417zM70 700h40v-387h3q15 42 49.5 63.5t101.5 21.5h226v302h40v-700h-40v363h-237q-56 0 -88.5 -17t-46.5 -48q-8 -17 -8 -45v-253h-40v700z" />
    <glyph glyph-name="I.ss02" 
d="M75 35h95q28 0 45 8q31 14 48 46.5t17 88.5v522h40v-511q0 -67 -21.5 -101.5t-63.5 -49.5v-3h290v-35h-450v35zM525 700v-35h-450v35h450z" />
    <glyph glyph-name="Iacute.ss02" 
d="M75 35h95q28 0 45 8q31 14 48 46.5t17 88.5v522h40v-511q0 -67 -21.5 -101.5t-63.5 -49.5v-3h290v-35h-450v35zM525 700v-35h-450v35h450zM424 905l-124 -117l-17 18l116 124z" />
    <glyph glyph-name="Icircumflex.ss02" 
d="M75 35h95q28 0 45 8q31 14 48 46.5t17 88.5v522h40v-511q0 -67 -21.5 -101.5t-63.5 -49.5v-3h290v-35h-450v35zM525 700v-35h-450v35h450zM278 920h43l101 -124l-17 -18l-105 113h-1l-105 -113l-17 18z" />
    <glyph glyph-name="Idieresis.ss02" 
d="M75 35h95q28 0 45 8q31 14 48 46.5t17 88.5v522h40v-511q0 -67 -21.5 -101.5t-63.5 -49.5v-3h290v-35h-450v35zM525 700v-35h-450v35h450zM213 790q-24 0 -36 12t-12 36q0 47 48 47q47 0 47 -47q0 -48 -47 -48zM388 790q-24 0 -36 12t-12 36q0 47 48 47q47 0 47 -47
q0 -48 -47 -48z" />
    <glyph glyph-name="Idotaccent.ss02" 
d="M75 35h95q28 0 45 8q31 14 48 46.5t17 88.5v522h40v-511q0 -67 -21.5 -101.5t-63.5 -49.5v-3h290v-35h-450v35zM525 700v-35h-450v35h450zM300 790q-24 0 -36 12t-12 36q0 47 48 47q47 0 47 -47q0 -48 -47 -48z" />
    <glyph glyph-name="Igrave.ss02" 
d="M75 35h95q28 0 45 8q31 14 48 46.5t17 88.5v522h40v-511q0 -67 -21.5 -101.5t-63.5 -49.5v-3h290v-35h-450v35zM525 700v-35h-450v35h450zM317 806l-17 -18l-124 117l25 25z" />
    <glyph glyph-name="Imacron.ss02" 
d="M75 35h95q28 0 45 8q31 14 48 46.5t17 88.5v522h40v-511q0 -67 -21.5 -101.5t-63.5 -49.5v-3h290v-35h-450v35zM525 700v-35h-450v35h450zM432 850v-35h-265v35h265z" />
    <glyph glyph-name="Iogonek.ss02" 
d="M75 35h95q28 0 45 8q31 14 48 46.5t17 88.5v522h40v-511q0 -67 -21.5 -101.5t-63.5 -49.5v-3h290v-35h-450v35zM525 700v-35h-450v35h450zM434 -230q-38 0 -69.5 19t-31.5 65q0 36 25.5 66.5t61.5 50.5t66 26v3h39q-56 -20 -106.5 -56.5t-50.5 -88.5q0 -28 19 -41t46 -14
q17 -1 36 3.5t33 12.5l11 -18q-18 -15 -39 -21.5t-40 -6.5z" />
    <glyph glyph-name="O.ss02" 
d="M505 476l-6 -7q-22 -23 -57.5 -43.5t-78 -33t-85.5 -12.5q-58 0 -105 14.5t-75.5 48t-28.5 88.5q0 46 26 88t75.5 69t117.5 27q121 1 185 -92t64 -273q0 -181 -59.5 -273t-177.5 -92q-117 0 -177 92t-60 273v23h40v-53q5 -149 53.5 -224.5t143.5 -75.5t143.5 75.5
t53.5 224.5v60q-5 148 -57.5 224t-151.5 76q-46 0 -87.5 -18.5t-66.5 -52.5t-25 -78q0 -62 46.5 -89.5t120.5 -27.5q45 0 90 14t79.5 35t48.5 39z" />
    <glyph glyph-name="Oacute.ss02" 
d="M505 476l-6 -7q-22 -23 -57.5 -43.5t-78 -33t-85.5 -12.5q-58 0 -105 14.5t-75.5 48t-28.5 88.5q0 46 26 88t75.5 69t117.5 27q121 1 185 -92t64 -273q0 -181 -59.5 -273t-177.5 -92q-117 0 -177 92t-60 273v23h40v-53q5 -149 53.5 -224.5t143.5 -75.5t143.5 75.5
t53.5 224.5v60q-5 148 -57.5 224t-151.5 76q-46 0 -87.5 -18.5t-66.5 -52.5t-25 -78q0 -62 46.5 -89.5t120.5 -27.5q45 0 90 14t79.5 35t48.5 39zM414 905l-124 -117l-17 18l116 124z" />
    <glyph glyph-name="Ocircumflex.ss02" 
d="M505 476l-6 -7q-22 -23 -57.5 -43.5t-78 -33t-85.5 -12.5q-58 0 -105 14.5t-75.5 48t-28.5 88.5q0 46 26 88t75.5 69t117.5 27q121 1 185 -92t64 -273q0 -181 -59.5 -273t-177.5 -92q-117 0 -177 92t-60 273v23h40v-53q5 -149 53.5 -224.5t143.5 -75.5t143.5 75.5
t53.5 224.5v60q-5 148 -57.5 224t-151.5 76q-46 0 -87.5 -18.5t-66.5 -52.5t-25 -78q0 -62 46.5 -89.5t120.5 -27.5q45 0 90 14t79.5 35t48.5 39zM268 920h43l101 -124l-17 -18l-105 113h-1l-105 -113l-17 18z" />
    <glyph glyph-name="Odieresis.ss02" 
d="M505 476l-6 -7q-22 -23 -57.5 -43.5t-78 -33t-85.5 -12.5q-58 0 -105 14.5t-75.5 48t-28.5 88.5q0 46 26 88t75.5 69t117.5 27q121 1 185 -92t64 -273q0 -181 -59.5 -273t-177.5 -92q-117 0 -177 92t-60 273v23h40v-53q5 -149 53.5 -224.5t143.5 -75.5t143.5 75.5
t53.5 224.5v60q-5 148 -57.5 224t-151.5 76q-46 0 -87.5 -18.5t-66.5 -52.5t-25 -78q0 -62 46.5 -89.5t120.5 -27.5q45 0 90 14t79.5 35t48.5 39zM203 790q-24 0 -36 12t-12 36q0 47 48 47q47 0 47 -47q0 -48 -47 -48zM378 790q-24 0 -36 12t-12 36q0 47 48 47q47 0 47 -47
q0 -48 -47 -48z" />
    <glyph glyph-name="Ograve.ss02" 
d="M505 476l-6 -7q-22 -23 -57.5 -43.5t-78 -33t-85.5 -12.5q-58 0 -105 14.5t-75.5 48t-28.5 88.5q0 46 26 88t75.5 69t117.5 27q121 1 185 -92t64 -273q0 -181 -59.5 -273t-177.5 -92q-117 0 -177 92t-60 273v23h40v-53q5 -149 53.5 -224.5t143.5 -75.5t143.5 75.5
t53.5 224.5v60q-5 148 -57.5 224t-151.5 76q-46 0 -87.5 -18.5t-66.5 -52.5t-25 -78q0 -62 46.5 -89.5t120.5 -27.5q45 0 90 14t79.5 35t48.5 39zM307 806l-17 -18l-124 117l25 25z" />
    <glyph glyph-name="Ohungarumlaut.ss02" 
d="M505 476l-6 -7q-22 -23 -57.5 -43.5t-78 -33t-85.5 -12.5q-58 0 -105 14.5t-75.5 48t-28.5 88.5q0 46 26 88t75.5 69t117.5 27q121 1 185 -92t64 -273q0 -181 -59.5 -273t-177.5 -92q-117 0 -177 92t-60 273v23h40v-53q5 -149 53.5 -224.5t143.5 -75.5t143.5 75.5
t53.5 224.5v60q-5 148 -57.5 224t-151.5 76q-46 0 -87.5 -18.5t-66.5 -52.5t-25 -78q0 -62 46.5 -89.5t120.5 -27.5q45 0 90 14t79.5 35t48.5 39zM356 905l-124 -117l-17 18l116 124zM465 905l-124 -117l-17 18l116 124z" />
    <glyph glyph-name="Omacron.ss02" 
d="M505 476l-6 -7q-22 -23 -57.5 -43.5t-78 -33t-85.5 -12.5q-58 0 -105 14.5t-75.5 48t-28.5 88.5q0 46 26 88t75.5 69t117.5 27q121 1 185 -92t64 -273q0 -181 -59.5 -273t-177.5 -92q-117 0 -177 92t-60 273v23h40v-53q5 -149 53.5 -224.5t143.5 -75.5t143.5 75.5
t53.5 224.5v60q-5 148 -57.5 224t-151.5 76q-46 0 -87.5 -18.5t-66.5 -52.5t-25 -78q0 -62 46.5 -89.5t120.5 -27.5q45 0 90 14t79.5 35t48.5 39zM422 850v-35h-265v35h265z" />
    <glyph glyph-name="Otilde.ss02" 
d="M505 476l-6 -7q-22 -23 -57.5 -43.5t-78 -33t-85.5 -12.5q-58 0 -105 14.5t-75.5 48t-28.5 88.5q0 46 26 88t75.5 69t117.5 27q121 1 185 -92t64 -273q0 -181 -59.5 -273t-177.5 -92q-117 0 -177 92t-60 273v23h40v-53q5 -149 53.5 -224.5t143.5 -75.5t143.5 75.5
t53.5 224.5v60q-5 148 -57.5 224t-151.5 76q-46 0 -87.5 -18.5t-66.5 -52.5t-25 -78q0 -62 46.5 -89.5t120.5 -27.5q45 0 90 14t79.5 35t48.5 39zM142 819q13 32 33.5 51.5t46.5 19.5q16 0 29 -4.5t42 -21.5q25 -14 37 -19t24 -5q20 0 33.5 12.5t27.5 37.5l23 -14
q-14 -32 -35 -51.5t-49 -19.5q-19 0 -34.5 6t-44.5 23q-23 13 -33 17t-21 4q-17 0 -30 -11t-25 -39z" />
    <glyph glyph-name="T.ss02" 
d="M37 700h526v-35h-149q-104 -60 -174 -126.5t-105.5 -136.5t-35.5 -142q0 -68 28 -122.5t77 -86t110 -31.5q59 0 106.5 24.5t75 67t27.5 94.5v31h40v-31q0 -62 -33 -112.5t-90 -79.5t-126 -29q-73 0 -131 35.5t-91 98t-33 141.5q0 75 39 151t109 141t159 108v5h-329v35z
" />
    <glyph glyph-name="Tbar.ss02" 
d="M365 408v-35h-370v35h370zM37 700h526v-35h-149q-104 -60 -174 -126.5t-105.5 -136.5t-35.5 -142q0 -68 28 -122.5t77 -86t110 -31.5q59 0 106.5 24.5t75 67t27.5 94.5v31h40v-31q0 -62 -33 -112.5t-90 -79.5t-126 -29q-73 0 -131 35.5t-91 98t-33 141.5q0 75 39 151
t109 141t159 108v5h-329v35z" />
    <glyph glyph-name="Tcaron.ss02" 
d="M37 700h526v-35h-149q-104 -60 -174 -126.5t-105.5 -136.5t-35.5 -142q0 -68 28 -122.5t77 -86t110 -31.5q59 0 106.5 24.5t75 67t27.5 94.5v31h40v-31q0 -62 -33 -112.5t-90 -79.5t-126 -29q-73 0 -131 35.5t-91 98t-33 141.5q0 75 39 151t109 141t159 108v5h-329v35z
M194 920l105 -113h1l105 113l17 -18l-101 -124h-43l-101 124z" />
    <glyph glyph-name="uni0162.ss02" 
d="M37 700h526v-35h-149q-104 -60 -174 -126.5t-105.5 -136.5t-35.5 -142q0 -68 28 -122.5t77 -86t110 -31.5q59 0 106.5 24.5t75 67t27.5 94.5v31h40v-31q0 -62 -33 -112.5t-90 -79.5t-126 -29q-73 0 -131 35.5t-91 98t-33 141.5q0 75 39 151t109 141t159 108v5h-329v35z
M224 -182q53 -22 97 -22q34 0 53.5 14.5t22.5 39.5q2 16 -7 28t-25 16q-13 4 -30 0.5t-32 -12.5l-27 13l22 105h36l-19 -91l2 -1q12 9 28.5 13t30.5 2q27 -5 42 -25t14 -50q-2 -35 -32 -59.5t-83 -24.5q-22 0 -47.5 5t-45.5 15v34z" />
    <glyph glyph-name="uni021A.ss02" 
d="M37 700h526v-35h-149q-104 -60 -174 -126.5t-105.5 -136.5t-35.5 -142q0 -68 28 -122.5t77 -86t110 -31.5q59 0 106.5 24.5t75 67t27.5 94.5v31h40v-31q0 -62 -33 -112.5t-90 -79.5t-126 -29q-73 0 -131 35.5t-91 98t-33 141.5q0 75 39 151t109 141t159 108v5h-329v35z
M354 -95v-96h-89v96h89zM254 -261h19q21 0 31 8t10 29v33h40v-30q0 -35 -19 -52t-62 -17h-19v29z" />
    <glyph glyph-name="O.ss04" 
d="M301 303q-48 0 -48 48q0 47 48 47q47 0 47 -47q0 -48 -47 -48zM63 350q0 180 59.5 271.5t177.5 93.5q117 1 177 -91.5t60 -273.5t-59.5 -273t-177.5 -92q-117 0 -177 92t-60 273zM103 321q3 -99 25.5 -165.5t65 -100.5t106.5 -34t106.5 34t65 100.5t25.5 165.5v60
q-5 149 -53.5 224.5t-143.5 75.5t-143.5 -75.5t-53.5 -224.5v-60z" />
    <glyph glyph-name="Oacute.ss04" 
d="M301 303q-48 0 -48 48q0 47 48 47q47 0 47 -47q0 -48 -47 -48zM63 350q0 180 59.5 271.5t177.5 93.5q117 1 177 -91.5t60 -273.5t-59.5 -273t-177.5 -92q-117 0 -177 92t-60 273zM103 321q3 -99 25.5 -165.5t65 -100.5t106.5 -34t106.5 34t65 100.5t25.5 165.5v60
q-5 149 -53.5 224.5t-143.5 75.5t-143.5 -75.5t-53.5 -224.5v-60zM424 905l-124 -117l-17 18l116 124z" />
    <glyph glyph-name="Ocircumflex.ss04" 
d="M301 303q-48 0 -48 48q0 47 48 47q47 0 47 -47q0 -48 -47 -48zM63 350q0 180 59.5 271.5t177.5 93.5q117 1 177 -91.5t60 -273.5t-59.5 -273t-177.5 -92q-117 0 -177 92t-60 273zM103 321q3 -99 25.5 -165.5t65 -100.5t106.5 -34t106.5 34t65 100.5t25.5 165.5v60
q-5 149 -53.5 224.5t-143.5 75.5t-143.5 -75.5t-53.5 -224.5v-60zM278 920h43l101 -124l-17 -18l-105 113h-1l-105 -113l-17 18z" />
    <glyph glyph-name="Odieresis.ss04" 
d="M301 303q-48 0 -48 48q0 47 48 47q47 0 47 -47q0 -48 -47 -48zM63 350q0 180 59.5 271.5t177.5 93.5q117 1 177 -91.5t60 -273.5t-59.5 -273t-177.5 -92q-117 0 -177 92t-60 273zM103 321q3 -99 25.5 -165.5t65 -100.5t106.5 -34t106.5 34t65 100.5t25.5 165.5v60
q-5 149 -53.5 224.5t-143.5 75.5t-143.5 -75.5t-53.5 -224.5v-60zM213 790q-24 0 -36 12t-12 36q0 47 48 47q47 0 47 -47q0 -48 -47 -48zM388 790q-24 0 -36 12t-12 36q0 47 48 47q47 0 47 -47q0 -48 -47 -48z" />
    <glyph glyph-name="Ograve.ss04" 
d="M301 303q-48 0 -48 48q0 47 48 47q47 0 47 -47q0 -48 -47 -48zM63 350q0 180 59.5 271.5t177.5 93.5q117 1 177 -91.5t60 -273.5t-59.5 -273t-177.5 -92q-117 0 -177 92t-60 273zM103 321q3 -99 25.5 -165.5t65 -100.5t106.5 -34t106.5 34t65 100.5t25.5 165.5v60
q-5 149 -53.5 224.5t-143.5 75.5t-143.5 -75.5t-53.5 -224.5v-60zM317 806l-17 -18l-124 117l25 25z" />
    <glyph glyph-name="Ohungarumlaut.ss04" 
d="M301 303q-48 0 -48 48q0 47 48 47q47 0 47 -47q0 -48 -47 -48zM63 350q0 180 59.5 271.5t177.5 93.5q117 1 177 -91.5t60 -273.5t-59.5 -273t-177.5 -92q-117 0 -177 92t-60 273zM103 321q3 -99 25.5 -165.5t65 -100.5t106.5 -34t106.5 34t65 100.5t25.5 165.5v60
q-5 149 -53.5 224.5t-143.5 75.5t-143.5 -75.5t-53.5 -224.5v-60zM366 905l-124 -117l-17 18l116 124zM475 905l-124 -117l-17 18l116 124z" />
    <glyph glyph-name="Omacron.ss04" 
d="M301 303q-48 0 -48 48q0 47 48 47q47 0 47 -47q0 -48 -47 -48zM63 350q0 180 59.5 271.5t177.5 93.5q117 1 177 -91.5t60 -273.5t-59.5 -273t-177.5 -92q-117 0 -177 92t-60 273zM103 321q3 -99 25.5 -165.5t65 -100.5t106.5 -34t106.5 34t65 100.5t25.5 165.5v60
q-5 149 -53.5 224.5t-143.5 75.5t-143.5 -75.5t-53.5 -224.5v-60zM432 850v-35h-265v35h265z" />
    <glyph glyph-name="Otilde.ss04" 
d="M301 303q-48 0 -48 48q0 47 48 47q47 0 47 -47q0 -48 -47 -48zM63 350q0 180 59.5 271.5t177.5 93.5q117 1 177 -91.5t60 -273.5t-59.5 -273t-177.5 -92q-117 0 -177 92t-60 273zM103 321q3 -99 25.5 -165.5t65 -100.5t106.5 -34t106.5 34t65 100.5t25.5 165.5v60
q-5 149 -53.5 224.5t-143.5 75.5t-143.5 -75.5t-53.5 -224.5v-60zM152 819q13 32 33.5 51.5t46.5 19.5q16 0 29 -4.5t42 -21.5q25 -14 37 -19t24 -5q20 0 33.5 12.5t27.5 37.5l23 -14q-14 -32 -35 -51.5t-49 -19.5q-19 0 -34.5 6t-44.5 23q-23 13 -33 17t-21 4
q-17 0 -30 -11t-25 -39z" />
    <glyph glyph-name="Q.ss04" 
d="M63 350q0 180 59.5 271.5t177.5 93.5q117 1 177 -91.5t60 -273.5t-59.5 -273t-177.5 -92q-117 0 -177 92t-60 273zM103 320q3 -99 25.5 -165.5t65 -100.5t106.5 -34t106.5 34t65 100.5t25.5 165.5v60q-5 149 -53.5 224.5t-143.5 75.5t-143.5 -75.5t-53.5 -224.5v-60z
M505 -150v-35h-410v35h410zM320 0v-178h-40v178h40z" />
    <glyph glyph-name="i.loclTRK" 
d="M560 35v-35h-460v35h460zM100 520h210q20 0 30 -10t10 -30v-480h-40v485h-210v35zM310 600q-24 0 -36 12t-12 36q0 47 48 47q47 0 47 -47q0 -48 -47 -48z" />
    <glyph glyph-name="a.ss01" 
d="M495 0h-40v520h40v-520zM485 260q0 -43 -7 -77.5t-23 -69.5h-5q-23 -61 -68 -94.5t-102 -33.5q-67 0 -115 33t-74 95t-26 147t26 147t74 95t115 33q58 0 102.5 -34.5t67.5 -97.5h5q16 -38 23 -71t7 -72zM455 260q0 111 -47 175.5t-128 64.5t-128 -64.5t-47 -175.5
t47 -175.5t128 -64.5t128 64.5t47 175.5z" />
    <glyph glyph-name="aacute.ss01" 
d="M495 0h-40v520h40v-520zM485 260q0 -43 -7 -77.5t-23 -69.5h-5q-23 -61 -68 -94.5t-102 -33.5q-67 0 -115 33t-74 95t-26 147t26 147t74 95t115 33q58 0 102.5 -34.5t67.5 -97.5h5q16 -38 23 -71t7 -72zM455 260q0 111 -47 175.5t-128 64.5t-128 -64.5t-47 -175.5
t47 -175.5t128 -64.5t128 64.5t47 175.5zM404 715l-124 -117l-17 18l116 124z" />
    <glyph glyph-name="abreve.ss01" 
d="M495 0h-40v520h40v-520zM485 260q0 -43 -7 -77.5t-23 -69.5h-5q-23 -61 -68 -94.5t-102 -33.5q-67 0 -115 33t-74 95t-26 147t26 147t74 95t115 33q58 0 102.5 -34.5t67.5 -97.5h5q16 -38 23 -71t7 -72zM455 260q0 111 -47 175.5t-128 64.5t-128 -64.5t-47 -175.5
t47 -175.5t128 -64.5t128 64.5t47 175.5zM403 712q0 -50 -34.5 -81.5t-88.5 -31.5q-55 0 -89 31.5t-34 81.5v8h34v-8q0 -37 24.5 -60t64.5 -23t64.5 23t24.5 60v8h34v-8z" />
    <glyph glyph-name="acircumflex.ss01" 
d="M495 0h-40v520h40v-520zM485 260q0 -43 -7 -77.5t-23 -69.5h-5q-23 -61 -68 -94.5t-102 -33.5q-67 0 -115 33t-74 95t-26 147t26 147t74 95t115 33q58 0 102.5 -34.5t67.5 -97.5h5q16 -38 23 -71t7 -72zM455 260q0 111 -47 175.5t-128 64.5t-128 -64.5t-47 -175.5
t47 -175.5t128 -64.5t128 64.5t47 175.5zM258 730h43l101 -124l-17 -18l-105 113h-1l-105 -113l-17 18z" />
    <glyph glyph-name="adieresis.ss01" 
d="M495 0h-40v520h40v-520zM485 260q0 -43 -7 -77.5t-23 -69.5h-5q-23 -61 -68 -94.5t-102 -33.5q-67 0 -115 33t-74 95t-26 147t26 147t74 95t115 33q58 0 102.5 -34.5t67.5 -97.5h5q16 -38 23 -71t7 -72zM455 260q0 111 -47 175.5t-128 64.5t-128 -64.5t-47 -175.5
t47 -175.5t128 -64.5t128 64.5t47 175.5zM193 600q-24 0 -36 12t-12 36q0 47 48 47q47 0 47 -47q0 -48 -47 -48zM368 600q-24 0 -36 12t-12 36q0 47 48 47q47 0 47 -47q0 -48 -47 -48z" />
    <glyph glyph-name="agrave.ss01" 
d="M495 0h-40v520h40v-520zM485 260q0 -43 -7 -77.5t-23 -69.5h-5q-23 -61 -68 -94.5t-102 -33.5q-67 0 -115 33t-74 95t-26 147t26 147t74 95t115 33q58 0 102.5 -34.5t67.5 -97.5h5q16 -38 23 -71t7 -72zM455 260q0 111 -47 175.5t-128 64.5t-128 -64.5t-47 -175.5
t47 -175.5t128 -64.5t128 64.5t47 175.5zM297 616l-17 -18l-124 117l25 25z" />
    <glyph glyph-name="amacron.ss01" 
d="M495 0h-40v520h40v-520zM485 260q0 -43 -7 -77.5t-23 -69.5h-5q-23 -61 -68 -94.5t-102 -33.5q-67 0 -115 33t-74 95t-26 147t26 147t74 95t115 33q58 0 102.5 -34.5t67.5 -97.5h5q16 -38 23 -71t7 -72zM455 260q0 111 -47 175.5t-128 64.5t-128 -64.5t-47 -175.5
t47 -175.5t128 -64.5t128 64.5t47 175.5zM412 660v-35h-265v35h265z" />
    <glyph glyph-name="aogonek.ss01" 
d="M495 0h-40v520h40v-520zM485 260q0 -43 -7 -77.5t-23 -69.5h-5q-23 -61 -68 -94.5t-102 -33.5q-67 0 -115 33t-74 95t-26 147t26 147t74 95t115 33q58 0 102.5 -34.5t67.5 -97.5h5q16 -38 23 -71t7 -72zM455 260q0 111 -47 175.5t-128 64.5t-128 -64.5t-47 -175.5
t47 -175.5t128 -64.5t128 64.5t47 175.5zM404 -230q-38 0 -69.5 19t-31.5 65q0 36 25.5 66.5t61.5 50.5t66 26v3h39q-56 -20 -106.5 -56.5t-50.5 -88.5q0 -28 19 -41t46 -14q17 -1 36 3.5t33 12.5l11 -18q-18 -15 -39 -21.5t-40 -6.5z" />
    <glyph glyph-name="aring.ss01" 
d="M495 0h-40v520h40v-520zM485 260q0 -43 -7 -77.5t-23 -69.5h-5q-23 -61 -68 -94.5t-102 -33.5q-67 0 -115 33t-74 95t-26 147t26 147t74 95t115 33q58 0 102.5 -34.5t67.5 -97.5h5q16 -38 23 -71t7 -72zM455 260q0 111 -47 175.5t-128 64.5t-128 -64.5t-47 -175.5
t47 -175.5t128 -64.5t128 64.5t47 175.5zM280 588q-41 0 -68.5 28t-27.5 68t28 68t68 28t68 -28t28 -68t-28 -68t-68 -28zM280 618q27 0 46.5 19t19.5 47q0 27 -19.5 46.5t-46.5 19.5q-28 0 -47 -19.5t-19 -46.5q0 -28 19 -47t47 -19z" />
    <glyph glyph-name="atilde.ss01" 
d="M495 0h-40v520h40v-520zM485 260q0 -43 -7 -77.5t-23 -69.5h-5q-23 -61 -68 -94.5t-102 -33.5q-67 0 -115 33t-74 95t-26 147t26 147t74 95t115 33q58 0 102.5 -34.5t67.5 -97.5h5q16 -38 23 -71t7 -72zM455 260q0 111 -47 175.5t-128 64.5t-128 -64.5t-47 -175.5
t47 -175.5t128 -64.5t128 64.5t47 175.5zM132 629q13 32 33.5 51.5t46.5 19.5q16 0 29 -4.5t42 -21.5q25 -14 37 -19t24 -5q20 0 33.5 12.5t27.5 37.5l23 -14q-14 -32 -35 -51.5t-49 -19.5q-19 0 -34.5 6t-44.5 23q-23 13 -33 17t-21 4q-17 0 -30 -11t-25 -39z" />
    <glyph glyph-name="g.ss01" 
d="M485 260q0 -43 -7 -77.5t-23 -69.5h-5q-23 -61 -68 -94.5t-102 -33.5q-67 0 -115 33t-74 95t-26 147t26 147t74 95t115 33q58 0 102.5 -34.5t67.5 -97.5h5q16 -38 23 -71t7 -72zM455 260q0 111 -47 175.5t-128 64.5t-128 -64.5t-47 -175.5t47 -175.5t128 -64.5t128 64.5
t47 175.5zM127 -74q9 -56 52.5 -88.5t107.5 -32.5q80 0 123.5 50t44.5 141v524h40v-524q-1 -106 -56 -166t-152 -60q-54 0 -97 19t-69.5 54t-33.5 83h40z" />
    <glyph glyph-name="gbreve.ss01" 
d="M485 260q0 -43 -7 -77.5t-23 -69.5h-5q-23 -61 -68 -94.5t-102 -33.5q-67 0 -115 33t-74 95t-26 147t26 147t74 95t115 33q58 0 102.5 -34.5t67.5 -97.5h5q16 -38 23 -71t7 -72zM455 260q0 111 -47 175.5t-128 64.5t-128 -64.5t-47 -175.5t47 -175.5t128 -64.5t128 64.5
t47 175.5zM127 -74q9 -56 52.5 -88.5t107.5 -32.5q80 0 123.5 50t44.5 141v524h40v-524q-1 -106 -56 -166t-152 -60q-54 0 -97 19t-69.5 54t-33.5 83h40zM403 712q0 -50 -34.5 -81.5t-88.5 -31.5q-55 0 -89 31.5t-34 81.5v8h34v-8q0 -37 24.5 -60t64.5 -23t64.5 23t24.5 60
v8h34v-8z" />
    <glyph glyph-name="uni0123.ss01" 
d="M485 260q0 -43 -7 -77.5t-23 -69.5h-5q-23 -61 -68 -94.5t-102 -33.5q-67 0 -115 33t-74 95t-26 147t26 147t74 95t115 33q58 0 102.5 -34.5t67.5 -97.5h5q16 -38 23 -71t7 -72zM455 260q0 111 -47 175.5t-128 64.5t-128 -64.5t-47 -175.5t47 -175.5t128 -64.5t128 64.5
t47 175.5zM127 -74q9 -56 52.5 -88.5t107.5 -32.5q80 0 123.5 50t44.5 141v524h40v-524q-1 -106 -56 -166t-152 -60q-54 0 -97 19t-69.5 54t-33.5 83h40zM240 590v96h89v-96h-89zM340 756h-19q-21 0 -31 -8t-10 -29v-33h-40v30q0 35 19 52t62 17h19v-29z" />
    <glyph glyph-name="gdotaccent.ss01" 
d="M485 260q0 -43 -7 -77.5t-23 -69.5h-5q-23 -61 -68 -94.5t-102 -33.5q-67 0 -115 33t-74 95t-26 147t26 147t74 95t115 33q58 0 102.5 -34.5t67.5 -97.5h5q16 -38 23 -71t7 -72zM455 260q0 111 -47 175.5t-128 64.5t-128 -64.5t-47 -175.5t47 -175.5t128 -64.5t128 64.5
t47 175.5zM127 -74q9 -56 52.5 -88.5t107.5 -32.5q80 0 123.5 50t44.5 141v524h40v-524q-1 -106 -56 -166t-152 -60q-54 0 -97 19t-69.5 54t-33.5 83h40zM280 600q-24 0 -36 12t-12 36q0 47 48 47q47 0 47 -47q0 -48 -47 -48z" />
    <glyph glyph-name="f.ss02" 
d="M30 520h140q40 0 40 40v140h40v-180h270v-35h-270v-461q0 -71 29 -102.5t69 -31.5q43 0 75 31.5t45 85.5t4 120q-12 89 -57.5 161.5t-98 120t-94.5 71.5h28q49 -22 104 -67t100.5 -117.5t57.5 -167.5q10 -73 -8.5 -136t-60 -100t-95.5 -37q-59 0 -98.5 42.5t-39.5 126.5
v461h-180v35z" />
    <glyph glyph-name="k.ss02" 
d="M129 735v-735h-40v735h40zM251 252q60 -2 111.5 17t82.5 52.5t31 73.5q0 43 -36 71.5t-89 28.5q-55 0 -106.5 -35t-83.5 -91.5t-32 -116.5h-14q0 24 3.5 49.5t10.5 51.5h5q25 84 82 130.5t134 46.5q73 0 119.5 -38t46.5 -97q0 -50 -33.5 -90t-94 -62t-137.5 -22v31z
M372 244l158 -244h-48l-158 244h48z" />
    <glyph glyph-name="uni0137.ss02" 
d="M129 735v-735h-40v735h40zM251 252q60 -2 111.5 17t82.5 52.5t31 73.5q0 43 -36 71.5t-89 28.5q-55 0 -106.5 -35t-83.5 -91.5t-32 -116.5h-14q0 24 3.5 49.5t10.5 51.5h5q25 84 82 130.5t134 46.5q73 0 119.5 -38t46.5 -97q0 -50 -33.5 -90t-94 -62t-137.5 -22v31z
M372 244l158 -244h-48l-158 244h48zM340 -95v-96h-89v96h89zM240 -261h19q21 0 31 8t10 29v33h40v-30q0 -35 -19 -52t-62 -17h-19v29z" />
    <glyph glyph-name="o.ss02" 
d="M482 340q-42 -61 -132.5 -85.5t-165.5 5t-80 109.5q-3 42 16.5 80t62.5 62t106 24q105 0 165.5 -73t60.5 -202q0 -85 -25.5 -147t-74 -95t-115.5 -33q-66 0 -114.5 32t-74.5 94t-26 149v5h40v-5q0 -110 47.5 -175t127.5 -65t127.5 65t47.5 175q0 109 -50 174.5t-136 65.5
q-44 0 -78 -17t-52 -46.5t-16 -63.5q5 -62 68 -83t142.5 2.5t128.5 80.5v-33z" />
    <glyph glyph-name="oacute.ss02" 
d="M482 340q-42 -61 -132.5 -85.5t-165.5 5t-80 109.5q-3 42 16.5 80t62.5 62t106 24q105 0 165.5 -73t60.5 -202q0 -85 -25.5 -147t-74 -95t-115.5 -33q-66 0 -114.5 32t-74.5 94t-26 149v5h40v-5q0 -110 47.5 -175t127.5 -65t127.5 65t47.5 175q0 109 -50 174.5t-136 65.5
q-44 0 -78 -17t-52 -46.5t-16 -63.5q5 -62 68 -83t142.5 2.5t128.5 80.5v-33zM413 715l-124 -117l-17 18l116 124z" />
    <glyph glyph-name="ocircumflex.ss02" 
d="M482 340q-42 -61 -132.5 -85.5t-165.5 5t-80 109.5q-3 42 16.5 80t62.5 62t106 24q105 0 165.5 -73t60.5 -202q0 -85 -25.5 -147t-74 -95t-115.5 -33q-66 0 -114.5 32t-74.5 94t-26 149v5h40v-5q0 -110 47.5 -175t127.5 -65t127.5 65t47.5 175q0 109 -50 174.5t-136 65.5
q-44 0 -78 -17t-52 -46.5t-16 -63.5q5 -62 68 -83t142.5 2.5t128.5 80.5v-33zM267 730h43l101 -124l-17 -18l-105 113h-1l-105 -113l-17 18z" />
    <glyph glyph-name="odieresis.ss02" 
d="M482 340q-42 -61 -132.5 -85.5t-165.5 5t-80 109.5q-3 42 16.5 80t62.5 62t106 24q105 0 165.5 -73t60.5 -202q0 -85 -25.5 -147t-74 -95t-115.5 -33q-66 0 -114.5 32t-74.5 94t-26 149v5h40v-5q0 -110 47.5 -175t127.5 -65t127.5 65t47.5 175q0 109 -50 174.5t-136 65.5
q-44 0 -78 -17t-52 -46.5t-16 -63.5q5 -62 68 -83t142.5 2.5t128.5 80.5v-33zM202 600q-24 0 -36 12t-12 36q0 47 48 47q47 0 47 -47q0 -48 -47 -48zM377 600q-24 0 -36 12t-12 36q0 47 48 47q47 0 47 -47q0 -48 -47 -48z" />
    <glyph glyph-name="ograve.ss02" 
d="M482 340q-42 -61 -132.5 -85.5t-165.5 5t-80 109.5q-3 42 16.5 80t62.5 62t106 24q105 0 165.5 -73t60.5 -202q0 -85 -25.5 -147t-74 -95t-115.5 -33q-66 0 -114.5 32t-74.5 94t-26 149v5h40v-5q0 -110 47.5 -175t127.5 -65t127.5 65t47.5 175q0 109 -50 174.5t-136 65.5
q-44 0 -78 -17t-52 -46.5t-16 -63.5q5 -62 68 -83t142.5 2.5t128.5 80.5v-33zM306 616l-17 -18l-124 117l25 25z" />
    <glyph glyph-name="ohungarumlaut.ss02" 
d="M482 340q-42 -61 -132.5 -85.5t-165.5 5t-80 109.5q-3 42 16.5 80t62.5 62t106 24q105 0 165.5 -73t60.5 -202q0 -85 -25.5 -147t-74 -95t-115.5 -33q-66 0 -114.5 32t-74.5 94t-26 149v5h40v-5q0 -110 47.5 -175t127.5 -65t127.5 65t47.5 175q0 109 -50 174.5t-136 65.5
q-44 0 -78 -17t-52 -46.5t-16 -63.5q5 -62 68 -83t142.5 2.5t128.5 80.5v-33zM355 715l-124 -117l-17 18l116 124zM464 715l-124 -117l-17 18l116 124z" />
    <glyph glyph-name="omacron.ss02" 
d="M482 340q-42 -61 -132.5 -85.5t-165.5 5t-80 109.5q-3 42 16.5 80t62.5 62t106 24q105 0 165.5 -73t60.5 -202q0 -85 -25.5 -147t-74 -95t-115.5 -33q-66 0 -114.5 32t-74.5 94t-26 149v5h40v-5q0 -110 47.5 -175t127.5 -65t127.5 65t47.5 175q0 109 -50 174.5t-136 65.5
q-44 0 -78 -17t-52 -46.5t-16 -63.5q5 -62 68 -83t142.5 2.5t128.5 80.5v-33zM421 660v-35h-265v35h265z" />
    <glyph glyph-name="otilde.ss02" 
d="M482 340q-42 -61 -132.5 -85.5t-165.5 5t-80 109.5q-3 42 16.5 80t62.5 62t106 24q105 0 165.5 -73t60.5 -202q0 -85 -25.5 -147t-74 -95t-115.5 -33q-66 0 -114.5 32t-74.5 94t-26 149v5h40v-5q0 -110 47.5 -175t127.5 -65t127.5 65t47.5 175q0 109 -50 174.5t-136 65.5
q-44 0 -78 -17t-52 -46.5t-16 -63.5q5 -62 68 -83t142.5 2.5t128.5 80.5v-33zM141 629q13 32 33.5 51.5t46.5 19.5q16 0 29 -4.5t42 -21.5q25 -14 37 -19t24 -5q20 0 33.5 12.5t27.5 37.5l23 -14q-14 -32 -35 -51.5t-49 -19.5q-19 0 -34.5 6t-44.5 23q-23 13 -33 17t-21 4
q-17 0 -30 -11t-25 -39z" />
    <glyph glyph-name="t.ss02" 
d="M465 485q-76 0 -151 -40.5t-123 -107t-48 -139.5q0 -50 22.5 -91t63 -64t90.5 -23q74 0 118 49.5t44 130.5h39q0 -64 -25 -113t-70.5 -75.5t-105.5 -26.5q-62 0 -111.5 27t-77 75.5t-27.5 110.5q0 57 28 113t80 100.5t120 68.5v5h134zM30 520h140q40 0 40 40v140h40v-180
h270v-35h-490v35z" />
    <glyph glyph-name="tbar.ss02" 
d="M520 328v-35h-490v35h490zM465 485q-76 0 -151 -40.5t-123 -107t-48 -139.5q0 -50 22.5 -91t63 -64t90.5 -23q74 0 118 49.5t44 130.5h39q0 -64 -25 -113t-70.5 -75.5t-105.5 -26.5q-62 0 -111.5 27t-77 75.5t-27.5 110.5q0 57 28 113t80 100.5t120 68.5v5h134zM30 520
h140q40 0 40 40v140h40v-180h270v-35h-490v35z" />
    <glyph glyph-name="tcaron.ss02" 
d="M394 760v-96h-89v96h89zM294 594h19q21 0 31 8t10 29v33h40v-30q0 -35 -19 -52t-62 -17h-19v29zM465 485q-76 0 -151 -40.5t-123 -107t-48 -139.5q0 -50 22.5 -91t63 -64t90.5 -23q74 0 118 49.5t44 130.5h39q0 -64 -25 -113t-70.5 -75.5t-105.5 -26.5q-62 0 -111.5 27
t-77 75.5t-27.5 110.5q0 57 28 113t80 100.5t120 68.5v5h134zM30 520h140q40 0 40 40v140h40v-180h270v-35h-490v35z" />
    <glyph glyph-name="uni0163.ss02" 
d="M465 485q-76 0 -151 -40.5t-123 -107t-48 -139.5q0 -50 22.5 -91t63 -64t90.5 -23q74 0 118 49.5t44 130.5h39q0 -64 -25 -113t-70.5 -75.5t-105.5 -26.5q-62 0 -111.5 27t-77 75.5t-27.5 110.5q0 57 28 113t80 100.5t120 68.5v5h134zM30 520h140q40 0 40 40v140h40v-180
h270v-35h-490v35zM229 -182q53 -22 97 -22q34 0 53.5 14.5t22.5 39.5q2 16 -7 28t-25 16q-13 4 -30 0.5t-32 -12.5l-27 13l22 105h36l-19 -91l2 -1q12 9 28.5 13t30.5 2q27 -5 42 -25t14 -50q-2 -35 -32 -59.5t-83 -24.5q-22 0 -47.5 5t-45.5 15v34z" />
    <glyph glyph-name="uni021B.ss02" 
d="M465 485q-76 0 -151 -40.5t-123 -107t-48 -139.5q0 -50 22.5 -91t63 -64t90.5 -23q74 0 118 49.5t44 130.5h39q0 -64 -25 -113t-70.5 -75.5t-105.5 -26.5q-62 0 -111.5 27t-77 75.5t-27.5 110.5q0 57 28 113t80 100.5t120 68.5v5h134zM30 520h140q40 0 40 40v140h40v-180
h270v-35h-490v35zM359 -95v-96h-89v96h89zM259 -261h19q21 0 31 8t10 29v33h40v-30q0 -35 -19 -52t-62 -17h-19v29z" />
    <glyph glyph-name="u.ss02" 
d="M105 520h40v-340q0 -71 43 -115.5t112 -44.5t112 44.5t43 115.5v340h40v-340q0 -56 -25 -100.5t-69.5 -69.5t-100.5 -25t-100.5 25t-69.5 69.5t-25 100.5v340z" />
    <glyph glyph-name="uacute.ss02" 
d="M105 520h40v-340q0 -71 43 -115.5t112 -44.5t112 44.5t43 115.5v340h40v-340q0 -56 -25 -100.5t-69.5 -69.5t-100.5 -25t-100.5 25t-69.5 69.5t-25 100.5v340zM424 715l-124 -117l-17 18l116 124z" />
    <glyph glyph-name="ucircumflex.ss02" 
d="M105 520h40v-340q0 -71 43 -115.5t112 -44.5t112 44.5t43 115.5v340h40v-340q0 -56 -25 -100.5t-69.5 -69.5t-100.5 -25t-100.5 25t-69.5 69.5t-25 100.5v340zM278 730h43l101 -124l-17 -18l-105 113h-1l-105 -113l-17 18z" />
    <glyph glyph-name="udieresis.ss02" 
d="M105 520h40v-340q0 -71 43 -115.5t112 -44.5t112 44.5t43 115.5v340h40v-340q0 -56 -25 -100.5t-69.5 -69.5t-100.5 -25t-100.5 25t-69.5 69.5t-25 100.5v340zM213 600q-24 0 -36 12t-12 36q0 47 48 47q47 0 47 -47q0 -48 -47 -48zM388 600q-24 0 -36 12t-12 36
q0 47 48 47q47 0 47 -47q0 -48 -47 -48z" />
    <glyph glyph-name="ugrave.ss02" 
d="M105 520h40v-340q0 -71 43 -115.5t112 -44.5t112 44.5t43 115.5v340h40v-340q0 -56 -25 -100.5t-69.5 -69.5t-100.5 -25t-100.5 25t-69.5 69.5t-25 100.5v340zM317 616l-17 -18l-124 117l25 25z" />
    <glyph glyph-name="uhungarumlaut.ss02" 
d="M105 520h40v-340q0 -71 43 -115.5t112 -44.5t112 44.5t43 115.5v340h40v-340q0 -56 -25 -100.5t-69.5 -69.5t-100.5 -25t-100.5 25t-69.5 69.5t-25 100.5v340zM366 715l-124 -117l-17 18l116 124zM475 715l-124 -117l-17 18l116 124z" />
    <glyph glyph-name="umacron.ss02" 
d="M105 520h40v-340q0 -71 43 -115.5t112 -44.5t112 44.5t43 115.5v340h40v-340q0 -56 -25 -100.5t-69.5 -69.5t-100.5 -25t-100.5 25t-69.5 69.5t-25 100.5v340zM432 660v-35h-265v35h265z" />
    <glyph glyph-name="uogonek.ss02" 
d="M105 520h40v-340q0 -71 43 -115.5t112 -44.5t112 44.5t43 115.5v340h40v-340q0 -56 -25 -100.5t-69.5 -69.5t-100.5 -25t-100.5 25t-69.5 69.5t-25 100.5v340zM289 -230q-38 0 -69.5 19t-31.5 65q0 36 25.5 66.5t61.5 50.5t66 26v3h39q-56 -20 -106.5 -56.5t-50.5 -88.5
q0 -28 19 -41t46 -14q17 -1 36 3.5t33 12.5l11 -18q-18 -15 -39 -21.5t-40 -6.5z" />
    <glyph glyph-name="uring.ss02" 
d="M105 520h40v-340q0 -71 43 -115.5t112 -44.5t112 44.5t43 115.5v340h40v-340q0 -56 -25 -100.5t-69.5 -69.5t-100.5 -25t-100.5 25t-69.5 69.5t-25 100.5v340zM300 588q-41 0 -68.5 28t-27.5 68t28 68t68 28t68 -28t28 -68t-28 -68t-68 -28zM300 618q27 0 46.5 19
t19.5 47q0 27 -19.5 46.5t-46.5 19.5q-28 0 -47 -19.5t-19 -46.5q0 -28 19 -47t47 -19z" />
    <glyph glyph-name="i.ss03" 
d="M305 735v-92h-40v92h40zM85 520h180q20 0 30 -10t10 -30v-350q0 -46 24.5 -70.5t70.5 -24.5h115v-35h-110q-68 0 -104 36t-36 104v345h-180v35z" />
    <glyph glyph-name="dotlessi.ss03" 
d="M85 520h180q20 0 30 -10t10 -30v-350q0 -46 24.5 -70.5t70.5 -24.5h115v-35h-110q-68 0 -104 36t-36 104v345h-180v35z" />
    <glyph glyph-name="iacute.ss03" 
d="M85 520h180q20 0 30 -10t10 -30v-350q0 -46 24.5 -70.5t70.5 -24.5h115v-35h-110q-68 0 -104 36t-36 104v345h-180v35zM404 715l-124 -117l-17 18l116 124z" />
    <glyph glyph-name="icircumflex.ss03" 
d="M85 520h180q20 0 30 -10t10 -30v-350q0 -46 24.5 -70.5t70.5 -24.5h115v-35h-110q-68 0 -104 36t-36 104v345h-180v35zM258 730h43l101 -124l-17 -18l-105 113h-1l-105 -113l-17 18z" />
    <glyph glyph-name="idieresis.ss03" 
d="M85 520h180q20 0 30 -10t10 -30v-350q0 -46 24.5 -70.5t70.5 -24.5h115v-35h-110q-68 0 -104 36t-36 104v345h-180v35zM193 600q-24 0 -36 12t-12 36q0 47 48 47q47 0 47 -47q0 -48 -47 -48zM368 600q-24 0 -36 12t-12 36q0 47 48 47q47 0 47 -47q0 -48 -47 -48z" />
    <glyph glyph-name="i.loclTRK.ss03" 
d="M85 520h180q20 0 30 -10t10 -30v-350q0 -46 24.5 -70.5t70.5 -24.5h115v-35h-110q-68 0 -104 36t-36 104v345h-180v35zM280 600q-24 0 -36 12t-12 36q0 47 48 47q47 0 47 -47q0 -48 -47 -48z" />
    <glyph glyph-name="igrave.ss03" 
d="M85 520h180q20 0 30 -10t10 -30v-350q0 -46 24.5 -70.5t70.5 -24.5h115v-35h-110q-68 0 -104 36t-36 104v345h-180v35zM297 616l-17 -18l-124 117l25 25z" />
    <glyph glyph-name="imacron.ss03" 
d="M85 520h180q20 0 30 -10t10 -30v-350q0 -46 24.5 -70.5t70.5 -24.5h115v-35h-110q-68 0 -104 36t-36 104v345h-180v35zM412 660v-35h-265v35h265z" />
    <glyph glyph-name="iogonek.ss03" 
d="M305 735v-92h-40v92h40zM85 520h180q20 0 30 -10t10 -30v-350q0 -46 24.5 -70.5t70.5 -24.5h115v-35h-110q-68 0 -104 36t-36 104v345h-180v35zM424 -230q-38 0 -69.5 19t-31.5 65q0 36 25.5 66.5t61.5 50.5t66 26v3h39q-56 -20 -106.5 -56.5t-50.5 -88.5q0 -28 19 -41
t46 -14q17 -1 36 3.5t33 12.5l11 -18q-18 -15 -39 -21.5t-40 -6.5z" />
    <glyph glyph-name="l.ss03" 
d="M85 735h180q20 0 30 -10t10 -30v-565q0 -46 24.5 -70.5t70.5 -24.5h115v-35h-110q-68 0 -104 36t-36 104v560h-180v35z" />
    <glyph glyph-name="lacute.ss03" 
d="M85 735h180q20 0 30 -10t10 -30v-565q0 -46 24.5 -70.5t70.5 -24.5h115v-35h-110q-68 0 -104 36t-36 104v560h-180v35zM419 905l-124 -117l-17 18l116 124z" />
    <glyph glyph-name="lcaron.ss03" 
d="M85 735h180q20 0 30 -10t10 -30v-565q0 -46 24.5 -70.5t70.5 -24.5h115v-35h-110q-68 0 -104 36t-36 104v560h-180v35zM189 920l105 -113h1l105 113l17 -18l-101 -124h-43l-101 124z" />
    <glyph glyph-name="uni013C.ss03" 
d="M85 735h180q20 0 30 -10t10 -30v-565q0 -46 24.5 -70.5t70.5 -24.5h115v-35h-110q-68 0 -104 36t-36 104v560h-180v35zM340 -95v-96h-89v96h89zM240 -261h19q21 0 31 8t10 29v33h40v-30q0 -35 -19 -52t-62 -17h-19v29z" />
    <glyph glyph-name="lslash.ss03" 
d="M418 465l18 -30l-150 -87v41zM146 267l-18 31l158 91v-41zM85 735h180q20 0 30 -10t10 -30v-565q0 -46 24.5 -70.5t70.5 -24.5h115v-35h-110q-68 0 -104 36t-36 104v560h-180v35z" />
    <glyph glyph-name="g.ss04" 
d="M78 318q0 98 54.5 157.5t145.5 59.5t145.5 -59t54.5 -158q0 -65 -24.5 -114.5t-70 -76t-105.5 -26.5t-105.5 27t-70 76t-24.5 114zM118 318q0 -82 44 -132t116 -50t116 50t44 132t-44 132t-116 50t-116 -50t-44 -132zM375 548q0 24 13.5 37t37.5 13h114v-40h-129v-81h-35
zM160 -230q-49 0 -74.5 25.5t-25.5 74.5v32h40v-37q0 -29 15.5 -44.5t44.5 -15.5h215q47 0 74.5 28t27.5 69q0 42 -27.5 70t-74.5 28h-77q-19 0 -29.5 10.5t-10.5 29.5v76h40v-81h82q61 0 99 -38.5t38 -94.5t-37.5 -94t-99.5 -38h-220z" />
    <glyph glyph-name="gbreve.ss04" 
d="M78 318q0 98 54.5 157.5t145.5 59.5t145.5 -59t54.5 -158q0 -65 -24.5 -114.5t-70 -76t-105.5 -26.5t-105.5 27t-70 76t-24.5 114zM118 318q0 -82 44 -132t116 -50t116 50t44 132t-44 132t-116 50t-116 -50t-44 -132zM375 548q0 24 13.5 37t37.5 13h114v-40h-129v-81h-35
zM160 -230q-49 0 -74.5 25.5t-25.5 74.5v32h40v-37q0 -29 15.5 -44.5t44.5 -15.5h215q47 0 74.5 28t27.5 69q0 42 -27.5 70t-74.5 28h-77q-19 0 -29.5 10.5t-10.5 29.5v76h40v-81h82q61 0 99 -38.5t38 -94.5t-37.5 -94t-99.5 -38h-220zM401 712q0 -50 -34.5 -81.5
t-88.5 -31.5q-55 0 -89 31.5t-34 81.5v8h34v-8q0 -37 24.5 -60t64.5 -23t64.5 23t24.5 60v8h34v-8z" />
    <glyph glyph-name="uni0123.ss04" 
d="M78 318q0 98 54.5 157.5t145.5 59.5t145.5 -59t54.5 -158q0 -65 -24.5 -114.5t-70 -76t-105.5 -26.5t-105.5 27t-70 76t-24.5 114zM118 318q0 -82 44 -132t116 -50t116 50t44 132t-44 132t-116 50t-116 -50t-44 -132zM375 548q0 24 13.5 37t37.5 13h114v-40h-129v-81h-35
zM160 -230q-49 0 -74.5 25.5t-25.5 74.5v32h40v-37q0 -29 15.5 -44.5t44.5 -15.5h215q47 0 74.5 28t27.5 69q0 42 -27.5 70t-74.5 28h-77q-19 0 -29.5 10.5t-10.5 29.5v76h40v-81h82q61 0 99 -38.5t38 -94.5t-37.5 -94t-99.5 -38h-220zM238 590v96h89v-96h-89zM338 756h-19
q-21 0 -31 -8t-10 -29v-33h-40v30q0 35 19 52t62 17h19v-29z" />
    <glyph glyph-name="gdotaccent.ss04" 
d="M78 318q0 98 54.5 157.5t145.5 59.5t145.5 -59t54.5 -158q0 -65 -24.5 -114.5t-70 -76t-105.5 -26.5t-105.5 27t-70 76t-24.5 114zM118 318q0 -82 44 -132t116 -50t116 50t44 132t-44 132t-116 50t-116 -50t-44 -132zM375 548q0 24 13.5 37t37.5 13h114v-40h-129v-81h-35
zM160 -230q-49 0 -74.5 25.5t-25.5 74.5v32h40v-37q0 -29 15.5 -44.5t44.5 -15.5h215q47 0 74.5 28t27.5 69q0 42 -27.5 70t-74.5 28h-77q-19 0 -29.5 10.5t-10.5 29.5v76h40v-81h82q61 0 99 -38.5t38 -94.5t-37.5 -94t-99.5 -38h-220zM278 600q-24 0 -36 12t-12 36
q0 47 48 47q47 0 47 -47q0 -48 -47 -48z" />
    <glyph glyph-name="o.ss04" 
d="M301 213q-48 0 -48 48q0 47 48 47q47 0 47 -47q0 -48 -47 -48zM85 260q0 85 26 147t74 95t115 33t115 -33t74 -95t26 -147q0 -128 -57.5 -201.5t-157.5 -73.5t-157.5 73.5t-57.5 201.5zM125 260q0 -111 47 -175.5t128 -64.5t128 64.5t47 175.5t-47 175.5t-128 64.5
t-128 -64.5t-47 -175.5z" />
    <glyph glyph-name="oacute.ss04" 
d="M301 213q-48 0 -48 48q0 47 48 47q47 0 47 -47q0 -48 -47 -48zM85 260q0 85 26 147t74 95t115 33t115 -33t74 -95t26 -147q0 -128 -57.5 -201.5t-157.5 -73.5t-157.5 73.5t-57.5 201.5zM125 260q0 -111 47 -175.5t128 -64.5t128 64.5t47 175.5t-47 175.5t-128 64.5
t-128 -64.5t-47 -175.5zM424 715l-124 -117l-17 18l116 124z" />
    <glyph glyph-name="ocircumflex.ss04" 
d="M301 213q-48 0 -48 48q0 47 48 47q47 0 47 -47q0 -48 -47 -48zM85 260q0 85 26 147t74 95t115 33t115 -33t74 -95t26 -147q0 -128 -57.5 -201.5t-157.5 -73.5t-157.5 73.5t-57.5 201.5zM125 260q0 -111 47 -175.5t128 -64.5t128 64.5t47 175.5t-47 175.5t-128 64.5
t-128 -64.5t-47 -175.5zM278 730h43l101 -124l-17 -18l-105 113h-1l-105 -113l-17 18z" />
    <glyph glyph-name="odieresis.ss04" 
d="M301 213q-48 0 -48 48q0 47 48 47q47 0 47 -47q0 -48 -47 -48zM85 260q0 85 26 147t74 95t115 33t115 -33t74 -95t26 -147q0 -128 -57.5 -201.5t-157.5 -73.5t-157.5 73.5t-57.5 201.5zM125 260q0 -111 47 -175.5t128 -64.5t128 64.5t47 175.5t-47 175.5t-128 64.5
t-128 -64.5t-47 -175.5zM213 600q-24 0 -36 12t-12 36q0 47 48 47q47 0 47 -47q0 -48 -47 -48zM388 600q-24 0 -36 12t-12 36q0 47 48 47q47 0 47 -47q0 -48 -47 -48z" />
    <glyph glyph-name="ograve.ss04" 
d="M301 213q-48 0 -48 48q0 47 48 47q47 0 47 -47q0 -48 -47 -48zM85 260q0 85 26 147t74 95t115 33t115 -33t74 -95t26 -147q0 -128 -57.5 -201.5t-157.5 -73.5t-157.5 73.5t-57.5 201.5zM125 260q0 -111 47 -175.5t128 -64.5t128 64.5t47 175.5t-47 175.5t-128 64.5
t-128 -64.5t-47 -175.5zM317 616l-17 -18l-124 117l25 25z" />
    <glyph glyph-name="ohungarumlaut.ss04" 
d="M301 213q-48 0 -48 48q0 47 48 47q47 0 47 -47q0 -48 -47 -48zM85 260q0 85 26 147t74 95t115 33t115 -33t74 -95t26 -147q0 -128 -57.5 -201.5t-157.5 -73.5t-157.5 73.5t-57.5 201.5zM125 260q0 -111 47 -175.5t128 -64.5t128 64.5t47 175.5t-47 175.5t-128 64.5
t-128 -64.5t-47 -175.5zM366 715l-124 -117l-17 18l116 124zM475 715l-124 -117l-17 18l116 124z" />
    <glyph glyph-name="omacron.ss04" 
d="M301 213q-48 0 -48 48q0 47 48 47q47 0 47 -47q0 -48 -47 -48zM85 260q0 85 26 147t74 95t115 33t115 -33t74 -95t26 -147q0 -128 -57.5 -201.5t-157.5 -73.5t-157.5 73.5t-57.5 201.5zM125 260q0 -111 47 -175.5t128 -64.5t128 64.5t47 175.5t-47 175.5t-128 64.5
t-128 -64.5t-47 -175.5zM432 660v-35h-265v35h265z" />
    <glyph glyph-name="otilde.ss04" 
d="M301 213q-48 0 -48 48q0 47 48 47q47 0 47 -47q0 -48 -47 -48zM85 260q0 85 26 147t74 95t115 33t115 -33t74 -95t26 -147q0 -128 -57.5 -201.5t-157.5 -73.5t-157.5 73.5t-57.5 201.5zM125 260q0 -111 47 -175.5t128 -64.5t128 64.5t47 175.5t-47 175.5t-128 64.5
t-128 -64.5t-47 -175.5zM152 629q13 32 33.5 51.5t46.5 19.5q16 0 29 -4.5t42 -21.5q25 -14 37 -19t24 -5q20 0 33.5 12.5t27.5 37.5l23 -14q-14 -32 -35 -51.5t-49 -19.5q-19 0 -34.5 6t-44.5 23q-23 13 -33 17t-21 4q-17 0 -30 -11t-25 -39z" />
    <glyph glyph-name="y.ss04" 
d="M180 -230q-49 0 -74.5 25.5t-25.5 74.5v32h40v-37q0 -29 15.5 -44.5t44.5 -15.5h215q47 0 74.5 28t27.5 69q0 42 -27.5 70t-74.5 28h-77q-19 0 -29.5 10.5t-10.5 29.5v46h40v-51h82q61 0 99 -38.5t38 -94.5t-37.5 -94t-99.5 -38h-220zM108 519l208 -427h-37l211 427h45
l-217 -440h-40l-214 440h44z" />
    <glyph glyph-name="yacute.ss04" 
d="M180 -230q-49 0 -74.5 25.5t-25.5 74.5v32h40v-37q0 -29 15.5 -44.5t44.5 -15.5h215q47 0 74.5 28t27.5 69q0 42 -27.5 70t-74.5 28h-77q-19 0 -29.5 10.5t-10.5 29.5v46h40v-51h82q61 0 99 -38.5t38 -94.5t-37.5 -94t-99.5 -38h-220zM108 519l208 -427h-37l211 427h45
l-217 -440h-40l-214 440h44zM424 715l-124 -117l-17 18l116 124z" />
    <glyph glyph-name="ycircumflex.ss04" 
d="M180 -230q-49 0 -74.5 25.5t-25.5 74.5v32h40v-37q0 -29 15.5 -44.5t44.5 -15.5h215q47 0 74.5 28t27.5 69q0 42 -27.5 70t-74.5 28h-77q-19 0 -29.5 10.5t-10.5 29.5v46h40v-51h82q61 0 99 -38.5t38 -94.5t-37.5 -94t-99.5 -38h-220zM108 519l208 -427h-37l211 427h45
l-217 -440h-40l-214 440h44zM278 730h43l101 -124l-17 -18l-105 113h-1l-105 -113l-17 18z" />
    <glyph glyph-name="ydieresis.ss04" 
d="M180 -230q-49 0 -74.5 25.5t-25.5 74.5v32h40v-37q0 -29 15.5 -44.5t44.5 -15.5h215q47 0 74.5 28t27.5 69q0 42 -27.5 70t-74.5 28h-77q-19 0 -29.5 10.5t-10.5 29.5v46h40v-51h82q61 0 99 -38.5t38 -94.5t-37.5 -94t-99.5 -38h-220zM108 519l208 -427h-37l211 427h45
l-217 -440h-40l-214 440h44zM213 600q-24 0 -36 12t-12 36q0 47 48 47q47 0 47 -47q0 -48 -47 -48zM388 600q-24 0 -36 12t-12 36q0 47 48 47q47 0 47 -47q0 -48 -47 -48z" />
    <glyph glyph-name="ygrave.ss04" 
d="M180 -230q-49 0 -74.5 25.5t-25.5 74.5v32h40v-37q0 -29 15.5 -44.5t44.5 -15.5h215q47 0 74.5 28t27.5 69q0 42 -27.5 70t-74.5 28h-77q-19 0 -29.5 10.5t-10.5 29.5v46h40v-51h82q61 0 99 -38.5t38 -94.5t-37.5 -94t-99.5 -38h-220zM108 519l208 -427h-37l211 427h45
l-217 -440h-40l-214 440h44zM317 616l-17 -18l-124 117l25 25z" />
    <glyph glyph-name="zero.ss04" 
d="M525 334h-450l1 34h450zM63 350q0 180 59.5 271.5t177.5 93.5q117 1 177 -91.5t60 -273.5t-59.5 -273t-177.5 -92q-117 0 -177 92t-60 273zM103 321q3 -99 25.5 -165.5t65 -100.5t106.5 -34t106.5 34t65 100.5t25.5 165.5v60q-5 149 -53.5 224.5t-143.5 75.5
t-143.5 -75.5t-53.5 -224.5v-60z" />
    <glyph glyph-name="zero.dnom" 
d="M403 246l-184 -184l-25 24l185 184zM184 163q0 88 29 132.5t86 44.5q57 1 86.5 -44.5t29.5 -132.5q0 -88 -29.5 -133t-86.5 -45t-86 45t-29 133zM224 148q4 -69 23 -98.5t52 -29.5t52.5 29t23.5 99v29q-4 69 -23.5 98.5t-52.5 29.5q-68 0 -75 -128v-29z" />
    <glyph glyph-name="one.dnom" 
d="M418 35v-35h-236v35h236zM193 266h54q16 0 24.5 9t8.5 25v35h41v-335h-41v231h-87v35z" />
    <glyph glyph-name="two.dnom" 
d="M193 244q0 43 28 69.5t72 26.5q46 0 74.5 -25.5t28.5 -67.5q0 -25 -13.5 -48t-49.5 -69q-12 -13 -24 -30l-51 -63v-2h148v-35h-199v30l70 86l17 21q37 46 49.5 66t12.5 43q0 29 -19 44t-43 15q-25 0 -43 -16t-18 -45v-6h-40v6z" />
    <glyph glyph-name="three.dnom" 
d="M235 84q0 -29 18.5 -46.5t48.5 -17.5q28 0 45.5 18.5t16.5 47.5q0 30 -19 48.5t-47 18.5h-22v35h22q23 0 38.5 18.5t15.5 46.5q0 24 -14.5 38t-39.5 14q-24 0 -38.5 -16t-14.5 -43v-10h-40v10q0 43 25.5 68.5t67.5 25.5t68 -24t26 -63q0 -30 -15 -52t-40 -29v-3
q31 -7 49 -30t18 -55q0 -42 -30.5 -71t-74.5 -28q-44 -1 -74 27.5t-30 71.5v5h40v-5z" />
    <glyph glyph-name="four.dnom" 
d="M364 335v-335h-40v335h40zM428 120v-35h-255v34zM352 335l-137 -216h-42l137 216h42z" />
    <glyph glyph-name="five.dnom" 
d="M194 91h40v-7q0 -29 17.5 -46.5t47.5 -17.5q32 0 49 20t17 57q0 36 -17 55.5t-49 19.5q-34 0 -53 -25h-40l14 188h175v-35h-170l35 30l-12 -153l1 -1q10 15 25.5 22.5t34.5 7.5q43 0 69.5 -29.5t26.5 -79.5q0 -52 -29 -82t-78 -30q-46 0 -75 27.5t-29 71.5v7z" />
    <glyph glyph-name="six.dnom" 
d="M195 133q0 106 27 156.5t84 50.5q37 0 60.5 -20.5t30.5 -58.5h-41q-4 21 -17 32.5t-34 11.5q-22 0 -37 -16.5t-23.5 -49.5t-9.5 -81h3q11 21 30 33.5t42 12.5q42 0 68 -30t26 -78q0 -50 -28.5 -81t-74.5 -30q-52 1 -79 38.5t-27 109.5zM237 96q0 -34 19 -55t47 -21
t44.5 20.5t16.5 55.5t-16 54t-47 19q-29 0 -46.5 -20t-17.5 -53z" />
    <glyph glyph-name="seven.dnom" 
d="M405 335v-35h-211v35h211zM405 300l-118 -300h-43l117 300h44z" />
    <glyph glyph-name="eight.dnom" 
d="M187 85q0 32 19 56t53 34v3q-28 11 -43.5 30.5t-15.5 44.5q0 37 28.5 62t71.5 25t71.5 -25t28.5 -62q0 -25 -15.5 -44.5t-43.5 -30.5v-3q34 -10 52.5 -34t18.5 -56q0 -43 -32.5 -71.5t-79.5 -28.5q-48 0 -80.5 29t-32.5 71zM227 87q0 -29 20 -48t53 -19q32 0 52 19t20 48
q0 32 -20 51.5t-52 19.5q-33 0 -53 -19.5t-20 -51.5zM240 253q0 -28 16.5 -44t43.5 -16t43.5 16t16.5 44q0 22 -16.5 37t-43.5 15t-43.5 -15t-16.5 -37z" />
    <glyph glyph-name="nine.dnom" 
d="M404 192q0 -106 -27 -156.5t-84 -50.5q-37 0 -60.5 20.5t-30.5 58.5h41q4 -21 17 -32.5t34 -11.5q22 0 37 16.5t23.5 49.5t9.5 81h-3q-11 -21 -30 -33.5t-42 -12.5q-42 0 -68 30t-26 78q0 50 28.5 81t74.5 30q52 -1 79 -38.5t27 -109.5zM362 229q0 34 -19 55t-47 21
t-44.5 -20.5t-16.5 -55.5t16 -54t47 -19q29 0 46.5 20t17.5 53z" />
    <glyph glyph-name="zero.numr" 
d="M403 621l-184 -184l-25 24l185 184zM184 538q0 88 29 132.5t86 44.5q57 1 86.5 -44.5t29.5 -132.5q0 -88 -29.5 -133t-86.5 -45t-86 45t-29 133zM224 523q4 -69 23 -98.5t52 -29.5t52.5 29t23.5 99v29q-4 69 -23.5 98.5t-52.5 29.5q-68 0 -75 -128v-29z" />
    <glyph glyph-name="one.numr" 
d="M418 400v-35h-236v35h236zM193 631h54q16 0 24.5 9t8.5 25v35h41v-335h-41v231h-87v35z" />
    <glyph glyph-name="two.numr" 
d="M193 619q0 44 27 70t73 26q47 0 75 -25.5t28 -67.5q0 -26 -16.5 -56.5t-66.5 -95.5l-55 -68v-2h148v-35h-199v30l74 91q43 53 59 82.5t16 52.5q0 28 -16.5 43.5t-45.5 15.5q-26 0 -43.5 -17t-17.5 -44v-6h-40v6z" />
    <glyph glyph-name="three.numr" 
d="M235 459q0 -29 18.5 -46.5t48.5 -17.5q28 0 45.5 18.5t16.5 47.5q0 30 -19 48.5t-47 18.5h-22v35h22q23 0 38.5 18.5t15.5 46.5q0 24 -14.5 38t-39.5 14q-24 0 -38.5 -16t-14.5 -43v-10h-40v10q0 43 25.5 68.5t67.5 25.5t68 -24t26 -63q0 -30 -15 -52t-40 -29v-3
q31 -7 49 -30t18 -55q0 -42 -30.5 -71t-74.5 -28q-44 -1 -74 27.5t-30 71.5v5h40v-5z" />
    <glyph glyph-name="four.numr" 
d="M364 700v-335h-40v335h40zM428 485v-35h-255v34zM352 700l-137 -216h-42l137 216h42z" />
    <glyph glyph-name="five.numr" 
d="M194 456h40v-7q0 -29 17.5 -46.5t47.5 -17.5q32 0 49 20t17 57q0 36 -17 55.5t-49 19.5q-34 0 -53 -25h-40l14 188h175v-35h-170l35 30l-12 -153l1 -1q10 15 25.5 22.5t34.5 7.5q43 0 69.5 -29.5t26.5 -79.5q0 -52 -29 -82t-78 -30q-46 0 -75 27.5t-29 71.5v7z" />
    <glyph glyph-name="six.numr" 
d="M195 508q0 106 27 156.5t84 50.5q37 0 60.5 -20.5t30.5 -58.5h-41q-4 21 -17 32.5t-34 11.5q-22 0 -37 -16.5t-23.5 -49.5t-9.5 -81h3q11 21 30 33.5t42 12.5q42 0 68 -30t26 -78q0 -50 -28.5 -81t-74.5 -30q-52 1 -79 38.5t-27 109.5zM237 471q0 -34 19 -55t47 -21
t44.5 20.5t16.5 55.5t-16 54t-47 19q-29 0 -46.5 -20t-17.5 -53z" />
    <glyph glyph-name="seven.numr" 
d="M405 700v-35h-211v35h211zM405 665l-118 -300h-43l117 300h44z" />
    <glyph glyph-name="eight.numr" 
d="M187 460q0 32 19 56t53 34v3q-28 11 -43.5 30.5t-15.5 44.5q0 37 28.5 62t71.5 25t71.5 -25t28.5 -62q0 -25 -15.5 -44.5t-43.5 -30.5v-3q34 -10 52.5 -34t18.5 -56q0 -43 -32.5 -71.5t-79.5 -28.5q-48 0 -80.5 29t-32.5 71zM227 462q0 -29 20 -48t53 -19q32 0 52 19
t20 48q0 32 -20 51.5t-52 19.5q-33 0 -53 -19.5t-20 -51.5zM240 628q0 -28 16.5 -44t43.5 -16t43.5 16t16.5 44q0 22 -16.5 37t-43.5 15t-43.5 -15t-16.5 -37z" />
    <glyph glyph-name="nine.numr" 
d="M404 567q0 -106 -27 -156.5t-84 -50.5q-37 0 -60.5 20.5t-30.5 58.5h41q4 -21 17 -32.5t34 -11.5q22 0 37 16.5t23.5 49.5t9.5 81h-3q-11 -21 -30 -33.5t-42 -12.5q-42 0 -68 30t-26 78q0 50 28.5 81t74.5 30q52 -1 79 -38.5t27 -109.5zM362 604q0 34 -19 55t-47 21
t-44.5 -20.5t-16.5 -55.5t16 -54t47 -19q29 0 46.5 20t17.5 53z" />
    <glyph glyph-name="asterisk.ss01" 
d="M318 735v-455h-36v455h36zM511 609l-404 -234l-18 31l404 234zM511 406l-18 -31l-404 234l18 31z" />
    <glyph glyph-name="Q.ss01.varAlt01" horiz-adv-x="599" 
d="M68 358q0 176 58.5 266t173.5 91q114 1 173 -89.5t59 -267.5t-58.5 -267.5t-173.5 -90.5t-173.5 90.5t-58.5 267.5zM108 328q0 -95 22 -160.5t65 -99t105 -33.5t105 33.5t65 99t22 160.5v59q0 143 -49.5 218t-142.5 75q-94 0 -143 -75t-49 -218v-59zM408 27l4 -6l16 9
q4 2 8 3.5t8 1.5h99v-35h-243v35z" />
    <glyph glyph-name="uni0E3F.varAlt01" 
d="M298 -80h-40v103l40 -1v-102zM90 700h221q59 0 101 -23.5t63 -63.5t21 -89q0 -51 -27 -94t-73 -58v-4q58 -16 93.5 -65t35.5 -111q0 -84 -52.5 -138t-161.5 -54h-221v700zM311 35q81 0 127.5 44.5t46.5 112.5q0 43 -21 78.5t-59 56.5t-89 21h-186v-313h181zM316 383
q38 0 70 19t51 51.5t19 70.5q0 60 -41.5 100.5t-108.5 40.5h-176v-282h186zM258 780h40v-98l-40 1v97z" />
    <glyph glyph-name="cent.varAlt01" 
d="M321 0h-40v99h40v-99zM91 350q0 82 27.5 144.5t78 96.5t117.5 34q80 0 130.5 -49t61.5 -136h-40q-9 69 -49.5 109.5t-102.5 40.5q-54 0 -95.5 -30.5t-64.5 -85t-23 -124.5q0 -71 23 -125.5t64.5 -84.5t95.5 -30q62 0 102 40t50 110h40q-11 -87 -61.5 -136t-130.5 -49
q-67 0 -117.5 34t-78 96.5t-27.5 144.5zM281 700h40v-93h-40v93z" />
    <glyph glyph-name="dollar.varAlt01" 
d="M103 213q0 -88 57 -140.5t152 -52.5q86 0 136 38.5t50 104.5q0 39 -16 64.5t-56.5 50.5t-124.5 62q-86 39 -133 70t-67 63.5t-20 74.5q1 69 55.5 115t144.5 51v66h40v-65q59 -4 106 -29.5t75.5 -70t30.5 -101.5h-40q-4 80 -55.5 123t-134.5 43t-132.5 -36t-49.5 -96
q0 -34 16.5 -60t58.5 -52t120 -59q85 -36 133 -67.5t68.5 -66t20.5 -80.5q0 -79 -59.5 -127.5t-157.5 -50.5v-65h-40v66q-101 8 -159.5 69t-58.5 158h40z" />
    <glyph glyph-name="uni20B2.varAlt01" 
d="M291 -1h35v-79h-35v79zM291 780h35v-80h-35v80zM68 351q0 171 63 266.5t176 97.5q94 1 152.5 -65.5t64.5 -179.5h-40q-5 96 -53 153t-124 57q-91 0 -143.5 -78.5t-56.5 -221.5v-58q4 -143 56.5 -221.5t143.5 -78.5q87 0 132 63t45 185v53h40v-54q0 -135 -58.5 -209
t-158.5 -73q-113 2 -176 97.5t-63 266.5zM524 353v-35h-216v35h216z" />
    <glyph glyph-name="uni20B9.varAlt01" 
d="M277 700q92 0 147 -52t55 -140q0 -50 -25.5 -88t-75.5 -63v-5h51q24 0 37 -13t13 -37v-302h-40v317h-385v35h218q75 0 121 43t46 113q0 69 -46 113t-121 44h-218v35h223zM544 525v-35h-86v35h86zM546 700v-35h-492v35h492z" />
    <glyph glyph-name="uni20A9.varAlt01" 
d="M107 405v-35h-87v35h87zM580 405v-35h-80v35h80zM91 700l65 -672h1l118 462h51l118 -462h1l65 672h40l-68 -700h-71l-109 430h-2l-110 -430h-71l-68 700h40z" />
    <glyph glyph-name="notequal.varAlt01" 
d="M540 202v-35h-480v35h480zM540 437v-35h-480v35h480zM335 422h40l-110 -243h-40z" />
  </font>
</defs>
</svg>
